<svg width="553" height="539" viewBox="0 0 553 539" fill="none" xmlns="http://www.w3.org/2000/svg">
<g id="bg-mail" opacity="0.5">
<path id="Vector" opacity="0.6" d="M531.021 538.357H24.1378C18.4378 538.386 12.9596 536.15 8.90792 532.141C4.85622 528.132 2.56257 522.678 2.53162 516.978L0.761101 213.175C0.745694 210.659 1.22642 208.164 2.17599 205.833C3.12557 203.502 4.52546 201.382 6.29523 199.592C8.065 197.803 10.17 196.38 12.4901 195.405C14.8102 194.43 17.2998 193.922 19.8164 193.909L531.379 191.289C536.457 191.262 541.337 193.252 544.947 196.823C548.557 200.393 550.601 205.251 550.63 210.328L552.4 516.751C552.416 519.574 551.875 522.372 550.809 524.986C549.743 527.599 548.172 529.977 546.186 531.984C544.201 533.99 541.84 535.586 539.238 536.679C536.635 537.773 533.843 538.343 531.021 538.357Z" fill="#0CBC8B"/>
<path id="Vector_2" d="M5.96313 189.22C36.2271 166.99 256.023 5.21752 256.257 5.06152C262.227 1.71403 268.982 0.0214306 275.824 0.158546C282.667 0.295677 289.349 2.25759 295.179 5.84156L545.177 186.256C543.398 188.162 541.248 189.685 538.859 190.731C536.47 191.777 533.893 192.324 531.285 192.34L19.769 194.992C17.199 195 14.6534 194.493 12.2823 193.502C9.91113 192.511 7.76257 191.055 5.96313 189.22Z" fill="#69D3B5"/>
<path id="Vector_3" d="M545.177 197.023C514.913 219.253 295.117 381.025 294.883 381.181C288.914 384.529 282.159 386.221 275.316 386.084C268.473 385.947 261.791 383.985 255.961 380.401L5.96313 199.987C7.74265 198.081 9.89264 196.558 12.2814 195.512C14.6701 194.466 17.2473 193.918 19.855 193.903L531.371 191.251C533.941 191.243 536.487 191.749 538.858 192.741C541.229 193.732 543.378 195.188 545.177 197.023Z" fill="#0CBC8B"/>
</g>
</svg>
