<svg width="90" height="90" viewBox="0 0 90 90" fill="none" xmlns="http://www.w3.org/2000/svg">
<path d="M3.75 44.9924C3.75 55.9326 8.09597 66.4247 15.8318 74.1606C23.5677 81.8965 34.0598 86.2424 45 86.2424C55.9402 86.2424 66.4323 81.8965 74.1682 74.1606C81.904 66.4247 86.25 55.9326 86.25 44.9924C86.25 34.0523 81.904 23.5602 74.1682 15.8243C66.4323 8.0884 55.9402 3.74243 45 3.74243C34.0598 3.74243 23.5677 8.0884 15.8318 15.8243C8.09597 23.5602 3.75 34.0523 3.75 44.9924Z" stroke="black" stroke-width="2" stroke-linecap="round" stroke-linejoin="round"/>
<path d="M3.75 44.9924C3.75 55.9326 8.09597 66.4247 15.8318 74.1606C23.5677 81.8965 34.0598 86.2424 45 86.2424C55.9402 86.2424 66.4323 81.8965 74.1682 74.1606C81.904 66.4247 86.25 55.9326 86.25 44.9924C86.25 34.0523 81.904 23.5602 74.1682 15.8243C66.4323 8.0884 55.9402 3.74243 45 3.74243C34.0598 3.74243 23.5677 8.0884 15.8318 15.8243C8.09597 23.5602 3.75 34.0523 3.75 44.9924Z" stroke="black" stroke-width="2" stroke-linecap="round" stroke-linejoin="round"/>
<path d="M22.5 44.9924H71.25" stroke="black" stroke-width="2" stroke-linecap="round" stroke-linejoin="round"/>
<path d="M22.5 44.9924H71.25" stroke="black" stroke-width="2" stroke-linecap="round" stroke-linejoin="round"/>
<path d="M54.375 28.1174L71.25 44.9924L54.375 61.8674" stroke="black" stroke-width="2" stroke-linecap="round" stroke-linejoin="round"/>
<path d="M54.375 28.1174L71.25 44.9924L54.375 61.8674" stroke="black" stroke-width="2" stroke-linecap="round" stroke-linejoin="round"/>
</svg>
