<?xml version="1.0"?>
<svg width="70" height="70" xmlns="http://www.w3.org/2000/svg" xmlns:svg="http://www.w3.org/2000/svg" preserveAspectRatio="xMidYMid meet" style="vector-effect: non-scaling-stroke;">
 <title style="vector-effect: non-scaling-stroke;">cloud</title>
 <metadata>Created by potrace 1.15, written by Peter Selinger 2001-2017</metadata>

 <g class="layer">
  <title>Layer 1</title>
  <g fill="#000000" id="svg_1" transform="translate(0 855) scale(0.1 -0.1)">
   <path d="m435.497561,8436.416594c-0.956466,-0.042795 -4.228586,-0.342357 -7.299345,-0.556331c-43.947093,-3.551957 -87.088742,-30.427002 -113.819448,-70.782365c-2.114293,-3.252394 -5.336073,-8.601726 -7.097984,-11.93971c-1.761911,-3.337983 -3.473482,-6.034047 -3.825864,-6.034047c-0.302042,0.042795 -4.379607,1.369429 -9.010916,2.910037c-15.051754,5.04977 -23.810968,6.333609 -37.05047,5.477716c-21.495314,-1.412224 -40.574292,-6.975529 -58.747145,-17.117863c-16.1089,-8.944084 -31.009633,-21.95366 -41.279057,-36.033102c-4.731989,-6.504788 -10.118403,-16.390354 -13.088481,-24.136187c-1.510209,-3.894314 -2.768717,-7.360681 -2.768717,-7.745833c0,-0.813099 -0.402723,-0.813099 -6.342879,0.256768c-17.417748,3.081215 -41.631439,-0.299563 -59.45191,-8.387753c-14.195968,-6.419199 -26.579685,-16.26197 -34.785156,-27.688144c-15.655837,-21.739686 -18.978298,-50.840054 -8.859895,-76.516849c9.766021,-24.692518 31.362015,-44.592034 58.445104,-53.878475c12.88712,-4.450644 21.243612,-5.777279 35.38924,-5.777279c9.312958,0 10.923848,0.085589 16.763324,1.155456c7.802749,1.412224 18.072172,4.236671 26.076282,7.189503l5.990497,2.182528l4.379607,-3.423573c15.202775,-11.725736 31.563376,-20.156284 49.383847,-25.377232c11.930654,-3.466367 22.149738,-5.178154 35.791963,-5.948457c29.650444,-1.711786 58.948507,5.263743 87.541805,20.840999l4.178246,2.268117l4.88301,-3.680341c15.253115,-11.468968 34.382434,-18.915239 56.23013,-21.86807c7.702068,-1.027072 24.767434,-1.027072 31.462696,0c23.710287,3.680341 43.896753,13.309139 62.270967,29.528314c5.285733,4.707412 12.685759,12.58163 15.957879,17.032274l1.459869,1.968554l8.608194,-3.509162c15.454476,-6.333609 22.904842,-8.302164 32.620523,-8.644521c28.99602,-1.027072 57.79068,11.85412 76.668297,34.321316c22.55246,26.832251 30.204188,66.203336 19.834083,101.851287c-10.621806,36.546638 -39.215104,63.806835 -75.208428,71.681053c-3.22178,0.727509 -6.39322,1.28384 -7.047644,1.28384c-0.654424,0 -1.308848,0.171179 -1.459869,0.385152c-0.201361,0.213973 -0.755105,2.567679 -1.308848,5.263743c-11.125209,54.306421 -54.568899,97.956973 -109.490181,110.110656c-12.93746,2.867242 -26.529345,4.108287 -35.993324,3.337983z" fill="#ffffff" id="svg_2" stroke="#000000" stroke-width="3"/>
  </g>
 </g>
</svg>