<svg width="50" height="50" viewBox="0 0 50 50" fill="none" xmlns="http://www.w3.org/2000/svg">
<g id="CloudArrowUp">
<path id="Vector" fill-rule="evenodd" clip-rule="evenodd" d="M23.8938 16.0812C24.0389 15.9357 24.2113 15.8203 24.4011 15.7415C24.591 15.6628 24.7945 15.6222 25 15.6222C25.2055 15.6222 25.409 15.6628 25.5989 15.7415C25.7887 15.8203 25.9611 15.9357 26.1063 16.0812L32.3563 22.3312C32.5015 22.4765 32.6168 22.649 32.6954 22.8388C32.774 23.0286 32.8145 23.2321 32.8145 23.4375C32.8145 23.6429 32.774 23.8464 32.6954 24.0362C32.6168 24.226 32.5015 24.3985 32.3563 24.5438C32.211 24.689 32.0385 24.8043 31.8487 24.8829C31.6589 24.9615 31.4554 25.002 31.25 25.002C31.0446 25.002 30.8411 24.9615 30.6513 24.8829C30.4615 24.8043 30.289 24.689 30.1438 24.5438L26.5625 20.9594V32.8125C26.5625 33.2269 26.3979 33.6243 26.1049 33.9174C25.8118 34.2104 25.4144 34.375 25 34.375C24.5856 34.375 24.1882 34.2104 23.8951 33.9174C23.6021 33.6243 23.4375 33.2269 23.4375 32.8125V20.9594L19.8563 24.5438C19.5629 24.8371 19.1649 25.002 18.75 25.002C18.3351 25.002 17.9371 24.8371 17.6438 24.5438C17.3504 24.2504 17.1855 23.8524 17.1855 23.4375C17.1855 23.0226 17.3504 22.6246 17.6438 22.3312L23.8938 16.0812Z" fill="black"/>
<path id="Vector_2" d="M13.7688 10.4438C16.8921 7.75042 20.8758 6.26293 25 6.25C33.4063 6.25 40.3844 12.5 41.1438 20.5594C46.1188 21.2625 50 25.4281 50 30.5406C50 36.1531 45.3188 40.625 39.6469 40.625H11.8156C5.3375 40.625 0 35.5187 0 29.1187C0 23.6094 3.95625 19.0469 9.19375 17.8906C9.64062 15.1937 11.375 12.5063 13.7688 10.4438ZM15.8094 12.8094C13.4437 14.85 12.2062 17.3094 12.2062 19.2344V20.6344L10.8156 20.7875C6.45 21.2656 3.125 24.85 3.125 29.1187C3.125 33.7031 6.96875 37.5 11.8156 37.5H39.6469C43.6875 37.5 46.875 34.3375 46.875 30.5406C46.875 26.7406 43.6875 23.5781 39.6469 23.5781H38.0844V22.0156C38.0875 15.0781 32.275 9.375 25 9.375C21.6246 9.38848 18.3651 10.6045 15.8094 12.8094Z" fill="black"/>
</g>
</svg>
