<svg width="50" height="50" viewBox="0 0 50 50" fill="none" xmlns="http://www.w3.org/2000/svg">
<path id="comment" d="M8.36875 36.4805C8.69312 36.8294 8.94167 37.2507 9.09669 37.7143C9.25172 38.1779 9.3094 38.6725 9.26562 39.1627C9.046 41.4317 8.62961 43.6739 8.02187 45.8601C12.3812 44.7785 15.0438 43.5261 16.2531 42.8697C16.9391 42.4974 17.729 42.4092 18.4719 42.6219C20.6014 43.2303 22.7961 43.5365 25 43.5328C37.4875 43.5328 46.875 34.133 46.875 23.4407C46.875 12.7518 37.4875 3.34867 25 3.34867C12.5125 3.34867 3.125 12.7518 3.125 23.4407C3.125 28.3566 5.05312 32.9175 8.36875 36.4805ZM6.82812 49.557C6.08771 49.7143 5.3449 49.8583 4.6 49.989C3.975 50.0962 3.5 49.3996 3.74688 48.7768C4.02435 48.0756 4.27867 47.3641 4.50938 46.6437L4.51875 46.6102C5.29375 44.1991 5.925 41.4264 6.15625 38.8446C2.32188 34.7257 0 29.3344 0 23.4407C0 10.4947 11.1937 0 25 0C38.8063 0 50 10.4947 50 23.4407C50 36.3867 38.8063 46.8814 25 46.8814C22.5239 46.885 20.0581 46.5405 17.6656 45.8567C16.0406 46.7374 12.5437 48.3415 6.82812 49.557Z" fill="black"/>
</svg>
