<svg width="30" height="30" viewBox="0 0 30 30" fill="none" xmlns="http://www.w3.org/2000/svg">
<path d="M8.75 15.5571C6.95979 15.5571 5.2429 16.2683 3.97703 17.5342C2.71116 18.8 2 20.5169 2 22.3071C2 24.0973 2.71116 25.8142 3.97703 27.0801C5.2429 28.346 6.95979 29.0571 8.75 29.0571H22.25C24.0402 29.0571 25.7571 28.346 27.023 27.0801C28.2888 25.8142 29 24.0973 29 22.3071C29 20.5169 28.2888 18.8 27.023 17.5342C25.7571 16.2683 24.0402 15.5571 22.25 15.5571H8.75Z" fill="black"/>
<path d="M4.33058 2.33057C4.33058 2.33057 4.33058 2.33057 4.33058 2.33057C5.50269 1.15848 7.0924 0.5 8.75 0.5H22.25C23.9076 0.5 25.4973 1.15849 26.6694 2.33057C27.8415 3.50268 28.5 5.0924 28.5 6.75C28.5 8.4076 27.8415 9.99732 26.6694 11.1694C25.4973 12.3415 23.9076 13 22.25 13H8.75C7.0924 13 5.50268 12.3415 4.33058 11.1694C3.15848 9.99732 2.5 8.4076 2.5 6.75C2.5 5.0924 3.15848 3.50269 4.33058 2.33057Z" stroke="black"/>
<circle cx="8.78857" cy="6.78857" r="5.24571" fill="black"/>
<circle cx="22.3657" cy="22.2686" r="5.24571" fill="white"/>
</svg>
