<svg width="30" height="30" viewBox="0 0 30 30" fill="none" xmlns="http://www.w3.org/2000/svg">
<g clip-path="url(#clip0_5_57)">
<path d="M1.95996 10.2749L4.14589 21.8999H25.4775L27.965 10.8749L20.6534 18.5249L14.9248 7.42493L8.81925 18.5249L1.95996 10.2749Z" fill="white" stroke="black"/>
<path d="M4.14761 10.95C4.14761 11.9838 3.30486 12.825 2.26131 12.825C1.21775 12.825 0.375 11.9838 0.375 10.95C0.375 9.9162 1.21775 9.075 2.26131 9.075C3.30486 9.075 4.14761 9.9162 4.14761 10.95Z" fill="white" stroke="black"/>
<path d="M16.8108 7.5C16.8108 8.53376 15.9681 9.375 14.9245 9.375C13.881 9.375 13.0382 8.53376 13.0382 7.5C13.0382 6.46624 13.881 5.625 14.9245 5.625C15.9681 5.625 16.8108 6.46624 16.8108 7.5Z" fill="white" stroke="black"/>
<path d="M29.6251 10.9501C29.6251 11.9838 28.7823 12.8251 27.7388 12.8251C26.6952 12.8251 25.8525 11.9838 25.8525 10.9501C25.8525 9.91631 26.6952 9.07507 27.7388 9.07507C28.7823 9.07507 29.6251 9.91631 29.6251 10.9501Z" fill="white" stroke="black"/>
<path d="M15.0268 15.3084L12.8935 17.4311L15.0268 19.5537L17.1601 17.4311L15.0268 15.3084Z" stroke="black"/>
<path d="M15.0002 23.7C15.3749 23.7 15.6786 23.3978 15.6786 23.025C15.6786 22.6522 15.3749 22.35 15.0002 22.35C14.6255 22.35 14.3218 22.6522 14.3218 23.025C14.3218 23.3978 14.6255 23.7 15.0002 23.7Z" fill="black"/>
<path d="M26.5756 24.2313H3.32556C2.70424 24.2313 2.20056 23.7277 2.20056 23.1063C2.20056 22.485 2.70424 21.9813 3.32556 21.9813H26.5756C27.1969 21.9813 27.7006 22.485 27.7006 23.1063C27.7006 23.7277 27.1969 24.2313 26.5756 24.2313Z" stroke="black"/>
<path d="M8.76308 18.2314L5.95058 14.8564C7.99965 11.769 9.36045 10.7558 12.8881 11.2939L8.76308 18.2314Z" stroke="black"/>
<path d="M20.9506 18.2314L23.7631 14.8564C21.714 11.769 20.3532 10.7558 16.8256 11.2939L20.9506 18.2314Z" stroke="black"/>
</g>
<defs>
<clipPath id="clip0_5_57">
<rect width="30" height="30" fill="white"/>
</clipPath>
</defs>
</svg>
