<svg width="80" height="80" viewBox="0 0 80 80" fill="none" xmlns="http://www.w3.org/2000/svg">
<g id="Crown">
<g id="Group 9">
<path id="Vector 2" d="M5.22656 28.3998L11.0557 59.3998L67.9401 59.3998L74.5733 29.9998L55.0758 50.3998L39.7994 20.7998L23.518 50.3998L5.22656 28.3998Z" fill="white" stroke="black" stroke-width="2"/>
<path id="Ellipse 26" d="M11.0603 30.2C11.0603 32.9567 8.81296 35.2 6.03015 35.2C3.24734 35.2 1 32.9567 1 30.2C1 27.4432 3.24734 25.2 6.03015 25.2C8.81296 25.2 11.0603 27.4432 11.0603 30.2Z" fill="white" stroke="black" stroke-width="2"/>
<path id="Ellipse 27" d="M44.8289 21C44.8289 23.7567 42.5815 26 39.7987 26C37.0159 26 34.7686 23.7567 34.7686 21C34.7686 18.2433 37.0159 16 39.7987 16C42.5815 16 44.8289 18.2433 44.8289 21Z" fill="white" stroke="black" stroke-width="2"/>
<path id="Ellipse 28" d="M79.0002 30.2002C79.0002 32.9569 76.7529 35.2002 73.9701 35.2002C71.1873 35.2002 68.9399 32.9569 68.9399 30.2002C68.9399 27.4435 71.1873 25.2002 73.9701 25.2002C76.7529 25.2002 79.0002 27.4435 79.0002 30.2002Z" fill="white" stroke="black" stroke-width="2"/>
<rect id="Rectangle 77" x="1.41775" width="8.02516" height="8.02516" transform="matrix(0.708877 -0.705332 0.708877 0.705332 33.3776 48.4829)" stroke="black" stroke-width="2"/>
<ellipse id="Ellipse 29" cx="40.0005" cy="62.3999" rx="1.80905" ry="1.8" fill="black"/>
<path id="Vector 3" d="M70.8682 65.6169H8.86816C7.21131 65.6169 5.86816 64.2738 5.86816 62.6169C5.86816 60.9601 7.21131 59.6169 8.86816 59.6169H70.8682C72.525 59.6169 73.8682 60.9601 73.8682 62.6169C73.8682 64.2738 72.525 65.6169 70.8682 65.6169Z" stroke="black" stroke-width="2"/>
<path id="Vector 4" d="M23.3682 49.617L15.8682 40.617C21.3324 32.3841 24.9612 29.6822 34.3682 31.117L23.3682 49.617Z" stroke="black" stroke-width="2"/>
<path id="Vector 5" d="M55.8682 49.617L63.3682 40.617C57.9039 32.3841 54.2751 29.6822 44.8682 31.117L55.8682 49.617Z" stroke="black" stroke-width="2"/>
</g>
</g>
</svg>
