<svg width="25" height="25" viewBox="0 0 25 25" fill="none" xmlns="http://www.w3.org/2000/svg">
<g id="customerCare" clip-path="url(#clip0_496_1224)">
<g id="Group 12">
<path id="Vector" d="M24.021 24.9975H0.978955C0.953305 24.9975 0.927904 24.9924 0.904205 24.9826C0.880505 24.9728 0.858972 24.9584 0.840837 24.9403C0.822702 24.9221 0.80832 24.9006 0.798515 24.8769C0.788709 24.8532 0.783672 24.8278 0.783691 24.8021V22.4589C0.783691 20.7831 1.6519 20.1408 3.25376 19.542C3.53828 19.436 3.90576 19.3258 4.29478 19.2091C5.94448 18.7145 8.20405 18.0367 8.20405 16.6008C8.20405 16.4928 8.29141 16.4055 8.39932 16.4055C8.50723 16.4055 8.59458 16.4928 8.59458 16.6008C8.59458 18.3273 6.17432 19.0532 4.40688 19.5833C4.02417 19.698 3.66279 19.8063 3.39053 19.9082C1.88897 20.4692 1.17427 20.9944 1.17427 22.4589V24.6069H23.8258V22.4589C23.8258 20.9944 23.1111 20.4692 21.6092 19.9082C21.3373 19.8063 20.9757 19.698 20.5932 19.5833C18.8258 19.0532 16.4055 18.3273 16.4055 16.6008C16.4055 16.5751 16.4105 16.5497 16.4203 16.526C16.4301 16.5023 16.4445 16.4808 16.4626 16.4627C16.4808 16.4445 16.5023 16.4302 16.526 16.4204C16.5497 16.4105 16.5751 16.4055 16.6007 16.4055C16.6264 16.4055 16.6518 16.4105 16.6755 16.4203C16.6992 16.4301 16.7207 16.4445 16.7388 16.4627C16.757 16.4808 16.7714 16.5023 16.7812 16.526C16.791 16.5497 16.796 16.5751 16.796 16.6008C16.796 18.0367 19.0554 18.7145 20.7053 19.2091C21.0943 19.3258 21.4619 19.436 21.746 19.542C23.3482 20.1409 24.2163 20.7831 24.2163 22.4589V24.8021C24.2163 24.9101 24.129 24.9975 24.021 24.9975Z" stroke="black" stroke-width="0.5"/>
<path id="Vector_2" d="M12.5 17.5773C9.82515 17.5773 5.95689 13.705 5.51387 9.59248C5.5111 9.56698 5.51337 9.54119 5.52057 9.51658C5.52778 9.49196 5.53976 9.46901 5.55584 9.44903C5.57192 9.42905 5.59179 9.41244 5.6143 9.40015C5.63681 9.38786 5.66152 9.38012 5.68702 9.37739C5.79815 9.36787 5.89068 9.44355 5.90211 9.55054C6.10118 11.3976 7.04683 13.3488 8.49669 14.9034C9.80982 16.3118 11.3438 17.1868 12.5 17.1868C13.7677 17.1868 15.4717 16.141 16.8421 14.5224C16.8757 14.483 16.9235 14.4586 16.9751 14.4543C17.0266 14.45 17.0778 14.4662 17.1175 14.4995C17.157 14.533 17.1816 14.5808 17.1859 14.6324C17.1902 14.684 17.1738 14.7353 17.1404 14.7749C15.6991 16.4773 13.8776 17.5773 12.5 17.5773ZM18.0942 13.2813C18.0599 13.2813 18.0262 13.2723 17.9964 13.2551C17.9667 13.238 17.942 13.2133 17.9249 13.1835C17.9077 13.1538 17.8987 13.12 17.8988 13.0857C17.8989 13.0514 17.908 13.0177 17.9253 12.988C18.7197 11.6194 19.1392 10.1678 19.1392 8.78999C19.1392 8.76434 19.1442 8.73894 19.1541 8.71524C19.1639 8.69154 19.1783 8.67001 19.1964 8.65187C19.2145 8.63374 19.2361 8.61936 19.2598 8.60955C19.2835 8.59974 19.3089 8.59471 19.3345 8.59473C19.3602 8.59471 19.3856 8.59976 19.4093 8.60956C19.433 8.61937 19.4545 8.63376 19.4726 8.65189C19.4907 8.67003 19.5051 8.69156 19.5149 8.71525C19.5247 8.73895 19.5298 8.76435 19.5297 8.78999C19.5297 10.2366 19.0919 11.7559 18.2632 13.184C18.246 13.2136 18.2214 13.2382 18.1917 13.2553C18.1621 13.2723 18.1285 13.2813 18.0942 13.2813Z" stroke="black" stroke-width="0.5"/>
<path id="Vector_3" d="M8.39932 16.9589C8.37368 16.9589 8.34828 16.9539 8.32458 16.944C8.30089 16.9342 8.27936 16.9199 8.26122 16.9017C8.24309 16.8836 8.22871 16.8621 8.2189 16.8384C8.20909 16.8147 8.20405 16.7893 8.20406 16.7636V15.0848C8.20406 14.9768 8.29141 14.8895 8.39932 14.8895C8.50723 14.8895 8.59459 14.9768 8.59459 15.0848V16.7636C8.5946 16.7893 8.58956 16.8147 8.57975 16.8384C8.56994 16.8621 8.55556 16.8836 8.53742 16.9017C8.51929 16.9199 8.49776 16.9342 8.47406 16.944C8.45037 16.9539 8.42497 16.9589 8.39932 16.9589ZM16.6007 16.796C16.575 16.7961 16.5496 16.791 16.526 16.7812C16.5023 16.7714 16.4807 16.757 16.4626 16.7389C16.4445 16.7207 16.4301 16.6992 16.4203 16.6755C16.4105 16.6518 16.4054 16.6264 16.4054 16.6008V15.0852C16.4054 15.0595 16.4105 15.0341 16.4203 15.0104C16.4301 14.9867 16.4445 14.9652 16.4626 14.9471C16.4807 14.9289 16.5023 14.9145 16.526 14.9047C16.5496 14.8949 16.575 14.8899 16.6007 14.8899C16.6263 14.8899 16.6517 14.8949 16.6754 14.9047C16.6991 14.9145 16.7207 14.9289 16.7388 14.947C16.7569 14.9652 16.7713 14.9867 16.7811 15.0104C16.7909 15.0341 16.796 15.0595 16.796 15.0852V16.6008C16.796 16.6264 16.7909 16.6518 16.7811 16.6755C16.7713 16.6992 16.7569 16.7208 16.7388 16.7389C16.7207 16.757 16.6991 16.7714 16.6754 16.7812C16.6517 16.791 16.6263 16.7961 16.6007 16.796ZM9.18018 24.2301C9.15884 24.2301 9.13731 24.2267 9.11592 24.219C9.06702 24.202 9.0269 24.1662 9.00437 24.1196C8.98185 24.0729 8.97877 24.0193 8.99581 23.9704C9.09798 23.6777 9.23655 23.399 9.40826 23.1409C10.0986 22.1027 11.2544 21.4826 12.5 21.4826C12.7773 21.4826 13.0534 21.5131 13.3208 21.5737C13.3714 21.585 13.4154 21.616 13.4431 21.6598C13.4709 21.7035 13.4801 21.7566 13.4688 21.8071C13.4451 21.9124 13.3399 21.9791 13.2354 21.9543C12.994 21.9003 12.7474 21.873 12.5 21.8731C11.3854 21.8731 10.3513 22.428 9.7336 23.3571C9.58001 23.5881 9.45604 23.8374 9.36461 24.0993C9.35123 24.1376 9.32629 24.1707 9.29325 24.1941C9.2602 24.2176 9.22069 24.2301 9.18018 24.2301ZM15.8196 24.2301C15.7791 24.2301 15.7396 24.2176 15.7065 24.1941C15.6735 24.1707 15.6485 24.1376 15.6351 24.0993C15.5439 23.8374 15.4198 23.5882 15.2658 23.3575C15.1095 23.1221 14.9239 22.9075 14.7136 22.7187C14.6944 22.7016 14.6789 22.6809 14.6677 22.6578C14.6566 22.6347 14.6501 22.6096 14.6487 22.584C14.6473 22.5584 14.651 22.5327 14.6595 22.5085C14.668 22.4843 14.6812 22.4621 14.6983 22.443C14.7704 22.3632 14.8944 22.3564 14.9737 22.4281C15.2089 22.6386 15.4165 22.8782 15.5916 23.1409C15.763 23.3992 15.9016 23.6779 16.0042 23.9704C16.0144 23.9999 16.0175 24.0313 16.013 24.0622C16.0086 24.0931 15.9969 24.1224 15.9788 24.1478C15.9608 24.1732 15.9369 24.194 15.9092 24.2083C15.8815 24.2226 15.8508 24.2301 15.8196 24.2301ZM12.1095 24.2164C12.0708 24.2164 12.0331 24.205 12.0009 24.1835C11.9688 24.1621 11.9438 24.1316 11.929 24.0959C11.9142 24.0602 11.9103 24.0209 11.9179 23.983C11.9254 23.9452 11.9441 23.9104 11.9714 23.8831L15.4863 20.3682C15.5044 20.3501 15.5259 20.3357 15.5496 20.3259C15.5733 20.3161 15.5987 20.311 15.6243 20.311C15.65 20.311 15.6754 20.3161 15.699 20.3259C15.7227 20.3357 15.7443 20.3501 15.7624 20.3682C15.7805 20.3863 15.7949 20.4078 15.8047 20.4315C15.8145 20.4552 15.8196 20.4806 15.8196 20.5062C15.8196 20.5319 15.8145 20.5573 15.8047 20.5809C15.7949 20.6046 15.7805 20.6262 15.7624 20.6443L12.2475 24.1592C12.2294 24.1774 12.2079 24.1918 12.1842 24.2016C12.1605 24.2114 12.1351 24.2164 12.1095 24.2164ZM20.1156 8.00884C20.09 8.00885 20.0646 8.00381 20.0409 7.994C20.0172 7.98418 19.9956 7.9698 19.9775 7.95166C19.9594 7.93352 19.945 7.91198 19.9352 7.88828C19.9254 7.86458 19.9203 7.83918 19.9204 7.81353C19.9204 3.72202 16.5916 0.393213 12.5 0.393213C8.40845 0.393213 5.07969 3.72202 5.07969 7.81358C5.07969 7.92153 4.99234 8.00889 4.88438 8.00889C4.85873 8.0089 4.83333 8.00386 4.80963 7.99405C4.78593 7.98423 4.7644 7.96985 4.74626 7.95171C4.72813 7.93357 4.71375 7.91203 4.70394 7.88833C4.69414 7.86463 4.6891 7.83923 4.68912 7.81358C4.68912 3.50669 8.19317 0.00268555 12.5 0.00268555C16.8066 0.00268555 20.3109 3.50674 20.3109 7.81358C20.3109 7.83922 20.3059 7.86462 20.2961 7.88831C20.2862 7.91201 20.2719 7.93354 20.2537 7.95168C20.2356 7.96981 20.2141 7.98419 20.1904 7.994C20.1667 8.00381 20.1413 8.00885 20.1156 8.00884Z" stroke="black" stroke-width="0.5"/>
<path id="Vector_4" d="M4.88438 18.5537C4.85873 18.5537 4.83333 18.5486 4.80963 18.5388C4.78593 18.529 4.7644 18.5146 4.74626 18.4965C4.72813 18.4783 4.71375 18.4568 4.70394 18.4331C4.69414 18.4094 4.6891 18.384 4.68912 18.3584V7.81367C4.6891 7.78803 4.69415 7.76263 4.70395 7.73893C4.71376 7.71524 4.72815 7.69371 4.74628 7.67557C4.76442 7.65744 4.78595 7.64305 4.80964 7.63325C4.83334 7.62344 4.85874 7.6184 4.88438 7.61841C4.99234 7.61841 5.07969 7.70576 5.07969 7.81367V18.3584C5.07969 18.4663 4.99234 18.5537 4.88438 18.5537Z" stroke="black" stroke-width="0.5"/>
<path id="Vector_5" d="M20.1156 18.5537C20.09 18.5537 20.0646 18.5486 20.0409 18.5388C20.0172 18.529 19.9956 18.5146 19.9775 18.4965C19.9594 18.4783 19.945 18.4568 19.9352 18.4331C19.9254 18.4094 19.9203 18.384 19.9203 18.3584V7.81367C19.9203 7.70576 20.0077 7.61841 20.1156 7.61841C20.2236 7.61841 20.3109 7.70576 20.3109 7.81367V18.3584C20.3109 18.4663 20.2236 18.5537 20.1156 18.5537Z" stroke="black" stroke-width="0.5"/>
<path id="Vector_6" d="M4.92386 9.17651L4.84491 8.79399C11.6257 7.39487 17.1881 1.88604 17.2437 1.83057L17.5198 2.1063C17.4638 2.16274 11.8213 7.75317 4.92386 9.17651Z" stroke="black" stroke-width="0.5"/>
<path id="Vector_7" d="M20.0409 8.42275C16.3818 7.08999 13.7167 5.05981 13.6903 5.0394L13.9283 4.72974C13.9543 4.74976 16.5748 6.74443 20.1744 8.05581L20.0409 8.42275Z" stroke="black" stroke-width="0.5"/>
<path id="Vector_8" d="M14.7457 14.8433C14.6982 14.8432 14.6523 14.8259 14.6167 14.7945C14.581 14.7632 14.558 14.7199 14.5519 14.6728C14.5486 14.6473 14.5504 14.6215 14.5572 14.5967C14.5639 14.5719 14.5755 14.5487 14.5913 14.5284C14.607 14.5081 14.6266 14.4911 14.6489 14.4784C14.6712 14.4657 14.6958 14.4575 14.7212 14.4543C14.7574 14.4497 18.3765 13.9718 19.2216 12.3873C19.471 11.9208 19.4505 11.4113 19.1598 10.8299C19.1367 10.7835 19.1329 10.7299 19.1493 10.6808C19.1657 10.6317 19.2009 10.5911 19.2472 10.5679C19.2935 10.5448 19.3471 10.541 19.3962 10.5574C19.4453 10.5738 19.486 10.609 19.5092 10.6552C19.8559 11.3486 19.8749 11.9933 19.5664 12.5715C18.6258 14.3333 14.9271 14.8219 14.77 14.8417C14.7619 14.8428 14.7538 14.8434 14.7457 14.8433Z" stroke="black" stroke-width="0.5"/>
<path id="Vector_9" d="M14.111 15.2339C13.6457 15.2339 13.2811 14.9765 13.2811 14.648C13.2811 14.3197 13.6457 14.0623 14.111 14.0623C14.5763 14.0623 14.9409 14.3197 14.9409 14.648C14.9409 14.9765 14.5763 15.2339 14.111 15.2339ZM14.111 14.4528C13.8387 14.4528 13.6716 14.5791 13.6716 14.648C13.6716 14.7171 13.8387 14.8434 14.111 14.8434C14.3833 14.8434 14.5503 14.7171 14.5503 14.648C14.5503 14.5791 14.3833 14.4528 14.111 14.4528Z" stroke="black" stroke-width="0.5"/>
<path id="Vector_10" d="M12.5 19.9204C8.70937 19.9204 7.73759 17.9394 7.69809 17.8551C7.68719 17.8319 7.68097 17.8068 7.6798 17.7811C7.67863 17.7555 7.68252 17.7299 7.69125 17.7058C7.69998 17.6817 7.71338 17.6595 7.73068 17.6406C7.74798 17.6216 7.76885 17.6063 7.79208 17.5954C7.88915 17.5496 8.00531 17.5916 8.05126 17.6889C8.06098 17.7087 8.97748 19.5298 12.5 19.5298C16.037 19.5298 16.8028 17.7182 16.8097 17.6999C16.8497 17.6 16.9638 17.5508 17.0637 17.5912C17.1117 17.6105 17.1502 17.648 17.1706 17.6955C17.191 17.743 17.1918 17.7967 17.1728 17.8448C17.1385 17.9295 16.2987 19.9204 12.5 19.9204Z" stroke="black" stroke-width="0.5"/>
</g>
</g>
<defs>
<clipPath id="clip0_496_1224">
<rect width="25" height="25" fill="white"/>
</clipPath>
</defs>
</svg>
