<svg width="31" height="31" viewBox="0 0 31 31" fill="none" xmlns="http://www.w3.org/2000/svg">
<g clip-path="url(#clip0_8_135)">
<path d="M18.4286 0.5V4.28571C18.4286 5.2708 18.8199 6.21555 19.5165 6.91211C20.213 7.60868 21.1578 8 22.1429 8H25.9286V27.8571C25.9286 28.2929 25.7555 28.7107 25.4474 29.0188C25.1393 29.3269 24.7214 29.5 24.2857 29.5H7.14286C6.70714 29.5 6.28928 29.3269 5.98118 29.0188C5.67309 28.7107 5.5 28.2929 5.5 27.8571V2.14286C5.5 1.70714 5.67309 1.28928 5.98118 0.981182C6.28928 0.673086 6.70714 0.5 7.14286 0.5H18.4286Z" stroke="black"/>
<line x1="8.51429" y1="12.4429" x2="22.9143" y2="12.4429" stroke="black"/>
<line x1="8.51429" y1="17.2429" x2="22.9143" y2="17.2429" stroke="black"/>
<line x1="8.85714" y1="21.0143" x2="18.4571" y2="21.0143" stroke="black"/>
<path d="M18.9212 0.135924L26.0708 7.53042" stroke="black" stroke-linecap="round"/>
</g>
<defs>
<clipPath id="clip0_8_135">
<rect width="30" height="30" fill="white" transform="translate(0.75 0.25)"/>
</clipPath>
</defs>
</svg>
