<svg width="31" height="44" viewBox="0 0 31 44" fill="none" xmlns="http://www.w3.org/2000/svg">
<path d="M19.75 1.75V7.25C19.75 8.57608 20.2768 9.84785 21.2145 10.7855C22.1521 11.7232 23.4239 12.25 24.75 12.25H30.25V40.25C30.25 40.913 29.9866 41.5489 29.5178 42.0178C29.0489 42.4866 28.413 42.75 27.75 42.75H3.75C3.08696 42.75 2.45107 42.4866 1.98223 42.0178C1.51339 41.5489 1.25 40.913 1.25 40.25V4.25C1.25 3.58696 1.51339 2.95107 1.98223 2.48223C2.45107 2.01339 3.08696 1.75 3.75 1.75H19.75Z" stroke="black"/>
<line x1="5.67" y1="18.87" x2="25.83" y2="18.87" stroke="black"/>
<line x1="5.67" y1="25.59" x2="25.83" y2="25.59" stroke="black"/>
<line x1="6.15" y1="30.87" x2="19.59" y2="30.87" stroke="black"/>
<path d="M20.2397 1.44029L30.2492 11.7926" stroke="black" stroke-linecap="round"/>
</svg>
