<svg width="25" height="25" viewBox="0 0 25 25" fill="none" xmlns="http://www.w3.org/2000/svg">
<g id="documents">
<g id="Group">
<path id="Vector" d="M13.3744 3.45103L12.7955 2.95066V3.71582V6.0498V6.3998H13.1455H15.8457H16.7858L16.0746 5.78501L13.3744 3.45103ZM17.3643 22.8207H17.7143V22.4707V21.3477C17.7143 20.9914 18.0045 20.7016 18.3652 20.7016C18.7249 20.7016 19.0172 20.9908 19.0211 21.3494V23.4668C19.0211 23.823 18.7308 24.1129 18.3701 24.1129H1.51465C1.15396 24.1129 0.863672 23.823 0.863672 23.4668V1.5332C0.863672 1.17697 1.15396 0.887109 1.51465 0.887109H12.1494C12.3041 0.887109 12.4573 0.944393 12.5748 1.04598L12.575 1.04617L18.7957 6.41726L18.7957 6.41728L18.7986 6.41975C18.9381 6.53752 19.0211 6.71729 19.0211 6.9043V14.0137C19.0211 14.3699 18.7308 14.6598 18.3701 14.6598C18.0094 14.6598 17.7191 14.3699 17.7191 14.0137V8.03711V7.68711H17.3691H12.1494C11.7887 7.68711 11.4984 7.39725 11.4984 7.04102V2.5293V2.1793H11.1484H2.51074H2.16074V2.5293V22.4707V22.8207H2.51074H17.3643Z" stroke="black" stroke-width="0.7"/>
<path id="Vector_2" d="M6.0166 10.0619H13.9268C14.2897 10.0619 14.5826 10.354 14.5826 10.708C14.5826 11.0642 14.2923 11.3541 13.9316 11.3541H6.0166C5.65591 11.3541 5.36562 11.0642 5.36562 10.708C5.36562 10.3518 5.65591 10.0619 6.0166 10.0619Z" stroke="black" stroke-width="0.7"/>
<path id="Vector_3" d="M6.0166 14.9691H13.9268C14.2852 14.9691 14.5786 15.262 14.5826 15.6168C14.5818 15.9723 14.2918 16.2613 13.9316 16.2613H6.0166C5.65591 16.2613 5.36562 15.9715 5.36562 15.6152C5.36562 15.259 5.65591 14.9691 6.0166 14.9691Z" stroke="black" stroke-width="0.7"/>
<path id="Vector_4" d="M21.4284 14.9483L21.4286 14.9483C21.7844 14.9165 22.1013 15.1813 22.1328 15.5341C22.1642 15.8858 21.9038 16.2025 21.5407 16.2385C21.0121 16.2857 20.4776 16.5461 19.9812 16.8892C19.4792 17.2363 18.9859 17.6893 18.5362 18.163C17.6375 19.1097 16.8816 20.1724 16.5425 20.7317L16.5423 20.732C16.4011 20.9655 16.2348 21.0604 16.0887 21.076C15.9433 21.0915 15.7373 21.0369 15.4995 20.8043L14.0086 19.1142L14.0086 19.1142L14.0072 19.1127C13.7715 18.8487 13.7947 18.441 14.0656 18.202C14.3358 17.9636 14.7444 17.989 14.9826 18.2589C14.9826 18.2589 14.9826 18.2589 14.9827 18.259L15.6319 18.9961L15.9189 19.322L16.1764 18.9722C16.7203 18.2334 17.5146 17.2648 18.4432 16.4596C19.3787 15.6483 20.4096 15.0387 21.4284 14.9483Z" stroke="black" stroke-width="0.7"/>
</g>
</g>
</svg>
