<svg width="30" height="30" viewBox="0 0 30 30" fill="none" xmlns="http://www.w3.org/2000/svg">
<path d="M12.5239 18.7485V29L17.1819 28.9982V18.7467H20.654L21.313 14.5076H17.1838V11.7557C17.1838 10.5948 17.7609 9.463 19.6096 9.463H21.488V5.85448C21.488 5.85448 19.7846 5.56835 18.1537 5.56835C14.7524 5.56835 12.5277 7.5986 12.5277 11.2745V14.5094H8.74468V18.7485H12.5239Z" fill="black"/>
<path d="M15 28.9101C22.998 28.9101 29.5 22.5603 29.5 14.7051C29.5 6.84984 22.998 0.5 15 0.5C7.00196 0.5 0.5 6.84984 0.5 14.7051C0.5 22.5603 7.00196 28.9101 15 28.9101Z" stroke="black"/>
</svg>
