<svg width="61" height="60" viewBox="0 0 61 60" fill="none" xmlns="http://www.w3.org/2000/svg">
<g id="feedback">
<g id="Group 11">
<path id="Vector" d="M50.148 7.76571C54.8092 7.76571 58.5888 11.5453 58.5888 16.2065C58.5888 18.6013 57.5906 20.7592 55.9887 22.2962L42.3571 35.9966L28.478 22.0486C27.0218 20.5315 26.1242 18.4756 26.1242 16.2065C26.1242 11.5439 29.9038 7.76571 34.565 7.76571C38.0758 7.76571 41.0849 9.91033 42.3571 12.9605C43.6294 9.91033 46.6371 7.76571 50.148 7.76571ZM50.148 6.35449C47.0435 6.35449 44.192 7.79616 42.3558 10.1724C40.521 7.79616 37.6694 6.35449 34.5637 6.35449C29.1307 6.35449 24.7117 10.7748 24.7117 16.2065C24.7117 18.7589 25.6873 21.1815 27.4586 23.0269L42.3558 37.9983L56.9882 23.293C58.921 21.437 60 18.9138 60 16.2078C60 10.7748 55.5797 6.35582 50.148 6.35582V6.35449Z" fill="black" stroke="black"/>
<g id="comment">
<path d="M5.90874 37.0538C6.13776 37.3002 6.31325 37.5976 6.42271 37.925C6.53216 38.2523 6.57289 38.6015 6.54198 38.9477C6.38691 40.5497 6.09293 42.1327 5.66383 43.6763C8.74176 42.9126 10.6216 42.0284 11.4755 41.565C11.9598 41.3021 12.5176 41.2398 13.042 41.39C14.5456 41.8195 16.0952 42.0358 17.6512 42.0331C26.468 42.0331 33.096 35.3964 33.096 27.8472C33.096 20.3002 26.468 13.6612 17.6512 13.6612C8.83443 13.6612 2.2064 20.3002 2.2064 27.8472C2.2064 31.318 3.56775 34.5382 5.90874 37.0538ZM4.82099 46.2865C4.29822 46.3976 3.77376 46.4993 3.24782 46.5915C2.80654 46.6672 2.47117 46.1754 2.64548 45.7356C2.84139 45.2406 3.02095 44.7382 3.18384 44.2296L3.19046 44.2059C3.73764 42.5036 4.18334 40.546 4.34661 38.7231C1.63936 35.8149 0 32.0084 0 27.8472C0 18.7067 7.90333 11.2969 17.6512 11.2969C27.3991 11.2969 35.3024 18.7067 35.3024 27.8472C35.3024 36.9876 27.3991 44.3974 17.6512 44.3974C15.903 44.4 14.162 44.1567 12.4728 43.674C11.3255 44.2958 8.8565 45.4283 4.82099 46.2865Z" fill="black"/>
<path d="M5.90874 37.0538C6.13776 37.3002 6.31325 37.5976 6.42271 37.925C6.53216 38.2523 6.57289 38.6015 6.54198 38.9477C6.38691 40.5497 6.09293 42.1327 5.66383 43.6763C8.74176 42.9126 10.6216 42.0284 11.4755 41.565C11.9598 41.3021 12.5176 41.2398 13.042 41.39C14.5456 41.8195 16.0952 42.0358 17.6512 42.0331C26.468 42.0331 33.096 35.3964 33.096 27.8472C33.096 20.3002 26.468 13.6612 17.6512 13.6612C8.83443 13.6612 2.2064 20.3002 2.2064 27.8472C2.2064 31.318 3.56775 34.5382 5.90874 37.0538Z" fill="white"/>
</g>
<g id="Vector_2">
<path d="M48.9834 37.2822H46.5713V38.6709H47.2028C48.1904 38.6709 48.994 39.4745 48.994 40.4621C48.994 41.4497 48.1891 42.2533 47.2028 42.2533H45.1826V43.642H45.7042C46.6561 43.642 47.4305 44.4164 47.4305 45.3696C47.4305 46.3227 46.6561 47.0972 45.7042 47.0972H43.7939V48.4859H43.9832C44.9946 48.4859 45.8194 49.2617 45.8194 50.2135C45.8194 51.1667 44.9946 51.9411 43.9832 51.9411H42.2093V51.9451H33.0615C31.7203 51.9451 29.3338 50.8826 27.4138 50.0278L27.4087 50.0255C25.5223 49.1862 24.3295 48.6712 23.5802 48.6712H17.4071V35.2726C18.6714 35.2581 21.3959 35.2303 23.1195 35.2303C25.6877 35.2303 27.0367 34.0997 30.6376 31.0787C34.4344 27.8936 34.6276 22.111 34.6276 20.9831C34.6276 20.4165 35.4974 20.0723 35.8813 20.0723C36.6081 20.0723 38.3132 20.0723 38.3132 23.693C38.3132 28.1984 36.073 32.7013 35.9832 32.8818L35.9806 32.8871L35.4643 33.8972H43.9713C43.9951 33.9144 44.011 33.8972 44.011 33.8972H48.9847C50.0001 33.8972 50.7388 34.6015 50.7388 35.5295C50.7388 36.4959 49.9524 37.2822 48.9847 37.2822H48.9834Z" fill="white"/>
<path fill-rule="evenodd" clip-rule="evenodd" d="M52.1262 35.5295C52.1262 33.8244 50.7759 32.5085 48.9834 32.5085H37.6831C38.4046 30.8338 39.7006 27.3203 39.7006 23.693C39.7006 19.552 37.6235 18.6836 35.88 18.6836C34.7997 18.6836 33.2376 19.5031 33.2376 20.9831C33.2376 21.608 33.1383 27.1668 29.744 30.0143C26.1273 33.0486 25.0986 33.8416 23.1182 33.8416C20.8067 33.8416 16.7015 33.8919 16.7015 33.8919L16.0171 33.9011V50.0599H23.5789C24.062 50.0599 25.4944 50.6953 26.7796 51.2655L26.8435 51.2938L26.8586 51.3005C29.0021 52.2547 31.4265 53.3338 33.0602 53.3338L43.9819 53.3298C45.7598 53.3298 47.2068 51.9319 47.2068 50.2135C47.2068 49.5132 46.9566 48.8738 46.5528 48.3535C47.8555 47.9802 48.8179 46.7914 48.8179 45.3696C48.8179 44.656 48.5664 44.0047 48.1613 43.4778C49.4428 43.0687 50.3814 41.8799 50.3814 40.4634C50.3814 39.7512 50.1378 39.0985 49.7393 38.569C51.1042 38.2275 52.1235 37.0003 52.1235 35.5308L52.1262 35.5295ZM46.5713 37.2822H48.9834H48.9847C49.9524 37.2822 50.7388 36.4959 50.7388 35.5295C50.7388 34.6015 50.0001 33.8972 48.9847 33.8972H44.011C44.011 33.8972 43.9951 33.9144 43.9713 33.8972H35.4643L35.9806 32.8871L35.9832 32.8818C36.073 32.7013 38.3132 28.1984 38.3132 23.693C38.3132 20.0723 36.6081 20.0723 35.8813 20.0723C35.4974 20.0723 34.6276 20.4165 34.6276 20.9831C34.6276 22.111 34.4344 27.8936 30.6376 31.0787C27.0367 34.0997 25.6877 35.2303 23.1195 35.2303C21.3959 35.2303 18.6714 35.2581 17.4071 35.2726V48.6712H23.5802C24.3295 48.6712 25.5223 49.1862 27.4087 50.0255L27.4138 50.0278C29.3338 50.8826 31.7203 51.9451 33.0615 51.9451H42.2093V51.9411H43.9832C44.9946 51.9411 45.8194 51.1667 45.8194 50.2135C45.8194 49.2617 44.9946 48.4859 43.9832 48.4859H43.7939V47.0972H45.7042C46.6561 47.0972 47.4305 46.3227 47.4305 45.3696C47.4305 44.4164 46.6561 43.642 45.7042 43.642H45.1826V42.2533H47.2028C48.1891 42.2533 48.994 41.4497 48.994 40.4621C48.994 39.4745 48.1904 38.6709 47.2028 38.6709H46.5713V37.2822Z" fill="black"/>
<path d="M26.8435 51.2938L26.8586 51.3005M26.8435 51.2938L26.7796 51.2655M26.8435 51.2938C26.8222 51.2843 26.801 51.2749 26.7796 51.2655M26.8435 51.2938C26.8485 51.296 26.8535 51.2982 26.8586 51.3005M27.4087 50.0255C25.5223 49.1862 24.3295 48.6712 23.5802 48.6712H17.4071V35.2726C18.6714 35.2581 21.3959 35.2303 23.1195 35.2303C25.6877 35.2303 27.0367 34.0997 30.6376 31.0787C34.4344 27.8936 34.6276 22.111 34.6276 20.9831C34.6276 20.4165 35.4974 20.0723 35.8813 20.0723C36.6081 20.0723 38.3132 20.0723 38.3132 23.693C38.3132 28.1984 36.073 32.7013 35.9832 32.8818M27.4087 50.0255L27.4138 50.0278M27.4087 50.0255C27.4104 50.0263 27.4121 50.027 27.4138 50.0278M35.9806 32.8871L35.4643 33.8972H43.9713C43.9951 33.9144 44.011 33.8972 44.011 33.8972H48.9847C50.0001 33.8972 50.7388 34.6015 50.7388 35.5295C50.7388 36.4959 49.9524 37.2822 48.9847 37.2822H48.9834H46.5713V38.6709H47.2028C48.1904 38.6709 48.994 39.4745 48.994 40.4621C48.994 41.4497 48.1891 42.2533 47.2028 42.2533H45.1826V43.642H45.7042C46.6561 43.642 47.4305 44.4164 47.4305 45.3696C47.4305 46.3227 46.6561 47.0972 45.7042 47.0972H43.7939V48.4859H43.9832C44.9946 48.4859 45.8194 49.2617 45.8194 50.2135C45.8194 51.1667 44.9946 51.9411 43.9832 51.9411H42.2093V51.9451H33.0615C31.7203 51.9451 29.3338 50.8826 27.4138 50.0278M35.9806 32.8871C35.9806 32.8871 35.9818 32.8846 35.9832 32.8818M35.9806 32.8871L35.9832 32.8818M26.8586 51.3005C29.0021 52.2547 31.4265 53.3338 33.0602 53.3338L43.9819 53.3298C45.7598 53.3298 47.2068 51.9319 47.2068 50.2135C47.2068 49.5132 46.9566 48.8738 46.5528 48.3535C47.8555 47.9802 48.8179 46.7914 48.8179 45.3696C48.8179 44.656 48.5664 44.0047 48.1613 43.4778C49.4428 43.0687 50.3814 41.8799 50.3814 40.4634C50.3814 39.7512 50.1378 39.0985 49.7393 38.569C51.1042 38.2275 52.1235 37.0003 52.1235 35.5308L52.1262 35.5295C52.1262 33.8244 50.7759 32.5085 48.9834 32.5085H37.6831C38.4046 30.8338 39.7006 27.3203 39.7006 23.693C39.7006 19.552 37.6235 18.6836 35.88 18.6836C34.7997 18.6836 33.2376 19.5031 33.2376 20.9831C33.2376 21.608 33.1383 27.1668 29.744 30.0143C26.1273 33.0486 25.0986 33.8416 23.1182 33.8416C20.8067 33.8416 16.7015 33.8919 16.7015 33.8919L16.0171 33.9011V50.0599H23.5789C24.062 50.0599 25.4944 50.6953 26.7796 51.2655" stroke="black"/>
</g>
</g>
</g>
</svg>
