<svg width="84" height="200" viewBox="0 0 84 200" fill="none" xmlns="http://www.w3.org/2000/svg">
<g id="female">
<path id="Vector" d="M12.3984 197.92C8.4738 197.414 5.43402 196.821 3.38566 196.184C2.35793 195.864 1.60904 195.542 1.1273 195.232C0.618099 194.903 0.542542 194.679 0.542542 194.592C0.542542 194.505 0.6181 194.28 1.12731 193.952C1.60904 193.641 2.35793 193.319 3.38566 193C5.43402 192.362 8.4738 191.769 12.3984 191.264C20.2412 190.253 30.8932 189.684 42.0101 189.684C53.1269 189.684 63.7789 190.253 71.6217 191.264C75.5463 191.769 78.5861 192.362 80.6344 193C81.6622 193.319 82.4111 193.641 82.8928 193.952C83.402 194.28 83.4776 194.505 83.4776 194.592C83.4776 194.679 83.402 194.903 82.8928 195.232C82.4111 195.542 81.6622 195.864 80.6344 196.184C78.5861 196.821 75.5463 197.414 71.6217 197.92C63.7789 198.931 53.1269 199.5 42.0101 199.5C30.8932 199.5 20.2412 198.931 12.3984 197.92Z" fill="#FFD9FD" stroke="black"/>
<path id="Vector_2" d="M76.3475 91.8276C76.3475 83.2209 72.7299 74.9668 66.2903 68.881C59.8508 62.7952 51.1169 59.3763 42.0101 59.3763C32.9032 59.3763 24.1693 62.7952 17.7298 68.881C11.2902 74.9668 7.67255 83.2209 7.67255 91.8276V126.086H76.3475V91.8276Z" fill="white" stroke="black" stroke-linecap="round" stroke-linejoin="round"/>
<path id="Vector_3" d="M14.35 142.308C15.2273 142.31 16.0964 142.148 16.9073 141.832C17.7182 141.515 18.455 141.05 19.0752 140.464C19.6955 139.878 20.187 139.181 20.5216 138.415C20.8562 137.648 21.0273 136.827 21.025 135.998V66.1406C16.8662 69.1696 13.4993 73.0611 11.1842 77.5148C8.86911 81.9685 7.66763 86.8654 7.6725 91.8275V136.009C7.67217 136.838 7.84475 137.658 8.18036 138.423C8.51597 139.188 9.00802 139.883 9.62831 140.468C10.2486 141.053 10.985 141.517 11.7952 141.833C12.6054 142.149 13.4736 142.31 14.35 142.308ZM69.67 142.308C68.7927 142.31 67.9236 142.148 67.1127 141.832C66.3018 141.515 65.565 141.05 64.9448 140.464C64.3245 139.878 63.833 139.181 63.4984 138.415C63.1638 137.648 62.9927 136.827 62.995 135.998V66.1406C67.1538 69.1696 70.5207 73.0611 72.8358 77.5148C75.1509 81.9685 76.3524 86.8654 76.3475 91.8275V136.009C76.3478 136.838 76.1753 137.658 75.8396 138.423C75.504 139.188 75.012 139.883 74.3917 140.468C73.7714 141.053 73.035 141.517 72.2248 141.833C71.4146 142.149 70.5464 142.31 69.67 142.308ZM26.9025 162.141L28.6575 192.789H55.3625L57.1175 162.141H26.9025Z" fill="white" stroke="black" stroke-linecap="round" stroke-linejoin="round"/>
<path id="Vector_4" d="M57.3175 162.138C58.2937 162.138 59.2327 161.784 59.9413 161.149C60.65 160.515 61.0745 159.648 61.1275 158.727L63 126.082H21.025L22.8925 158.729C22.9462 159.65 23.371 160.516 24.0795 161.15C24.7881 161.784 25.7267 162.138 26.7025 162.138H57.3175ZM61.9725 192.789C62.6424 192.789 63.3003 192.622 63.8803 192.305C64.4604 191.989 64.942 191.533 65.2769 190.985C65.6118 190.437 65.7881 189.815 65.7882 189.182C65.7884 188.549 65.6122 187.927 65.2775 187.379C64.2731 185.734 62.8279 184.368 61.0873 183.418C59.3467 182.469 57.3722 181.969 55.3625 181.971H53.455C51.9511 181.97 50.4617 182.249 49.0719 182.792C47.6822 183.335 46.4194 184.132 45.3556 185.137C44.2918 186.141 43.4479 187.334 42.8721 188.647C42.2964 189.96 42 191.368 42 192.789H61.9725Z" fill="#D9D9D9" stroke="black" stroke-linecap="round" stroke-linejoin="round"/>
<path id="Vector_5" d="M42 192.789C42 189.92 40.7943 187.169 38.648 185.14C36.5017 183.111 33.5906 181.971 30.555 181.97H28.6475C26.6408 181.972 24.6699 182.473 22.9326 183.422C21.1954 184.372 19.7529 185.736 18.75 187.379C18.4138 187.927 18.2364 188.549 18.2356 189.182C18.2348 189.815 18.4108 190.438 18.7457 190.986C19.0806 191.535 19.5626 191.991 20.1431 192.307C20.7237 192.624 21.3823 192.79 22.0525 192.789H42Z" fill="#D9D9D9" stroke="black" stroke-linecap="round" stroke-linejoin="round"/>
<path id="Vector_6" d="M42.01 162.141V192.789" stroke="black" stroke-linecap="round" stroke-linejoin="round"/>
<path id="Vector_7" d="M51.57 60.6521C51.0493 60.5097 50.5918 60.2112 50.2662 59.8017C49.9407 59.3922 49.7647 58.8937 49.765 58.3815V53.6562H34.25V58.3815C34.2502 58.8937 34.0743 59.3922 33.7487 59.8017C33.4232 60.2112 32.9656 60.5097 32.445 60.6521C31.6683 60.8631 30.9041 61.0994 30.1525 61.3609C31.0862 63.6124 32.7163 65.5458 34.8302 66.9086C36.9441 68.2714 39.4436 69.0003 42.0025 69.0003C44.5614 69.0003 47.0608 68.2714 49.1747 66.9086C51.2886 65.5458 52.9188 63.6124 53.8525 61.3609C53.1075 61.0978 52.3466 60.8615 51.57 60.6521Z" fill="white" stroke="black" stroke-linecap="round" stroke-linejoin="round"/>
<path id="Vector_8" d="M68.7175 35.3786C68.7081 34.3521 68.323 33.3602 67.6276 32.5716C66.9321 31.783 65.9692 31.2463 64.9025 31.0526V28.1748C64.9025 22.4369 62.4906 16.9339 58.1974 12.8766C53.9042 8.81925 48.0814 6.53986 42.01 6.53986C35.9385 6.53986 30.1157 8.81925 25.8225 12.8766C21.5293 16.9339 19.1175 22.4369 19.1175 28.1748V31.0596C18.0049 31.2563 17.0056 31.8279 16.3054 32.6683C15.6051 33.5087 15.2515 34.5608 15.3101 35.6291C15.3688 36.6973 15.8357 37.7092 16.6243 38.4766C17.4128 39.244 18.4693 39.7148 19.5975 39.8015C20.6705 44.6687 23.4845 49.0382 27.5662 52.1748C31.6478 55.3113 36.748 57.0237 42.0087 57.0237C47.2694 57.0237 52.3696 55.3113 56.4513 52.1748C60.5329 49.0382 63.347 44.6687 64.42 39.8015C65.5901 39.7016 66.6788 39.1931 67.4735 38.3752C68.2681 37.5574 68.7117 36.4889 68.7175 35.3786Z" fill="white" stroke="black" stroke-linecap="round" stroke-linejoin="round"/>
<path id="Vector_9" d="M27.5859 39.9968L27.9293 39.6334C27.4891 39.2173 27.2475 38.6593 27.2475 38.0839C27.2475 37.5084 27.4891 36.9504 27.9293 36.5343C28.3705 36.1174 28.9746 35.8786 29.61 35.8786C30.2454 35.8786 30.8495 36.1174 31.2907 36.5343C31.7309 36.9504 31.9725 37.5084 31.9725 38.0839C31.9725 38.6593 31.7309 39.2173 31.2907 39.6334C30.8495 40.0503 30.2454 40.2891 29.61 40.2891C28.9746 40.2891 28.3705 40.0503 27.9293 39.6334L27.5859 39.9968Z" fill="#D9D9D9" stroke="black"/>
<path id="Vector_10" d="M52.3859 39.9968L52.7293 39.6334C52.2891 39.2173 52.0475 38.6593 52.0475 38.0839C52.0475 37.5084 52.2891 36.9504 52.7293 36.5343C53.1705 36.1174 53.7746 35.8786 54.41 35.8786C55.0454 35.8786 55.6495 36.1174 56.0906 36.5343C56.5309 36.9504 56.7725 37.5084 56.7725 38.0839C56.7725 38.6593 56.5309 39.2173 56.0906 39.6334C55.6495 40.0503 55.0454 40.2891 54.41 40.2891C53.7746 40.2891 53.1705 40.0503 52.7293 39.6334L52.3859 39.9968Z" fill="#D9D9D9" stroke="black"/>
<path id="Vector_11" d="M47.7325 44.3922C46.0816 45.5624 44.0736 46.1949 42.01 46.1949C39.9463 46.1949 37.9384 45.5624 36.2875 44.3922" stroke="black" stroke-linecap="round" stroke-linejoin="round"/>
<path id="Vector_12" d="M34.3382 32.9043L34.5204 33.3699L34.3382 32.9043C34.0494 33.0174 33.739 33.0759 33.425 33.0759C33.111 33.0759 32.8006 33.0174 32.5118 32.9043L32.3296 33.3699L32.5118 32.9043C32.2231 32.7913 31.9626 32.6263 31.7443 32.4201L31.4152 32.7684L31.7443 32.4201C31.5262 32.2139 31.3547 31.9707 31.2383 31.7051C31.122 31.4396 31.0625 31.1561 31.0625 30.8706C31.0625 30.585 31.122 30.3016 31.2383 30.0361C31.3547 29.7705 31.5262 29.5273 31.7443 29.3211C31.9626 29.1149 32.2231 28.9499 32.5118 28.8369C32.8006 28.7238 33.111 28.6653 33.425 28.6653C33.7391 28.6653 34.0494 28.7238 34.3382 28.8369C34.6269 28.9499 34.8875 29.1149 35.1057 29.3211C35.3238 29.5273 35.4953 29.7705 35.6117 30.0361C35.728 30.3016 35.7875 30.585 35.7875 30.8706C35.7875 31.1561 35.728 31.4396 35.6117 31.7051C35.4953 31.9707 35.3238 32.2139 35.1057 32.4201C34.8875 32.6263 34.6269 32.7913 34.3382 32.9043Z" fill="black" stroke="black"/>
<path id="Vector_13" d="M48.5709 32.7835L48.9143 32.4201C48.4741 32.0041 48.2325 31.4461 48.2325 30.8706C48.2325 30.2951 48.4741 29.7371 48.9143 29.3211C49.3555 28.9042 49.9596 28.6653 50.595 28.6653C51.2304 28.6653 51.8345 28.9042 52.2757 29.3211C52.7159 29.7371 52.9575 30.2951 52.9575 30.8706C52.9575 31.4461 52.7159 32.0041 52.2757 32.4201C51.8345 32.837 51.2304 33.0759 50.595 33.0759C49.9596 33.0759 49.3555 32.837 48.9143 32.4201L48.5709 32.7835Z" fill="black" stroke="black"/>
<path id="Vector_14" d="M42 1.12695C33.7757 1.27791 25.9495 4.50127 20.2336 10.0918C14.5177 15.6823 11.3774 23.1849 11.5 30.958V72.7229C11.4477 75.02 12.2902 77.2552 13.8674 79.0037C15.4447 80.7522 17.6467 81.8921 20.055 82.2067C22.3808 82.4307 24.7128 81.8403 26.6086 80.5473C28.5044 79.2543 29.8321 77.3487 30.34 75.1919C30.4444 74.7297 30.3517 74.2473 30.0821 73.8492C29.8126 73.4511 29.3878 73.1695 28.9 73.0655C27.207 72.7079 25.6935 71.8159 24.6087 70.5365C23.524 69.2571 22.9327 67.6666 22.9325 66.0271V26.3626C28.6575 22.7572 28.6575 22.7572 32.4725 15.5463C38.195 22.7572 53.545 26.365 61.0875 26.3626V66.0271C61.0872 67.6666 60.496 69.2571 59.4113 70.5365C58.3265 71.8159 56.813 72.7079 55.12 73.0655C54.6322 73.1695 54.2074 73.4511 53.9378 73.8492C53.6682 74.2473 53.5756 74.7297 53.68 75.1919C54.1865 77.352 55.5155 79.2608 57.4142 80.5551C59.3129 81.8494 61.6488 82.4389 63.9775 82.2114C66.3858 81.8968 68.5878 80.7569 70.165 79.0084C71.7423 77.26 72.5848 75.0248 72.5325 72.7277V30.958C72.6549 23.1797 69.5103 15.6726 63.7874 10.0811C58.0645 4.48972 50.23 1.26989 42 1.12695Z" fill="white" stroke="black" stroke-linecap="round" stroke-linejoin="round"/>
</g>
</svg>
