<svg width="618" height="444" viewBox="0 0 618 444" fill="none" xmlns="http://www.w3.org/2000/svg">
<g id="gliiter">
<path id="Vector" d="M10.9166 190.876L14.6968 193.322L7.92112 219.13L4.14097 216.684L10.9166 190.876Z" fill="#367CFF" stroke="black"/>
<path id="Vector_2" d="M410.471 266.492L421.707 287.313L418.471 291.778L407.236 270.956L410.471 266.492Z" fill="#0CBC8B" stroke="black"/>
<path id="Vector_3" d="M376.432 172.784L378.921 178.324L364.813 194.633L362.324 189.093L376.432 172.784Z" fill="#367CFF" stroke="black"/>
<path id="Vector_4" d="M184.673 366.352L196.977 385.511L193.968 390.426L181.664 371.268L184.673 366.352Z" fill="#367CFF" stroke="black"/>
<path id="Vector_5" d="M295.195 358.305L298.748 361.675L289.674 385.616L286.12 382.246L295.195 358.305Z" fill="#0CBC8B" stroke="black"/>
<path id="Vector_6" d="M157.387 142.299L166.282 165.934L162.689 169.434L153.794 145.8L157.387 142.299Z" fill="#0CBC8B" stroke="black"/>
<path id="Vector_7" d="M357.646 25.9666L365.018 50.9633L361.267 53.8535L353.895 28.8568L357.646 25.9666Z" fill="#0CBC8B" stroke="black"/>
<path id="Vector_8" d="M426.719 94.4411L430.586 96.3708L425.135 122.954L421.268 121.025L426.719 94.4411Z" fill="#367CFF" stroke="black"/>
<path id="Vector_9" d="M125.612 10.6168L127.921 16.3782L113.329 31.4868L111.019 25.7254L125.612 10.6168Z" fill="#367CFF" stroke="black"/>
<path id="Vector_10" d="M109.571 407.426L113.124 410.796L104.05 434.736L100.497 431.366L109.571 407.426Z" fill="#0CBC8B" stroke="black"/>
<path id="Vector_11" d="M606.9 210.036L612.817 236.054L608.958 238.374L603.041 212.356L606.9 210.036Z" fill="#0CBC8B" stroke="black"/>
<path id="Vector_12" d="M112.542 241.243L126.101 258.011L123.43 263.466L109.87 246.698L112.542 241.243Z" fill="#0CBC8B" stroke="black"/>
<path id="Vector_13" d="M538.307 364.381L541.152 369.394L528.22 388.134L525.376 383.122L538.307 364.381Z" fill="#367CFF" stroke="black"/>
<path id="Vector_14" d="M377.499 381.836L385.775 406.065L382.112 409.316L373.836 385.087L377.499 381.836Z" fill="#367CFF" stroke="black"/>
<path id="Vector_15" d="M570.374 71.0833L573.849 74.7011L564.176 98.0284L560.701 94.4105L570.374 71.0833Z" fill="#0CBC8B" stroke="black"/>
<path id="Vector_16" d="M596.463 10.5901L610.555 26.1752L608.056 31.8606L593.964 16.2755L596.463 10.5901Z" fill="#367CFF" stroke="black"/>
<path id="Vector_17" d="M18.6619 313.575L26.9378 337.803L23.2746 341.054L14.9988 316.826L18.6619 313.575Z" fill="#367CFF" stroke="black"/>
</g>
</svg>
