<svg width="109" height="184" viewBox="0 0 109 184" fill="none" xmlns="http://www.w3.org/2000/svg">
<g id="gps">
<g id="pin">
<path id="Vector" d="M94.278 13.7485L93.738 13.4365L76.974 3.8365C73.0952 1.27035 68.5324 -0.0658724 63.882 0.00249858C58.02 0.00249858 52.104 2.1265 45.138 6.0025C20.796 19.4905 0 58.3825 0 83.9185V90.9565C0 121.905 40.704 159.68 40.704 159.68L57.582 169.43C57.5899 169.442 57.6008 169.451 57.6136 169.456C57.6264 169.461 57.6404 169.463 57.654 169.46C57.09 168.794 75.588 141.807 93.054 89.1625C112.338 30.8665 94.638 14.0845 94.278 13.7485ZM65.79 106.281C51.99 114.243 40.452 110.073 37.182 97.2265C30.864 96.3565 26.298 91.4965 24.888 83.5165C23.118 57.7165 36.81 37.2025 56.418 28.8745C64.818 25.8205 71.826 27.9985 75.582 34.3105C87.102 32.3305 95.346 40.2265 95.346 55.0945C95.346 73.9345 82.098 96.8665 65.79 106.281Z" fill="#455A64"/>
<path id="Vector_2" d="M95.3459 55.0945C95.3459 73.9345 82.1159 96.8665 65.7899 106.28C51.9899 114.242 40.4519 110.072 37.1819 97.2265C41.3279 97.8265 46.2239 96.7165 51.4859 93.6745C66.4379 85.0525 78.5459 64.0645 78.5459 46.8205C78.5459 41.6965 77.4779 37.4785 75.5819 34.3105C87.1019 32.3305 95.3459 40.2265 95.3459 55.0945Z" fill="#263238"/>
<path id="Vector_3" d="M94.278 13.7485L93.738 13.4365C85.602 8.86447 74.73 9.47646 62.784 16.3645C44.784 26.7745 29.184 48.6385 21.81 71.5645C18.882 80.6545 17.646 85.4665 17.646 94.2565V101.318C17.646 125.168 44.238 157.25 56.676 168.704C56.9541 168.962 57.2577 169.192 57.582 169.388C57.5899 169.4 57.6008 169.409 57.6136 169.414C57.6264 169.419 57.6404 169.421 57.654 169.418C58.3801 169.867 59.192 170.158 60.0376 170.274C60.8831 170.389 61.7434 170.326 62.5631 170.089C63.3828 169.851 64.1436 169.445 64.7966 168.895C65.4495 168.346 65.98 167.666 66.354 166.898C77.07 144.956 108.318 78.8065 108.318 53.1565V46.1185C108.318 30.2185 102.942 18.9565 94.278 13.7485ZM37.182 97.2265C37.014 96.5725 36.858 95.8885 36.738 95.1865C36.3858 93.2183 36.2171 91.2218 36.234 89.2225C36.234 70.3825 49.434 47.4565 65.79 38.0425C67.515 37.0435 69.3214 36.1925 71.19 35.4985C72.6172 34.9678 74.0891 34.5662 75.588 34.2985C87.108 32.3185 95.352 40.2145 95.352 55.0825C95.352 73.9225 82.122 96.8545 65.796 106.268C52.008 114.242 40.452 110.072 37.182 97.2265Z" fill="#37474F"/>
</g>
<g id="home">
<path id="Vector_4" d="M42.762 95.4265L52.14 100.844V82.6765L42.762 77.2585V95.4265Z" fill="#BA68C8"/>
<path id="Vector_5" opacity="0.2" d="M42.762 95.4265L52.14 100.844V82.6765L42.762 77.2585V95.4265Z" fill="black"/>
<path id="Vector_6" d="M87.516 62.2525L65.778 52.0645L44.04 87.3565L52.14 82.6765V100.845L62.412 94.9165V83.0305L69.138 79.1485V91.0285L79.422 85.0885V66.9205L87.516 62.2525Z" fill="#BA68C8"/>
<path id="Vector_7" d="M56.394 46.6465L65.778 52.0645L44.04 87.3565L34.656 81.9385L56.394 46.6465Z" fill="#BA68C8"/>
<path id="Vector_8" opacity="0.1" d="M56.394 46.6465L65.778 52.0645L44.04 87.3565L34.656 81.9385L56.394 46.6465Z" fill="black"/>
<path id="Vector_9" d="M56.394 46.6465L65.778 52.0645L87.516 62.2525L78.132 56.8345L56.394 46.6465Z" fill="#BA68C8"/>
<path id="Vector_10" opacity="0.4" d="M56.394 46.6465L65.778 52.0645L87.516 62.2525L78.132 56.8345L56.394 46.6465Z" fill="white"/>
<path id="Vector_11" d="M62.4121 94.9165L69.1381 91.0285V79.1485L62.4121 83.0305V94.9165Z" fill="#BA68C8"/>
<path id="Vector_12" opacity="0.2" d="M62.4121 94.9165L69.1381 91.0285V79.1485L62.4121 83.0305V94.9165Z" fill="black"/>
</g>
<ellipse id="Ellipse 25" cx="54.5" cy="173" rx="53.5" ry="11" fill="black" fill-opacity="0.18"/>
</g>
</svg>
