<svg width="30" height="30" viewBox="0 0 30 30" fill="none" xmlns="http://www.w3.org/2000/svg">
<path d="M14.5723 10.406C14.6569 10.458 14.7427 10.5164 14.8283 10.573C16.1645 10.2818 17.7514 10.2944 18.4409 10.409C18.9702 10.4977 19.9279 9.90394 20.4215 9.62445L24.291 14.9609C24.1481 15.1608 23.6561 15.7473 23.5687 15.9918C23.387 16.5 21.6896 18.5696 20.9883 18.7406M14.5723 10.406C14.314 10.2478 14.0607 10.1141 13.8091 10.0132C13.5652 9.91621 13.3219 9.84937 13.0675 9.83591V9.83478C12.6863 9.80385 12.3164 9.79011 11.9761 9.79011C11.4582 9.79088 11.0163 9.81956 10.6889 9.87413H10.6902C10.6449 9.88107 10.5952 9.88528 10.5414 9.88528C10.2584 9.88865 9.86676 9.7542 9.51146 9.56007C9.27188 9.43172 8.975 9.49968 8.8153 9.71983L4.91542 15.0979C4.78261 15.2809 4.77784 15.5289 4.90299 15.7177C5.00194 15.8659 5.08468 16.0199 5.13931 16.1739C5.21782 16.3913 5.33152 16.5888 5.46275 16.7811C5.59414 16.9724 5.74416 17.1581 5.90076 17.3355L5.96213 17.3942C5.96213 17.3942 6.24294 17.6258 6.69037 17.9941M14.5723 10.406L13.4063 11.0212L13.4457 11.0391C12.5326 11.3627 9.90569 12.9729 9.22363 13.2005C8.44478 13.46 8.37963 14.4989 10.1321 14.6934C11.8848 14.8885 13.4426 13.7844 13.832 13.5903C14.1114 13.4505 15.8871 13.6213 16.8706 13.729C17.3043 14.1573 17.6845 14.5546 17.9617 14.8549L20.1218 17.4959L20.1313 17.5066C20.4081 17.8272 20.5583 18.0873 20.6435 18.3105C20.6435 18.3105 20.9118 18.7581 20.9883 19.0775C21.084 19.4771 21.2221 19.7918 20.9883 20.1296C20.7418 20.4856 20.3687 20.5026 19.9363 20.4802C19.2224 20.4434 18.5336 19.3043 18.5336 19.3043C18.9444 20.0136 19.5856 21.1206 19.5856 21.1206C19.5856 21.1206 19.5856 21.8829 19.2349 22.2336C18.7375 22.5231 18.4587 22.532 17.9617 22.2253C17.4647 21.9186 16.7802 20.8597 16.7802 20.8597C16.7802 20.8597 17.4816 22.2939 17.4816 22.9349C17.4816 23.576 17.4816 23.6363 17.1309 23.987C16.7802 24.3376 16.0789 23.987 15.7282 23.6363C15.3775 23.2856 15.0268 22.5843 15.0268 22.5843V23.987C15.0268 23.987 14.9423 24.5368 14.6762 24.6883C14.3154 24.8936 14.0133 24.575 13.6728 24.3376C13.2545 24.046 12.9088 23.2787 12.9088 23.2787M6.69037 17.9941C6.57361 18.1615 6.50946 18.3602 6.50715 18.5696C6.5043 18.8454 6.60879 19.1068 6.80216 19.3043C6.99853 19.5049 7.26105 19.6153 7.54169 19.6153C7.73832 19.6153 7.92621 19.5587 8.08997 19.4552C7.98049 19.6202 7.91976 19.8125 7.91744 20.0146C7.91436 20.2904 8.01928 20.5514 8.21243 20.7486C8.40838 20.9496 8.67111 21.06 8.95193 21.06C9.17257 21.06 9.38136 20.9881 9.55754 20.8597C9.23695 21.2617 9.25435 21.8481 9.62283 22.2253C9.81886 22.4255 10.0813 22.5359 10.3618 22.5359C10.6338 22.5359 10.8911 22.4309 11.0868 22.2394L11.278 22.0495C11.1979 22.1963 11.1502 22.359 11.1483 22.5306C11.1454 22.8068 11.2499 23.0678 11.4432 23.2653C11.6394 23.4655 11.9021 23.576 12.1827 23.576C12.4546 23.576 12.7115 23.4713 12.9088 23.2787M6.69037 17.9941L7.56317 17.0954C7.75915 16.9036 8.01612 16.7989 8.28796 16.7989C8.56864 16.7989 8.8313 16.9093 9.02767 17.1099C9.35443 17.4438 9.40401 17.9428 9.18891 18.3326L9.36334 18.1591C9.55894 17.9673 9.81591 17.8626 10.0878 17.8626C10.3684 17.8626 10.6311 17.973 10.8273 18.174C11.0204 18.3711 11.1253 18.6321 11.1222 18.9084C11.1198 19.1402 11.0374 19.3573 10.8954 19.5361C11.0708 19.4092 11.2786 19.3382 11.498 19.3382C11.7785 19.3382 12.0413 19.449 12.2373 19.6492C12.4306 19.8464 12.5355 20.1073 12.5326 20.3836C12.5296 20.6602 12.4192 20.9185 12.2219 21.1118L12.2171 21.1172L12.2213 21.1206C12.3604 21.0529 12.5117 21.014 12.6695 21.014C12.9501 21.014 13.2128 21.1244 13.409 21.325C13.6667 21.5886 13.7523 21.9547 13.6728 22.2886M12.9088 23.2787L13.2908 22.7836L13.6728 22.2886M13.6728 22.2886C13.638 22.2619 13.7168 22.3238 13.6728 22.2886Z" stroke="black"/>
<path d="M6.14244 9.04703C6.58957 9.37133 7.2147 9.27118 7.5386 8.82456C7.86187 8.37781 7.76363 7.75249 7.31579 7.42809C6.86871 7.10388 6.24362 7.20399 5.91976 7.65092C5.59546 8.09741 5.69527 8.72329 6.14244 9.04703ZM6.14244 9.04703C6.14252 9.0471 6.14236 9.04696 6.14244 9.04703ZM6.14244 9.04703L6.34825 8.76313M3.32801 15.3611C3.34542 15.3737 3.36963 15.3694 3.38209 15.3521L8.60237 8.15289C8.61521 8.13514 8.61093 8.11081 8.59417 8.0986L6.28161 6.42206C6.26409 6.40936 6.23995 6.41358 6.2275 6.43077L1.00726 13.6301C0.995158 13.6467 0.998312 13.6713 1.01647 13.6846M3.32801 15.3611C3.32797 15.3611 3.32805 15.3611 3.32801 15.3611ZM3.32801 15.3611L1.01647 13.6846M1.01647 13.6846C1.01643 13.6846 1.01651 13.6846 1.01647 13.6846Z" stroke="black"/>
<path d="M25.9521 12.6856C25.5171 13.0261 25.4411 13.6546 25.7811 14.089C26.1215 14.5229 26.7497 14.6009 27.1849 14.2598C27.6198 13.9194 27.6959 13.2909 27.3555 12.8564C27.0157 12.4216 26.3866 12.345 25.9521 12.6856ZM25.9521 12.6856C25.952 12.6857 25.9522 12.6856 25.9521 12.6856ZM25.9521 12.6856L26.1683 12.9617M20.6584 8.23985C20.6415 8.25313 20.639 8.27758 20.6521 8.29431L26.1336 15.2967C26.1471 15.314 26.1717 15.3166 26.188 15.3038L28.4371 13.543C28.4541 13.5296 28.4567 13.5053 28.4436 13.4885L22.962 6.48612C22.9494 6.46991 22.9249 6.46618 22.9071 6.47996M20.6584 8.23985C20.6584 8.23981 20.6584 8.23989 20.6584 8.23985ZM20.6584 8.23985L22.9071 6.47996M22.9071 6.47996C22.9071 6.47992 22.9071 6.47999 22.9071 6.47996Z" stroke="black"/>
</svg>
