<svg width="40" height="40" viewBox="0 0 40 40" fill="none" xmlns="http://www.w3.org/2000/svg">
<g id="handshake" clip-path="url(#clip0_496_1210)">
<g id="Group">
<g id="Vector">
<mask id="path-1-inside-1_496_1210" fill="white">
<path d="M25.3678 13.6402C24.3848 13.4768 22.1221 13.4588 20.2169 13.8739C20.0949 13.7933 19.9725 13.71 19.8519 13.6358C19.4836 13.4103 19.1224 13.2196 18.7637 13.0758C18.4159 12.9375 18.0691 12.8422 17.7063 12.823V12.8214C17.1628 12.7773 16.6353 12.7577 16.1502 12.7577C15.4117 12.7588 14.7817 12.7997 14.3148 12.8775H14.3167C14.2521 12.8874 14.1813 12.8934 14.1045 12.8934C13.701 12.8982 13.1426 12.7065 12.636 12.4297C12.2944 12.2467 11.8711 12.3436 11.6434 12.6575L6.08283 20.3257C5.89346 20.5867 5.88666 20.9403 6.0651 21.2094C6.20619 21.4208 6.32416 21.6403 6.40205 21.8599C6.514 22.1699 6.67611 22.4515 6.86322 22.7256C7.05057 22.9985 7.26447 23.2632 7.48775 23.5161L7.57525 23.5999C7.57525 23.5999 7.97565 23.93 8.61361 24.4552C8.44713 24.6939 8.35565 24.9772 8.35236 25.2757C8.3483 25.669 8.49729 26.0417 8.77299 26.3233C9.05299 26.6093 9.42729 26.7668 9.82744 26.7668C10.1078 26.7668 10.3757 26.6861 10.6092 26.5385C10.4531 26.7738 10.3665 27.0479 10.3632 27.3361C10.3588 27.7294 10.5084 28.1015 10.7838 28.3826C11.0632 28.6692 11.4378 28.8266 11.8382 28.8266C12.1528 28.8266 12.4505 28.7242 12.7017 28.5411C12.2446 29.1143 12.2694 29.9504 12.7948 30.4882C13.0743 30.7736 13.4485 30.9311 13.8484 30.9311H13.8487C14.2366 30.9311 14.6032 30.7813 14.8821 30.5083L15.1548 30.2375C15.0406 30.4468 14.9725 30.6788 14.9698 30.9235C14.9657 31.3173 15.1147 31.6894 15.3903 31.9711C15.6701 32.2565 16.0446 32.414 16.4448 32.414C16.8324 32.414 17.1987 32.2647 17.4801 31.9901L17.646 31.8218C17.7291 31.8872 17.8049 31.946 17.8667 31.994C17.9173 32.0321 17.9604 32.0648 17.9999 32.0932L18.0585 32.1346L18.1415 32.1858C18.4534 32.3568 18.7517 32.431 18.9889 32.4832C19.1071 32.5078 19.2084 32.5247 19.2835 32.535L19.3751 32.547L19.4037 32.5497L19.4146 32.5508L19.4214 32.5519L19.4287 32.5525L19.4385 32.553C19.4475 32.553 19.4431 32.5541 19.4905 32.5552L19.5463 32.553C20.0659 32.5149 20.5578 32.3361 20.9615 32.0279C21.1221 31.9047 21.2628 31.756 21.3886 31.5932C21.6373 31.6738 21.9006 31.7217 22.1747 31.7217C23.2863 31.7212 24.2217 31.0124 24.584 30.0264C24.6243 30.0236 24.6644 30.022 24.7041 30.0117C24.8452 30.0373 24.9882 30.0558 25.1364 30.0558C26.2393 30.0547 27.1728 29.3597 27.541 28.3866C27.5435 28.3844 27.546 28.3834 27.5484 28.3817L27.6349 28.3899C29.0598 28.3899 30.2131 27.2354 30.2137 25.8115C30.2146 25.4159 30.1598 24.9785 30.0092 24.5236C30.9871 23.6596 32.4201 22.3248 32.6792 21.6003C32.8039 21.2516 33.5053 20.4154 33.7091 20.1304L28.1918 12.5215C27.4881 12.92 26.1226 13.7666 25.3678 13.6402ZM28.6659 25.8111C28.6651 26.3804 28.2045 26.8413 27.6351 26.8424C27.494 26.8424 27.3622 26.8141 27.2394 26.7629C27.2271 26.7574 27.2143 26.7563 27.2021 26.7525L26.246 25.5893C26.0041 25.3093 25.5805 25.2778 25.3002 25.5196C25.0196 25.7615 24.9886 26.1854 25.2307 26.4659L26.1555 27.593C26.0964 28.1057 25.6655 28.5072 25.1364 28.5077C24.8853 28.5072 24.6625 28.4179 24.4803 28.268L23.5626 27.149C23.3204 26.869 22.8968 26.8379 22.6166 27.0798C22.336 27.3217 22.3052 27.7456 22.5471 28.0255L23.1864 28.8221C23.1853 28.8716 23.1804 28.9212 23.1891 28.9708C23.2003 29.0335 23.2054 29.09 23.2054 29.1424C23.2046 29.7122 22.7438 30.1725 22.1747 30.1736C22.026 30.1736 21.889 30.1393 21.7626 30.0838L20.6442 28.9082C20.3742 28.6543 19.9499 28.6674 19.696 28.9375C19.4418 29.2072 19.4549 29.6322 19.7246 29.8854L20.2494 30.5011C20.1968 30.6139 20.1268 30.7157 20.0203 30.7985C19.8839 30.9031 19.6962 30.975 19.4827 30.999C19.4203 30.9897 19.3356 30.9755 19.2348 30.9516C19.1098 30.9233 18.9779 30.877 18.9096 30.841C18.8859 30.8236 18.8254 30.779 18.738 30.7102C18.6884 30.6721 18.6321 30.6286 18.5694 30.5784C18.6827 30.1023 18.5606 29.5804 18.1932 29.2045C17.9135 28.9185 17.5389 28.7611 17.1388 28.7611C16.9138 28.7611 16.6981 28.8166 16.4997 28.9131L16.4938 28.9082L16.5006 28.9005C16.782 28.6249 16.9394 28.2566 16.9437 27.8622C16.9478 27.4683 16.7982 27.0962 16.5226 26.8151C16.2431 26.5297 15.8684 26.3717 15.4685 26.3717C15.1557 26.3717 14.8594 26.4729 14.6093 26.6539C14.8117 26.3989 14.9292 26.0894 14.9327 25.7588C14.9371 25.3649 14.7875 24.9928 14.5121 24.7117C14.2324 24.4251 13.8578 24.2677 13.4577 24.2677C13.0701 24.2677 12.7037 24.417 12.4248 24.6904L12.1761 24.9378C12.4828 24.3821 12.4121 23.6706 11.9462 23.1945C11.6662 22.9085 11.2917 22.7511 10.8915 22.7511C10.5039 22.7511 10.1375 22.9003 9.85807 23.1738L9.69354 23.3389C9.57666 23.2424 9.46197 23.1482 9.36065 23.0648C8.97986 22.7521 8.71752 22.5353 8.61213 22.4481C8.434 22.2449 8.26916 22.0406 8.14033 21.8511C8.00197 21.6506 7.90393 21.4648 7.85979 21.339C7.79494 21.157 7.7176 20.986 7.63346 20.8236L12.5217 14.0831C13.005 14.2852 13.5337 14.4372 14.1044 14.4411C14.2563 14.4411 14.4119 14.4301 14.5696 14.404H14.5715C14.897 14.3485 15.4771 14.3048 16.15 14.306C16.5938 14.3049 17.0819 14.3234 17.5809 14.3637L17.6149 14.3659C17.7375 14.3692 17.9416 14.4128 18.1894 14.513L18.2455 14.5386C16.1574 15.4816 13.1981 17.2958 12.2256 17.6204C11.1151 17.9904 11.0222 19.4716 13.5209 19.7489C16.02 20.0272 18.2411 18.4529 18.7963 18.1761C19.1948 17.9768 21.7266 18.2203 23.1289 18.3739C23.7473 18.9846 24.2893 19.5511 24.6846 19.9793L27.7645 23.7448L27.7781 23.7601C28.1728 24.2172 28.3869 24.5881 28.5084 24.9063C28.6286 25.2244 28.6651 25.499 28.6659 25.8111Z"/>
</mask>
<path d="M25.3678 13.6402C24.3848 13.4768 22.1221 13.4588 20.2169 13.8739C20.0949 13.7933 19.9725 13.71 19.8519 13.6358C19.4836 13.4103 19.1224 13.2196 18.7637 13.0758C18.4159 12.9375 18.0691 12.8422 17.7063 12.823V12.8214C17.1628 12.7773 16.6353 12.7577 16.1502 12.7577C15.4117 12.7588 14.7817 12.7997 14.3148 12.8775H14.3167C14.2521 12.8874 14.1813 12.8934 14.1045 12.8934C13.701 12.8982 13.1426 12.7065 12.636 12.4297C12.2944 12.2467 11.8711 12.3436 11.6434 12.6575L6.08283 20.3257C5.89346 20.5867 5.88666 20.9403 6.0651 21.2094C6.20619 21.4208 6.32416 21.6403 6.40205 21.8599C6.514 22.1699 6.67611 22.4515 6.86322 22.7256C7.05057 22.9985 7.26447 23.2632 7.48775 23.5161L7.57525 23.5999C7.57525 23.5999 7.97565 23.93 8.61361 24.4552C8.44713 24.6939 8.35565 24.9772 8.35236 25.2757C8.3483 25.669 8.49729 26.0417 8.77299 26.3233C9.05299 26.6093 9.42729 26.7668 9.82744 26.7668C10.1078 26.7668 10.3757 26.6861 10.6092 26.5385C10.4531 26.7738 10.3665 27.0479 10.3632 27.3361C10.3588 27.7294 10.5084 28.1015 10.7838 28.3826C11.0632 28.6692 11.4378 28.8266 11.8382 28.8266C12.1528 28.8266 12.4505 28.7242 12.7017 28.5411C12.2446 29.1143 12.2694 29.9504 12.7948 30.4882C13.0743 30.7736 13.4485 30.9311 13.8484 30.9311H13.8487C14.2366 30.9311 14.6032 30.7813 14.8821 30.5083L15.1548 30.2375C15.0406 30.4468 14.9725 30.6788 14.9698 30.9235C14.9657 31.3173 15.1147 31.6894 15.3903 31.9711C15.6701 32.2565 16.0446 32.414 16.4448 32.414C16.8324 32.414 17.1987 32.2647 17.4801 31.9901L17.646 31.8218C17.7291 31.8872 17.8049 31.946 17.8667 31.994C17.9173 32.0321 17.9604 32.0648 17.9999 32.0932L18.0585 32.1346L18.1415 32.1858C18.4534 32.3568 18.7517 32.431 18.9889 32.4832C19.1071 32.5078 19.2084 32.5247 19.2835 32.535L19.3751 32.547L19.4037 32.5497L19.4146 32.5508L19.4214 32.5519L19.4287 32.5525L19.4385 32.553C19.4475 32.553 19.4431 32.5541 19.4905 32.5552L19.5463 32.553C20.0659 32.5149 20.5578 32.3361 20.9615 32.0279C21.1221 31.9047 21.2628 31.756 21.3886 31.5932C21.6373 31.6738 21.9006 31.7217 22.1747 31.7217C23.2863 31.7212 24.2217 31.0124 24.584 30.0264C24.6243 30.0236 24.6644 30.022 24.7041 30.0117C24.8452 30.0373 24.9882 30.0558 25.1364 30.0558C26.2393 30.0547 27.1728 29.3597 27.541 28.3866C27.5435 28.3844 27.546 28.3834 27.5484 28.3817L27.6349 28.3899C29.0598 28.3899 30.2131 27.2354 30.2137 25.8115C30.2146 25.4159 30.1598 24.9785 30.0092 24.5236C30.9871 23.6596 32.4201 22.3248 32.6792 21.6003C32.8039 21.2516 33.5053 20.4154 33.7091 20.1304L28.1918 12.5215C27.4881 12.92 26.1226 13.7666 25.3678 13.6402ZM28.6659 25.8111C28.6651 26.3804 28.2045 26.8413 27.6351 26.8424C27.494 26.8424 27.3622 26.8141 27.2394 26.7629C27.2271 26.7574 27.2143 26.7563 27.2021 26.7525L26.246 25.5893C26.0041 25.3093 25.5805 25.2778 25.3002 25.5196C25.0196 25.7615 24.9886 26.1854 25.2307 26.4659L26.1555 27.593C26.0964 28.1057 25.6655 28.5072 25.1364 28.5077C24.8853 28.5072 24.6625 28.4179 24.4803 28.268L23.5626 27.149C23.3204 26.869 22.8968 26.8379 22.6166 27.0798C22.336 27.3217 22.3052 27.7456 22.5471 28.0255L23.1864 28.8221C23.1853 28.8716 23.1804 28.9212 23.1891 28.9708C23.2003 29.0335 23.2054 29.09 23.2054 29.1424C23.2046 29.7122 22.7438 30.1725 22.1747 30.1736C22.026 30.1736 21.889 30.1393 21.7626 30.0838L20.6442 28.9082C20.3742 28.6543 19.9499 28.6674 19.696 28.9375C19.4418 29.2072 19.4549 29.6322 19.7246 29.8854L20.2494 30.5011C20.1968 30.6139 20.1268 30.7157 20.0203 30.7985C19.8839 30.9031 19.6962 30.975 19.4827 30.999C19.4203 30.9897 19.3356 30.9755 19.2348 30.9516C19.1098 30.9233 18.9779 30.877 18.9096 30.841C18.8859 30.8236 18.8254 30.779 18.738 30.7102C18.6884 30.6721 18.6321 30.6286 18.5694 30.5784C18.6827 30.1023 18.5606 29.5804 18.1932 29.2045C17.9135 28.9185 17.5389 28.7611 17.1388 28.7611C16.9138 28.7611 16.6981 28.8166 16.4997 28.9131L16.4938 28.9082L16.5006 28.9005C16.782 28.6249 16.9394 28.2566 16.9437 27.8622C16.9478 27.4683 16.7982 27.0962 16.5226 26.8151C16.2431 26.5297 15.8684 26.3717 15.4685 26.3717C15.1557 26.3717 14.8594 26.4729 14.6093 26.6539C14.8117 26.3989 14.9292 26.0894 14.9327 25.7588C14.9371 25.3649 14.7875 24.9928 14.5121 24.7117C14.2324 24.4251 13.8578 24.2677 13.4577 24.2677C13.0701 24.2677 12.7037 24.417 12.4248 24.6904L12.1761 24.9378C12.4828 24.3821 12.4121 23.6706 11.9462 23.1945C11.6662 22.9085 11.2917 22.7511 10.8915 22.7511C10.5039 22.7511 10.1375 22.9003 9.85807 23.1738L9.69354 23.3389C9.57666 23.2424 9.46197 23.1482 9.36065 23.0648C8.97986 22.7521 8.71752 22.5353 8.61213 22.4481C8.434 22.2449 8.26916 22.0406 8.14033 21.8511C8.00197 21.6506 7.90393 21.4648 7.85979 21.339C7.79494 21.157 7.7176 20.986 7.63346 20.8236L12.5217 14.0831C13.005 14.2852 13.5337 14.4372 14.1044 14.4411C14.2563 14.4411 14.4119 14.4301 14.5696 14.404H14.5715C14.897 14.3485 15.4771 14.3048 16.15 14.306C16.5938 14.3049 17.0819 14.3234 17.5809 14.3637L17.6149 14.3659C17.7375 14.3692 17.9416 14.4128 18.1894 14.513L18.2455 14.5386C16.1574 15.4816 13.1981 17.2958 12.2256 17.6204C11.1151 17.9904 11.0222 19.4716 13.5209 19.7489C16.02 20.0272 18.2411 18.4529 18.7963 18.1761C19.1948 17.9768 21.7266 18.2203 23.1289 18.3739C23.7473 18.9846 24.2893 19.5511 24.6846 19.9793L27.7645 23.7448L27.7781 23.7601C28.1728 24.2172 28.3869 24.5881 28.5084 24.9063C28.6286 25.2244 28.6651 25.499 28.6659 25.8111Z" stroke="black" stroke-width="2" mask="url(#path-1-inside-1_496_1210)"/>
</g>
<path id="Vector_2" d="M37.655 19.2661L37.6548 19.2663C37.0174 19.7281 36.1261 19.5851 35.664 18.9486L35.6639 18.9485C35.2015 18.3111 35.3444 17.42 35.9815 16.958L37.655 19.2661ZM37.655 19.2661C38.2922 18.8038 38.4343 17.9122 37.9725 17.2747L37.972 17.274M37.655 19.2661L37.972 17.274M37.972 17.274C37.5099 16.6384 36.6191 16.4955 35.9816 16.9579L37.972 17.274ZM39.489 18.2326L39.4895 18.2332C39.507 18.2573 39.5024 18.2919 39.4769 18.3105C39.4768 18.3106 39.4768 18.3106 39.4767 18.3107L36.1806 20.7009C36.1805 20.7009 36.1805 20.7009 36.1805 20.7009C36.1558 20.7188 36.1212 20.7134 36.1031 20.6884L36.103 20.6882L28.6602 10.4235L28.66 10.4233C28.6418 10.3982 28.6478 10.3637 28.6719 10.3463L28.6723 10.346L31.9686 7.95574C31.9687 7.95572 31.9687 7.95569 31.9687 7.95567C31.9948 7.93692 32.0287 7.94353 32.0459 7.96735L32.0463 7.96784L39.489 18.2326Z" stroke="black"/>
<path id="Vector_3" d="M7.83235 11.6982C8.46989 12.1606 9.36121 12.0178 9.82304 11.381L9.82337 11.3806C10.2843 10.7436 10.1439 9.8524 9.50535 9.38987C8.86789 8.92759 7.97661 9.07034 7.51485 9.70758C7.05245 10.3442 7.19477 11.2366 7.83235 11.6982ZM7.83235 11.6982C7.83246 11.6983 7.83258 11.6984 7.83269 11.6985L8.1258 11.2934L7.83219 11.6981C7.83225 11.6982 7.8323 11.6982 7.83235 11.6982ZM8.03078 7.95543L8.03083 7.95547L11.3281 10.3459C11.352 10.3633 11.3581 10.398 11.3398 10.4233L11.3397 10.4235L3.89656 20.6882L3.89626 20.6886C3.8785 20.7132 3.84428 20.7189 3.81945 20.701C3.8194 20.701 3.81935 20.7009 3.81929 20.7009L0.523583 18.3106C0.523524 18.3106 0.523466 18.3105 0.523407 18.3105C0.497521 18.2915 0.4932 18.2566 0.510449 18.2329L0.510581 18.2327L7.95363 7.96785L7.9538 7.9676C7.97155 7.9431 8.00581 7.93733 8.03078 7.95543Z" stroke="black"/>
</g>
</g>
<defs>
<clipPath id="clip0_496_1210">
<rect width="40" height="40" fill="white"/>
</clipPath>
</defs>
</svg>
