<svg width="1900" height="738" viewBox="0 0 1900 738" fill="none" xmlns="http://www.w3.org/2000/svg">
<path id="hill" d="M1878.16 590.293C1884.59 602.291 1890.15 614.55 1894.8 627.015L1894.8 627.017C1905.14 654.43 1897.77 682.026 1879.02 702.793C1860.25 723.567 1830.1 737.499 1794.91 737.499L105.006 737.5C70.616 737.5 40.9677 724.163 22.1297 704.06C3.29627 683.962 -4.73064 657.112 4.06553 630.01C32.3071 543.02 113.233 426.259 339.676 370.862C490.336 334.008 561.449 241.281 624.902 157.884L625.755 156.763C688.868 73.8094 744.644 0.5 864.019 0.5C984.08 0.5 1044.36 38.1265 1083.59 77.6221C1096.78 90.9059 1107.58 104.384 1117.49 116.75C1122.34 122.801 1126.97 128.585 1131.57 133.951C1145.53 150.248 1159.14 162.655 1177.23 166.523C1195.21 170.369 1223.73 170.395 1257.15 170.382L1258.2 170.382C1291.39 170.369 1329.39 170.354 1366.83 173.978C1442.55 181.307 1515.74 203.497 1542.45 270.377C1567.27 332.512 1594.23 371.661 1622.34 398.41C1650.46 425.16 1679.7 439.482 1709.02 451.999C1713.91 454.088 1718.81 456.127 1723.7 458.164C1748.13 468.337 1772.47 478.477 1796.23 494.736C1824.72 514.237 1852.37 542.549 1878.16 590.293ZM1878.16 590.293L1878.61 590.057L1878.17 590.294C1878.17 590.294 1878.16 590.293 1878.16 590.293Z" fill="#D9D9D9" stroke="black"/>
</svg>
