<svg width="44" height="47" viewBox="0 0 44 47" fill="none" xmlns="http://www.w3.org/2000/svg">
<path id="home" d="M19 42.7917V35C19 33.8954 19.8954 33 21 33H24C25.1046 33 26 33.8954 26 35V43C26.1646 45.081 27.0338 45.512 28.7694 45.9437C28.9221 45.9817 29.0795 46 29.2368 46H34.1064C34.3663 46 34.6252 45.9505 34.8634 45.8465C36.9694 44.9274 37.9073 43.9613 38.8394 41.8712C38.9479 41.6279 39 41.3628 39 41.0964V27.1947C39 26.2588 39.7588 25.5 40.6947 25.5C42.162 25.5 42.9359 23.7622 41.9544 22.6716L23.4546 2.11621C22.6717 1.24628 21.3123 1.23156 20.5107 2.08432L1.66763 22.1302C0.467567 23.4068 1.37274 25.5 3.12489 25.5H4C5.10457 25.5 6 26.3954 6 27.5V40.977C6 41.3199 6.08781 41.6595 6.26079 41.9556C8.13232 45.159 9.35899 45.776 11.5 46H15.7983C15.9324 46 16.0668 45.9871 16.1977 45.9579C17.8492 45.59 18.5385 45.0003 18.955 43.2037C18.9863 43.0688 19 42.9302 19 42.7917Z" stroke="black" stroke-width="1.5"/>
</svg>
