<svg width="30" height="30" viewBox="0 0 30 30" fill="none" xmlns="http://www.w3.org/2000/svg">
<path id="ItemView" d="M4.28571 0H25.7143C26.8509 0 27.941 0.395088 28.7447 1.09835C29.5485 1.80161 30 2.75544 30 3.75V9.375C30 10.3696 29.5485 11.3234 28.7447 12.0267C27.941 12.7299 26.8509 13.125 25.7143 13.125H4.28571C3.14907 13.125 2.05898 12.7299 1.25526 12.0267C0.451529 11.3234 0 10.3696 0 9.375V3.75C0 2.75544 0.451529 1.80161 1.25526 1.09835C2.05898 0.395088 3.14907 0 4.28571 0ZM4.28571 1.875C3.71739 1.875 3.17235 2.07254 2.77049 2.42417C2.36862 2.77581 2.14286 3.25272 2.14286 3.75V9.375C2.14286 9.87228 2.36862 10.3492 2.77049 10.7008C3.17235 11.0525 3.71739 11.25 4.28571 11.25H25.7143C26.2826 11.25 26.8276 11.0525 27.2295 10.7008C27.6314 10.3492 27.8571 9.87228 27.8571 9.375V3.75C27.8571 3.25272 27.6314 2.77581 27.2295 2.42417C26.8276 2.07254 26.2826 1.875 25.7143 1.875H4.28571ZM4.28571 16.875H25.7143C26.8509 16.875 27.941 17.2701 28.7447 17.9734C29.5485 18.6766 30 19.6304 30 20.625V26.25C30 27.2446 29.5485 28.1984 28.7447 28.9016C27.941 29.6049 26.8509 30 25.7143 30H4.28571C3.14907 30 2.05898 29.6049 1.25526 28.9016C0.451529 28.1984 0 27.2446 0 26.25V20.625C0 19.6304 0.451529 18.6766 1.25526 17.9734C2.05898 17.2701 3.14907 16.875 4.28571 16.875ZM4.28571 18.75C3.71739 18.75 3.17235 18.9475 2.77049 19.2992C2.36862 19.6508 2.14286 20.1277 2.14286 20.625V26.25C2.14286 26.7473 2.36862 27.2242 2.77049 27.5758C3.17235 27.9275 3.71739 28.125 4.28571 28.125H25.7143C26.2826 28.125 26.8276 27.9275 27.2295 27.5758C27.6314 27.2242 27.8571 26.7473 27.8571 26.25V20.625C27.8571 20.1277 27.6314 19.6508 27.2295 19.2992C26.8276 18.9475 26.2826 18.75 25.7143 18.75H4.28571Z" fill="black"/>
</svg>
