<svg width="88" height="88" viewBox="0 0 88 88" fill="none" xmlns="http://www.w3.org/2000/svg">
<path d="M0.25 9.625C0.25 7.1386 1.23772 4.75403 2.99587 2.99587C4.75403 1.23772 7.1386 0.25 9.625 0.25H28.375C30.8614 0.25 33.246 1.23772 35.0041 2.99587C36.7623 4.75403 37.75 7.1386 37.75 9.625V28.375C37.75 30.8614 36.7623 33.246 35.0041 35.0041C33.246 36.7623 30.8614 37.75 28.375 37.75H9.625C7.1386 37.75 4.75403 36.7623 2.99587 35.0041C1.23772 33.246 0.25 30.8614 0.25 28.375V9.625ZM9.625 6.5C8.7962 6.5 8.00134 6.82924 7.41529 7.41529C6.82924 8.00134 6.5 8.7962 6.5 9.625V28.375C6.5 29.2038 6.82924 29.9987 7.41529 30.5847C8.00134 31.1708 8.7962 31.5 9.625 31.5H28.375C29.2038 31.5 29.9987 31.1708 30.5847 30.5847C31.1708 29.9987 31.5 29.2038 31.5 28.375V9.625C31.5 8.7962 31.1708 8.00134 30.5847 7.41529C29.9987 6.82924 29.2038 6.5 28.375 6.5H9.625ZM50.25 9.625C50.25 7.1386 51.2377 4.75403 52.9959 2.99587C54.754 1.23772 57.1386 0.25 59.625 0.25H78.375C80.8614 0.25 83.246 1.23772 85.0041 2.99587C86.7623 4.75403 87.75 7.1386 87.75 9.625V28.375C87.75 30.8614 86.7623 33.246 85.0041 35.0041C83.246 36.7623 80.8614 37.75 78.375 37.75H59.625C57.1386 37.75 54.754 36.7623 52.9959 35.0041C51.2377 33.246 50.25 30.8614 50.25 28.375V9.625ZM59.625 6.5C58.7962 6.5 58.0013 6.82924 57.4153 7.41529C56.8292 8.00134 56.5 8.7962 56.5 9.625V28.375C56.5 29.2038 56.8292 29.9987 57.4153 30.5847C58.0013 31.1708 58.7962 31.5 59.625 31.5H78.375C79.2038 31.5 79.9987 31.1708 80.5847 30.5847C81.1708 29.9987 81.5 29.2038 81.5 28.375V9.625C81.5 8.7962 81.1708 8.00134 80.5847 7.41529C79.9987 6.82924 79.2038 6.5 78.375 6.5H59.625ZM0.25 59.625C0.25 57.1386 1.23772 54.754 2.99587 52.9959C4.75403 51.2377 7.1386 50.25 9.625 50.25H28.375C30.8614 50.25 33.246 51.2377 35.0041 52.9959C36.7623 54.754 37.75 57.1386 37.75 59.625V78.375C37.75 80.8614 36.7623 83.246 35.0041 85.0041C33.246 86.7623 30.8614 87.75 28.375 87.75H9.625C7.1386 87.75 4.75403 86.7623 2.99587 85.0041C1.23772 83.246 0.25 80.8614 0.25 78.375V59.625ZM9.625 56.5C8.7962 56.5 8.00134 56.8292 7.41529 57.4153C6.82924 58.0013 6.5 58.7962 6.5 59.625V78.375C6.5 79.2038 6.82924 79.9987 7.41529 80.5847C8.00134 81.1708 8.7962 81.5 9.625 81.5H28.375C29.2038 81.5 29.9987 81.1708 30.5847 80.5847C31.1708 79.9987 31.5 79.2038 31.5 78.375V59.625C31.5 58.7962 31.1708 58.0013 30.5847 57.4153C29.9987 56.8292 29.2038 56.5 28.375 56.5H9.625ZM50.25 59.625C50.25 57.1386 51.2377 54.754 52.9959 52.9959C54.754 51.2377 57.1386 50.25 59.625 50.25H78.375C80.8614 50.25 83.246 51.2377 85.0041 52.9959C86.7623 54.754 87.75 57.1386 87.75 59.625V78.375C87.75 80.8614 86.7623 83.246 85.0041 85.0041C83.246 86.7623 80.8614 87.75 78.375 87.75H59.625C57.1386 87.75 54.754 86.7623 52.9959 85.0041C51.2377 83.246 50.25 80.8614 50.25 78.375V59.625ZM59.625 56.5C58.7962 56.5 58.0013 56.8292 57.4153 57.4153C56.8292 58.0013 56.5 58.7962 56.5 59.625V78.375C56.5 79.2038 56.8292 79.9987 57.4153 80.5847C58.0013 81.1708 58.7962 81.5 59.625 81.5H78.375C79.2038 81.5 79.9987 81.1708 80.5847 80.5847C81.1708 79.9987 81.5 79.2038 81.5 78.375V59.625C81.5 58.7962 81.1708 58.0013 80.5847 57.4153C79.9987 56.8292 79.2038 56.5 78.375 56.5H59.625Z" fill="black"/>
</svg>
