<svg width="30" height="30" viewBox="0 0 30 30" fill="none" xmlns="http://www.w3.org/2000/svg">
<path id="ListView" fill-rule="evenodd" clip-rule="evenodd" d="M8.57143 27C8.57143 26.6022 8.68431 26.2206 8.88524 25.9393C9.08617 25.658 9.3587 25.5 9.64286 25.5H28.9286C29.2127 25.5 29.4853 25.658 29.6862 25.9393C29.8871 26.2206 30 26.6022 30 27C30 27.3978 29.8871 27.7794 29.6862 28.0607C29.4853 28.342 29.2127 28.5 28.9286 28.5H9.64286C9.3587 28.5 9.08617 28.342 8.88524 28.0607C8.68431 27.7794 8.57143 27.3978 8.57143 27ZM8.57143 15C8.57143 14.6022 8.68431 14.2206 8.88524 13.9393C9.08617 13.658 9.3587 13.5 9.64286 13.5H28.9286C29.2127 13.5 29.4853 13.658 29.6862 13.9393C29.8871 14.2206 30 14.6022 30 15C30 15.3978 29.8871 15.7794 29.6862 16.0607C29.4853 16.342 29.2127 16.5 28.9286 16.5H9.64286C9.3587 16.5 9.08617 16.342 8.88524 16.0607C8.68431 15.7794 8.57143 15.3978 8.57143 15ZM8.57143 3C8.57143 2.60218 8.68431 2.22064 8.88524 1.93934C9.08617 1.65804 9.3587 1.5 9.64286 1.5H28.9286C29.2127 1.5 29.4853 1.65804 29.6862 1.93934C29.8871 2.22064 30 2.60218 30 3C30 3.39782 29.8871 3.77936 29.6862 4.06066C29.4853 4.34196 29.2127 4.5 28.9286 4.5H9.64286C9.3587 4.5 9.08617 4.34196 8.88524 4.06066C8.68431 3.77936 8.57143 3.39782 8.57143 3ZM2.14286 6C2.71118 6 3.25622 5.68393 3.65809 5.12132C4.05995 4.55871 4.28571 3.79565 4.28571 3C4.28571 2.20435 4.05995 1.44129 3.65809 0.87868C3.25622 0.31607 2.71118 0 2.14286 0C1.57454 0 1.02949 0.31607 0.627628 0.87868C0.225765 1.44129 0 2.20435 0 3C0 3.79565 0.225765 4.55871 0.627628 5.12132C1.02949 5.68393 1.57454 6 2.14286 6ZM2.14286 18C2.71118 18 3.25622 17.6839 3.65809 17.1213C4.05995 16.5587 4.28571 15.7956 4.28571 15C4.28571 14.2044 4.05995 13.4413 3.65809 12.8787C3.25622 12.3161 2.71118 12 2.14286 12C1.57454 12 1.02949 12.3161 0.627628 12.8787C0.225765 13.4413 0 14.2044 0 15C0 15.7956 0.225765 16.5587 0.627628 17.1213C1.02949 17.6839 1.57454 18 2.14286 18ZM2.14286 30C2.71118 30 3.25622 29.6839 3.65809 29.1213C4.05995 28.5587 4.28571 27.7956 4.28571 27C4.28571 26.2044 4.05995 25.4413 3.65809 24.8787C3.25622 24.3161 2.71118 24 2.14286 24C1.57454 24 1.02949 24.3161 0.627628 24.8787C0.225765 25.4413 0 26.2044 0 27C0 27.7956 0.225765 28.5587 0.627628 29.1213C1.02949 29.6839 1.57454 30 2.14286 30Z" fill="black"/>
</svg>
