<svg width="100" height="100" viewBox="0 0 100 100" fill="none" xmlns="http://www.w3.org/2000/svg">
<path d="M18.75 0H81.25C84.5652 0 87.7446 1.31696 90.0888 3.66117C92.433 6.00537 93.75 9.18479 93.75 12.5V31.25C93.75 34.5652 92.433 37.7446 90.0888 40.0888C87.7446 42.433 84.5652 43.75 81.25 43.75H18.75C15.4348 43.75 12.2554 42.433 9.91117 40.0888C7.56696 37.7446 6.25 34.5652 6.25 31.25V12.5C6.25 9.18479 7.56696 6.00537 9.91117 3.66117C12.2554 1.31696 15.4348 0 18.75 0ZM18.75 6.25C17.0924 6.25 15.5027 6.90848 14.3306 8.08058C13.1585 9.25268 12.5 10.8424 12.5 12.5V31.25C12.5 32.9076 13.1585 34.4973 14.3306 35.6694C15.5027 36.8415 17.0924 37.5 18.75 37.5H81.25C82.9076 37.5 84.4973 36.8415 85.6694 35.6694C86.8415 34.4973 87.5 32.9076 87.5 31.25V12.5C87.5 10.8424 86.8415 9.25268 85.6694 8.08058C84.4973 6.90848 82.9076 6.25 81.25 6.25H18.75ZM18.75 56.25H81.25C84.5652 56.25 87.7446 57.567 90.0888 59.9112C92.433 62.2554 93.75 65.4348 93.75 68.75V87.5C93.75 90.8152 92.433 93.9946 90.0888 96.3388C87.7446 98.683 84.5652 100 81.25 100H18.75C15.4348 100 12.2554 98.683 9.91117 96.3388C7.56696 93.9946 6.25 90.8152 6.25 87.5V68.75C6.25 65.4348 7.56696 62.2554 9.91117 59.9112C12.2554 57.567 15.4348 56.25 18.75 56.25ZM18.75 62.5C17.0924 62.5 15.5027 63.1585 14.3306 64.3306C13.1585 65.5027 12.5 67.0924 12.5 68.75V87.5C12.5 89.1576 13.1585 90.7473 14.3306 91.9194C15.5027 93.0915 17.0924 93.75 18.75 93.75H81.25C82.9076 93.75 84.4973 93.0915 85.6694 91.9194C86.8415 90.7473 87.5 89.1576 87.5 87.5V68.75C87.5 67.0924 86.8415 65.5027 85.6694 64.3306C84.4973 63.1585 82.9076 62.5 81.25 62.5H18.75Z" fill="black"/>
</svg>
