<svg width="72" height="72" viewBox="0 0 72 72" fill="none" xmlns="http://www.w3.org/2000/svg">
<path id="img" d="M71 57.6667H69.9867C66.8533 57.6667 63.73 56.7533 61.44 54.61C58.7159 52.0632 56.3989 49.1133 54.57 45.8633L51.8367 41H50.17L47.43 45.8633C45.8387 48.6894 43.8769 51.2902 41.5967 53.5967C39.2104 52.9492 37.0159 51.7347 35.2 50.0567C31.4063 46.4869 28.1822 42.3567 25.64 37.81L21.8333 31H20.1733L16.37 37.81C13.5194 42.9073 9.81439 47.477 5.41667 51.32C4.13452 52.4303 2.62808 53.2512 1 53.7267M1 71V1H71V71H1ZM51 27.6667C49.2319 27.6667 47.5362 26.9643 46.286 25.714C45.0357 24.4638 44.3333 22.7681 44.3333 21C44.3333 19.2319 45.0357 17.5362 46.286 16.286C47.5362 15.0357 49.2319 14.3333 51 14.3333C52.7681 14.3333 54.4638 15.0357 55.714 16.286C56.9643 17.5362 57.6667 19.2319 57.6667 21C57.6667 22.7681 56.9643 24.4638 55.714 25.714C54.4638 26.9643 52.7681 27.6667 51 27.6667Z" stroke="black"/>
</svg>
