<svg width="50" height="50" viewBox="0 0 50 50" fill="none" xmlns="http://www.w3.org/2000/svg">
<g id="info" clip-path="url(#clip0_407_947)">
<path id="Vector" d="M25 46.875C19.1984 46.875 13.6344 44.5703 9.53204 40.468C5.42968 36.3656 3.125 30.8016 3.125 25C3.125 19.1984 5.42968 13.6344 9.53204 9.53204C13.6344 5.42968 19.1984 3.125 25 3.125C30.8016 3.125 36.3656 5.42968 40.468 9.53204C44.5703 13.6344 46.875 19.1984 46.875 25C46.875 30.8016 44.5703 36.3656 40.468 40.468C36.3656 44.5703 30.8016 46.875 25 46.875ZM25 50C31.6304 50 37.9893 47.3661 42.6777 42.6777C47.3661 37.9893 50 31.6304 50 25C50 18.3696 47.3661 12.0107 42.6777 7.32233C37.9893 2.63392 31.6304 0 25 0C18.3696 0 12.0107 2.63392 7.32233 7.32233C2.63392 12.0107 0 18.3696 0 25C0 31.6304 2.63392 37.9893 7.32233 42.6777C12.0107 47.3661 18.3696 50 25 50Z" fill="black"/>
<path id="Vector_2" d="M21.8813 34.375C21.8813 33.9646 21.9621 33.5583 22.1191 33.1791C22.2762 32.8 22.5064 32.4555 22.7965 32.1653C23.0867 31.8751 23.4312 31.6449 23.8104 31.4879C24.1895 31.3308 24.5959 31.25 25.0063 31.25C25.4166 31.25 25.823 31.3308 26.2021 31.4879C26.5813 31.6449 26.9258 31.8751 27.216 32.1653C27.5061 32.4555 27.7363 32.8 27.8934 33.1791C28.0504 33.5583 28.1313 33.9646 28.1313 34.375C28.1313 35.2038 27.802 35.9987 27.216 36.5847C26.6299 37.1708 25.8351 37.5 25.0063 37.5C24.1774 37.5 23.3826 37.1708 22.7965 36.5847C22.2105 35.9987 21.8813 35.2038 21.8813 34.375ZM22.1875 15.6094C22.1459 15.2151 22.1876 14.8165 22.31 14.4395C22.4324 14.0624 22.6327 13.7153 22.8979 13.4206C23.1631 13.1259 23.4873 12.8903 23.8494 12.729C24.2116 12.5677 24.6036 12.4844 25 12.4844C25.3964 12.4844 25.7884 12.5677 26.1506 12.729C26.5127 12.8903 26.8369 13.1259 27.1021 13.4206C27.3673 13.7153 27.5676 14.0624 27.69 14.4395C27.8124 14.8165 27.8541 15.2151 27.8125 15.6094L26.7188 26.5687C26.682 26.9993 26.485 27.4004 26.1667 27.6926C25.8485 27.9849 25.4321 28.147 25 28.147C24.5679 28.147 24.1515 27.9849 23.8333 27.6926C23.515 27.4004 23.318 26.9993 23.2813 26.5687L22.1875 15.6094Z" fill="black"/>
</g>
<defs>
<clipPath id="clip0_407_947">
<rect width="50" height="50" fill="white"/>
</clipPath>
</defs>
</svg>
