<svg width="30" height="30" viewBox="0 0 30 30" fill="none" xmlns="http://www.w3.org/2000/svg">
<circle cx="15" cy="15" r="14.5" stroke="black"/>
<path d="M14.005 8.49985C13.991 8.31024 14.0064 8.11874 14.05 7.93771C14.0937 7.75668 14.1647 7.59014 14.2584 7.44882C14.3522 7.30751 14.4666 7.19455 14.5943 7.11725C14.7221 7.03994 14.8603 7 15 7C15.1397 7 15.2779 7.03994 15.4057 7.11725C15.5334 7.19455 15.6478 7.30751 15.7416 7.44882C15.8353 7.59014 15.9063 7.75668 15.95 7.93771C15.9936 8.11874 16.009 8.31024 15.995 8.49985L15.607 17.159C15.592 17.3644 15.5216 17.5548 15.4094 17.6933C15.2972 17.8318 15.1513 17.9085 15 17.9085C14.8487 17.9085 14.7028 17.8318 14.5906 17.6933C14.4784 17.5548 14.408 17.3644 14.393 17.159L14.005 8.49985ZM14 20.6363C14 20.2747 14.1054 19.9278 14.2929 19.6721C14.4804 19.4164 14.7348 19.2727 15 19.2727C15.2652 19.2727 15.5196 19.4164 15.7071 19.6721C15.8946 19.9278 16 20.2747 16 20.6363C16 20.998 15.8946 21.3449 15.7071 21.6006C15.5196 21.8563 15.2652 22 15 22C14.7348 22 14.4804 21.8563 14.2929 21.6006C14.1054 21.3449 14 20.998 14 20.6363Z" fill="black"/>
</svg>
