<svg width="30" height="30" viewBox="0 0 30 30" fill="none" xmlns="http://www.w3.org/2000/svg">
<circle cx="15" cy="15" r="14.5" stroke="black"/>
<path d="M13.0075 8.49985C12.9866 8.31024 13.0096 8.11874 13.0751 7.93771C13.1405 7.75668 13.247 7.59014 13.3876 7.44882C13.5283 7.30751 13.6999 7.19455 13.8915 7.11725C14.0831 7.03994 14.2904 7 14.5 7C14.7096 7 14.9169 7.03994 15.1085 7.11725C15.3001 7.19455 15.4717 7.30751 15.6124 7.44882C15.753 7.59014 15.8595 7.75668 15.9249 7.93771C15.9904 8.11874 16.0134 8.31024 15.9925 8.49985L15.4105 17.159C15.388 17.3644 15.2824 17.5548 15.1141 17.6933C14.9459 17.8318 14.727 17.9085 14.5 17.9085C14.273 17.9085 14.0541 17.8318 13.8859 17.6933C13.7176 17.5548 13.612 17.3644 13.5895 17.159L13.0075 8.49985ZM13 20.6363C13 20.2747 13.158 19.9278 13.4393 19.6721C13.7206 19.4164 14.1022 19.2727 14.5 19.2727C14.8978 19.2727 15.2794 19.4164 15.5607 19.6721C15.842 19.9278 16 20.2747 16 20.6363C16 20.998 15.842 21.3449 15.5607 21.6006C15.2794 21.8563 14.8978 22 14.5 22C14.1022 22 13.7206 21.8563 13.4393 21.6006C13.158 21.3449 13 20.998 13 20.6363Z" fill="black"/>
</svg>
