<svg width="51" height="51" viewBox="0 0 51 51" fill="none" xmlns="http://www.w3.org/2000/svg">
<g id="InstagramHolo" clip-path="url(#clip0_407_964)">
<path id="Vector" d="M25.8906 0.00292969C19.1062 0.00292969 18.2531 0.0341797 15.5875 0.15293C12.9219 0.27793 11.1062 0.69668 9.51562 1.31543C7.84717 1.94299 6.33591 2.92739 5.0875 4.1998C3.81586 5.44886 2.83159 6.95993 2.20312 8.62793C1.58437 10.2154 1.1625 12.0342 1.04063 14.6904C0.921875 17.3623 0.890625 18.2123 0.890625 25.0061C0.890625 31.7936 0.921875 32.6436 1.04063 35.3092C1.16562 37.9717 1.58437 39.7873 2.20312 41.3779C2.84375 43.0217 3.69688 44.4154 5.0875 45.8061C6.475 47.1967 7.86875 48.0529 9.5125 48.6904C11.1063 49.3092 12.9188 49.7311 15.5813 49.8529C18.25 49.9717 19.1 50.0029 25.8906 50.0029C32.6813 50.0029 33.5281 49.9717 36.1969 49.8529C38.8563 49.7279 40.6781 49.3092 42.2688 48.6904C43.9361 48.0626 45.4463 47.0782 46.6937 45.8061C48.0844 44.4154 48.9375 43.0217 49.5781 41.3779C50.1937 39.7873 50.6156 37.9717 50.7406 35.3092C50.8594 32.6436 50.8906 31.7936 50.8906 25.0029C50.8906 18.2123 50.8594 17.3623 50.7406 14.6936C50.6156 12.0342 50.1937 10.2154 49.5781 8.62793C48.9498 6.95988 47.9655 5.44879 46.6937 4.1998C45.4457 2.92692 43.9344 1.94245 42.2656 1.31543C40.6719 0.69668 38.8531 0.274805 36.1937 0.15293C33.525 0.0341797 32.6781 0.00292969 25.8844 0.00292969H25.8938H25.8906ZM23.65 4.50918H25.8938C32.5688 4.50918 33.3594 4.53105 35.9937 4.65293C38.4312 4.7623 39.7562 5.17168 40.6375 5.5123C41.8031 5.96543 42.6375 6.50918 43.5125 7.38418C44.3875 8.25918 44.9281 9.09043 45.3813 10.2592C45.725 11.1373 46.1313 12.4623 46.2406 14.8998C46.3625 17.5342 46.3875 18.3248 46.3875 24.9967C46.3875 31.6686 46.3625 32.4623 46.2406 35.0967C46.1313 37.5342 45.7219 38.8561 45.3813 39.7373C44.9804 40.8228 44.3407 41.8043 43.5094 42.6092C42.6344 43.4842 41.8031 44.0248 40.6344 44.4779C39.7594 44.8217 38.4344 45.2279 35.9937 45.3404C33.3594 45.4592 32.5688 45.4873 25.8938 45.4873C19.2188 45.4873 18.425 45.4592 15.7906 45.3404C13.3531 45.2279 12.0312 44.8217 11.15 44.4779C10.0641 44.0777 9.08164 43.4391 8.275 42.6092C7.44297 41.803 6.80226 40.8206 6.4 39.7342C6.05938 38.8561 5.65 37.5311 5.54063 35.0936C5.42188 32.4592 5.39688 31.6686 5.39688 24.9904C5.39688 18.3154 5.42188 17.5279 5.54063 14.8936C5.65313 12.4561 6.05938 11.1311 6.40313 10.2498C6.85625 9.08418 7.4 8.2498 8.275 7.3748C9.15 6.4998 9.98125 5.95918 11.15 5.50605C12.0312 5.1623 13.3531 4.75605 15.7906 4.64355C18.0969 4.5373 18.9906 4.50605 23.65 4.50293V4.50918ZM39.2375 8.65918C38.8435 8.65918 38.4534 8.73678 38.0894 8.88754C37.7255 9.03831 37.3948 9.25928 37.1162 9.53786C36.8376 9.81644 36.6166 10.1472 36.4659 10.5111C36.3151 10.8751 36.2375 11.2652 36.2375 11.6592C36.2375 12.0531 36.3151 12.4433 36.4659 12.8072C36.6166 13.1712 36.8376 13.5019 37.1162 13.7805C37.3948 14.0591 37.7255 14.2801 38.0894 14.4308C38.4534 14.5816 38.8435 14.6592 39.2375 14.6592C40.0331 14.6592 40.7962 14.3431 41.3588 13.7805C41.9214 13.2179 42.2375 12.4548 42.2375 11.6592C42.2375 10.8635 41.9214 10.1005 41.3588 9.53786C40.7962 8.97525 40.0331 8.65918 39.2375 8.65918ZM25.8938 12.1654C24.1908 12.1389 22.4997 12.4513 20.9187 13.0846C19.3377 13.7179 17.8985 14.6594 16.6848 15.8543C15.4712 17.0491 14.5074 18.4735 13.8495 20.0444C13.1916 21.6153 12.8528 23.3014 12.8528 25.0045C12.8528 26.7076 13.1916 28.3937 13.8495 29.9646C14.5074 31.5355 15.4712 32.9599 16.6848 34.1547C17.8985 35.3496 19.3377 36.2911 20.9187 36.9244C22.4997 37.5577 24.1908 37.8701 25.8938 37.8436C29.2642 37.791 32.4788 36.4152 34.8437 34.0131C37.2086 31.611 38.5341 28.3753 38.5341 25.0045C38.5341 21.6336 37.2086 18.398 34.8437 15.9959C32.4788 13.5938 29.2642 12.218 25.8938 12.1654ZM25.8938 16.6686C28.1042 16.6686 30.224 17.5466 31.787 19.1096C33.35 20.6726 34.2281 22.7925 34.2281 25.0029C34.2281 27.2133 33.35 29.3332 31.787 30.8962C30.224 32.4592 28.1042 33.3373 25.8938 33.3373C23.6833 33.3373 21.5635 32.4592 20.0005 30.8962C18.4375 29.3332 17.5594 27.2133 17.5594 25.0029C17.5594 22.7925 18.4375 20.6726 20.0005 19.1096C21.5635 17.5466 23.6833 16.6686 25.8938 16.6686Z" fill="black"/>
</g>
<defs>
<clipPath id="clip0_407_964">
<rect width="50" height="50" fill="white" transform="translate(0.890625 0.00292969)"/>
</clipPath>
</defs>
</svg>
