<svg width="30" height="30" viewBox="0 0 30 30" fill="none" xmlns="http://www.w3.org/2000/svg">
<path d="M5.35103 1.25549L5.35104 1.25552L5.35627 1.25348C6.25119 0.905355 7.28338 0.663488 8.82993 0.59H21.1703C22.7124 0.66163 23.7466 0.905178 24.644 1.2536L24.644 1.25363L24.6491 1.25555C25.5821 1.60611 26.4271 2.15651 27.1248 2.86817L27.1248 2.86823L27.1315 2.87486C27.8428 3.57335 28.3932 4.41841 28.7446 5.35125L28.7446 5.35126L28.7463 5.35578C29.0929 6.24953 29.3365 7.28387 29.41 8.82623V21.1719C29.3366 22.7157 29.093 23.7482 28.7464 24.644C28.3853 25.5706 27.91 26.3467 27.1283 27.1284L27.1249 27.1318C26.4274 27.8431 25.583 28.3935 24.6507 28.7446L24.6507 28.7445L24.6456 28.7465C23.7508 29.0946 22.715 29.3365 21.172 29.41H8.82591C7.28218 29.3384 6.25174 29.0949 5.35409 28.7464L5.35392 28.7463C4.42817 28.3873 3.65209 27.9105 2.87208 27.1288L2.87169 27.1284C2.09001 26.3466 1.61468 25.5704 1.25348 24.6437C0.905339 23.7488 0.663484 22.7166 0.590004 21.172V8.82403C0.661635 7.28374 0.905196 6.24984 1.25336 5.35658L1.25339 5.35659L1.25539 5.35129C1.60687 4.41845 2.15733 3.57338 2.8685 2.87483L2.86856 2.87489L2.87503 2.86829C3.57308 2.15682 4.41811 1.60639 5.35103 1.25549Z" stroke="black"/>
<path d="M21.9 15.2C21.9 18.9003 18.9003 21.9 15.2 21.9C11.4997 21.9 8.5 18.9003 8.5 15.2C8.5 11.4997 11.4997 8.5 15.2 8.5C18.9003 8.5 21.9 11.4997 21.9 15.2Z" stroke="black"/>
<circle cx="23.0563" cy="6.90118" r="2.1" fill="black"/>
</svg>
