<svg width="160" height="160" viewBox="0 0 160 160" fill="none" xmlns="http://www.w3.org/2000/svg">
<g id="logo">
<circle id="Ellipse 15" cx="80" cy="80" r="80" fill="#D9D9D9"/>
<path id="Logo" d="M29.3356 96V62.4H33.8956V91.92H49.3036V96H29.3356ZM63.8833 96.576C61.5153 96.576 59.3873 96.032 57.4993 94.944C55.6113 93.824 54.1233 92.288 53.0353 90.336C51.9793 88.352 51.4513 86.08 51.4513 83.52C51.4513 80.832 51.9953 78.512 53.0833 76.56C54.1713 74.608 55.6593 73.104 57.5473 72.048C59.4353 70.992 61.5473 70.464 63.8833 70.464C66.2193 70.464 68.3153 70.992 70.1713 72.048C72.0593 73.104 73.5473 74.608 74.6353 76.56C75.7553 78.48 76.3153 80.768 76.3153 83.424C76.3153 86.08 75.7713 88.4 74.6833 90.384C73.5953 92.336 72.1073 93.856 70.2193 94.944C68.3633 96.032 66.2513 96.576 63.8833 96.576ZM63.8833 92.736C66.4113 92.736 68.3793 91.888 69.7873 90.192C71.1953 88.464 71.8993 86.24 71.8993 83.52C71.8993 81.856 71.5473 80.336 70.8433 78.96C70.1393 77.552 69.1793 76.432 67.9633 75.6C66.7793 74.736 65.4193 74.304 63.8833 74.304C61.3553 74.304 59.3873 75.136 57.9793 76.8C56.5713 78.464 55.8672 80.672 55.8672 83.424C55.8672 85.088 56.2193 86.64 56.9233 88.08C57.6273 89.488 58.5713 90.624 59.7553 91.488C60.9713 92.32 62.3473 92.736 63.8833 92.736ZM91.2268 107.136C89.7548 107.136 88.3148 106.96 86.9068 106.608C85.5308 106.256 84.2988 105.728 83.2108 105.024L84.7948 101.28C85.5628 101.888 86.4588 102.384 87.4828 102.768C88.5068 103.184 89.7548 103.392 91.2268 103.392C93.4988 103.392 95.2748 102.784 96.5548 101.568C97.8668 100.384 98.5228 98.48 98.5228 95.856V92.784C97.8828 93.552 96.9548 94.288 95.7388 94.992C94.5548 95.664 93.1308 96 91.4668 96C89.5788 96 87.7868 95.52 86.0908 94.56C84.3948 93.568 83.0188 92.128 81.9628 90.24C80.9068 88.352 80.3788 86.08 80.3788 83.424C80.3788 80.928 80.8908 78.704 81.9148 76.752C82.9708 74.8 84.3788 73.264 86.1388 72.144C87.8988 71.024 89.8348 70.464 91.9468 70.464C93.3548 70.464 94.6348 70.704 95.7868 71.184C96.9388 71.664 97.9308 72.256 98.7628 72.96V71.04H102.699V95.424C102.699 98.176 102.219 100.416 101.259 102.144C100.299 103.872 98.9548 105.136 97.2268 105.936C95.5308 106.736 93.5308 107.136 91.2268 107.136ZM92.4268 92.16C93.7068 92.16 94.8588 91.872 95.8828 91.296C96.9068 90.72 97.7388 90.048 98.3788 89.28V76.224C97.6748 75.712 96.8268 75.248 95.8348 74.832C94.8428 74.416 93.6908 74.208 92.3788 74.208C91.0668 74.208 89.8348 74.56 88.6828 75.264C87.5308 75.968 86.5868 76.992 85.8508 78.336C85.1468 79.648 84.7948 81.264 84.7948 83.184C84.7948 85.008 85.1468 86.592 85.8508 87.936C86.5868 89.28 87.5308 90.32 88.6828 91.056C89.8348 91.792 91.0828 92.16 92.4268 92.16ZM120.649 96.576C118.281 96.576 116.153 96.032 114.265 94.944C112.377 93.824 110.889 92.288 109.801 90.336C108.745 88.352 108.217 86.08 108.217 83.52C108.217 80.832 108.761 78.512 109.849 76.56C110.937 74.608 112.425 73.104 114.313 72.048C116.201 70.992 118.313 70.464 120.649 70.464C122.985 70.464 125.081 70.992 126.937 72.048C128.825 73.104 130.313 74.608 131.401 76.56C132.521 78.48 133.081 80.768 133.081 83.424C133.081 86.08 132.537 88.4 131.449 90.384C130.361 92.336 128.873 93.856 126.985 94.944C125.129 96.032 123.017 96.576 120.649 96.576ZM120.649 92.736C123.177 92.736 125.145 91.888 126.553 90.192C127.961 88.464 128.665 86.24 128.665 83.52C128.665 81.856 128.313 80.336 127.609 78.96C126.905 77.552 125.945 76.432 124.729 75.6C123.545 74.736 122.185 74.304 120.649 74.304C118.121 74.304 116.153 75.136 114.745 76.8C113.337 78.464 112.633 80.672 112.633 83.424C112.633 85.088 112.985 86.64 113.689 88.08C114.393 89.488 115.337 90.624 116.521 91.488C117.737 92.32 119.113 92.736 120.649 92.736Z" fill="black"/>
</g>
</svg>
