<svg width="84" height="201" viewBox="0 0 84 201" fill="none" xmlns="http://www.w3.org/2000/svg">
<g id="male">
<path id="Vector" d="M12.3969 198.959C8.47198 198.465 5.43149 197.887 3.38234 197.265C2.35413 196.953 1.60467 196.638 1.12257 196.335C0.60983 196.013 0.542542 195.796 0.542542 195.724C0.542542 195.652 0.609831 195.436 1.12257 195.113C1.60467 194.81 2.35413 194.496 3.38234 194.184C5.43149 193.562 8.47198 192.983 12.3969 192.49C20.2403 191.504 30.8928 190.948 42.01 190.948C53.1273 190.948 63.7798 191.504 71.6232 192.49C75.5481 192.983 78.5886 193.562 80.6377 194.184C81.666 194.496 82.4154 194.81 82.8975 195.113C83.4103 195.436 83.4775 195.652 83.4775 195.724C83.4775 195.796 83.4103 196.013 82.8975 196.335C82.4154 196.638 81.666 196.953 80.6377 197.265C78.5886 197.887 75.5481 198.465 71.6232 198.959C63.7798 199.945 53.1273 200.5 42.01 200.5C30.8928 200.5 20.2403 199.945 12.3969 198.959Z" fill="#D9EDFF" stroke="black"/>
<g id="Group">
<path id="Vector_2" d="M17.21 123.613V190.455H35.5225L37.6125 146.833C37.5926 146.289 37.6917 145.747 37.9037 145.239C38.1157 144.731 38.4365 144.267 38.8468 143.876C39.2571 143.485 39.7486 143.174 40.292 142.961C40.8355 142.749 41.4198 142.639 42.0101 142.639C42.6003 142.639 43.1846 142.749 43.7281 142.961C44.2715 143.174 44.763 143.485 45.1733 143.876C45.5836 144.267 45.9043 144.731 46.1164 145.239C46.3284 145.747 46.4274 146.289 46.4076 146.833L48.5 190.448H66.8125V123.606L17.21 123.613ZM73.5 141.202C71.7291 141.202 70.0306 140.553 68.7784 139.399C67.5261 138.244 66.8226 136.678 66.8226 135.045V97.2313H80.175V135.045C80.1754 135.854 80.003 136.654 79.6677 137.401C79.3324 138.148 78.8407 138.827 78.2209 139.398C77.601 139.97 76.865 140.424 76.055 140.733C75.245 141.043 74.3768 141.202 73.5 141.202ZM10.5325 141.202C9.65576 141.202 8.78756 141.043 7.97755 140.733C7.16754 140.424 6.43158 139.97 5.81172 139.398C5.19185 138.827 4.70023 138.148 4.36493 137.401C4.02962 136.654 3.85722 135.854 3.85754 135.045V97.2313H17.21V135.045C17.21 136.678 16.5065 138.244 15.2542 139.399C14.002 140.553 12.3035 141.202 10.5325 141.202Z" fill="white" stroke="black" stroke-linecap="round" stroke-linejoin="round"/>
<path id="Vector_3" d="M42 60.2976C22.315 60.6526 3.84753 73.991 3.84753 97.2312H17.2V123.613H66.8V97.2312H80.1525C80.1625 73.991 61.695 60.6526 42 60.2976Z" fill="#D9D9D9" stroke="black" stroke-linecap="round" stroke-linejoin="round"/>
<path id="Vector_4" d="M66.8101 98.2798V85.6167M17.2101 98.2798V85.6167" stroke="black" stroke-linecap="round" stroke-linejoin="round"/>
<path id="Vector_5" d="M53.3726 61.9986C53.0601 61.9087 52.7476 61.8211 52.4351 61.7381C51.9135 61.6 51.4549 61.3092 51.1283 60.9097C50.8018 60.5101 50.6252 60.0234 50.6251 59.5231V51.7833H33.3951V59.5231C33.3955 60.0238 33.2192 60.511 32.8926 60.911C32.566 61.3111 32.1071 61.6022 31.5851 61.7404C31.2801 61.8188 30.9776 61.9041 30.6751 61.9893L30.5951 62.0838C30.7959 64.7488 32.0857 67.2443 34.2044 69.0666C36.323 70.8889 39.1126 71.9024 42.0101 71.9024C44.9076 71.9024 47.6972 70.8889 49.8158 69.0666C51.9345 67.2443 53.2243 64.7488 53.4251 62.0838L53.3726 61.9986Z" fill="white" stroke="black" stroke-linecap="round" stroke-linejoin="round"/>
<path id="Vector_6" d="M17.31 193.965C16.6556 193.971 16.0106 193.822 15.4375 193.53C14.8643 193.239 14.3823 192.817 14.0381 192.304C13.694 191.79 13.4993 191.204 13.4729 190.601C13.4465 189.998 13.5893 189.399 13.8875 188.862C14.8762 187.211 16.3274 185.834 18.0898 184.875C19.8521 183.916 21.8612 183.411 23.9075 183.411H25.815C27.8617 183.41 29.8711 183.916 31.634 184.875C33.3968 185.833 34.8484 187.21 35.8375 188.862C36.1357 189.399 36.2785 189.998 36.2521 190.601C36.2257 191.204 36.031 191.79 35.6869 192.304C35.3427 192.817 34.8607 193.239 34.2875 193.53C33.7143 193.822 33.0694 193.971 32.415 193.965H17.31ZM51.605 193.965C50.9506 193.971 50.3056 193.822 49.7325 193.53C49.1593 193.239 48.6773 192.817 48.3331 192.304C47.989 191.79 47.7943 191.204 47.7679 190.601C47.7415 189.998 47.8843 189.399 48.1825 188.862C49.1716 187.21 50.6233 185.833 52.3861 184.875C54.1489 183.916 56.1583 183.41 58.205 183.411H60.1125C62.1588 183.411 64.1677 183.916 65.93 184.875C67.6924 185.834 69.1436 187.211 70.1325 188.862C70.4307 189.399 70.5735 189.998 70.5471 190.601C70.5207 191.204 70.326 191.79 69.9819 192.304C69.6377 192.817 69.1557 193.239 68.5825 193.53C68.0094 193.822 67.3644 193.971 66.71 193.965H51.605Z" fill="#D9D9D9" stroke="black" stroke-linecap="round" stroke-linejoin="round"/>
</g>
<path id="Vector_7" d="M68.7175 36.8869C68.7081 35.8855 68.323 34.9179 67.6276 34.1486C66.9321 33.3792 65.9692 32.8556 64.9025 32.6667V29.8524C64.9025 24.2547 62.4906 18.8864 58.1974 14.9282C53.9043 10.9701 48.0815 8.74646 42.01 8.74646C35.9385 8.74646 30.1157 10.9701 25.8226 14.9282C21.5294 18.8864 19.1175 24.2547 19.1175 29.8524V32.6667C18.0049 32.8585 17.0057 33.4161 16.3054 34.236C15.6051 35.0559 15.2515 36.0822 15.3101 37.1243C15.3688 38.1665 15.8358 39.1536 16.6243 39.9022C17.4129 40.6509 18.4693 41.1101 19.5975 41.1948C20.6705 45.943 23.4845 50.2055 27.5662 53.2654C31.6479 56.3253 36.7481 57.9958 42.0088 57.9958C47.2695 57.9958 52.3697 56.3253 56.4513 53.2654C60.533 50.2055 63.347 45.943 64.42 41.1948C65.5889 41.0974 66.6765 40.6023 67.471 39.8059C68.2655 39.0095 68.7098 37.9689 68.7175 36.8869Z" fill="white" stroke="black" stroke-linecap="round" stroke-linejoin="round"/>
<path id="Vector_8" d="M27.9248 41.0244C27.4856 40.6195 27.2475 40.0795 27.2475 39.5259C27.2475 38.9723 27.4856 38.4322 27.9248 38.0274C28.3653 37.6212 28.9709 37.3868 29.61 37.3868C30.2491 37.3868 30.8546 37.6212 31.2951 38.0274C31.7343 38.4322 31.9725 38.9723 31.9725 39.5259C31.9725 40.0795 31.7343 40.6195 31.2951 41.0244C30.8546 41.4305 30.2491 41.665 29.61 41.665C28.9709 41.665 28.3653 41.4305 27.9248 41.0244Z" fill="#D9D9D9" stroke="black"/>
<path id="Vector_9" d="M52.7248 41.0244C52.2856 40.6195 52.0475 40.0795 52.0475 39.5259C52.0475 38.9723 52.2856 38.4322 52.7248 38.0274C53.1653 37.6212 53.7709 37.3868 54.41 37.3868C55.049 37.3868 55.6546 37.6212 56.0951 38.0274C56.5343 38.4322 56.7725 38.9723 56.7725 39.5259C56.7725 40.0795 56.5343 40.6195 56.0951 41.0244C55.6546 41.4305 55.049 41.665 54.41 41.665C53.7709 41.665 53.1653 41.4305 52.7248 41.0244Z" fill="#D9D9D9" stroke="black"/>
<path id="Vector_10" d="M36.2876 45.8413C37.9823 46.8828 39.9734 47.4385 42.0101 47.4385C44.0467 47.4385 46.0379 46.8828 47.7326 45.8413" stroke="black" stroke-linecap="round" stroke-linejoin="round"/>
<g id="Group_2">
<path id="Vector_11" d="M31.2365 33.4417C31.1212 33.1851 31.0625 32.9117 31.0625 32.6367C31.0625 32.3617 31.1212 32.0882 31.2365 31.8316C31.3518 31.5749 31.5221 31.3388 31.7398 31.1381C31.9576 30.9374 32.2183 30.7762 32.508 30.6655C32.7976 30.5549 33.1094 30.4976 33.425 30.4976C33.7406 30.4976 34.0524 30.5549 34.3421 30.6655C34.6317 30.7762 34.8924 30.9374 35.1102 31.1381C35.3279 31.3388 35.4982 31.5749 35.6135 31.8316C35.7288 32.0882 35.7875 32.3617 35.7875 32.6367C35.7875 32.9117 35.7288 33.1851 35.6135 33.4417C35.4982 33.6984 35.3279 33.9345 35.1102 34.1352C34.8924 34.336 34.6317 34.4972 34.3421 34.6078C34.0524 34.7184 33.7406 34.7758 33.425 34.7758C33.1094 34.7758 32.7976 34.7184 32.508 34.6078C32.2183 34.4972 31.9576 34.336 31.7398 34.1352C31.5221 33.9345 31.3518 33.6984 31.2365 33.4417Z" fill="#030303" stroke="black"/>
<path id="Vector_12" d="M48.9098 34.1352C48.4706 33.7303 48.2325 33.1903 48.2325 32.6367C48.2325 32.0831 48.4706 31.543 48.9098 31.1381C49.3503 30.732 49.9559 30.4976 50.595 30.4976C51.234 30.4976 51.8396 30.732 52.2801 31.1381C52.7193 31.543 52.9575 32.0831 52.9575 32.6367C52.9575 33.1903 52.7193 33.7303 52.2801 34.1352C51.8396 34.5413 51.234 34.7758 50.595 34.7758C49.9559 34.7758 49.3503 34.5413 48.9098 34.1352Z" fill="#030303" stroke="black"/>
</g>
<path id="Vector_13" d="M41.27 1.0112C34.6059 1.36245 28.3466 4.07405 23.7998 8.57959C19.2529 13.0851 16.7701 19.0361 16.87 25.1895V29.0871C16.8692 29.3761 16.9457 29.6607 17.0926 29.9159C17.2396 30.1712 17.4525 30.3891 17.7125 30.5504C17.9725 30.7117 18.2716 30.8115 18.5833 30.8409C18.8951 30.8703 19.2099 30.8284 19.5 30.719C23.1875 29.3361 29.4575 26.0815 29.4575 19.939C38.57 28.0868 53.675 27.6189 64.1825 25.0305C65.086 24.8094 65.8713 24.2925 66.3916 23.5765C66.912 22.8605 67.1318 21.9944 67.01 21.1399C66.1841 15.442 63.0946 10.2292 58.3395 6.51079C53.5845 2.79236 47.5021 0.832703 41.27 1.0112Z" fill="white" stroke="black" stroke-linecap="round" stroke-linejoin="round"/>
</g>
</svg>
