<svg width="23" height="28" viewBox="0 0 23 28" fill="none" xmlns="http://www.w3.org/2000/svg">
<path d="M11.0575 2.2129C6.91996 2.2129 3.55746 5.5754 3.55746 9.7129V13.3254C3.55746 14.0879 3.23246 15.2504 2.84496 15.9004L1.40746 18.2879C0.519959 19.7629 1.13246 21.4004 2.75746 21.9504C8.14496 23.7504 13.9575 23.7504 19.345 21.9504C20.8575 21.4504 21.52 19.6629 20.695 18.2879L19.2575 15.9004C18.8825 15.2504 18.5575 14.0879 18.5575 13.3254V9.7129C18.5575 5.5879 15.1825 2.2129 11.0575 2.2129Z" stroke="black" stroke-miterlimit="10" stroke-linecap="round"/>
<path d="M13.3704 2.575C12.9829 2.4625 12.5829 2.375 12.1704 2.325C10.9704 2.175 9.82036 2.2625 8.74536 2.575C9.10786 1.65 10.0079 1 11.0579 1C12.1079 1 13.0079 1.65 13.3704 2.575Z" stroke="black" stroke-miterlimit="10" stroke-linecap="round" stroke-linejoin="round"/>
<path d="M7.28296 23.0752C8.28296 28.3252 14.783 27.3252 14.783 23.0752" stroke="black"/>
<path d="M18.033 9.8252C20.3802 9.8252 22.283 7.92241 22.283 5.5752C22.283 3.22799 20.3802 1.3252 18.033 1.3252C15.6857 1.3252 13.783 3.22799 13.783 5.5752C13.783 7.92241 15.6857 9.8252 18.033 9.8252Z" fill="white" stroke="black"/>
</svg>
