<svg width="30" height="30" viewBox="0 0 30 30" fill="none" xmlns="http://www.w3.org/2000/svg">
<path d="M14.0575 3.2129C9.91996 3.2129 6.55746 6.5754 6.55746 10.7129V14.3254C6.55746 15.0879 6.23246 16.2504 5.84496 16.9004L4.40746 19.2879C3.51996 20.7629 4.13246 22.4004 5.75746 22.9504C11.145 24.7504 16.9575 24.7504 22.345 22.9504C23.8575 22.4504 24.52 20.6629 23.695 19.2879L22.2575 16.9004C21.8825 16.2504 21.5575 15.0879 21.5575 14.3254V10.7129C21.5575 6.5879 18.1825 3.2129 14.0575 3.2129Z" stroke="black" stroke-miterlimit="10" stroke-linecap="round"/>
<path d="M16.3704 3.575C15.9829 3.4625 15.5829 3.375 15.1704 3.325C13.9704 3.175 12.8204 3.2625 11.7454 3.575C12.1079 2.65 13.0079 2 14.0579 2C15.1079 2 16.0079 2.65 16.3704 3.575Z" stroke="black" stroke-miterlimit="10" stroke-linecap="round" stroke-linejoin="round"/>
<path d="M10.283 24.0752C11.283 29.3252 17.783 28.3252 17.783 24.0752" stroke="black"/>
<path d="M21.033 10.8252C23.3802 10.8252 25.283 8.92241 25.283 6.5752C25.283 4.22799 23.3802 2.3252 21.033 2.3252C18.6857 2.3252 16.783 4.22799 16.783 6.5752C16.783 8.92241 18.6857 10.8252 21.033 10.8252Z" fill="white" stroke="black"/>
</svg>
