<svg width="30" height="30" viewBox="0 0 30 30" fill="none" xmlns="http://www.w3.org/2000/svg">
<g id="notificationBell">
<path id="Vector" d="M15.0245 3.6377C10.887 3.6377 7.5245 7.0002 7.5245 11.1377V14.7502C7.5245 15.5127 7.1995 16.6752 6.812 17.3252L5.3745 19.7127C4.487 21.1877 5.0995 22.8252 6.7245 23.3752C12.112 25.1752 17.9245 25.1752 23.312 23.3752C24.8245 22.8752 25.487 21.0877 24.662 19.7127L23.2245 17.3252C22.8495 16.6752 22.5245 15.5127 22.5245 14.7502V11.1377C22.5245 7.0127 19.1495 3.6377 15.0245 3.6377Z" stroke="black" stroke-width="1.5" stroke-miterlimit="10" stroke-linecap="round"/>
<path id="Vector_2" d="M17.3374 3.9998C16.9499 3.8873 16.5499 3.7998 16.1374 3.7498C14.9374 3.5998 13.7874 3.6873 12.7124 3.9998C13.0749 3.0748 13.9749 2.4248 15.0249 2.4248C16.0749 2.4248 16.9749 3.0748 17.3374 3.9998Z" stroke="black" stroke-width="1.5" stroke-miterlimit="10" stroke-linecap="round" stroke-linejoin="round"/>
<path id="Vector 6" d="M11.25 24.5C12.25 29.75 18.75 28.75 18.75 24.5" stroke="black" stroke-width="1.5"/>
<circle id="Ellipse 41" cx="22" cy="7" r="4.25" fill="white" stroke="black" stroke-width="1.5"/>
</g>
</svg>
