<svg width="238" height="238" viewBox="0 0 134 238" fill="none" xmlns="http://www.w3.org/2000/svg">
<g id="Device">
<path id="Vector" d="M113.32 1H18.5582C9.12871 1 1.48462 7.59242 1.48462 15.7246V222.275C1.48462 230.408 9.12871 237 18.5582 237H113.32C122.749 237 130.393 230.408 130.393 222.275V15.7246C130.393 7.59242 122.749 1 113.32 1Z" fill="black" stroke="black" stroke-miterlimit="10"/>
<path id="Vector_2" d="M31.4993 5.20209C36.7673 5.23054 42.0431 5.25902 47.3042 5.18017L47.3755 5.42625L47.8023 5.36893C48.8308 5.23085 50.1824 5.35144 51.4859 5.68243C52.7928 6.01431 53.9827 6.54032 54.7191 7.16174C54.9909 7.39619 55.2705 7.64251 55.5579 7.89566C56.5949 8.80927 57.7328 9.81172 58.9698 10.6655C60.5595 11.7627 62.3612 12.6514 64.4258 12.8368L64.4264 12.8368C66.5969 13.0292 68.5269 12.3647 70.2327 11.3852C71.8474 10.458 73.292 9.22946 74.5646 8.14723C74.63 8.09163 74.6949 8.03641 74.7594 7.98165L74.7601 7.98102C77.5863 5.57084 81.39 5.17858 85.4105 5.17858H111.16C114.961 5.18756 118.592 6.49646 121.257 8.80074C123.921 11.1032 125.4 14.2052 125.402 17.421V220.58C125.402 223.802 123.918 226.911 121.246 229.215C118.572 231.522 114.93 232.828 111.121 232.828H20.7702C20.1236 232.828 19.4777 232.789 18.8373 232.711L18.8359 232.711C15.4023 232.305 12.2678 230.843 10.0054 228.611C7.74492 226.381 6.50885 223.535 6.50195 220.602V17.4208C6.50367 14.1978 7.98884 11.0895 10.6621 8.785C13.3378 6.47851 16.9799 5.17285 20.7902 5.17285H23.3811C26.083 5.17285 28.7901 5.18747 31.4993 5.20209Z" fill="white" stroke="black"/>
<path id="Vector_3" d="M130.34 68.8932V39.5186C130.958 39.5186 131.551 39.7304 131.989 40.1076C132.426 40.4847 132.672 40.9962 132.672 41.5296V66.8765C132.672 67.4104 132.426 67.9225 131.989 68.3005C131.552 68.6786 130.959 68.8917 130.34 68.8932Z" fill="black" stroke="black" stroke-miterlimit="10"/>
<path id="Vector_4" d="M130.34 94.2061V79.5503C130.958 79.5503 131.551 79.7622 131.989 80.1393C132.426 80.5165 132.672 81.028 132.672 81.5613V92.1951C132.672 92.4592 132.611 92.7207 132.494 92.9647C132.377 93.2087 132.205 93.4304 131.989 93.6171C131.772 93.8038 131.515 93.952 131.232 94.053C130.949 94.1541 130.646 94.2061 130.34 94.2061Z" fill="black" stroke="black" stroke-miterlimit="10"/>
</g>
</svg>
