<svg width="241" height="349" viewBox="0 0 241 349" fill="none" xmlns="http://www.w3.org/2000/svg">
<g id="Device">
<path id="Vector" d="M122.23 27.2716C121.47 24.3916 116.08 18.9016 110.72 19.0116C110.201 19.0306 109.69 19.1424 109.21 19.3416L5.04017 83.7516C3.27222 84.8716 1.87929 86.4944 1.04017 88.4116C0.373323 89.9095 0.0324583 91.532 0.040167 93.1716V338.112C0.040167 344.352 6.66017 350.302 12.8802 347.442C13.0171 347.39 13.1507 347.33 13.2802 347.262L117.46 282.732C119.023 281.715 120.301 280.318 121.176 278.672C122.05 277.026 122.492 275.185 122.46 273.322V28.4616C122.471 28.0529 122.393 27.6468 122.23 27.2716Z" fill="#37474F"/>
<path id="Vector_2" d="M14.54 119.062C14.5262 118.127 14.7503 117.205 15.1911 116.381C15.6319 115.557 16.2751 114.859 17.0601 114.352L113.79 54.5316C114.183 54.3105 114.629 54.1998 115.08 54.2113C115.53 54.2227 115.97 54.356 116.351 54.5969C116.732 54.8377 117.041 55.1773 117.245 55.5795C117.45 55.9817 117.541 56.4317 117.51 56.8816V254.402C117.523 255.334 117.299 256.255 116.858 257.078C116.417 257.9 115.774 258.596 114.99 259.102L18.26 319.022C17.867 319.243 17.4214 319.353 16.9705 319.342C16.5197 319.331 16.0803 319.197 15.699 318.956C15.3177 318.716 15.0086 318.376 14.8046 317.974C14.6006 317.572 14.5092 317.122 14.54 316.672V119.062Z" fill="#8EFF7C"/>
<path id="Vector_3" d="M0 93.1716V338.112C0 344.352 6.62 350.302 12.84 347.442C12.449 347.575 12.0312 347.61 11.6234 347.544C11.2156 347.478 10.8303 347.313 10.5013 347.063C10.1724 346.813 9.90989 346.486 9.73703 346.111C9.56417 345.736 9.4862 345.324 9.50999 344.912V99.9416C9.51021 97.8242 10.095 95.7479 11.2 93.9416L1.03999 88.4616C0.366281 89.9411 0.0119216 91.546 0 93.1716Z" fill="#263238"/>
<path id="Vector_4" d="M110.73 19.0016C110.211 19.0206 109.7 19.1324 109.22 19.3316L5.04004 83.7516C3.27209 84.8716 1.87916 86.4944 1.04004 88.4116L11.24 93.9516C12.0705 92.56 13.2184 91.3846 14.59 90.5216L118.77 26.1016C119.068 25.9217 119.401 25.809 119.747 25.7713C120.092 25.7335 120.442 25.7717 120.772 25.8831C121.101 25.9945 121.402 26.1764 121.654 26.4163C121.906 26.6561 122.103 26.948 122.23 27.2716C121.48 24.3816 116.09 18.8916 110.73 19.0016Z" fill="#455A64"/>
<path id="Vector_5" d="M78.8599 66.5416C79.5999 66.0816 80.1999 66.4416 80.1999 67.3516C80.1819 67.8432 80.0529 68.3244 79.8226 68.7591C79.5923 69.1938 79.2666 69.5707 78.8699 69.8616L58.4299 82.6916C57.6999 83.1516 57.1099 82.7616 57.1099 81.8516C57.1263 81.3661 57.2528 80.8906 57.4797 80.461C57.7066 80.0314 58.0281 79.6589 58.4199 79.3716L78.8599 66.5416Z" fill="#263238"/>
<path id="Vector_6" d="M53.1798 82.6616C53.9098 82.2016 54.4998 82.5716 54.4998 83.4816C54.4838 83.9711 54.3566 84.4506 54.1279 84.8837C53.8992 85.3168 53.575 85.6923 53.1798 85.9816C52.4498 86.4416 51.8498 86.0716 51.8398 85.1516C51.8605 84.6623 51.9918 84.184 52.2239 83.7527C52.456 83.3214 52.7828 82.9484 53.1798 82.6616Z" fill="#263238"/>
<path id="Vector_7" d="M66.2601 64.6816C67.7201 63.7616 68.9001 64.4916 68.9001 66.3216C68.8688 67.2987 68.6169 68.256 68.1632 69.1219C67.7094 69.9878 67.0657 70.7398 66.2801 71.3216C64.8101 72.2316 63.6001 71.4816 63.6001 69.6616C63.6368 68.6842 63.8954 67.7279 64.3563 66.8651C64.8171 66.0023 65.4681 65.2557 66.2601 64.6816Z" fill="#263238"/>
<path id="Vector_8" d="M66.2701 295.272C69.2701 293.402 71.6501 294.892 71.6601 298.612C71.6701 302.332 69.2801 306.902 66.3001 308.772C63.3201 310.642 60.8601 309.112 60.8501 305.392C60.9311 303.405 61.4607 301.463 62.3994 299.71C63.3381 297.957 64.6614 296.44 66.2701 295.272Z" fill="#263238"/>
<g id="mails">
<g id="mail">
<path id="Vector_9" d="M238.935 78.7688H206.495C206.13 78.7711 205.78 78.5923 205.52 78.2715C205.261 77.9508 205.114 77.5144 205.112 77.0584L204.999 52.754C204.998 52.5527 205.029 52.3531 205.089 52.1666C205.15 51.9802 205.24 51.8105 205.353 51.6674C205.466 51.5242 205.601 51.4104 205.749 51.3324C205.898 51.2544 206.057 51.2137 206.218 51.2127L238.958 51.0031C239.283 51.0009 239.596 51.1602 239.827 51.4458C240.058 51.7314 240.189 52.1201 240.19 52.5263L240.304 77.0403C240.305 77.2661 240.27 77.49 240.202 77.6991C240.134 77.9082 240.033 78.0984 239.906 78.2589C239.779 78.4194 239.628 78.5471 239.461 78.6346C239.295 78.7221 239.116 78.7677 238.935 78.7688Z" fill="white" stroke="black" stroke-opacity="0.56"/>
<path id="Vector_10" d="M239.841 51.4618C237.905 53.2403 223.838 66.1821 223.823 66.1946C223.441 66.4624 223.008 66.5978 222.57 66.5869C222.132 66.5759 221.705 66.4189 221.332 66.1322L205.332 51.699C205.446 51.5465 205.583 51.4246 205.736 51.3409C205.889 51.2572 206.054 51.2135 206.221 51.2122L238.958 51.0001C239.122 50.9994 239.285 51.0399 239.437 51.1192C239.589 51.1985 239.726 51.315 239.841 51.4618Z" fill="white" stroke="black" stroke-opacity="0.56"/>
</g>
<g id="mail_2">
<path id="Vector_11" d="M192.148 23.2151H166.196C165.904 23.2169 165.623 23.0738 165.416 22.8172C165.208 22.5606 165.091 22.2115 165.089 21.8467L164.999 2.40323C164.998 2.24216 165.023 2.08248 165.071 1.93331C165.12 1.78415 165.192 1.64842 165.282 1.5339C165.373 1.41938 165.481 1.32832 165.599 1.26591C165.718 1.2035 165.846 1.17097 165.974 1.17019L192.166 1.00246C192.426 1.00073 192.676 1.12813 192.861 1.35664C193.046 1.58515 193.151 1.89606 193.152 2.22101L193.243 21.8323C193.244 22.0129 193.216 22.192 193.161 22.3593C193.107 22.5265 193.026 22.6787 192.925 22.8071C192.823 22.9355 192.702 23.0377 192.569 23.1077C192.436 23.1776 192.293 23.2141 192.148 23.2151Z" fill="white" stroke="black" stroke-opacity="0.56"/>
<path id="Vector_12" d="M192.873 1.36948C191.323 2.79221 180.07 13.1457 180.058 13.1557C179.752 13.3699 179.406 13.4783 179.056 13.4695C178.706 13.4607 178.364 13.3352 178.065 13.1058L165.265 1.55918C165.356 1.43718 165.466 1.33972 165.589 1.27277C165.711 1.20581 165.843 1.17077 165.976 1.1698L192.166 1.00007C192.298 0.999542 192.428 1.03196 192.549 1.0954C192.671 1.15885 192.781 1.25204 192.873 1.36948Z" fill="white" stroke="black" stroke-opacity="0.56"/>
</g>
<g id="mail_3">
<path id="Vector_13" d="M189.116 147.099H146.944C146.47 147.102 146.014 146.87 145.677 146.453C145.34 146.036 145.149 145.469 145.146 144.876L144.999 113.28C144.998 113.019 145.038 112.759 145.117 112.517C145.196 112.274 145.312 112.054 145.459 111.868C145.606 111.681 145.782 111.534 145.975 111.432C146.168 111.331 146.375 111.278 146.584 111.277L189.146 111.004C189.569 111.001 189.975 111.208 190.275 111.58C190.575 111.951 190.746 112.456 190.748 112.984L190.895 144.852C190.896 145.146 190.852 145.437 190.763 145.709C190.674 145.981 190.543 146.228 190.378 146.437C190.213 146.645 190.017 146.811 189.8 146.925C189.584 147.039 189.351 147.098 189.116 147.099Z" fill="white" stroke="black" stroke-opacity="0.56"/>
<path id="Vector_14" d="M190.294 111.6C187.776 113.912 169.489 130.737 169.47 130.753C168.973 131.101 168.411 131.277 167.842 131.263C167.272 131.249 166.717 131.045 166.231 130.672L145.432 111.909C145.58 111.71 145.759 111.552 145.957 111.443C146.156 111.334 146.37 111.277 146.587 111.276L189.146 111C189.359 110.999 189.571 111.052 189.769 111.155C189.966 111.258 190.145 111.41 190.294 111.6Z" fill="white" stroke="black" stroke-opacity="0.56"/>
</g>
</g>
<g id="mail_4">
<path id="Vector_15" opacity="0.6" d="M95.026 210.821H44.3377C43.7677 210.824 43.2199 210.6 42.8147 210.199C42.4095 209.798 42.1802 209.253 42.1771 208.683L42 178.302C41.9985 178.051 42.0466 177.801 42.1415 177.568C42.2365 177.335 42.3765 177.123 42.5534 176.944C42.7304 176.765 42.9409 176.623 43.1729 176.525C43.405 176.428 43.6539 176.377 43.9056 176.376L95.0619 176.114C95.5696 176.111 96.0576 176.31 96.4186 176.667C96.7796 177.024 96.984 177.51 96.9869 178.018L97.164 208.66C97.1655 208.942 97.1114 209.222 97.0048 209.483C96.8982 209.745 96.7411 209.983 96.5426 210.183C96.344 210.384 96.1079 210.543 95.8477 210.653C95.5875 210.762 95.3083 210.819 95.026 210.821Z" fill="white" stroke="black" stroke-opacity="0.56"/>
<path id="Vector_16" d="M96.4417 176.687C93.4153 178.91 71.4357 195.087 71.4123 195.103C70.8153 195.438 70.1398 195.607 69.4555 195.593C68.7713 195.58 68.1031 195.383 67.52 195.025L42.5203 176.984C42.6982 176.793 42.9132 176.641 43.1521 176.536C43.391 176.431 43.6487 176.377 43.9094 176.375L95.0611 176.11C95.3181 176.109 95.5726 176.16 95.8098 176.259C96.0469 176.358 96.2617 176.504 96.4417 176.687Z" fill="white" stroke="black" stroke-opacity="0.56"/>
</g>
</g>
</svg>
