<svg width="206" height="330" viewBox="0 0 206 330" fill="none" xmlns="http://www.w3.org/2000/svg">
<g id="Device">
<path id="Vector" d="M122.23 8.27164C121.47 5.39164 116.08 -0.0983618 110.72 0.0116382C110.201 0.0306172 109.69 0.142383 109.21 0.34164L5.04017 64.7516C3.27222 65.8716 1.87929 67.4944 1.04017 69.4116C0.373323 70.9095 0.0324583 72.532 0.040167 74.1716V319.112C0.040167 325.352 6.66017 331.302 12.8802 328.442C13.0171 328.39 13.1507 328.33 13.2802 328.262L117.46 263.732C119.023 262.715 120.301 261.318 121.176 259.672C122.05 258.026 122.492 256.185 122.46 254.322V9.46164C122.471 9.05294 122.393 8.64676 122.23 8.27164Z" fill="#37474F"/>
<path id="Vector_2" d="M14.54 100.062C14.5262 99.1273 14.7503 98.2048 15.1911 97.3808C15.6319 96.5569 16.2751 95.8586 17.0601 95.3516L113.79 35.5316C114.183 35.3105 114.629 35.1998 115.08 35.2113C115.53 35.2227 115.97 35.356 116.351 35.5969C116.732 35.8377 117.041 36.1773 117.245 36.5795C117.45 36.9817 117.541 37.4317 117.51 37.8816V235.402C117.523 236.334 117.299 237.255 116.858 238.078C116.417 238.9 115.774 239.596 114.99 240.102L18.26 300.022C17.867 300.243 17.4214 300.353 16.9705 300.342C16.5197 300.331 16.0803 300.197 15.699 299.956C15.3177 299.716 15.0086 299.376 14.8046 298.974C14.6006 298.572 14.5092 298.122 14.54 297.672V100.062Z" fill="#7CD8FF"/>
<path id="Vector_3" d="M0 74.1716V319.112C0 325.352 6.62 331.302 12.84 328.442C12.449 328.575 12.0312 328.61 11.6234 328.544C11.2156 328.478 10.8303 328.313 10.5013 328.063C10.1724 327.813 9.90989 327.486 9.73703 327.111C9.56417 326.736 9.4862 326.324 9.50999 325.912V80.9416C9.51021 78.8242 10.095 76.7479 11.2 74.9416L1.03999 69.4616C0.366281 70.9411 0.0119216 72.546 0 74.1716Z" fill="#263238"/>
<path id="Vector_4" d="M110.73 0.00162839C110.211 0.0206074 109.7 0.132369 109.22 0.331626L5.04004 64.7516C3.27209 65.8716 1.87916 67.4944 1.04004 69.4116L11.24 74.9516C12.0705 73.56 13.2184 72.3846 14.59 71.5216L118.77 7.10163C119.068 6.92175 119.401 6.809 119.747 6.77125C120.092 6.7335 120.442 6.77166 120.772 6.88307C121.101 6.99448 121.402 7.17645 121.654 7.41627C121.906 7.6561 122.103 7.94802 122.23 8.27163C121.48 5.38163 116.09 -0.108372 110.73 0.00162839Z" fill="#455A64"/>
<path id="Vector_5" d="M78.8599 47.5416C79.5999 47.0816 80.1999 47.4416 80.1999 48.3516C80.1819 48.8432 80.0529 49.3244 79.8226 49.7591C79.5923 50.1938 79.2666 50.5707 78.8699 50.8616L58.4299 63.6916C57.6999 64.1516 57.1099 63.7616 57.1099 62.8516C57.1263 62.3661 57.2528 61.8906 57.4797 61.461C57.7066 61.0314 58.0281 60.6589 58.4199 60.3716L78.8599 47.5416Z" fill="#263238"/>
<path id="Vector_6" d="M53.1798 63.6616C53.9098 63.2016 54.4998 63.5716 54.4998 64.4816C54.4838 64.9711 54.3566 65.4506 54.1279 65.8837C53.8992 66.3168 53.575 66.6923 53.1798 66.9816C52.4498 67.4416 51.8498 67.0716 51.8398 66.1516C51.8605 65.6623 51.9918 65.184 52.2239 64.7527C52.456 64.3214 52.7828 63.9484 53.1798 63.6616Z" fill="#263238"/>
<path id="Vector_7" d="M66.2601 45.6816C67.7201 44.7616 68.9001 45.4916 68.9001 47.3216C68.8688 48.2987 68.6169 49.256 68.1632 50.1219C67.7094 50.9878 67.0657 51.7398 66.2801 52.3216C64.8101 53.2316 63.6001 52.4816 63.6001 50.6616C63.6368 49.6842 63.8954 48.7279 64.3563 47.8651C64.8171 47.0023 65.4681 46.2557 66.2601 45.6816Z" fill="#263238"/>
<path id="Vector_8" d="M66.2701 276.272C69.2701 274.402 71.6501 275.892 71.6601 279.612C71.6701 283.332 69.2801 287.902 66.3001 289.772C63.3201 291.642 60.8601 290.112 60.8501 286.392C60.9311 284.405 61.4607 282.463 62.3994 280.71C63.3381 278.957 64.6614 277.44 66.2701 276.272Z" fill="#263238"/>
<path id="Vector_9" d="M76.1001 138.322C75.8401 138.472 75.607 138.665 75.4101 138.892C75.2541 139.085 75.1355 139.305 75.0601 139.542C74.4032 140.911 73.8419 142.325 73.3801 143.772C72.8801 145.042 72.3801 146.322 71.9901 147.602C71.8723 147.833 71.7849 148.078 71.7301 148.332C71.5824 148.652 71.4685 148.987 71.3901 149.332L70.5801 151.472C70.4901 151.682 70.3901 151.882 70.3001 152.082C70.0301 152.683 69.8093 153.305 69.6401 153.942C69.5272 154.214 69.4836 154.51 69.5132 154.803C69.5429 155.096 69.6449 155.378 69.8101 155.622C70.4648 156.256 71.27 156.714 72.1501 156.952L72.3901 157.022C72.6301 157.102 72.8701 157.162 73.1101 157.232L74.3701 157.872L74.6101 158.042C74.6988 158.137 74.7823 158.237 74.8601 158.342C74.9463 158.448 75.0109 158.57 75.0501 158.702C75.1015 158.915 75.1015 159.138 75.0501 159.352L74.8401 160.352C74.6601 160.892 74.4701 161.432 74.2801 161.962L74.0101 162.662C73.7301 163.412 73.4401 164.172 73.1501 164.922C72.8601 165.672 72.6001 166.282 72.3701 166.922C72.1522 167.357 71.9586 167.805 71.7901 168.262C71.6901 168.492 71.5801 168.722 71.4801 168.942C71.2101 169.512 70.9501 170.082 70.6901 170.652L70.4501 171.162L69.6101 172.822C69.5101 173.032 69.4001 173.242 69.2901 173.452L68.2901 175.252C68.2101 175.402 68.1201 175.552 68.0301 175.702C67.6701 176.312 67.3101 176.932 66.9401 177.542L66.6401 178.012C65.8801 179.162 65.1201 180.312 64.3501 181.462L63.4501 182.732L63.2001 183.082L60.4101 186.732L59.4701 187.802C59.2684 188.048 59.0287 188.261 58.7601 188.432C58.5956 188.549 58.4016 188.617 58.2001 188.63C57.9986 188.642 57.7977 188.598 57.6201 188.502L56.9301 188.122C56.9301 188.022 56.8401 188.002 56.7701 187.992C55.8141 187.13 54.7796 186.36 53.6801 185.692C53.4792 185.561 53.2447 185.492 53.0051 185.492C52.7655 185.492 52.5311 185.561 52.3301 185.692C52.2059 185.768 52.0887 185.855 51.9801 185.952C51.5284 186.355 51.1317 186.815 50.8001 187.322C50.6885 187.413 50.6053 187.535 50.5601 187.672C49.7201 188.882 48.8001 189.962 47.9301 191.122C47.1201 192.072 46.3201 193.052 45.5501 194.072C45.1101 194.592 44.6901 195.122 44.2901 195.702C43.8011 196.28 43.3437 196.884 42.9201 197.512C42.7376 197.723 42.5799 197.954 42.4501 198.202C42.2238 198.466 42.0574 198.776 41.9625 199.111C41.8675 199.446 41.8463 199.798 41.9001 200.142C41.8916 200.561 41.9251 200.979 42.0001 201.392C42.0387 201.9 42.1463 202.402 42.3201 202.882C42.3609 203.227 42.4554 203.565 42.6001 203.882C42.6407 203.978 42.6875 204.071 42.7401 204.162C42.745 204.237 42.7618 204.311 42.7901 204.382C42.835 204.475 42.8922 204.563 42.9601 204.642C43.032 204.866 43.1903 205.053 43.4001 205.162C43.5376 205.356 43.7238 205.512 43.9401 205.612C44.0665 205.673 44.1968 205.727 44.3301 205.772L44.5901 205.842C44.6924 205.895 44.7995 205.939 44.9101 205.972H45.0601C45.2355 206.002 45.4148 206.002 45.5901 205.972C45.6278 205.995 45.671 206.007 45.7151 206.007C45.7592 206.007 45.8025 205.995 45.8401 205.972C46.06 206.027 46.2902 206.027 46.5101 205.972C46.7514 206.016 46.9988 206.016 47.2401 205.972C47.4889 205.987 47.7386 205.964 47.9801 205.902H48.4201C48.7597 205.855 49.0944 205.778 49.4201 205.672H49.5701C49.699 205.652 49.8261 205.622 49.9501 205.582C50.0353 205.558 50.1163 205.52 50.1901 205.472C50.4801 205.382 50.5301 205.352 50.5901 205.332C50.9634 205.211 51.3277 205.064 51.6801 204.892L52.0001 204.732L52.2301 204.592C52.4474 204.468 52.6546 204.327 52.8501 204.172L53.5801 203.692C53.8531 203.502 54.1106 203.292 54.3501 203.062C54.5945 202.907 54.8283 202.737 55.0501 202.552C55.1401 202.482 55.2301 202.392 55.3201 202.312L55.4501 202.172L55.8301 201.842C56.2101 201.492 56.5901 201.132 56.9501 200.732C57.2513 200.481 57.5291 200.203 57.7801 199.902C57.8759 199.837 57.9521 199.747 58.0001 199.642C58.5209 199.166 59.0118 198.658 59.4701 198.122C59.8734 197.745 60.2572 197.348 60.6201 196.932C60.9284 196.653 61.2128 196.348 61.4701 196.022L61.9301 195.512C62.0724 195.4 62.1942 195.265 62.2901 195.112C62.3589 195.063 62.414 194.998 62.4501 194.922C62.5418 194.837 62.6286 194.746 62.7101 194.652C62.8566 194.499 62.9904 194.336 63.1101 194.162C63.3856 193.875 63.6459 193.575 63.8901 193.262L64.1301 192.942L64.3801 192.642C64.8401 192.072 65.3001 191.522 65.7201 190.892C65.9454 190.664 66.1403 190.409 66.3001 190.132C66.5846 189.799 66.8421 189.445 67.0701 189.072C67.4583 188.579 67.8188 188.064 68.1501 187.532C68.3601 187.242 68.4601 187.112 68.5501 186.972C68.6401 186.832 68.7501 186.702 68.8401 186.562C68.9301 186.422 69.2001 186.002 69.3701 185.712L69.7201 185.222C69.8363 185.051 69.9431 184.874 70.0401 184.692C70.2654 184.397 70.4629 184.082 70.6301 183.752C70.9169 183.345 71.1775 182.921 71.4101 182.482C71.5081 182.369 71.592 182.245 71.6601 182.112L71.7701 181.922C71.8075 181.854 71.8409 181.783 71.8701 181.712C71.9601 181.592 72.0401 181.462 72.1201 181.332C72.3735 180.945 72.6035 180.545 72.8101 180.132L73.1201 179.612L74.1201 177.892C74.2485 177.72 74.3528 177.532 74.4301 177.332C74.6801 176.932 74.9101 176.512 75.1301 176.082L75.3401 175.652C75.4636 175.458 75.5706 175.253 75.6601 175.042L76.4801 173.482C76.6201 173.182 76.7701 172.892 76.9101 172.602C77.1421 172.205 77.3427 171.79 77.5101 171.362C78.1601 170.112 78.7301 168.842 79.2601 167.562L79.5001 166.982C79.7282 166.522 79.9253 166.048 80.0901 165.562C80.7101 164.102 81.2701 162.622 81.7401 161.142C81.7401 161.012 81.8301 160.892 81.8801 160.772C82.1982 159.919 82.462 159.047 82.6701 158.162C83.0201 157.092 83.2901 156.032 83.5501 154.982C83.6301 154.622 83.7201 154.272 83.8101 153.922C83.8715 153.812 83.9026 153.687 83.9001 153.562C83.9001 153.482 83.9501 153.402 83.9701 153.322L84.0901 152.852C84.4683 151.565 84.7622 150.256 84.9701 148.932V148.732C85.0024 148.621 85.0024 148.503 84.9701 148.392V148.182C84.9701 148.062 84.9701 147.942 85.0201 147.812V147.432C85.1193 146.877 85.1661 146.315 85.1601 145.752C85.1601 145.522 85.1601 145.282 85.1601 145.052C85.1914 144.89 85.1914 144.723 85.1601 144.562C85.1548 144.472 85.1548 144.382 85.1601 144.292C85.1498 143.798 85.0655 143.31 84.9101 142.842C84.7943 142.148 84.5787 141.474 84.2701 140.842C83.9231 139.813 83.3682 138.867 82.6401 138.062C82.4501 137.773 82.1787 137.546 81.8601 137.412C81.8601 137.352 81.7901 137.272 81.6901 137.302C81.441 137.103 81.1287 137 80.8101 137.012C79.8537 136.971 78.9003 137.145 78.0201 137.522L77.7001 137.652C77.4266 137.731 77.1619 137.838 76.9101 137.972L76.7601 138.072C76.5801 138.072 76.3401 138.182 76.1001 138.322Z" fill="white"/>
<g id="speech-bubble">
<path id="Vector_10" d="M205.9 11.9017C205.9 11.6755 205.84 11.4534 205.726 11.2583C205.612 11.0631 205.447 10.902 205.25 10.7917L199.47 7.58165H199.42C199.231 7.47379 199.018 7.41705 198.8 7.41705C198.583 7.41705 198.369 7.47379 198.18 7.58165L158.66 30.4017C158.074 30.7434 157.588 31.2323 157.249 31.8199C156.911 32.4075 156.732 33.0735 156.73 33.7517V48.4417L143.05 62.5916C141.83 63.8616 141.7 65.7717 142.65 66.0717L148.1 69.0717C148.196 69.1692 148.315 69.242 148.446 69.2837C148.576 69.3255 148.715 69.3351 148.85 69.3116L156.79 68.3116V79.0917C156.787 79.3145 156.844 79.534 156.955 79.7274C157.066 79.9208 157.227 80.0811 157.42 80.1917L163.16 83.3817H163.24H163.3C163.486 83.4695 163.691 83.5109 163.896 83.5022C164.102 83.4935 164.302 83.4349 164.48 83.3316L204 60.5117C204.589 60.1738 205.078 59.6858 205.417 59.0973C205.756 58.5088 205.933 57.8408 205.93 57.1616L205.9 11.9017ZM163.83 34.1217C163.874 34.0788 163.921 34.0387 163.97 34.0017C163.922 34.0225 163.875 34.0459 163.83 34.0717V34.1217Z" fill="#00D215"/>
<path id="Vector_11" d="M192.34 26.1217C192.165 26.2102 192.008 26.3326 191.88 26.4817C191.779 26.6029 191.701 26.7419 191.65 26.8917C191.22 27.7579 190.853 28.6535 190.55 29.5717C190.22 30.3817 189.91 31.1917 189.63 32.0117C189.555 32.1575 189.498 32.312 189.46 32.4717C189.365 32.6665 189.291 32.871 189.24 33.0817C189.06 33.5417 188.88 33.9917 188.71 34.4517C188.64 34.5817 188.58 34.7017 188.52 34.8317C188.341 35.2123 188.194 35.607 188.08 36.0117C188.005 36.185 187.976 36.375 187.997 36.5627C188.018 36.7505 188.088 36.9295 188.2 37.0817C188.632 37.4909 189.162 37.7804 189.74 37.9217L189.89 37.9717L190.37 38.1017L191.2 38.5117L191.36 38.6117C191.41 38.6817 191.47 38.7417 191.52 38.8017C191.574 38.8754 191.618 38.9562 191.65 39.0417C191.682 39.1766 191.682 39.3169 191.65 39.4517C191.6 39.6517 191.55 39.8617 191.51 40.0617C191.47 40.2617 191.26 40.7417 191.14 41.0617L190.96 41.5017L190.34 42.9617C190.13 43.4317 189.98 43.8217 189.83 44.2117C189.685 44.4899 189.558 44.7772 189.45 45.0717L189.24 45.5017C189.07 45.8617 188.89 46.2217 188.72 46.5917L188.57 46.9117L188.01 47.9117L187.8 48.3117L187.15 49.4517L186.98 49.7417L186.34 50.9617L186.14 51.2617L184.64 53.4417L184.04 54.2517L183.87 54.4817L182.04 56.8017L181.34 57.4617C181.207 57.6208 181.048 57.7561 180.87 57.8617C180.758 57.9317 180.628 57.9688 180.495 57.9688C180.363 57.9688 180.233 57.9317 180.12 57.8617L179.67 57.6317C179.67 57.5617 179.61 57.5517 179.56 57.5417C178.939 56.9958 178.269 56.5071 177.56 56.0817C177.427 55.9972 177.273 55.9524 177.115 55.9524C176.958 55.9524 176.803 55.9972 176.67 56.0817C176.588 56.1309 176.511 56.1879 176.44 56.2517C176.141 56.501 175.881 56.7944 175.67 57.1217C175.591 57.1699 175.531 57.2441 175.5 57.3317C174.95 58.1017 174.34 58.7917 173.77 59.5317C173.2 60.2717 172.72 60.7617 172.21 61.4017C171.92 61.7317 171.64 62.0717 171.37 62.4017C171.1 62.7317 170.76 63.1517 170.47 63.5617C170.353 63.6949 170.25 63.8388 170.16 63.9917C170.013 64.1574 169.904 64.3537 169.842 64.5663C169.78 64.779 169.766 65.0028 169.8 65.2217C169.802 65.4898 169.825 65.7574 169.87 66.0217C169.891 66.3636 169.961 66.7005 170.08 67.0217C170.11 67.2328 170.171 67.4383 170.26 67.6317C170.29 67.6938 170.323 67.7539 170.36 67.8117C170.35 67.8578 170.35 67.9056 170.36 67.9517C170.391 68.0088 170.428 68.0625 170.47 68.1117C170.493 68.184 170.53 68.2507 170.58 68.3076C170.63 68.3644 170.691 68.4101 170.76 68.4417C170.853 68.5678 170.977 68.6677 171.12 68.7317L171.37 68.8317H171.54L171.75 68.9117H171.85C171.965 68.9369 172.085 68.9369 172.2 68.9117C172.226 68.9266 172.255 68.9345 172.285 68.9345C172.315 68.9345 172.344 68.9266 172.37 68.9117C172.515 68.9469 172.666 68.9469 172.81 68.9117C172.968 68.9464 173.132 68.9464 173.29 68.9117C173.449 68.936 173.611 68.936 173.77 68.9117H174.06C174.288 68.8891 174.512 68.8422 174.73 68.7717H174.84L175.08 68.7117C175.141 68.7016 175.199 68.6776 175.25 68.6417L175.5 68.5517C175.751 68.4787 175.995 68.385 176.23 68.2717L176.43 68.1717L176.59 68.0817C176.732 68.0036 176.869 67.9168 177 67.8217C177.162 67.7269 177.319 67.6234 177.47 67.5117C177.65 67.3906 177.823 67.2604 177.99 67.1217C178.137 67.0217 178.287 66.9117 178.44 66.7917L178.62 66.6317L178.71 66.5517L178.96 66.3417C179.219 66.1181 179.466 65.8811 179.7 65.6317C179.895 65.4741 180.075 65.3001 180.24 65.1117C180.302 65.0673 180.354 65.0091 180.39 64.9417C180.747 64.6332 181.082 64.299 181.39 63.9417C181.658 63.707 181.912 63.4566 182.15 63.1917C182.352 63.0134 182.539 62.8194 182.71 62.6117L183.02 62.2917C183.114 62.222 183.192 62.1335 183.25 62.0317C183.299 62.0045 183.337 61.9625 183.36 61.9117L183.53 61.7517C183.622 61.6496 183.709 61.5428 183.79 61.4317C183.971 61.2513 184.141 61.061 184.3 60.8617L184.46 60.6617L184.62 60.4617C184.938 60.1126 185.235 59.7453 185.51 59.3617C185.658 59.2164 185.786 59.0515 185.89 58.8717C186.077 58.6614 186.247 58.4375 186.4 58.2017C186.657 57.8836 186.895 57.5496 187.11 57.2017C187.25 57.0217 187.31 56.9317 187.38 56.8517L187.56 56.5917C187.69 56.4117 187.8 56.2317 187.92 56.0417L188.15 55.7317C188.223 55.6254 188.289 55.5152 188.35 55.4017C188.501 55.2159 188.631 55.0148 188.74 54.8017C188.931 54.5467 189.104 54.2794 189.26 54.0017C189.319 53.9257 189.373 53.8455 189.42 53.7617C189.447 53.724 189.471 53.6838 189.49 53.6417L189.56 53.5117L189.73 53.2717C189.89 53.0217 190.04 52.7717 190.18 52.5017L190.38 52.1717L191.01 51.0817C191.099 50.9774 191.17 50.8591 191.22 50.7317C191.38 50.4717 191.53 50.2117 191.68 49.9317C191.68 49.8417 191.77 49.7517 191.82 49.6617C191.904 49.5399 191.975 49.4091 192.03 49.2717L192.57 48.2717C192.66 48.0817 192.76 47.9017 192.85 47.7117C193.004 47.4608 193.134 47.1964 193.24 46.9217C193.67 46.1317 194.05 45.3317 194.4 44.5117L194.56 44.1417C194.71 43.8553 194.837 43.5578 194.94 43.2517C195.351 42.3342 195.715 41.3963 196.03 40.4417L196.12 40.2017C196.328 39.6624 196.505 39.1115 196.65 38.5517C196.87 37.8717 197.05 37.2017 197.22 36.5517C197.28 36.3317 197.34 36.1117 197.39 35.8817C197.436 35.8182 197.458 35.7399 197.45 35.6617C197.453 35.6084 197.453 35.555 197.45 35.5017L197.53 35.2017C197.777 34.3885 197.971 33.5601 198.11 32.7217V32.5917C198.128 32.5195 198.128 32.4439 198.11 32.3717C198.11 32.3717 198.11 32.2817 198.11 32.2417C198.11 32.2017 198.11 32.0817 198.11 32.0117C198.105 31.9285 198.105 31.845 198.11 31.7617C198.174 31.4087 198.204 31.0504 198.2 30.6917C198.2 30.5517 198.2 30.4017 198.2 30.2517C198.226 30.15 198.226 30.0435 198.2 29.9417C198.2 29.8917 198.2 29.8317 198.2 29.7717C198.197 29.4584 198.143 29.1477 198.04 28.8517C197.961 28.4075 197.819 27.9766 197.62 27.5717C197.388 26.9155 197.02 26.3158 196.54 25.8117C196.414 25.6253 196.237 25.4793 196.03 25.3917C196.03 25.3917 195.98 25.3117 195.92 25.3217C195.754 25.1956 195.549 25.1319 195.34 25.1417C194.711 25.117 194.084 25.2261 193.5 25.4617L193.29 25.5517C193.109 25.5967 192.935 25.6639 192.77 25.7517L192.67 25.8117C192.62 25.9617 192.47 26.0217 192.34 26.1217Z" fill="white"/>
<path id="Vector_12" opacity="0.1" d="M162.65 82.3617C162.648 82.5808 162.704 82.7965 162.811 82.9877C162.918 83.1788 163.073 83.3388 163.26 83.4518L157.52 80.2618C157.327 80.1512 157.166 79.9909 157.055 79.7975C156.945 79.6041 156.888 79.3846 156.89 79.1618V68.3818L162.66 67.6718L162.65 82.3617Z" fill="black"/>
<path id="Vector_13" opacity="0.2" d="M158.66 30.4017L198.19 7.58165C198.379 7.47379 198.593 7.41705 198.81 7.41705C199.028 7.41705 199.241 7.47379 199.43 7.58165H199.48L205.26 10.7917C205.065 10.6812 204.844 10.6232 204.62 10.6232C204.396 10.6232 204.175 10.6812 203.98 10.7917L164.45 33.6117C163.716 34.0324 163.14 34.6823 162.81 35.4617L157.07 32.1517C157.403 31.4156 157.959 30.8032 158.66 30.4017Z" fill="white"/>
<path id="Vector_14" opacity="0.1" d="M156.77 48.4617V33.7717C156.77 33.2269 156.886 32.6882 157.11 32.1917L162.81 35.4617C162.619 35.9353 162.521 36.4411 162.52 36.9517V51.6417L156.77 48.4617Z" fill="white"/>
<path id="Vector_15" opacity="0.05" d="M143.09 62.5917L156.77 48.4617L162.56 51.6817L148.88 65.8217C147.82 66.9217 147.58 68.4917 148.14 69.1017L142.69 66.1017C141.74 65.7717 141.87 63.8617 143.09 62.5917Z" fill="white"/>
</g>
</g>
</svg>
