<svg width="392" height="23" viewBox="0 0 392 23" fill="none" xmlns="http://www.w3.org/2000/svg">
<path id="progressLine" d="M0.333333 11.4946C0.333333 17.3857 5.10896 22.1613 11 22.1613C16.891 22.1613 21.6667 17.3857 21.6667 11.4946C21.6667 5.60359 16.891 0.827962 11 0.827962C5.10896 0.827962 0.333333 5.60359 0.333333 11.4946ZM370.333 11.4946C370.333 17.3857 375.109 22.1613 381 22.1613C386.891 22.1613 391.667 17.3857 391.667 11.4946C391.667 5.60359 386.891 0.827962 381 0.827962C375.109 0.827962 370.333 5.60359 370.333 11.4946ZM11 13.4946H381V9.49463H11V13.4946Z" fill="black"/>
</svg>
