<svg width="30" height="30" viewBox="0 0 30 30" fill="none" xmlns="http://www.w3.org/2000/svg">
<path d="M12.8652 9.84175C13.543 9.561 14.2695 9.4165 15.0031 9.4165C16.4848 9.4165 17.9058 10.0051 18.9535 11.0528C20.0012 12.1005 20.5898 13.5215 20.5898 15.0031C20.5898 16.4848 20.0012 17.9058 18.9535 18.9535C17.9058 20.0012 16.4848 20.5898 15.0031 20.5898C14.2695 20.5898 13.543 20.4453 12.8652 20.1645C12.1874 19.8837 11.5715 19.4722 11.0528 18.9535C10.534 18.4347 10.1225 17.8188 9.84175 17.141C9.561 16.4632 9.41649 15.7368 9.41649 15.0031C9.41649 14.2695 9.561 13.543 9.84175 12.8652C10.1225 12.1874 10.534 11.5715 11.0528 11.0528C11.5715 10.534 12.1874 10.1225 12.8652 9.84175Z" stroke="black"/>
<path d="M17.8912 2.66168L17.8912 2.6618L18.0675 3.2599C18.0675 3.25992 18.0675 3.25994 18.0675 3.25996C18.1576 3.5658 18.315 3.84761 18.5281 4.08473C18.7413 4.32186 19.0048 4.50829 19.2994 4.63034C19.5939 4.75239 19.9121 4.80698 20.2305 4.7901C20.5489 4.77322 20.8595 4.6853 21.1395 4.53279L21.687 4.23467L21.6871 4.23461C24.3229 2.79853 27.2087 5.68176 25.7739 8.31848C25.7737 8.31874 25.7736 8.31899 25.7735 8.31924L25.4741 8.86561L25.4735 8.86672C25.3209 9.14674 25.233 9.45734 25.2162 9.77575C25.1993 10.0942 25.2539 10.4123 25.3759 10.7069C25.498 11.0015 25.6844 11.265 25.9215 11.4781C26.1586 11.6913 26.4404 11.8487 26.7463 11.9388C26.7463 11.9388 26.7463 11.9388 26.7463 11.9388L27.3445 12.115L27.3446 12.1151C30.2226 12.9624 30.2226 17.0438 27.3446 17.8912L27.3445 17.8912L26.7463 18.0675C26.7463 18.0675 26.7463 18.0675 26.7463 18.0675C26.4404 18.1576 26.1586 18.315 25.9215 18.5281C25.6844 18.7413 25.498 19.0048 25.3759 19.2994C25.2539 19.5939 25.1993 19.9121 25.2162 20.2305C25.233 20.5489 25.3209 20.8595 25.4734 21.1395C25.4734 21.1395 25.4735 21.1395 25.4735 21.1395L25.7716 21.687L25.7718 21.6873C27.209 24.3223 24.3252 27.209 21.6879 25.7739C21.6876 25.7738 21.6873 25.7736 21.687 25.7735L21.1406 25.4741L21.1395 25.4735C20.8595 25.3209 20.5489 25.233 20.2305 25.2162C19.9121 25.1993 19.5939 25.2539 19.2994 25.3759C19.0048 25.498 18.7413 25.6844 18.5281 25.9215C18.315 26.1586 18.1576 26.4404 18.0675 26.7463C18.0675 26.7463 18.0675 26.7463 18.0675 26.7463L17.8912 27.3445L17.8912 27.3446C17.0438 30.2226 12.9624 30.2226 12.1151 27.3446L12.115 27.3445L11.9388 26.7463C11.9388 26.7463 11.9388 26.7463 11.9388 26.7463C11.8487 26.4404 11.6913 26.1586 11.4781 25.9215C11.265 25.6844 11.0015 25.498 10.7069 25.3759C10.4123 25.2539 10.0942 25.1993 9.77575 25.2162C9.45736 25.233 9.14678 25.3209 8.86677 25.4734C8.86675 25.4734 8.86674 25.4735 8.86672 25.4735L8.31924 25.7716L8.31903 25.7717C5.68263 27.2089 2.7983 24.3255 4.23264 21.6873C4.23273 21.6871 4.23282 21.687 4.23291 21.6868L4.53218 21.1406L4.53279 21.1395C4.6853 20.8595 4.77322 20.5489 4.7901 20.2305C4.80698 19.9121 4.75239 19.5939 4.63034 19.2994C4.50829 19.0048 4.32186 18.7413 4.08473 18.5281C3.84761 18.315 3.5658 18.1576 3.25996 18.0675C3.25994 18.0675 3.25992 18.0675 3.2599 18.0675L2.6618 17.8912L2.66168 17.8912C-0.216394 17.0438 -0.216394 12.9624 2.66168 12.1151L2.6618 12.115L3.2599 11.9388C3.25992 11.9388 3.25994 11.9388 3.25996 11.9388C3.5658 11.8487 3.84761 11.6913 4.08473 11.4781C4.32186 11.265 4.50829 11.0014 4.63034 10.7069C4.75239 10.4123 4.80698 10.0942 4.7901 9.77575C4.77322 9.45734 4.6853 9.14674 4.53279 8.86672L4.23467 8.31924L4.23461 8.31913C2.79888 5.68402 5.68118 2.79891 8.3186 4.23245C8.31888 4.2326 8.31917 4.23276 8.31945 4.23291L8.86561 4.53218L8.86672 4.53279C9.14674 4.6853 9.45734 4.77322 9.77575 4.7901C10.0942 4.80698 10.4123 4.75239 10.7069 4.63034C11.0014 4.50829 11.265 4.32186 11.4781 4.08473C11.6913 3.84761 11.8487 3.5658 11.9388 3.25996C11.9388 3.25994 11.9388 3.25992 11.9388 3.2599L12.115 2.6618L12.1151 2.66168C12.9624 -0.216394 17.0438 -0.216394 17.8912 2.66168Z" stroke="black"/>
</svg>
