<svg width="88" height="100" viewBox="0 0 88 100" fill="none" xmlns="http://www.w3.org/2000/svg">
<path d="M22.125 56.25C16.3234 56.25 10.7594 58.5547 6.65704 62.657C2.55468 66.7594 0.25 72.3234 0.25 78.125C0.25 83.9266 2.55468 89.4906 6.65704 93.593C10.7594 97.6953 16.3234 100 22.125 100H65.875C71.6766 100 77.2406 97.6953 81.343 93.593C85.4453 89.4906 87.75 83.9266 87.75 78.125C87.75 72.3234 85.4453 66.7594 81.343 62.657C77.2406 58.5547 71.6766 56.25 65.875 56.25H22.125ZM65.875 93.75C61.731 93.75 57.7567 92.1038 54.8265 89.1735C51.8962 86.2433 50.25 82.269 50.25 78.125C50.25 73.981 51.8962 70.0067 54.8265 67.0765C57.7567 64.1462 61.731 62.5 65.875 62.5C70.019 62.5 73.9933 64.1462 76.9235 67.0765C79.8538 70.0067 81.5 73.981 81.5 78.125C81.5 82.269 79.8538 86.2433 76.9235 89.1735C73.9933 92.1038 70.019 93.75 65.875 93.75ZM22.125 6.25C17.981 6.25 14.0067 7.8962 11.0765 10.8265C8.1462 13.7567 6.5 17.731 6.5 21.875C6.5 26.019 8.1462 29.9933 11.0765 32.9235C14.0067 35.8538 17.981 37.5 22.125 37.5C26.269 37.5 30.2433 35.8538 33.1735 32.9235C36.1038 29.9933 37.75 26.019 37.75 21.875C37.75 17.731 36.1038 13.7567 33.1735 10.8265C30.2433 7.8962 26.269 6.25 22.125 6.25ZM37.4375 6.25C39.5157 8.28701 41.1665 10.7182 42.2934 13.4012C43.4202 16.0841 44.0004 18.965 44 21.875C44.0004 24.785 43.4202 27.6659 42.2934 30.3488C41.1665 33.0318 39.5157 35.463 37.4375 37.5H65.875C70.019 37.5 73.9933 35.8538 76.9235 32.9235C79.8538 29.9933 81.5 26.019 81.5 21.875C81.5 17.731 79.8538 13.7567 76.9235 10.8265C73.9933 7.8962 70.019 6.25 65.875 6.25H37.4375ZM22.125 0H65.875C71.6766 0 77.2406 2.30468 81.343 6.40704C85.4453 10.5094 87.75 16.0734 87.75 21.875C87.75 27.6766 85.4453 33.2406 81.343 37.343C77.2406 41.4453 71.6766 43.75 65.875 43.75H22.125C16.3234 43.75 10.7594 41.4453 6.65704 37.343C2.55468 33.2406 0.25 27.6766 0.25 21.875C0.25 16.0734 2.55468 10.5094 6.65704 6.40704C10.7594 2.30468 16.3234 0 22.125 0Z" fill="black"/>
</svg>
