<svg width="25" height="26" viewBox="0 0 25 26" fill="none" xmlns="http://www.w3.org/2000/svg">
<g id="settings">
<path id="Vector" d="M12.5 7.92773C11.8339 7.92773 11.1743 8.05893 10.5589 8.31383C9.94356 8.56873 9.3844 8.94235 8.91341 9.41334C8.44241 9.88434 8.0688 10.4435 7.81389 11.0589C7.55899 11.6743 7.4278 12.3338 7.4278 12.9999C7.4278 13.666 7.55899 14.3256 7.81389 14.941C8.0688 15.5564 8.44241 16.1155 8.91341 16.5865C9.3844 17.0575 9.94356 17.4311 10.5589 17.686C11.1743 17.9409 11.8339 18.0721 12.5 18.0721C13.8452 18.0721 15.1353 17.5377 16.0866 16.5865C17.0378 15.6353 17.5722 14.3452 17.5722 12.9999C17.5722 11.6547 17.0378 10.3646 16.0866 9.41334C15.1353 8.46212 13.8452 7.92773 12.5 7.92773ZM8.99039 12.9999C8.99039 12.0691 9.36015 11.1764 10.0183 10.5183C10.6765 9.86009 11.5692 9.49033 12.5 9.49033C13.4308 9.49033 14.3235 9.86009 14.9816 10.5183C15.6398 11.1764 16.0096 12.0691 16.0096 12.9999C16.0096 13.9307 15.6398 14.8234 14.9816 15.4816C14.3235 16.1398 13.4308 16.5095 12.5 16.5095C11.5692 16.5095 10.6765 16.1398 10.0183 15.4816C9.36015 14.8234 8.99039 13.9307 8.99039 12.9999Z" fill="black"/>
<path id="Vector_2" d="M15.3064 2.59779C14.4829 -0.199262 10.5171 -0.199262 9.69357 2.59779L9.54669 3.09626C9.48918 3.29151 9.38871 3.47141 9.25264 3.62279C9.11656 3.77416 8.94834 3.89317 8.7603 3.97108C8.57226 4.04899 8.36917 4.08384 8.16591 4.07306C7.96265 4.06229 7.76438 4.00617 7.58563 3.90881L7.12935 3.65879C4.56669 2.26495 1.76495 5.06825 3.16035 7.62935L3.40881 8.08563C3.50617 8.26438 3.56229 8.46265 3.57306 8.66591C3.58384 8.86917 3.54899 9.07226 3.47108 9.2603C3.39317 9.44834 3.27416 9.61656 3.12279 9.75264C2.97141 9.88871 2.79151 9.98918 2.59626 10.0467L2.09779 10.1936C-0.699262 11.0171 -0.699262 14.9829 2.09779 15.8064L2.59626 15.9533C2.79151 16.0108 2.97141 16.1113 3.12279 16.2474C3.27416 16.3834 3.39317 16.5517 3.47108 16.7397C3.54899 16.9277 3.58384 17.1308 3.57306 17.3341C3.56229 17.5374 3.50617 17.7356 3.40881 17.9144L3.15879 18.3707C1.76495 20.9333 4.56669 23.7366 7.12935 22.3396L7.58563 22.0912C7.76438 21.9938 7.96265 21.9377 8.16591 21.9269C8.36917 21.9162 8.57226 21.951 8.7603 22.0289C8.94834 22.1068 9.11656 22.2258 9.25264 22.3772C9.38871 22.5286 9.48918 22.7085 9.54669 22.9037L9.69357 23.4022C10.5171 26.1993 14.4829 26.1993 15.3064 23.4022L15.4533 22.9037C15.5108 22.7085 15.6113 22.5286 15.7474 22.3772C15.8834 22.2258 16.0517 22.1068 16.2397 22.0289C16.4277 21.951 16.6308 21.9162 16.8341 21.9269C17.0374 21.9377 17.2356 21.9938 17.4144 22.0912L17.8707 22.3412C20.4333 23.7366 23.2366 20.9317 21.8396 18.3707L21.5912 17.9144C21.4938 17.7356 21.4377 17.5374 21.4269 17.3341C21.4162 17.1308 21.451 16.9277 21.5289 16.7397C21.6068 16.5517 21.7258 16.3834 21.8772 16.2474C22.0286 16.1113 22.2085 16.0108 22.4037 15.9533L22.9022 15.8064C25.6993 14.9829 25.6993 11.0171 22.9022 10.1936L22.4037 10.0467C22.2085 9.98918 22.0286 9.88871 21.8772 9.75264C21.7258 9.61656 21.6068 9.44834 21.5289 9.2603C21.451 9.07226 21.4162 8.86917 21.4269 8.66591C21.4377 8.46265 21.4938 8.26438 21.5912 8.08563L21.8412 7.62935C23.2366 5.06669 20.4317 2.26495 17.8707 3.66035L17.4144 3.90881C17.2356 4.00617 17.0374 4.06229 16.8341 4.07306C16.6308 4.08384 16.4277 4.04899 16.2397 3.97108C16.0517 3.89317 15.8834 3.77416 15.7474 3.62279C15.6113 3.47141 15.5108 3.29151 15.4533 3.09626L15.3064 2.59779ZM11.1921 3.04C11.5765 1.73523 13.4235 1.73523 13.8079 3.04L13.9548 3.53847C14.0783 3.95738 14.2939 4.34335 14.586 4.66807C14.878 4.9928 15.239 5.24805 15.6425 5.41512C16.046 5.58219 16.4818 5.65683 16.9179 5.63359C17.354 5.61034 17.7794 5.48979 18.1629 5.28077L18.6176 5.03075C19.8114 4.38227 21.1177 5.68704 20.4677 6.88243L20.2192 7.33871C20.0105 7.72221 19.8903 8.14755 19.8673 8.58356C19.8443 9.01957 19.9191 9.4552 20.0863 9.85853C20.2535 10.2619 20.5089 10.6227 20.8336 10.9145C21.1583 11.2064 21.5443 11.4219 21.9631 11.5452L22.46 11.6921C23.7648 12.0765 23.7648 13.9235 22.46 14.3079L21.9615 14.4548C21.5426 14.5783 21.1567 14.7939 20.8319 15.086C20.5072 15.378 20.2519 15.739 20.0849 16.1425C19.9178 16.546 19.8432 16.9818 19.8664 17.4179C19.8897 17.854 20.0102 18.2794 20.2192 18.6629L20.4693 19.1176C21.1177 20.3114 19.813 21.6177 18.6176 20.9677L18.1629 20.7192C17.7793 20.5102 17.3538 20.3897 16.9176 20.3666C16.4814 20.3434 16.0456 20.4182 15.642 20.5855C15.2385 20.7527 14.8775 21.0081 14.5856 21.333C14.2936 21.6579 14.0781 22.044 13.9548 22.4631L13.8079 22.96C13.4235 24.2648 11.5765 24.2648 11.1921 22.96L11.0452 22.4615C10.9217 22.0428 10.7061 21.6571 10.4141 21.3325C10.1222 21.008 9.76138 20.7528 9.35807 20.5858C8.95476 20.4187 8.51919 20.344 8.08327 20.3671C7.64735 20.3902 7.22211 20.5105 6.83871 20.7192L6.38243 20.9693C5.18861 21.6177 3.88227 20.313 4.53231 19.1176L4.78077 18.6629C4.99008 18.2793 5.11087 17.8538 5.13427 17.4175C5.15767 16.9812 5.08309 16.5452 4.916 16.1415C4.74891 15.7378 4.49355 15.3766 4.16866 15.0845C3.84378 14.7923 3.4576 14.5766 3.03847 14.4532L2.54 14.3063C1.23523 13.9219 1.23523 12.0749 2.54 11.6905L3.03847 11.5437C3.45694 11.4201 3.84249 11.2045 4.16689 10.9127C4.49129 10.6208 4.74633 10.2602 4.91336 9.85708C5.08038 9.45397 5.15516 9.01862 5.13222 8.58288C5.10928 8.14714 4.9892 7.72205 4.78077 7.33871L4.53075 6.88243C3.88227 5.68861 5.18704 4.38227 6.38243 5.03231L6.83871 5.28077C7.22211 5.48949 7.64735 5.60981 8.08327 5.6329C8.51919 5.656 8.95476 5.58129 9.35807 5.41424C9.76138 5.24719 10.1222 4.99204 10.4141 4.66748C10.7061 4.34292 10.9217 3.95716 11.0452 3.53847L11.1921 3.04Z" fill="black"/>
</g>
</svg>
