<svg width="50" height="50" viewBox="0 0 50 50" fill="none" xmlns="http://www.w3.org/2000/svg">
<path id="share" d="M49.5346 0.462233C49.755 0.682987 49.9057 0.963633 49.968 1.26931C50.0302 1.57498 50.0013 1.89222 49.8848 2.1816L31.3594 48.4994C31.1961 48.9073 30.9235 49.2623 30.5716 49.5252C30.2196 49.7881 29.8019 49.9489 29.3645 49.9897C28.9271 50.0305 28.4869 49.9498 28.0924 49.7565C27.6978 49.5633 27.3643 49.2649 27.1284 48.8942L17.0109 32.9901L1.10871 22.8713C0.737235 22.6356 0.438083 22.3019 0.244259 21.907C0.0504351 21.512 -0.0305253 21.0712 0.0103114 20.6331C0.0511481 20.1951 0.212194 19.7768 0.475679 19.4245C0.739164 19.0722 1.09484 18.7995 1.50347 18.6366L47.8155 0.115176C48.1048 -0.00131989 48.422 -0.0302298 48.7277 0.0320373C49.0333 0.0943044 49.3139 0.245004 49.5346 0.465417V0.462233ZM20.1881 32.0604L28.9781 45.8726L44.0461 8.19938L20.1881 32.0604ZM41.7953 5.94828L4.12677 21.0182L17.9405 29.8061L41.7953 5.94828Z" fill="black"/>
</svg>
