<svg width="31" height="30" viewBox="0 0 31 30" fill="none" xmlns="http://www.w3.org/2000/svg">
<path d="M20.3065 1.52248L20.3073 1.52268C22.356 2.0764 24.4243 2.73247 25.6431 3.13071C26.0645 3.26998 26.438 3.52523 26.7209 3.86715C27.0039 4.20925 27.1846 4.62425 27.2424 5.06446L27.2425 5.0654C28.3299 13.2336 25.8084 19.265 22.7631 23.2486L22.7619 23.2502C21.47 24.9537 19.9304 26.4542 18.1941 27.7018L18.1933 27.7024C17.6038 28.1277 16.9784 28.5007 16.3241 28.8173C15.8147 29.0573 15.3422 29.2143 15 29.2143C14.658 29.2143 14.1877 29.0576 13.6756 28.8172C13.0214 28.5006 12.3961 28.1276 11.8067 27.7024L11.8059 27.7018C10.0696 26.4542 8.52996 24.9537 7.23813 23.2502L7.23695 23.2486C4.19159 19.265 1.6701 13.2336 2.7575 5.0654L2.75762 5.06446C2.81537 4.62425 2.99614 4.20925 3.27914 3.86715C3.56204 3.52518 3.93564 3.26991 4.35703 3.13065C6.12304 2.55203 7.90264 2.01574 9.6943 1.52226C11.7204 0.971415 13.7967 0.5 15 0.5C16.2035 0.5 18.2802 0.971544 20.3065 1.52248Z" stroke="black"/>
<path d="M9.94857 12.7771L13.6629 16.64L21.24 9.35999" stroke="black" stroke-width="2" stroke-linecap="round"/>
</svg>
