<svg width="31" height="35" viewBox="0 0 31 35" fill="none" xmlns="http://www.w3.org/2000/svg">
<path d="M21.3931 1.68248L21.3938 1.68268C23.7597 2.32211 26.1476 3.07959 27.5545 3.53926C28.0544 3.70449 28.4977 4.00734 28.8333 4.41306C29.1691 4.81895 29.3835 5.31132 29.4521 5.83361L29.4522 5.83455C30.7099 15.2819 27.7932 22.2612 24.2684 26.872L24.2673 26.8736C22.7721 28.8454 20.99 30.5821 18.9804 32.0261L18.9796 32.0266C18.2957 32.5201 17.57 32.9529 16.8109 33.3202C16.2215 33.5979 15.663 33.7857 15.25 33.7857C14.8371 33.7857 14.2811 33.5981 13.6886 33.32C12.9296 32.9527 12.2041 32.52 11.5204 32.0266L11.5196 32.0261C9.50995 30.5821 7.72788 28.8454 6.23267 26.8736L6.23148 26.872C2.7067 22.2612 -0.209927 15.2819 1.04775 5.83455L1.04787 5.83361C1.11639 5.31132 1.33086 4.81895 1.66663 4.41306C2.00229 4.00732 2.44555 3.70445 2.94554 3.53923C4.98447 2.87119 7.03908 2.25202 9.10762 1.68228C11.4437 1.04714 13.8495 0.5 15.25 0.5C16.6506 0.5 19.0567 1.04726 21.3931 1.68248Z" stroke="black"/>
<path d="M9.4214 14.7428L13.7071 19.2L22.45 10.8" stroke="black" stroke-width="2" stroke-linecap="round"/>
</svg>
