<svg width="22" height="25" viewBox="0 0 22 25" fill="none" xmlns="http://www.w3.org/2000/svg">
<g id="sheildCheck">
<path id="Vector" d="M6.64257 2.43469C5.18419 2.83661 3.73572 3.27366 2.29841 3.74544C2.16717 3.78795 2.0505 3.86647 1.96171 3.97205C1.87291 4.07764 1.81555 4.20604 1.79616 4.34262C0.947852 10.708 2.90785 15.3523 5.24607 18.4118C6.23605 19.72 7.41648 20.8726 8.74804 21.831C9.27785 22.2047 9.74641 22.4742 10.1154 22.6472C10.2992 22.7345 10.4493 22.7927 10.5641 22.8279C10.6143 22.8455 10.6661 22.8583 10.7188 22.8662C10.7708 22.8577 10.822 22.8449 10.8719 22.8279C10.9883 22.7927 11.1383 22.7345 11.3221 22.6472C11.6896 22.4742 12.1597 22.2031 12.6895 21.831C14.021 20.8726 15.2015 19.72 16.1914 18.4118C18.5297 15.3538 20.4897 10.708 19.6414 4.34262C19.6221 4.20597 19.5648 4.07749 19.476 3.97188C19.3872 3.86627 19.2704 3.78779 19.1391 3.74544C18.1423 3.41928 16.4594 2.88794 14.7949 2.43622C13.0953 1.97531 11.5319 1.63384 10.7188 1.63384C9.9072 1.63384 8.34226 1.97378 6.64257 2.43469ZM6.23526 0.8575C7.89666 0.405781 9.6622 0 10.7188 0C11.7753 0 13.5409 0.405781 15.2023 0.8575C16.9019 1.31688 18.6154 1.86047 19.623 2.18969C20.0442 2.3288 20.4177 2.58393 20.7005 2.92576C20.9833 3.26759 21.1639 3.68226 21.2216 4.12212C22.1342 10.9775 20.0165 16.0582 17.4471 19.4193C16.3575 20.8571 15.0583 22.1233 13.5929 23.1755C13.0862 23.5396 12.5493 23.8597 11.9882 24.1325C11.5594 24.3346 11.0985 24.5 10.7188 24.5C10.339 24.5 9.87963 24.3346 9.44935 24.1325C8.88817 23.8597 8.3513 23.5396 7.8446 23.1755C6.37924 22.1232 5.08006 20.8571 3.99045 19.4193C1.42101 16.0582 -0.696711 10.9775 0.215915 4.12212C0.273623 3.68226 0.454243 3.26759 0.737025 2.92576C1.01981 2.58393 1.39328 2.3288 1.81454 2.18969C3.27718 1.71011 4.75118 1.26592 6.23526 0.8575Z" fill="black"/>
<path id="Vector_2" d="M15.0889 7.87972C15.1602 7.95084 15.2168 8.03532 15.2554 8.12834C15.294 8.22136 15.3139 8.32107 15.3139 8.42178C15.3139 8.52248 15.294 8.6222 15.2554 8.71522C15.2168 8.80823 15.1602 8.89272 15.0889 8.96384L10.4952 13.5576C10.4241 13.6289 10.3396 13.6855 10.2466 13.7241C10.1535 13.7627 10.0538 13.7825 9.95312 13.7825C9.85241 13.7825 9.75269 13.7627 9.65968 13.7241C9.56666 13.6855 9.48217 13.6289 9.41105 13.5576L7.11418 11.2607C7.04299 11.1895 6.98653 11.105 6.948 11.012C6.90948 10.919 6.88965 10.8193 6.88965 10.7187C6.88965 10.618 6.90948 10.5183 6.948 10.4253C6.98653 10.3323 7.04299 10.2478 7.11418 10.1766C7.18536 10.1054 7.26987 10.0489 7.36288 10.0104C7.45589 9.97189 7.55557 9.95206 7.65624 9.95206C7.75691 9.95206 7.8566 9.97189 7.9496 10.0104C8.04261 10.0489 8.12712 10.1054 8.1983 10.1766L9.95312 11.9329L14.0048 7.87972C14.0759 7.80842 14.1604 7.75185 14.2534 7.71325C14.3464 7.67465 14.4462 7.65479 14.5469 7.65479C14.6476 7.65479 14.7473 7.67465 14.8403 7.71325C14.9333 7.75185 15.0178 7.80842 15.0889 7.87972Z" fill="black"/>
</g>
</svg>
