<svg width="40" height="32" viewBox="0 0 40 32" fill="none" xmlns="http://www.w3.org/2000/svg">
<g id="sort">
<path id="Arrow 20" d="M10.8839 1.11611C10.3957 0.627959 9.60427 0.627959 9.11612 1.11611L1.16117 9.07107C0.67301 9.55922 0.67301 10.3507 1.16117 10.8388C1.64932 11.327 2.44078 11.327 2.92893 10.8388L10 3.76777L17.0711 10.8388C17.5592 11.327 18.3507 11.327 18.8388 10.8388C19.327 10.3507 19.327 9.55922 18.8388 9.07107L10.8839 1.11611ZM11.25 32L11.25 2H8.75L8.75 32H11.25Z" fill="black"/>
<line id="Line 48" x1="20.5405" y1="1.64552" x2="24.5946" y2="1.64552" stroke="black" stroke-width="2.5"/>
<line id="Line 49" x1="20.5405" y1="10.153" x2="29.8649" y2="10.153" stroke="black" stroke-width="2.5"/>
<line id="Line 50" x1="20.5405" y1="18.6604" x2="34.7297" y2="18.6604" stroke="black" stroke-width="2.5"/>
<line id="Line 51" x1="20.5405" y1="27.1679" x2="40" y2="27.1679" stroke="black" stroke-width="2.5"/>
</g>
</svg>
