<svg width="30" height="30" viewBox="0 0 30 30" fill="none" xmlns="http://www.w3.org/2000/svg">
<g id="tick">
<path id="Vector" d="M2.14278 15.0019C2.14246 12.7738 2.68677 10.5848 3.721 8.65509C4.75524 6.72534 6.24294 5.12281 8.03457 4.00859C9.8262 2.89438 11.8586 2.30774 13.9275 2.30765C15.9964 2.30757 18.0288 2.89403 19.8205 4.0081C20.0665 4.15869 20.3578 4.19841 20.6308 4.11858C20.9038 4.03874 21.1365 3.84585 21.2779 3.58198C21.4194 3.31811 21.4582 3.00469 21.3859 2.71012C21.3136 2.41554 21.136 2.16373 20.8919 2.00964C18.2367 0.358674 15.1499 -0.302619 12.1102 0.128317C9.0705 0.559252 6.24775 2.05833 4.07973 4.39308C1.91172 6.72782 0.519594 9.76774 0.119263 13.0414C-0.281069 16.3151 0.332763 19.6395 1.86556 22.4992C3.39836 25.3588 5.76447 27.5939 8.59693 28.8577C11.4294 30.1216 14.5699 30.3436 17.5315 29.4893C20.493 28.635 23.1101 26.7521 24.9768 24.1328C26.8435 21.5134 27.8555 18.3039 27.8559 15.0019C27.8559 14.6959 27.743 14.4024 27.5421 14.186C27.3412 13.9697 27.0687 13.8481 26.7845 13.8481C26.5004 13.8481 26.2279 13.9697 26.0269 14.186C25.826 14.4024 25.7131 14.6959 25.7131 15.0019C25.7131 18.3681 24.4715 21.5965 22.2613 23.9767C20.0512 26.357 17.0536 27.6942 13.928 27.6942C10.8023 27.6942 7.80473 26.357 5.59458 23.9767C3.38443 21.5965 2.14278 18.3681 2.14278 15.0019Z" fill="black"/>
<path id="Vector_2" d="M29.6857 4.28033C29.7853 4.17305 29.8643 4.04569 29.9182 3.90552C29.9721 3.76536 29.9999 3.61512 29.9999 3.46341C29.9999 3.31169 29.9721 3.16146 29.9182 3.02129C29.8643 2.88113 29.7853 2.75377 29.6857 2.64649C29.5861 2.53921 29.4678 2.45411 29.3377 2.39605C29.2075 2.33799 29.068 2.30811 28.9271 2.30811C28.7863 2.30811 28.6468 2.33799 28.5166 2.39605C28.3865 2.45411 28.2682 2.53921 28.1686 2.64649L13.9278 17.9857L8.25809 11.8772C8.15848 11.77 8.04022 11.6849 7.91007 11.6268C7.77992 11.5687 7.64043 11.5389 7.49955 11.5389C7.35868 11.5389 7.21918 11.5687 7.08903 11.6268C6.95888 11.6849 6.84063 11.77 6.74102 11.8772C6.6414 11.9845 6.56239 12.1119 6.50848 12.2521C6.45457 12.3922 6.42682 12.5425 6.42682 12.6942C6.42682 12.8459 6.45457 12.9961 6.50848 13.1363C6.56239 13.2765 6.6414 13.4038 6.74102 13.5111L13.1693 20.4342C13.2688 20.5416 13.387 20.6269 13.5172 20.685C13.6474 20.7432 13.7869 20.7731 13.9278 20.7731C14.0688 20.7731 14.2083 20.7432 14.3385 20.685C14.4686 20.6269 14.5868 20.5416 14.6864 20.4342L29.6857 4.28033Z" fill="black"/>
</g>
</svg>
