<svg width="30" height="30" viewBox="0 0 30 30" fill="none" xmlns="http://www.w3.org/2000/svg">
<path d="M4.51313 17.9132L4.5041 18.4131L4.50414 18.4131L4.5043 18.4131L4.50485 18.4131L4.50693 18.4131L4.51488 18.4133L4.54517 18.4138L4.65701 18.4154C4.75192 18.4167 4.88452 18.4183 5.03547 18.4193C5.33573 18.4214 5.71471 18.4214 6.01414 18.413C6.36483 18.403 6.80787 18.3757 7.15871 18.3513C7.3351 18.339 7.49 18.3274 7.60084 18.3188L7.73146 18.3085L7.76683 18.3056L7.77611 18.3049L7.77854 18.3047L7.77919 18.3046L7.77936 18.3046L7.77942 18.3046L7.73819 17.8063L7.77945 18.3046L7.78539 17.3091L7.78545 17.3085L7.7854 17.3085L7.78512 17.3085L7.78331 17.3083L7.77522 17.3075L7.74213 17.3042C7.71292 17.3011 7.66996 17.2965 7.61614 17.2904C7.50836 17.278 7.35789 17.2595 7.18777 17.2348C6.84018 17.1844 6.43786 17.1122 6.1479 17.0224C5.77867 16.908 5.31156 16.6784 4.91812 16.4637C4.72558 16.3586 4.5581 16.2612 4.43892 16.1902C4.37942 16.1548 4.33218 16.126 4.30014 16.1063L4.26391 16.0839L4.25882 16.0807L2.93476 15.1871C2.28836 14.376 1.87966 13.4064 1.74716 12.386C2.45466 12.6626 3.20589 12.8182 3.96926 12.8441L5.72203 12.9037L4.2642 11.9288C3.06751 11.1285 2.22026 9.9028 1.89449 8.50055C1.62386 7.3356 1.72998 6.12136 2.18724 5.02942C3.68658 6.7197 5.49266 8.1141 7.51218 9.13746L7.51219 9.13746C9.76056 10.2767 12.2233 10.9307 14.7406 11.0569L15.4029 11.0902L15.2526 10.4443C14.9704 9.23126 15.096 7.95902 15.61 6.82466L15.61 6.82464C16.124 5.69029 16.9978 4.75707 18.0959 4.16955C19.194 3.58203 20.4552 3.37301 21.6841 3.57486C22.9131 3.77671 24.0411 4.37816 24.8936 5.28606L25.0825 5.48715L25.3533 5.43467C26.3022 5.25078 27.2255 4.95989 28.1059 4.56862C27.6313 5.32713 26.9809 5.96883 26.2016 6.43463L26.518 7.36021C27.2068 7.27715 27.8868 7.13914 28.5518 6.94793C27.9774 7.59083 27.3346 8.17137 26.6337 8.67878L26.4159 8.83647L26.4274 9.10514C26.4381 9.35517 26.4381 9.61072 26.4381 9.87507C26.4381 17.7804 20.4117 26.8763 9.42377 26.8763H9.42362C6.86429 26.8771 4.34684 26.3008 2.055 25.2011C4.73042 25.0818 7.30748 24.1292 9.42134 22.4689L10.5267 21.6006L9.12134 21.5757C7.94155 21.5548 6.79784 21.1654 5.85036 20.462C5.11717 19.9177 4.52995 19.2064 4.13438 18.3919C4.2213 18.3979 4.29865 18.4025 4.35871 18.4058C4.39897 18.4081 4.43162 18.4098 4.45436 18.4109L4.48079 18.4122L4.48793 18.4125L4.48988 18.4126L4.49044 18.4126L4.49062 18.4126L4.49068 18.4127L4.51313 17.9132ZM4.51313 17.9132L4.50407 18.4131L4.49071 18.4128L4.51313 17.9132ZM1.46219 24.9022L1.46169 25.2138C1.46219 25.2138 1.46269 25.2138 1.46319 25.2138C1.46368 25.2138 1.46416 25.2138 1.46465 25.2138L1.46331 24.9028C1.46294 24.9026 1.46256 24.9024 1.46219 24.9022Z" stroke="black"/>
</svg>
