<svg width="51" height="42" viewBox="0 0 51 42" fill="none" xmlns="http://www.w3.org/2000/svg">
<path id="twitterBlack" d="M16.5969 41.3166C35.4656 41.3166 45.7875 25.6822 45.7875 12.1479C45.7875 11.7104 45.7875 11.2666 45.7688 10.8291C47.7783 9.37439 49.5127 7.57334 50.8906 5.51037C49.0135 6.33803 47.0243 6.88351 44.9875 7.12912C47.1329 5.84674 48.7398 3.82902 49.5094 1.45099C47.4937 2.64513 45.2875 3.48341 42.9875 3.92912C41.4412 2.28232 39.395 1.19136 37.1659 0.825236C34.9368 0.459111 32.6491 0.838249 30.6573 1.90392C28.6655 2.9696 27.0806 4.66233 26.1483 6.71993C25.2159 8.77753 24.9881 11.0852 25.5 13.2854C21.4211 13.0808 17.4307 12.0212 13.7876 10.1752C10.1446 8.32917 6.93026 5.73801 4.35313 2.56974C3.04481 4.82938 2.64554 7.50225 3.23639 10.0456C3.82724 12.5889 5.36392 14.812 7.53437 16.2635C5.90794 16.2082 4.31725 15.7715 2.89062 14.9885V15.1291C2.89343 17.4962 3.71346 19.7898 5.21211 21.6221C6.71075 23.4544 8.79609 24.7131 11.1156 25.1854C10.2352 25.4279 9.32572 25.5488 8.4125 25.5447C7.7687 25.5467 7.12619 25.487 6.49375 25.3666C7.14933 27.4043 8.42585 29.1859 10.1445 30.4619C11.8632 31.7378 13.9379 32.4443 16.0781 32.4822C12.4424 35.3379 7.95125 36.8866 3.32812 36.8791C2.5135 36.8826 1.69945 36.8356 0.890625 36.7385C5.58286 39.7299 11.0322 41.3183 16.5969 41.3166Z" fill="black"/>
</svg>
