<svg width="84" height="83" viewBox="0 0 84 83" fill="none" xmlns="http://www.w3.org/2000/svg">
<g id="uploadImg">
<g id="Group 10">
<path id="img" d="M71 58.6667H69.9867C66.8533 58.6667 63.73 57.7533 61.44 55.61C58.7159 53.0632 56.3989 50.1133 54.57 46.8633L51.8367 42H50.17L47.43 46.8633C45.8387 49.6894 43.8769 52.2902 41.5967 54.5967C39.2104 53.9492 37.0159 52.7347 35.2 51.0567C31.4063 47.4869 28.1822 43.3567 25.64 38.81L21.8333 32H20.1733L16.37 38.81C13.5194 43.9073 9.81439 48.477 5.41667 52.32C4.13452 53.4303 2.62808 54.2512 1 54.7267M1 72V2H71V72H1ZM51 28.6667C49.2319 28.6667 47.5362 27.9643 46.286 26.714C45.0357 25.4638 44.3333 23.7681 44.3333 22C44.3333 20.2319 45.0357 18.5362 46.286 17.286C47.5362 16.0357 49.2319 15.3333 51 15.3333C52.7681 15.3333 54.4638 16.0357 55.714 17.286C56.9643 18.5362 57.6667 20.2319 57.6667 22C57.6667 23.7681 56.9643 25.4638 55.714 26.714C54.4638 27.9643 52.7681 28.6667 51 28.6667Z" stroke="black" stroke-width="2"/>
<circle id="Ellipse 40" cx="64" cy="60" r="19" fill="white" stroke="black" stroke-width="2"/>
<path id="Arrow 22" d="M64.7071 48.2929C64.3166 47.9024 63.6834 47.9024 63.2929 48.2929L56.9289 54.6569C56.5384 55.0474 56.5384 55.6805 56.9289 56.0711C57.3195 56.4616 57.9526 56.4616 58.3431 56.0711L64 50.4142L69.6569 56.0711C70.0474 56.4616 70.6805 56.4616 71.0711 56.0711C71.4616 55.6805 71.4616 55.0474 71.0711 54.6569L64.7071 48.2929ZM65 72V49H63V72H65Z" fill="black"/>
</g>
</g>
</svg>
