<svg width="75" height="85" viewBox="0 0 75 85" fill="none" xmlns="http://www.w3.org/2000/svg">
<g id="user1">
<path id="Vector" d="M57.355 19.9264C57.355 30.4938 48.4895 39.1029 37.5 39.1029C26.5105 39.1029 17.645 30.4938 17.645 19.9264C17.645 9.35906 26.5105 0.75 37.5 0.75C48.4895 0.75 57.355 9.35906 57.355 19.9264Z" fill="white" stroke="black" stroke-width="1.5"/>
<path id="Vector_2" d="M74.0968 69.4C69.3893 74.0368 63.7826 77.736 57.5939 80.2844C51.2416 82.9001 44.4077 84.2492 37.5021 84.2501C30.5964 84.251 23.7622 82.9037 17.4092 80.2896C11.2198 77.7429 5.61203 74.0452 0.903247 69.4097C7.89123 54.7251 21.6907 44.7864 37.5051 44.7864C53.3196 44.7864 67.1091 54.7148 74.0968 69.4Z" fill="white" stroke="black" stroke-width="1.5"/>
</g>
</svg>
