<svg width="160" height="160" viewBox="0 0 160 160" fill="none" xmlns="http://www.w3.org/2000/svg">
<g id="user">
<path id="Vector" d="M159.499 79.9975V79.9995C159.498 95.7213 154.834 111.09 146.097 124.161C137.36 137.232 124.943 147.42 110.416 153.435C95.8885 159.45 79.9036 161.023 64.4825 157.954C49.0614 154.885 34.8966 147.313 23.7795 136.195C12.6623 125.077 5.0921 110.912 2.02609 95.4921C-1.03992 80.0721 0.535997 64.0892 6.55454 49.5647C12.5731 35.0402 22.764 22.6263 35.8385 13.893C48.913 5.15964 64.2839 0.499046 80.0074 0.500577L80.0094 0.500569C90.4606 0.460941 100.816 2.49026 110.479 6.47151C120.142 10.4528 128.922 16.3072 136.311 23.6973C143.701 31.0874 149.554 39.8669 153.534 49.5297C157.514 59.1925 159.541 69.5475 159.499 79.9975Z" fill="#D9D9D9" stroke="black"/>
<path id="Vector_2" d="M111.175 56.5703C111.175 73.7859 97.2172 87.742 79.9997 87.742C62.7822 87.742 48.8247 73.7859 48.8247 56.5703C48.8247 39.3547 62.7822 25.3987 79.9997 25.3987C97.2172 25.3987 111.175 39.3547 111.175 56.5703Z" fill="white" stroke="black"/>
<path id="Vector_3" d="M137.051 135.354C129.683 142.951 120.872 149 111.132 153.147C101.289 157.338 90.7012 159.499 80.003 159.5C69.3048 159.501 58.7164 157.343 48.8722 153.155C39.1317 149.011 30.3181 142.964 22.948 135.37C33.7185 111.575 55.2591 95.3911 80.0075 95.3911C104.756 95.3911 126.281 111.558 137.051 135.354Z" fill="white" stroke="black"/>
</g>
</svg>
