<svg width="30" height="30" viewBox="0 0 30 30" fill="none" xmlns="http://www.w3.org/2000/svg">
<g clip-path="url(#clip0_5_112)">
<path d="M17.2569 20.9421C18.088 21.2028 18.8386 21.1633 19.4371 21.0793M24.7983 4.99019C23.5148 3.72021 21.9863 2.71337 20.302 2.02832C18.6176 1.34329 16.811 0.993748 14.9875 1.00008C7.34631 1.00008 1.11898 7.1036 1.11198 14.5966C1.11198 16.9965 1.75239 19.3312 2.96147 21.3984L1 28.4471L8.35595 26.5567C10.3909 27.6424 12.6707 28.2115 14.9875 28.2121H14.9945C22.6374 28.2121 28.863 22.1086 28.87 14.6087C28.8717 12.8213 28.5127 11.0511 27.8136 9.40036C27.1145 7.74959 26.0909 6.25075 24.7983 4.99019Z" stroke="black"/>
<path d="M21.3128 17.446C20.9681 17.2762 19.2656 16.4545 18.9454 16.3378C18.6269 16.2263 18.3942 16.168 18.1667 16.5077C17.934 16.8456 17.2691 17.6158 17.0697 17.8371C16.8702 18.0653 16.6638 18.091 16.3173 17.9229C15.9726 17.7513 14.8545 17.3945 13.5317 16.2332C12.4994 15.3326 11.8082 14.2175 11.6017 13.8796C11.4022 13.5399 11.5825 13.3581 11.7557 13.1883C11.9079 13.0373 12.1004 12.7903 12.2736 12.5948C12.4486 12.3992 12.5064 12.2551 12.6201 12.0286C12.7338 11.7988 12.6795 11.6032 12.5938 11.4334C12.5064 11.2636 11.8152 9.58755 11.523 8.9117C11.243 8.2444 10.9578 8.33701 10.7443 8.32845C10.5448 8.31643 10.3121 8.31643 10.0794 8.31643C9.90368 8.32071 9.73078 8.36056 9.57148 8.43346C9.41218 8.50641 9.27002 8.61082 9.15384 8.74015C8.83536 9.07978 7.94475 9.90149 7.94475 11.5775C7.94475 13.2535 9.18704 14.8642 9.36201 15.0924C9.53352 15.3206 11.8012 18.7498 15.2814 20.225C16.1038 20.5767 16.7512 20.7842 17.2569 20.9421C18.088 21.2028 18.8386 21.1633 19.4371 21.0793C20.102 20.9798 21.4861 20.2559 21.7783 19.4616C22.0652 18.6657 22.0652 17.9863 21.9777 17.844C21.892 17.6999 21.6593 17.6158 21.3128 17.446Z" fill="black"/>
</g>
<defs>
<clipPath id="clip0_5_112">
<rect width="30" height="30" fill="white"/>
</clipPath>
</defs>
</svg>
