<svg width="50" height="51" viewBox="0 0 50 51" fill="none" xmlns="http://www.w3.org/2000/svg">
<path id="WhatsappHolo" d="M42.6125 7.27183C40.3202 4.95832 37.5904 3.12416 34.5822 1.87622C31.5739 0.62829 28.3474 -0.00845867 25.0906 0.00308385C11.4437 0.00308385 0.321875 11.1218 0.309375 24.7718C0.309375 29.1437 1.45313 33.3968 3.6125 37.1625L0.109375 50.0031L13.2469 46.5593C16.8813 48.5372 20.9529 49.5739 25.0906 49.575H25.1031C38.7531 49.575 49.8719 38.4562 49.8844 24.7937C49.8875 21.5376 49.2463 18.313 47.9977 15.3058C46.7491 12.2986 44.921 9.56818 42.6125 7.27183ZM25.0906 45.3812C21.4 45.3824 17.7772 44.3893 14.6031 42.5062L13.8531 42.0562L6.05938 44.1L8.14062 36.4968L7.65313 35.7125C5.59002 32.4322 4.4989 28.6344 4.50625 24.7593C4.50625 13.4281 13.7469 4.18433 25.1031 4.18433C27.8086 4.17948 30.4882 4.71019 32.9876 5.74587C35.4869 6.78155 37.7566 8.30171 39.6656 10.2187C41.5814 12.1282 43.1001 14.3982 44.1341 16.8976C45.1682 19.397 45.6972 22.0763 45.6906 24.7812C45.6781 36.1531 36.4375 45.3812 25.0906 45.3812ZM36.3875 29.9625C35.7719 29.6531 32.7312 28.1562 32.1594 27.9437C31.5906 27.7406 31.175 27.6343 30.7687 28.2531C30.3531 28.8687 29.1656 30.2718 28.8094 30.675C28.4531 31.0906 28.0844 31.1375 27.4656 30.8312C26.85 30.5187 24.8531 29.8687 22.4906 27.7531C20.6469 26.1125 19.4125 24.0812 19.0438 23.4656C18.6875 22.8468 19.0094 22.5156 19.3187 22.2062C19.5906 21.9312 19.9344 21.4812 20.2437 21.125C20.5562 20.7687 20.6594 20.5062 20.8625 20.0937C21.0656 19.675 20.9687 19.3187 20.8156 19.0093C20.6594 18.7 19.425 15.6468 18.9031 14.4156C18.4031 13.2 17.8937 13.3687 17.5125 13.3531C17.1562 13.3312 16.7406 13.3312 16.325 13.3312C16.0111 13.339 15.7023 13.4116 15.4178 13.5444C15.1333 13.6773 14.8794 13.8675 14.6719 14.1031C14.1031 14.7218 12.5125 16.2187 12.5125 19.2718C12.5125 22.325 14.7312 25.2593 15.0437 25.675C15.35 26.0906 19.4 32.3375 25.6156 35.025C27.0844 35.6656 28.2406 36.0437 29.1438 36.3312C30.6281 36.8062 31.9687 36.7343 33.0375 36.5812C34.225 36.4 36.6969 35.0812 37.2188 33.6343C37.7313 32.1843 37.7313 30.9468 37.575 30.6875C37.4219 30.425 37.0063 30.2718 36.3875 29.9625Z" fill="black"/>
</svg>
