<svg width="51" height="38" viewBox="0 0 51 38" fill="none" xmlns="http://www.w3.org/2000/svg">
<g id="youtubeHolo">
<path id="Vector" d="M22.1094 9.91857C21.8757 9.75222 21.6008 9.65339 21.3148 9.6329C21.0287 9.61241 20.7425 9.67105 20.4875 9.8024C20.2326 9.93376 20.0187 10.1328 19.8693 10.3776C19.7199 10.6224 19.6408 10.9036 19.6406 11.1904V26.8154C19.6408 27.1022 19.7199 27.3835 19.8693 27.6283C20.0187 27.8731 20.2326 28.0721 20.4875 28.2035C20.7425 28.3348 21.0287 28.3935 21.3148 28.373C21.6008 28.3525 21.8757 28.2537 22.1094 28.0873L33.0469 20.2748C33.2494 20.1303 33.4145 19.9395 33.5284 19.7182C33.6423 19.497 33.7018 19.2518 33.7018 19.0029C33.7018 18.7541 33.6423 18.5089 33.5284 18.2877C33.4145 18.0664 33.2494 17.8756 33.0469 17.7311L22.1094 9.91857Z" fill="black"/>
<path id="Vector_2" d="M0.890625 6.50293C0.890625 4.84533 1.54911 3.25561 2.72121 2.08351C3.89331 0.91141 5.48302 0.25293 7.14062 0.25293H44.6406C46.2982 0.25293 47.8879 0.91141 49.06 2.08351C50.2321 3.25561 50.8906 4.84533 50.8906 6.50293V31.5029C50.8906 33.1605 50.2321 34.7502 49.06 35.9223C47.8879 37.0944 46.2982 37.7529 44.6406 37.7529H7.14062C5.48302 37.7529 3.89331 37.0944 2.72121 35.9223C1.54911 34.7502 0.890625 33.1605 0.890625 31.5029V6.50293ZM47.7656 6.50293C47.7656 5.67413 47.4364 4.87927 46.8503 4.29322C46.2643 3.70717 45.4694 3.37793 44.6406 3.37793H7.14062C6.31182 3.37793 5.51697 3.70717 4.93092 4.29322C4.34486 4.87927 4.01563 5.67413 4.01562 6.50293V31.5029C4.01563 32.3317 4.34486 33.1266 4.93092 33.7126C5.51697 34.2987 6.31182 34.6279 7.14062 34.6279H44.6406C45.4694 34.6279 46.2643 34.2987 46.8503 33.7126C47.4364 33.1266 47.7656 32.3317 47.7656 31.5029V6.50293Z" fill="black"/>
</g>
</svg>
