<svg width="51" height="36" viewBox="0 0 51 36" fill="none" xmlns="http://www.w3.org/2000/svg">
<path id="youtubeBlack" d="M26.0516 0.442383H26.3297C28.8985 0.451758 41.9141 0.545508 45.4235 1.48926C46.4844 1.77728 47.4511 2.3387 48.2271 3.11741C49.003 3.89611 49.5611 4.86483 49.8453 5.92676C50.161 7.11426 50.3828 8.68613 50.5328 10.308L50.5641 10.633L50.6328 11.4455L50.6578 11.7705C50.861 14.6268 50.886 17.3018 50.8891 17.8861V18.1205C50.886 18.7268 50.8578 21.583 50.6328 24.558L50.6078 24.8861L50.5797 25.2111C50.4235 26.9986 50.1922 28.7736 49.8453 30.0799C49.5619 31.1422 49.0042 32.1114 48.2281 32.8903C47.452 33.6691 46.4848 34.2302 45.4235 34.5174C41.7985 35.4924 28.0203 35.5611 26.111 35.5643H25.6672C24.7016 35.5643 20.7078 35.5455 16.5203 35.4018L15.9891 35.383L15.7172 35.3705L15.1828 35.3486L14.6485 35.3268C11.1797 35.1736 7.87659 34.9268 6.35471 34.5143C5.29374 34.2274 4.32679 33.6667 3.55073 32.8884C2.77466 32.1102 2.21673 31.1417 1.93284 30.0799C1.58596 28.7768 1.35471 26.9986 1.19846 25.2111L1.17346 24.883L1.14846 24.558C0.994236 22.4405 0.908774 20.3186 0.892212 18.1955L0.892212 17.8111C0.898462 17.1393 0.923462 14.8174 1.09221 12.2549L1.11409 11.933L1.12346 11.7705L1.14846 11.4455L1.21721 10.633L1.24846 10.308C1.39846 8.68613 1.62034 7.11113 1.93596 5.92676C2.21938 4.86441 2.77709 3.89523 3.55319 3.11639C4.32929 2.33755 5.29649 1.77642 6.35784 1.48926C7.87971 1.08301 11.1828 0.833008 14.6516 0.676758L15.1828 0.654883L15.7203 0.636133L15.9891 0.626758L16.5235 0.604883C19.4975 0.509179 22.4729 0.456048 25.4485 0.445508H26.0516V0.442383ZM20.8922 10.4736V25.5299L33.8828 18.0049L20.8922 10.4736Z" fill="black"/>
</svg>
