<svg width="30" height="30" viewBox="0 0 30 30" fill="none" xmlns="http://www.w3.org/2000/svg">
<path d="M12.7313 9.79939C12.5911 9.69958 12.4261 9.64028 12.2545 9.62798C12.0829 9.61569 11.9111 9.65087 11.7581 9.72968C11.6052 9.8085 11.4769 9.92792 11.3872 10.0748C11.2976 10.2217 11.2501 10.3904 11.25 10.5625V19.9375C11.2501 20.1096 11.2976 20.2784 11.3872 20.4252C11.4769 20.5721 11.6052 20.6915 11.7581 20.7704C11.9111 20.8491 12.0829 20.8844 12.2545 20.8721C12.4261 20.8598 12.5911 20.8005 12.7313 20.7006L19.2938 16.0131C19.4153 15.9264 19.5143 15.8119 19.5827 15.6792C19.651 15.5464 19.6867 15.3993 19.6867 15.25C19.6867 15.1007 19.651 14.9536 19.5827 14.8209C19.5143 14.6881 19.4153 14.5736 19.2938 14.4869L12.7313 9.79939Z" fill="black"/>
<path d="M0.5 7.75C0.5 6.88805 0.842413 6.06139 1.45191 5.4519C2.0614 4.84241 2.88805 4.5 3.75 4.5H26.25C27.1119 4.5 27.9386 4.84241 28.5481 5.4519C29.1576 6.0614 29.5 6.88805 29.5 7.75V22.75C29.5 23.6119 29.1576 24.4386 28.5481 25.0481C27.9386 25.6576 27.1119 26 26.25 26H3.75C2.88805 26 2.0614 25.6576 1.45191 25.0481C0.842411 24.4386 0.5 23.6119 0.5 22.75V7.75Z" stroke="black"/>
</svg>
