<svg width="445" height="698" viewBox="0 0 445 698" fill="none" xmlns="http://www.w3.org/2000/svg">
<g id="login1">
<path id="Ellipse 23" d="M485.5 657C485.5 696.219 456.257 731.836 408.73 757.677C361.223 783.508 295.559 799.5 223 799.5C150.441 799.5 84.7768 783.508 37.2698 757.677C-10.2566 731.836 -39.5 696.219 -39.5 657C-39.5 617.781 -10.2566 582.164 37.2698 556.323C84.7768 530.492 150.441 514.5 223 514.5C295.559 514.5 361.223 530.492 408.73 556.323C456.257 582.164 485.5 617.781 485.5 657Z" fill="#D9D9D9" stroke="black"/>
<g id="Group">
<path id="Vector" d="M330.857 140.467H114V187.775H330.857V140.467Z" fill="#D9D9D9"/>
<path id="Vector_2" d="M330.857 222.231H114V269.539H330.857V222.231Z" fill="#D9D9D9"/>
<g id="Group_2">
<path id="Vector_3" d="M290.777 395.259C290.777 433.007 260.177 463.607 222.429 463.607C184.681 463.607 154.081 433.007 154.081 395.259C154.081 357.511 184.681 326.911 222.429 326.911C260.177 326.911 290.777 357.511 290.777 395.259Z" fill="#D9D9D9" stroke="black"/>
<g id="Group_3">
<path id="Vector_4" d="M223.56 350.584C230.824 360.719 241.249 364.404 249.886 365.546C254.295 366.129 258.25 366.051 261.102 365.828C262.528 365.716 263.68 365.568 264.478 365.448C264.753 365.406 264.986 365.368 265.174 365.335C267.72 395.472 257.311 414.997 246.256 427.004C240.69 433.05 234.955 437.197 230.612 439.831C228.441 441.148 226.619 442.086 225.342 442.694C224.704 442.998 224.202 443.22 223.861 443.365C223.714 443.427 223.597 443.476 223.511 443.51C223.418 443.477 223.286 443.43 223.118 443.368C222.746 443.23 222.2 443.019 221.507 442.729C220.119 442.147 218.141 441.246 215.791 439.969C211.089 437.415 204.902 433.365 198.962 427.377C187.161 415.484 176.301 395.921 180.045 365.164C196.559 367.705 207.508 363.981 214.353 359.555C217.805 357.322 220.203 354.917 221.74 353.067C222.508 352.141 223.062 351.354 223.425 350.795C223.473 350.72 223.518 350.65 223.56 350.584Z" fill="white" stroke="black"/>
<path id="Vector_5" d="M237.036 389.651H237.036C237.442 389.651 237.843 389.73 238.217 389.885C238.592 390.04 238.932 390.267 239.219 390.554C239.505 390.84 239.733 391.181 239.888 391.555C240.043 391.929 240.123 392.331 240.123 392.736V416.107C240.123 416.925 239.798 417.71 239.219 418.288C238.641 418.867 237.856 419.192 237.038 419.192H207.824C207.006 419.192 206.221 418.867 205.643 418.288C205.064 417.71 204.739 416.925 204.739 416.107V392.736C204.739 391.918 205.064 391.133 205.643 390.555C206.221 389.976 207.006 389.651 207.824 389.651H209.903H210.403V389.151V384.505C210.432 381.335 211.711 378.304 213.963 376.073C216.216 373.84 219.258 372.588 222.429 372.588C225.601 372.588 228.643 373.84 230.896 376.073C233.148 378.304 234.427 381.335 234.456 384.505V389.151V389.651H234.956H237.036ZM213.475 384.498H213.475V384.503V389.151V389.651H213.975H230.884H231.384V389.151V384.503H231.384L231.384 384.498C231.358 382.14 230.404 379.887 228.727 378.228C227.051 376.57 224.788 375.64 222.429 375.64C220.071 375.64 217.808 376.57 216.132 378.228C214.455 379.887 213.501 382.14 213.475 384.498Z" fill="black" stroke="black"/>
</g>
</g>
<g id="Group_4">
<path id="Vector_6" d="M142.579 164.121C142.579 168.059 139.387 171.251 135.449 171.251C131.511 171.251 128.319 168.059 128.319 164.121C128.319 160.183 131.511 156.991 135.449 156.991C139.387 156.991 142.579 160.183 142.579 164.121Z" fill="white" stroke="black"/>
<path id="Vector_7" d="M165.487 164.121C165.487 168.059 162.295 171.251 158.357 171.251C154.419 171.251 151.227 168.059 151.227 164.121C151.227 160.183 154.419 156.991 158.357 156.991C162.295 156.991 165.487 160.183 165.487 164.121Z" fill="white" stroke="black"/>
<path id="Vector_8" d="M188.396 164.121C188.396 168.059 185.204 171.251 181.266 171.251C177.328 171.251 174.136 168.059 174.136 164.121C174.136 160.183 177.328 156.991 181.266 156.991C185.204 156.991 188.396 160.183 188.396 164.121Z" fill="white" stroke="black"/>
<path id="Vector_9" d="M211.305 164.121C211.305 168.059 208.113 171.251 204.175 171.251C200.237 171.251 197.045 168.059 197.045 164.121C197.045 160.183 200.237 156.991 204.175 156.991C208.113 156.991 211.305 160.183 211.305 164.121Z" fill="white" stroke="black"/>
<path id="Vector_10" d="M234.213 164.121C234.213 168.059 231.021 171.251 227.083 171.251C223.145 171.251 219.953 168.059 219.953 164.121C219.953 160.183 223.145 156.991 227.083 156.991C231.021 156.991 234.213 160.183 234.213 164.121Z" fill="white" stroke="black"/>
<path id="Vector_11" d="M257.122 164.121C257.122 168.059 253.93 171.251 249.992 171.251C246.054 171.251 242.862 168.059 242.862 164.121C242.862 160.183 246.054 156.991 249.992 156.991C253.93 156.991 257.122 160.183 257.122 164.121Z" fill="white" stroke="black"/>
<path id="Vector_12" d="M279.213 164.121C279.213 168.059 276.021 171.251 272.083 171.251C268.145 171.251 264.953 168.059 264.953 164.121C264.953 160.183 268.145 156.991 272.083 156.991C276.021 156.991 279.213 160.183 279.213 164.121Z" fill="white" stroke="black"/>
</g>
<g id="Group_5">
<path id="Vector_13" d="M142.579 245.885C142.579 249.823 139.387 253.015 135.449 253.015C131.511 253.015 128.319 249.823 128.319 245.885C128.319 241.947 131.511 238.755 135.449 238.755C139.387 238.755 142.579 241.947 142.579 245.885Z" fill="white" stroke="black"/>
<path id="Vector_14" d="M165.487 245.885C165.487 249.823 162.295 253.015 158.357 253.015C154.419 253.015 151.227 249.823 151.227 245.885C151.227 241.947 154.419 238.755 158.357 238.755C162.295 238.755 165.487 241.947 165.487 245.885Z" fill="white" stroke="black"/>
<path id="Vector_15" d="M188.396 245.885C188.396 249.823 185.204 253.015 181.266 253.015C177.328 253.015 174.136 249.823 174.136 245.885C174.136 241.947 177.328 238.755 181.266 238.755C185.204 238.755 188.396 241.947 188.396 245.885Z" fill="white" stroke="black"/>
<path id="Vector_16" d="M211.305 245.885C211.305 249.823 208.113 253.015 204.175 253.015C200.237 253.015 197.045 249.823 197.045 245.885C197.045 241.947 200.237 238.755 204.175 238.755C208.113 238.755 211.305 241.947 211.305 245.885Z" fill="white" stroke="black"/>
<path id="Vector_17" d="M234.213 245.885C234.213 249.823 231.021 253.015 227.083 253.015C223.145 253.015 219.953 249.823 219.953 245.885C219.953 241.947 223.145 238.755 227.083 238.755C231.021 238.755 234.213 241.947 234.213 245.885Z" fill="white" stroke="black"/>
<path id="Vector_18" d="M257.122 245.885C257.122 249.823 253.93 253.015 249.992 253.015C246.054 253.015 242.862 249.823 242.862 245.885C242.862 241.947 246.054 238.755 249.992 238.755C253.93 238.755 257.122 241.947 257.122 245.885Z" fill="white" stroke="black"/>
</g>
<g id="user">
<path id="Vector_19" d="M273.394 51.8939V51.8959C273.393 61.9758 270.403 71.829 264.802 80.2097C259.201 88.5903 251.241 95.1218 241.928 98.9783C232.615 102.835 222.367 103.843 212.481 101.876C202.595 99.9082 193.515 95.0534 186.388 87.9251C179.261 80.7968 174.408 71.7153 172.442 61.8288C170.477 51.9424 171.487 41.6951 175.345 32.3829C179.204 23.0706 185.737 15.1116 194.118 9.51231C202.5 3.91302 212.354 0.924926 222.434 0.92591L222.436 0.925902C229.136 0.900495 235.774 2.20155 241.969 4.75406C248.164 7.30656 253.792 11.06 258.529 15.798C263.266 20.5361 267.018 26.1649 269.57 32.36C272.121 38.5552 273.421 45.194 273.394 51.8939Z" fill="#D9D9D9" stroke="black"/>
<path id="Vector_20" d="M242.306 36.8218C242.306 47.7996 233.407 56.6988 222.429 56.6988C211.451 56.6988 202.552 47.7996 202.552 36.8218C202.552 25.8441 211.451 16.9448 222.429 16.9448C233.407 16.9448 242.306 25.8441 242.306 36.8218Z" fill="white" stroke="black"/>
<path id="Vector_21" d="M258.919 87.473C254.212 92.3026 248.593 96.1509 242.387 98.7936C236.077 101.48 229.289 102.866 222.431 102.867C215.573 102.868 208.785 101.484 202.474 98.799C196.267 96.158 190.647 92.3112 185.939 87.4829C192.862 72.2855 206.634 61.9768 222.434 61.9768C238.234 61.9768 251.997 72.2747 258.919 87.473Z" fill="white" stroke="black"/>
</g>
</g>
</g>
</svg>
