<svg width="280" height="280" viewBox="0 0 280 280" fill="none" xmlns="http://www.w3.org/2000/svg">
<g id="login2">
<circle id="Ellipse 16" cx="140" cy="140" r="140" fill="#D9D9D9"/>
<g id="cellphone/bro">
<g id="Device">
<path id="Vector" d="M187.32 22H92.5582C83.1287 22 75.4846 28.5924 75.4846 36.7246V243.275C75.4846 251.408 83.1287 258 92.5582 258H187.32C196.749 258 204.393 251.408 204.393 243.275V36.7246C204.393 28.5924 196.749 22 187.32 22Z" fill="black" stroke="black" stroke-miterlimit="10"/>
<path id="Vector_2" d="M105.499 26.2021C110.767 26.2305 116.043 26.259 121.304 26.1802L121.375 26.4262L121.802 26.3689C122.831 26.2308 124.182 26.3514 125.486 26.6824C126.793 27.0143 127.983 27.5403 128.719 28.1617C128.991 28.3962 129.271 28.6425 129.558 28.8957C130.595 29.8093 131.733 30.8117 132.97 31.6655C134.559 32.7627 136.361 33.6514 138.426 33.8368L138.426 33.8368C140.597 34.0292 142.527 33.3647 144.233 32.3852C145.847 31.458 147.292 30.2295 148.565 29.1472C148.63 29.0916 148.695 29.0364 148.759 28.9816L148.76 28.981C151.586 26.5708 155.39 26.1786 159.411 26.1786H185.16C188.961 26.1876 192.592 27.4965 195.257 29.8007C197.921 32.1032 199.4 35.2052 199.402 38.421V241.58C199.402 244.802 197.918 247.911 195.246 250.215C192.572 252.522 188.93 253.828 185.121 253.828H94.7702C94.1236 253.828 93.4777 253.789 92.8373 253.711L92.8359 253.711C89.4023 253.305 86.2678 251.843 84.0054 249.611C81.7449 247.381 80.5089 244.535 80.502 241.602V38.4208C80.5037 35.1978 81.9888 32.0895 84.6621 29.785C87.3378 27.4785 90.9799 26.1729 94.7902 26.1729H97.3811C100.083 26.1729 102.79 26.1875 105.499 26.2021Z" fill="white" stroke="black"/>
<path id="Vector_3" d="M204.34 89.8932V60.5186C204.958 60.5186 205.551 60.7304 205.989 61.1076C206.426 61.4847 206.672 61.9962 206.672 62.5296V87.8765C206.672 88.4104 206.426 88.9225 205.989 89.3005C205.552 89.6786 204.959 89.8917 204.34 89.8932Z" fill="black" stroke="black" stroke-miterlimit="10"/>
<path id="Vector_4" d="M204.34 115.206V100.55C204.958 100.55 205.551 100.762 205.989 101.139C206.426 101.516 206.672 102.028 206.672 102.561V113.195C206.672 113.459 206.611 113.721 206.494 113.965C206.377 114.209 206.205 114.43 205.989 114.617C205.772 114.804 205.515 114.952 205.232 115.053C204.949 115.154 204.646 115.206 204.34 115.206Z" fill="black" stroke="black" stroke-miterlimit="10"/>
</g>
<g id="Icons">
<path id="Vector_5" d="M48.1934 221.52C53.4873 220.289 56.7723 215.035 55.5306 209.786C54.2889 204.537 48.9908 201.279 43.697 202.51C38.4031 203.742 35.1181 208.995 36.3598 214.245C37.6015 219.494 42.8996 222.752 48.1934 221.52Z" stroke="black" stroke-linecap="round" stroke-linejoin="round"/>
<path id="Vector_6" d="M42.8354 216.017L45.9379 212.018V204.864" stroke="black" stroke-linecap="round" stroke-linejoin="round"/>
<path id="Vector_7" d="M250.297 141.194H215.453V163.368H250.297V141.194Z" stroke="black" stroke-miterlimit="10"/>
<path id="Vector_8" d="M215.453 141.194L232.586 155.595L250.051 141.398" stroke="black" stroke-miterlimit="10"/>
<path id="Vector_9" d="M215.453 163.368L227.936 152.136" stroke="black" stroke-miterlimit="10"/>
<path id="Vector_10" d="M250.297 163.368L237.23 152.136" stroke="black" stroke-miterlimit="10"/>
<path id="Vector_11" d="M257.95 28.8223C250.769 28.8223 244.943 33.4336 244.943 39.1451C244.943 42.8342 247.381 46.0556 251.048 47.8804L248.842 53.3416L255.798 49.3165C256.511 49.4138 257.23 49.4644 257.95 49.468C265.139 49.468 270.965 44.8567 270.965 39.1451C270.965 33.4336 265.139 28.8223 257.95 28.8223Z" stroke="black" stroke-linecap="round" stroke-linejoin="round"/>
<path id="Vector_12" d="M253.426 40.0543C254.142 40.0543 254.722 39.4792 254.722 38.7697C254.722 38.0602 254.142 37.4851 253.426 37.4851C252.711 37.4851 252.131 38.0602 252.131 38.7697C252.131 39.4792 252.711 40.0543 253.426 40.0543Z" stroke="black" stroke-linecap="round" stroke-linejoin="round"/>
<path id="Vector_13" d="M259.246 38.7697C259.246 38.5156 259.17 38.2673 259.028 38.056C258.885 37.8448 258.683 37.6801 258.446 37.5829C258.21 37.4857 257.949 37.4602 257.698 37.5098C257.446 37.5594 257.216 37.6817 257.034 37.8614C256.853 38.041 256.73 38.2699 256.68 38.5191C256.63 38.7683 256.656 39.0266 256.754 39.2613C256.852 39.496 257.018 39.6967 257.231 39.8378C257.444 39.979 257.694 40.0543 257.95 40.0543C258.121 40.0552 258.29 40.0225 258.447 39.9583C258.605 39.894 258.748 39.7995 258.868 39.68C258.989 39.5605 259.084 39.4186 259.149 39.2623C259.214 39.1061 259.247 38.9386 259.246 38.7697Z" stroke="black" stroke-linecap="round" stroke-linejoin="round"/>
<path id="Vector_14" d="M262.475 40.0543C263.19 40.0543 263.77 39.4792 263.77 38.7697C263.77 38.0602 263.19 37.4851 262.475 37.4851C261.759 37.4851 261.179 38.0602 261.179 38.7697C261.179 39.4792 261.759 40.0543 262.475 40.0543Z" stroke="black" stroke-linecap="round" stroke-linejoin="round"/>
<path id="Vector_15" d="M233.018 25.4099C238.651 25.4099 243.215 29.0331 243.215 33.4996C243.215 36.385 241.302 38.908 238.432 40.3442L240.153 44.6196L234.705 41.4641C234.146 41.5405 233.582 41.5801 233.018 41.5826C227.391 41.5826 222.827 37.966 222.827 33.4996C222.827 29.0331 227.391 25.4099 233.018 25.4099Z" stroke="black" stroke-linecap="round" stroke-linejoin="round"/>
<path id="Vector_16" d="M230.248 33.4995C230.248 33.2741 230.18 33.0538 230.054 32.8664C229.928 32.6789 229.748 32.5329 229.538 32.4466C229.328 32.3604 229.097 32.3378 228.874 32.3818C228.651 32.4257 228.446 32.5343 228.286 32.6937C228.125 32.8531 228.015 33.0561 227.971 33.2772C227.927 33.4983 227.949 33.7274 228.036 33.9357C228.123 34.1439 228.271 34.3219 228.46 34.4471C228.649 34.5724 228.871 34.6392 229.098 34.6392C229.403 34.6375 229.694 34.5168 229.909 34.3035C230.124 34.0901 230.246 33.8013 230.248 33.4995Z" stroke="black" stroke-linecap="round" stroke-linejoin="round"/>
<path id="Vector_17" d="M233.117 34.6392C233.752 34.6392 234.267 34.129 234.267 33.4995C234.267 32.8701 233.752 32.3599 233.117 32.3599C232.483 32.3599 231.968 32.8701 231.968 33.4995C231.968 34.129 232.483 34.6392 233.117 34.6392Z" stroke="black" stroke-linecap="round" stroke-linejoin="round"/>
<path id="Vector_18" d="M237.143 34.6392C237.778 34.6392 238.293 34.129 238.293 33.4995C238.293 32.8701 237.778 32.3599 237.143 32.3599C236.509 32.3599 235.994 32.8701 235.994 33.4995C235.994 34.129 236.509 34.6392 237.143 34.6392Z" stroke="black" stroke-linecap="round" stroke-linejoin="round"/>
<path id="Vector_19" d="M56.1771 68.0386H4.68408V99.7714H56.1771V68.0386Z" stroke="black" stroke-linecap="round" stroke-linejoin="round"/>
<path id="Vector_20" d="M56.1771 95.4895H4.68408V99.7715H56.1771V95.4895Z" stroke="black" stroke-linecap="round" stroke-linejoin="round"/>
<path id="Vector_21" d="M37.5622 83.3615L25.8765 76.6685V90.0546L37.5622 83.3615Z" stroke="black" stroke-linecap="round" stroke-linejoin="round"/>
<path id="Vector_22" d="M66.1952 151.636H47.0224C46.6118 151.635 46.205 151.715 45.8254 151.87C45.4458 152.025 45.1008 152.253 44.8102 152.541C44.5195 152.828 44.289 153.17 44.1316 153.546C43.9743 153.922 43.8933 154.325 43.8933 154.732V165.721C43.8933 166.128 43.9743 166.531 44.1316 166.907C44.289 167.283 44.5195 167.625 44.8102 167.912C45.1008 168.2 45.4458 168.428 45.8254 168.583C46.205 168.738 46.6118 168.818 47.0224 168.817H54.9014L56.6553 171.827L58.4025 168.817H66.1952C66.6055 168.818 67.0119 168.738 67.3911 168.583C67.7704 168.428 68.1149 168.2 68.405 167.912C68.6952 167.624 68.9251 167.283 69.0817 166.907C69.2383 166.531 69.3185 166.128 69.3176 165.721V154.759C69.322 154.35 69.2444 153.944 69.0894 153.565C68.9344 153.186 68.705 152.841 68.4145 152.55C68.1241 152.26 67.7783 152.03 67.3973 151.873C67.0164 151.716 66.6077 151.635 66.1952 151.636Z" stroke="black" stroke-miterlimit="10"/>
<path id="Vector_23" d="M63.7305 158.54C63.7314 159.486 63.3539 160.393 62.6808 161.063L61.7308 162.005L56.642 167.045L51.5797 162.005L50.6297 161.063C50.2876 160.734 50.0149 160.341 49.8274 159.906C49.64 159.472 49.5416 159.005 49.5379 158.532C49.5343 158.06 49.6255 157.591 49.8062 157.154C49.9869 156.716 50.2535 156.319 50.5905 155.985C50.9275 155.651 51.3282 155.386 51.7692 155.207C52.2103 155.028 52.6828 154.937 53.1594 154.941C53.636 154.945 54.1071 155.042 54.5453 155.228C54.9835 155.414 55.3801 155.684 55.7119 156.024L56.6619 156.966L57.6119 156.024C58.1142 155.524 58.7545 155.184 59.4519 155.046C60.1492 154.908 60.8723 154.978 61.5295 155.247C62.1867 155.517 62.7485 155.973 63.1439 156.559C63.5392 157.146 63.7503 157.835 63.7504 158.54H63.7305Z" stroke="black" stroke-miterlimit="10"/>
<path id="Vector_24" d="M13.2341 150.734C14.9255 150.734 16.5477 150.067 17.7438 148.881C18.9398 147.695 19.6117 146.087 19.6117 144.41V124.35C19.6393 123.502 19.4947 122.657 19.1865 121.865C18.8782 121.074 18.4126 120.352 17.8174 119.742C17.2221 119.133 16.5093 118.648 15.7214 118.317C14.9335 117.986 14.0865 117.815 13.2307 117.815C12.375 117.815 11.528 117.986 10.7401 118.317C9.95216 118.648 9.23939 119.133 8.64413 119.742C8.04888 120.352 7.58329 121.074 7.27503 121.865C6.96678 122.657 6.82216 123.502 6.84976 124.35V144.39C6.84713 145.223 7.01038 146.048 7.33013 146.818C7.64988 147.588 8.11983 148.287 8.71302 148.877C9.3062 149.466 10.0109 149.934 10.7868 150.252C11.5626 150.571 12.3943 150.735 13.2341 150.734Z" stroke="black" stroke-linecap="round" stroke-linejoin="round"/>
<path id="Vector_25" d="M24.561 144.1V134.686C24.5731 134.527 24.552 134.367 24.4989 134.216C24.4458 134.066 24.3619 133.928 24.2524 133.811C24.143 133.693 24.0103 133.6 23.8628 133.536C23.7153 133.472 23.556 133.439 23.3951 133.439C23.2341 133.439 23.0749 133.472 22.9273 133.536C22.7798 133.6 22.6472 133.693 22.5377 133.811C22.4283 133.928 22.3444 134.066 22.2913 134.216C22.2382 134.367 22.217 134.527 22.2292 134.686V144.1C22.1657 146.411 21.1953 148.606 19.5247 150.218C17.854 151.83 15.6149 152.732 13.2838 152.732C10.9527 152.732 8.7136 151.83 7.04295 150.218C5.3723 148.606 4.40199 146.411 4.33848 144.1V134.686C4.33848 134.379 4.21529 134.084 3.99602 133.866C3.77674 133.649 3.47934 133.527 3.16924 133.527C2.85914 133.527 2.56174 133.649 2.34246 133.866C2.12319 134.084 2 134.379 2 134.686V144.1C2.00289 146.866 3.03817 149.534 4.90634 151.588C6.77451 153.642 9.34337 154.939 12.1179 155.227V165.622H5.4745C5.18048 165.644 4.90571 165.775 4.70522 165.99C4.50473 166.204 4.39333 166.486 4.39333 166.778C4.39333 167.07 4.50473 167.352 4.70522 167.566C4.90571 167.781 5.18048 167.912 5.4745 167.934H21.0599C21.2204 167.946 21.3817 167.925 21.5337 167.873C21.6856 167.82 21.825 167.737 21.943 167.628C22.0611 167.52 22.1552 167.388 22.2196 167.242C22.284 167.096 22.3172 166.938 22.3172 166.778C22.3172 166.618 22.284 166.461 22.2196 166.314C22.1552 166.168 22.0611 166.036 21.943 165.928C21.825 165.819 21.6856 165.736 21.5337 165.684C21.3817 165.631 21.2204 165.61 21.0599 165.622H14.4165V155.227C17.1958 154.945 19.7711 153.651 21.6448 151.596C23.5184 149.541 24.5574 146.87 24.561 144.1Z" stroke="black" stroke-linecap="round" stroke-linejoin="round"/>
<path id="Vector_26" d="M273.928 97.3669C274.97 98.2553 275.806 99.3561 276.379 100.594C276.952 101.832 277.249 103.179 277.25 104.541C277.25 109.067 270.095 118.494 268.161 120.964C269.045 122.143 269.636 122.868 269.636 122.868C269.636 122.868 279.203 111.069 279.203 105.839C279.204 104.08 278.711 102.356 277.779 100.86C276.847 99.3633 275.514 98.1538 273.928 97.3669ZM269.623 102.545C269.875 102.547 270.127 102.574 270.374 102.624C270.061 102.19 269.647 101.838 269.167 101.598C268.687 101.358 268.155 101.237 267.618 101.246C267.08 101.255 266.553 101.392 266.081 101.648C265.609 101.903 265.206 102.268 264.908 102.711C264.61 103.155 264.424 103.664 264.368 104.194C264.312 104.724 264.386 105.26 264.584 105.755C264.783 106.251 265.099 106.691 265.507 107.038C265.915 107.385 266.402 107.629 266.926 107.749C266.572 107.257 266.362 106.678 266.319 106.076C266.275 105.473 266.399 104.87 266.677 104.333C266.956 103.796 267.378 103.345 267.897 103.029C268.417 102.714 269.014 102.546 269.623 102.545Z" stroke="black" stroke-linecap="round" stroke-linejoin="round"/>
<path id="Vector_27" d="M270.374 102.624C270.728 103.117 270.938 103.697 270.981 104.301C271.024 104.904 270.899 105.508 270.619 106.046C270.339 106.584 269.915 107.034 269.394 107.349C268.872 107.663 268.273 107.829 267.663 107.828C267.415 107.829 267.168 107.802 266.926 107.749M268.155 120.964C267.849 121.359 267.67 121.57 267.67 121.57C267.67 121.57 258.103 109.785 258.103 104.541C258.105 102.723 258.633 100.944 259.625 99.4154C260.617 97.8866 262.03 96.6723 263.697 95.9167C265.365 95.1612 267.216 94.8962 269.03 95.1533C270.845 95.4104 272.547 96.1788 273.935 97.3671" stroke="black" stroke-linecap="round" stroke-linejoin="round"/>
<g id="JKa6IG.tif">
<path id="Vector_28" d="M250.501 245.546C249.511 245.407 248.508 245.302 247.518 245.124C234.57 242.818 225.462 235.776 220.685 223.516C219.206 219.67 218.461 215.584 218.487 211.468C218.47 211.02 218.561 210.574 218.751 210.168C218.942 209.761 219.227 209.405 219.583 209.129C221.044 207.93 222.473 206.685 223.914 205.46C225.243 204.318 226.503 204.397 227.694 205.697L235.759 214.491C236.909 215.75 236.869 216.988 235.64 218.167C233.926 219.814 232.225 221.461 230.504 223.115C230.392 223.2 230.31 223.319 230.27 223.454C230.231 223.589 230.236 223.734 230.285 223.866C231.037 226.582 232.6 229.01 234.769 230.829C236.334 232.251 238.217 233.285 240.264 233.846C240.421 233.905 240.594 233.914 240.757 233.872C240.92 233.829 241.066 233.737 241.174 233.609C242.808 231.909 244.495 230.236 246.116 228.549C247.299 227.344 248.561 227.304 249.83 228.444L258.739 236.481C260.008 237.621 260.068 238.846 258.958 240.144C257.849 241.441 256.64 242.779 255.504 244.156C255.057 244.763 254.456 245.242 253.763 245.546H250.501Z" stroke="black" stroke-linecap="round" stroke-linejoin="round"/>
<path id="Vector_29" d="M241.652 206.435V202.008C244.398 201.932 247.131 202.411 249.683 203.418C252.236 204.424 254.555 205.936 256.498 207.86C258.442 209.785 259.969 212.083 260.987 214.613C262.005 217.143 262.493 219.852 262.419 222.575H257.968C257.178 212.548 251.73 207.206 241.652 206.435Z" stroke="black" stroke-linecap="round" stroke-linejoin="round"/>
<path id="Vector_30" d="M241.685 215.736V211.184C248.834 210.921 253.424 215.341 253.172 222.574H248.588C248.734 217.924 246.429 215.611 241.685 215.736Z" stroke="black" stroke-linecap="round" stroke-linejoin="round"/>
</g>
<g id="YL9phh">
<path id="Vector_31" d="M22.867 33.302C22.867 33.111 22.9135 32.9397 22.9534 32.775C23.0811 32.257 23.3802 31.7965 23.8029 31.4669C24.2256 31.1373 24.7475 30.9577 25.2852 30.9568H32.9118C33.4955 30.9625 34.057 31.1791 34.4912 31.5659C34.9254 31.9528 35.2023 32.4834 35.2702 33.0583C35.2702 33.1241 35.2702 33.1966 35.2702 33.2954H39.3293C39.7374 33.2909 40.1421 33.3678 40.5195 33.5216C40.897 33.6753 41.2393 33.9028 41.5263 34.1904C41.8133 34.478 42.039 34.82 42.19 35.1959C42.341 35.5718 42.4142 35.9739 42.4052 36.3784C42.4052 40.4979 42.4052 44.6174 42.4052 48.7369C42.4088 49.1424 42.3308 49.5446 42.1757 49.9199C42.0206 50.2952 41.7916 50.636 41.5021 50.9225C41.2126 51.2089 40.8684 51.4353 40.4896 51.5882C40.1108 51.7412 39.7051 51.8177 39.2961 51.8133H18.8677C18.4604 51.8177 18.0563 51.7418 17.6788 51.5901C17.3014 51.4383 16.958 51.2138 16.6688 50.9294C16.3796 50.645 16.1502 50.3066 15.9939 49.9336C15.8376 49.5606 15.7576 49.1606 15.7586 48.7567C15.7586 44.624 15.7586 40.4913 15.7586 36.3587C15.7575 35.6415 16.0103 34.9467 16.4729 34.3954C16.9354 33.844 17.5783 33.4711 18.2897 33.3415C18.4918 33.3096 18.6962 33.2941 18.9009 33.2954H22.8869L22.867 33.302Z" stroke="black" stroke-miterlimit="10"/>
<path id="Vector_32" d="M35.3831 42.5838C35.3844 43.8191 35.0159 45.0269 34.3242 46.0543C33.6325 47.0816 32.6489 47.8822 31.4978 48.3546C30.3468 48.827 29.0803 48.95 27.8587 48.7078C26.6372 48.4657 25.5156 47.8695 24.6362 46.9946C23.7567 46.1198 23.159 45.0057 22.9187 43.7937C22.6784 42.5816 22.8064 41.3261 23.2865 40.1862C23.7665 39.0464 24.577 38.0735 25.6152 37.3909C26.6535 36.7083 27.8727 36.3466 29.1184 36.3519C30.7823 36.3554 32.3767 37.0137 33.5514 38.1822C34.7261 39.3507 35.3849 40.9339 35.3831 42.5838Z" stroke="black" stroke-miterlimit="10"/>
<path id="Vector_33" d="M38.0606 36.3059C38.413 36.3059 38.751 36.4447 39.0001 36.6918C39.2493 36.9389 39.3893 37.274 39.3893 37.6234C39.3893 37.884 39.3114 38.1388 39.1654 38.3554C39.0194 38.5721 38.8119 38.741 38.5691 38.8407C38.3263 38.9404 38.0591 38.9665 37.8014 38.9157C37.5437 38.8648 37.3069 38.7393 37.1211 38.5551C36.9353 38.3708 36.8087 38.1361 36.7575 37.8805C36.7062 37.6249 36.7325 37.36 36.8331 37.1192C36.9336 36.8785 37.1039 36.6727 37.3224 36.528C37.5409 36.3832 37.7978 36.3059 38.0606 36.3059Z" stroke="black" stroke-miterlimit="10"/>
</g>
</g>
</g>
</g>
</svg>
