<svg width="72" height="71" viewBox="0 0 72 71" fill="none" xmlns="http://www.w3.org/2000/svg">
<g id="Bot">
<path id="Vector" d="M7.00055 59.448L2.35225 61.6062C1.34327 59.2698 0.821208 56.7503 0.820131 54.2019C0.818984 51.4866 1.4093 48.8036 2.55003 46.3396C3.69076 43.8755 5.35452 41.6895 7.42562 39.9336C9.36957 38.2855 11.6286 37.0533 14.063 36.311L15.429 41.2495C13.7114 41.7919 12.1171 42.6712 10.7404 43.8379C9.23621 45.1126 8.02779 46.6996 7.19916 48.4886C6.37054 50.2777 5.9416 52.2257 5.94218 54.1973C5.94271 56.0021 6.30315 57.787 7.00055 59.448Z" fill="#D9D9D9" stroke="black"/>
<path id="Vector_2" d="M3.07469 69.6909C2.8756 69.8026 2.65124 69.8614 2.42297 69.8618H2.42197C2.17553 69.8618 1.93389 69.7937 1.72374 69.6649L1.46254 70.0913L1.72374 69.6649C1.5133 69.536 1.34266 69.3514 1.23071 69.1314L1.23068 69.1314C0.830761 68.3459 0.589457 67.4894 0.520546 66.6108C0.451635 65.7321 0.556466 64.8485 0.829054 64.0103C1.37957 62.3176 2.57997 60.9129 4.16619 60.1052C4.9516 59.7053 5.80809 59.464 6.68676 59.3951C7.56543 59.3261 8.44907 59.431 9.28723 59.7036C10.9791 60.2538 12.3833 61.4533 13.1911 63.0383C13.347 63.3533 13.3726 63.7171 13.2623 64.0509C13.1517 64.3853 12.9136 64.6626 12.5997 64.8225C12.2858 64.9823 11.9214 65.0118 11.5859 64.9046C11.2511 64.7975 10.9719 64.5629 10.8088 64.2515C10.3227 63.2982 9.47811 62.5769 8.46049 62.2458C7.44197 61.9145 6.33356 62.0013 5.37907 62.4872C4.42459 62.9732 3.70223 63.8183 3.3709 64.8368C3.03957 65.8554 3.12642 66.9638 3.61233 67.9183C3.71598 68.122 3.76568 68.3489 3.75667 68.5773C3.74767 68.8057 3.68025 69.028 3.56086 69.223C3.44146 69.4179 3.27408 69.579 3.07469 69.6909Z" fill="#292A2E" stroke="black"/>
<path id="Vector_3" d="M49.6412 44.0808H49.6407C46.5037 44.0831 43.4201 43.2898 40.6772 41.7785L43.2647 37.3535C45.8728 38.7481 48.8699 39.255 51.7996 38.7886C54.7292 38.3223 57.4207 36.9101 59.4668 34.7749L63.2966 38.1814C60.1461 41.5481 55.8525 43.6304 51.2456 44.0127L51.2446 44.0128C50.7087 44.0583 50.1743 44.0809 49.6412 44.0808Z" fill="#D9D9D9" stroke="black"/>
<path id="Vector_4" d="M62.3586 29.3703L62.3597 29.3689C62.4715 29.2336 62.5556 29.0776 62.6071 28.9098C62.6586 28.742 62.6766 28.5656 62.6599 28.3909C62.6433 28.2161 62.5925 28.0463 62.5102 27.8912L62.952 27.657L62.5102 27.8912C62.428 27.7362 62.316 27.5988 62.1807 27.487C62.0454 27.3751 61.8894 27.2911 61.7215 27.2395C61.5537 27.188 61.3774 27.17 61.2027 27.1867C61.0279 27.2033 60.8581 27.2542 60.703 27.3364C60.5479 27.4186 60.4106 27.5306 60.2988 27.6659L62.3586 29.3703ZM62.3586 29.3703C61.6808 30.1963 61.358 31.2572 61.461 32.3208C61.564 33.3843 62.0843 34.3636 62.908 35.0442C63.7317 35.7249 64.7916 36.0512 65.8554 35.9519C66.9193 35.8525 67.9004 35.3356 68.5838 34.5142L68.5849 34.5129M62.3586 29.3703L68.5849 34.5129M68.5849 34.5129C68.6968 34.3776 68.8341 34.2656 68.9892 34.1834C69.1443 34.1012 69.3141 34.0503 69.4889 34.0337C69.6636 34.017 69.8399 34.035 70.0077 34.0865C70.1756 34.1381 70.3316 34.2221 70.4669 34.334C70.6022 34.4458 70.7142 34.5832 70.7964 34.7382C70.8787 34.8933 70.9295 35.0631 70.9461 35.2379C70.9628 35.4126 70.9448 35.589 70.8933 35.7568C70.8418 35.9246 70.7577 36.0806 70.6459 36.2159L70.645 36.217M68.5849 34.5129L70.645 36.217M70.645 36.217C70.0855 36.8978 69.3965 37.4609 68.6179 37.8738C67.8393 38.2866 66.9866 38.5409 66.1091 38.6219L66.1081 38.622M70.645 36.217L66.1081 38.622M66.1081 38.622C65.891 38.6425 65.6751 38.6527 65.4602 38.6524L66.1081 38.622ZM61.8695 37.6031C62.9426 38.2861 64.1878 38.65 65.4599 38.6524L61.8695 37.6031ZM61.8695 37.6031C60.7962 36.9201 59.9391 35.9461 59.3981 34.7947M61.8695 37.6031L59.3981 34.7947M59.3981 34.7947C58.8572 33.6433 58.6546 32.3618 58.8141 31.0996M59.3981 34.7947L58.8141 31.0996M58.8141 31.0996C58.9736 29.8375 59.4884 28.6466 60.2987 27.6659L58.8141 31.0996Z" fill="#292A2E" stroke="black"/>
<path id="Vector_5" d="M14.3589 58.9646L14.8502 58.8778L10.8951 36.5112H43.8755L39.0354 59.2931C38.4488 62.0546 36.9316 64.5309 34.7377 66.3076C32.5439 68.0844 29.8064 69.0538 26.9833 69.0538C24.0875 69.0538 21.2843 68.0338 19.0656 66.173C16.8469 64.3122 15.3544 61.7293 14.8503 58.8778L14.3589 58.9646Z" fill="#D9D9D9" stroke="black"/>
<path id="Vector_6" d="M43.9923 36.0111C43.9923 36.4633 43.6797 36.9975 42.8623 37.5689C42.0591 38.1303 40.8644 38.6561 39.343 39.1059C36.3068 40.0036 32.0826 40.5659 27.3955 40.5659C22.7085 40.5659 18.4842 40.0036 15.448 39.1059C13.9266 38.6561 12.7319 38.1303 11.9287 37.5689C11.1113 36.9975 10.7987 36.4633 10.7987 36.0111C10.7987 35.5589 11.1113 35.0247 11.9287 34.4533C12.7319 33.8919 13.9266 33.3661 15.448 32.9163C18.4842 32.0186 22.7085 31.4563 27.3955 31.4563C32.0826 31.4563 36.3068 32.0186 39.343 32.9163C40.8644 33.3661 42.0591 33.8919 42.8623 34.4533C43.6797 35.0247 43.9923 35.5589 43.9923 36.0111Z" fill="#292A2E" stroke="black"/>
<g id="Group">
<path id="Vector_7" d="M43.6011 22.4439C43.6011 25.9584 41.8468 28.5597 38.9497 30.3066C36.031 32.0666 31.9544 32.9517 27.3955 32.9517C22.8367 32.9517 18.7601 32.0666 15.8414 30.3066C12.9444 28.5597 11.1901 25.9584 11.1901 22.4439C11.1901 18.8873 12.9867 15.0314 15.9383 12.0561C18.8849 9.08583 22.9389 7.03809 27.3955 7.03809C31.8522 7.03809 35.9062 9.08583 38.8529 12.0561C41.8045 15.0314 43.6011 18.8873 43.6011 22.4439Z" fill="#D9D9D9" stroke="black"/>
<path id="Vector_8" d="M27.0231 13.925H36.5255C39.2279 13.925 41.4185 16.1157 41.4185 18.8181V18.8183C41.4185 21.5206 39.2279 23.7112 36.5255 23.7112H27.0231C24.3208 23.7112 22.1301 21.5206 22.1301 18.8183V18.8181C22.1301 16.1157 24.3208 13.925 27.0231 13.925Z" fill="white" stroke="black"/>
<path id="Vector_9" d="M30.8789 20.1663L31.3789 20.1712C31.3823 19.8297 31.3179 19.4909 31.1895 19.1745C31.0611 18.858 30.8713 18.5701 30.631 18.3274C30.3907 18.0848 30.1047 17.8921 29.7895 17.7606C29.4743 17.6292 29.1362 17.5615 28.7946 17.5615C28.4531 17.5615 28.115 17.6292 27.7998 17.7606C27.4846 17.8921 27.1986 18.0848 26.9583 18.3274C26.718 18.5701 26.5281 18.858 26.3998 19.1745C26.2718 19.4898 26.2075 19.8274 26.2103 20.1677C26.21 20.1969 26.1982 20.2249 26.1775 20.2457C26.1564 20.2667 26.1279 20.2785 26.0981 20.2785C26.0684 20.2785 26.0398 20.2667 26.0188 20.2457C25.9978 20.2246 25.9859 20.1961 25.986 20.1663L25.9859 20.1624C25.983 19.7917 26.0536 19.4242 26.1934 19.0809C26.3333 18.7376 26.5397 18.4253 26.8008 18.1622C27.0619 17.8991 27.3725 17.6902 27.7147 17.5477C28.0569 17.4052 28.4239 17.3318 28.7946 17.3318C29.1653 17.3318 29.5324 17.4052 29.8746 17.5477C30.2168 17.6902 30.5274 17.8991 30.7885 18.1622C31.0496 18.4253 31.256 18.7376 31.3959 19.0809C31.5357 19.4242 31.6062 19.7917 31.6033 20.1624L31.6033 20.1665C31.6033 20.1812 31.6004 20.1958 31.5948 20.2094C31.5892 20.223 31.5809 20.2353 31.5705 20.2457C31.5601 20.2561 31.5478 20.2644 31.5342 20.27L31.7254 20.732L31.5342 20.27C31.5206 20.2756 31.506 20.2785 31.4913 20.2785H31.4911C31.4614 20.2785 31.4328 20.2667 31.4118 20.2457L31.0818 20.5756L31.4118 20.2456C31.3908 20.2246 31.3789 20.1961 31.3789 20.1663H30.8789ZM30.8789 20.1663C30.8789 20.3287 30.9434 20.4844 31.0582 20.5992C31.1731 20.714 31.3288 20.7785 31.4911 20.7785L25.4859 20.1663C25.4859 20.3287 25.5504 20.4844 25.6652 20.5992C25.7801 20.714 25.9358 20.7785 26.0981 20.7785C26.2605 20.7785 26.4162 20.714 26.531 20.5992C26.6458 20.4844 26.7103 20.3287 26.7103 20.1663C26.7076 19.8909 26.7596 19.6176 26.8631 19.3624C26.9666 19.1072 27.1197 18.875 27.3135 18.6792C27.5074 18.4835 27.738 18.3282 27.9923 18.2221C28.2465 18.1161 28.5192 18.0615 28.7946 18.0615C29.0701 18.0615 29.3428 18.1161 29.597 18.2221C29.8512 18.3282 30.0819 18.4835 30.2757 18.6792C30.4695 18.875 30.6226 19.1072 30.7262 19.3624C30.8297 19.6176 30.8816 19.8909 30.8789 20.1663Z" fill="#292A2E" stroke="black"/>
<path id="Vector_10" d="M39.8181 20.2785H39.8179C39.7882 20.2785 39.7596 20.2667 39.7386 20.2456C39.7175 20.2246 39.7057 20.1961 39.7057 20.1663H39.2057L39.7057 20.1712C39.709 19.8297 39.6447 19.4909 39.5163 19.1745C39.3879 18.858 39.1981 18.5701 38.9578 18.3274L38.6025 18.6792L38.9578 18.3274C38.7175 18.0848 38.4315 17.8921 38.1163 17.7606C37.8011 17.6292 37.4629 17.5615 37.1214 17.5615C36.7799 17.5615 36.4418 17.6292 36.1266 17.7606C35.8114 17.8921 35.5254 18.0848 35.285 18.3274C35.0447 18.5701 34.8549 18.858 34.7265 19.1745C34.5986 19.4898 34.5342 19.8274 34.5371 20.1677C34.5368 20.1969 34.525 20.2249 34.5043 20.2457C34.4832 20.2667 34.4547 20.2785 34.4249 20.2785C34.3952 20.2785 34.3666 20.2667 34.3456 20.2457C34.3245 20.2246 34.3127 20.1961 34.3127 20.1663L34.3127 20.1624C34.3098 19.7917 34.3803 19.4242 34.5202 19.0809C34.6601 18.7376 34.8665 18.4253 35.1276 18.1622C35.3887 17.8991 35.6993 17.6902 36.0415 17.5477C36.3837 17.4052 36.7507 17.3318 37.1214 17.3318C37.4921 17.3318 37.8591 17.4052 38.2013 17.5477C38.5435 17.6902 38.8541 17.8991 39.1152 18.1622C39.3763 18.4253 39.5828 18.7376 39.7226 19.0809C39.8625 19.4242 39.933 19.7917 39.9301 20.1624L39.9301 20.1665C39.9301 20.1812 39.9272 20.1958 39.9216 20.2094C39.916 20.223 39.9077 20.2353 39.8973 20.2457C39.8869 20.2561 39.8746 20.2644 39.861 20.27L40.0522 20.732L39.861 20.27C39.8474 20.2756 39.8328 20.2785 39.8181 20.2785Z" fill="#292A2E" stroke="black"/>
</g>
<g id="Vector_11">
<mask id="path-11-inside-1_61_1351" fill="white">
<path d="M27.3917 0.785954L26.6498 0.822266L27.0157 8.29852L27.7576 8.2622L27.3917 0.785954Z"/>
</mask>
<path d="M27.3917 0.785954L26.6498 0.822266L27.0157 8.29852L27.7576 8.2622L27.3917 0.785954Z" fill="#D9D9D9"/>
<path d="M26.6498 0.822266L26.6009 -0.176539L25.6021 -0.127654L25.651 0.87115L26.6498 0.822266ZM27.3917 0.785954L28.3905 0.73707L28.3416 -0.261735L27.3428 -0.21285L27.3917 0.785954ZM27.7576 8.2622L27.8065 9.26101L28.8053 9.21212L28.7564 8.21332L27.7576 8.2622ZM27.0157 8.29852L26.0169 8.3474L26.0658 9.3462L27.0646 9.29732L27.0157 8.29852ZM26.6987 1.82107L27.4406 1.78476L27.3428 -0.21285L26.6009 -0.176539L26.6987 1.82107ZM26.3929 0.834839L26.7588 8.31109L28.7564 8.21332L28.3905 0.73707L26.3929 0.834839ZM27.7087 7.2634L26.9668 7.29971L27.0646 9.29732L27.8065 9.26101L27.7087 7.2634ZM28.0145 8.24963L27.6486 0.773381L25.651 0.87115L26.0169 8.3474L28.0145 8.24963Z" fill="black" mask="url(#path-11-inside-1_61_1351)"/>
</g>
<path id="Vector_12" d="M27.9053 1.3576C27.9053 1.83124 27.5214 2.2152 27.0477 2.2152C26.5741 2.2152 26.1901 1.83124 26.1901 1.3576C26.1901 0.883959 26.5741 0.5 27.0477 0.5C27.5214 0.5 27.9053 0.883959 27.9053 1.3576Z" fill="#292A2E" stroke="black"/>
</g>
</svg>
