<svg width="357" height="294" viewBox="0 0 357 294" fill="none" xmlns="http://www.w3.org/2000/svg">
<g id="boy">
<g id="boy_2">
<path id="Whites_2" fill-rule="evenodd" clip-rule="evenodd" d="M80.5633 10.6041C79.9187 10.3508 76.4567 6.11215 72.062 5.34081C70.0653 4.99015 71.8773 7.53281 69.68 7.55614C63.134 7.62414 52.496 6.39414 50.5253 7.55614C49.0607 8.41681 52.286 11.4228 50.5253 11.5608C33.9107 12.8635 8.564 29.4521 3.06533 37.5001C1.31467 40.0615 15.4693 35.7162 13.214 36.9822C10.6827 38.4035 7.87533 47.7095 6.19733 54.8961C5.03533 59.8455 4.30332 66.2148 4.04532 73.1441C3.82999 79.1261 3.91599 80.1161 4.77666 83.3868C5.76666 87.0448 6.54133 88.1208 7.87533 87.6041C8.34933 87.4322 8.56399 86.7868 8.56399 85.5815C8.56399 84.6348 9.08066 81.7941 9.726 79.2548L10.8453 74.6935L11.3187 76.5868C11.9213 78.7815 15.45 85.5815 18.6347 90.5308C18.8067 90.7935 19.5453 90.4595 20.212 88.8488C20.8193 87.3808 20.5727 85.0361 21.6047 82.5228C23.954 76.7981 28.568 69.3555 33.9107 63.3975C41.8067 54.5928 44.426 44.4021 51.8273 36.2221C65.6407 20.9568 82.976 11.5515 80.5633 10.6041Z" fill="white"/>
<path id="Shadow" fill-rule="evenodd" clip-rule="evenodd" d="M13.4107 39.0586C11.1947 40.8406 7.90534 55.2926 7.84934 55.534C6.68734 60.4833 5.56733 77.67 6.712 80.924C7.85733 84.178 11.0627 72.4487 11.0627 72.4487C11.0627 72.4487 15.9087 85.0313 20.1907 88.4813C20.3733 88.6286 15.1013 72.9133 13.4107 63.7393C11.1787 51.6293 14.6713 38.0446 13.4107 39.0586Z" fill="#E7EAEE"/>
<path id="Whites_3" fill-rule="evenodd" clip-rule="evenodd" d="M95.9974 292.168C100.129 291.264 107.1 288.117 109.769 287.041C112.438 285.964 120.571 274.48 123.498 261.525C125.607 251.971 126.683 238.372 125.477 236.091C125.299 235.767 124.649 229.583 126.381 231.603C130.233 236.091 134.806 243.137 149.233 230.511C153.163 227.071 158.371 222.633 157 218.709C153.163 207.731 136.53 185.624 133.995 183.949C130.963 181.947 115.639 183.649 92.8347 176.917C66.972 169.284 56.2033 146.807 46.0827 149.733C37.898 152.099 18.288 166.64 13.3667 175.849C-9.86798 219.323 18.288 249.786 24.7 258.535L30.926 261.225L31.1413 266.776L31.442 270.262C32.002 276.933 32.2167 277.535 35.2293 279.773C42.7607 285.497 57.6087 290.833 71.036 292.727C77.2767 293.588 90.8334 293.287 95.9974 292.168Z" fill="white"/>
<path id="Highlights" fill-rule="evenodd" clip-rule="evenodd" d="M31.1327 198.622C32.036 198.446 32.9107 199.036 33.0867 199.94C36.3347 216.627 50.074 227.924 74.6414 233.832C99.3554 239.775 116.189 239.454 125.059 233.111C125.807 232.575 125.249 237.161 124.701 237.513C118.916 241.222 99.2473 246.757 75.7753 241.755C45.764 235.358 31.6727 210.123 29.8147 200.577C29.6393 199.673 30.2287 198.798 31.1327 198.622Z" fill="#FFB61D"/>
<path id="Highlights_2" fill-rule="evenodd" clip-rule="evenodd" d="M18.6174 168.513C19.4167 168.056 49.224 202.217 90.1307 209.95C131.037 217.683 140.941 212.765 142.533 202.217C142.671 201.307 143.52 200.681 144.43 200.818C145.341 200.956 145.967 201.805 145.829 202.715C143.812 216.083 124.883 219.262 89.57 213.236C54.7 207.286 30.7934 193.149 17.9987 170.787C17.5414 169.988 17.8187 168.97 18.6174 168.513Z" fill="#D9D9D9"/>
<path id="Stroke" fill-rule="evenodd" clip-rule="evenodd" d="M190.309 166.619C189.189 166.232 187.985 165.371 187.21 164.381L185.919 162.789L190.481 158.27C197.496 151.384 202.875 144.326 207.523 135.934C209.073 133.137 212.989 123.797 212.989 122.894C212.989 122.593 213.463 121.387 214.022 120.139C214.883 118.332 215.528 117.643 217.379 116.611C219.573 115.319 222.07 114.889 223.145 115.621C225.211 116.998 225.211 121.345 223.145 128.833C220.865 137.053 217.809 142.949 211.483 151.427C210.493 152.718 208.642 155.257 207.308 157.022C203.736 161.756 201.412 164.037 198.271 165.801C195.172 167.523 193.364 167.738 190.309 166.619ZM221.209 162.746L224.307 164.123C224.95 164.419 232.039 167.825 240.553 171.917C254.28 178.513 271.714 186.889 271.82 186.889C271.993 186.889 272.8 185.022 272.982 182.844C273.413 178.153 275.005 171.783 276.855 167.351C277.716 165.371 278.405 162.897 278.405 162.682C278.405 162.583 277.705 162.301 276.56 161.839C275.196 161.289 273.201 160.485 271.003 159.432C260.157 154.225 238.94 143.595 236.315 142.002C233.733 140.496 233.216 140.367 233.216 141.357C233.216 142.648 230.591 148.63 228.568 151.857C227.493 153.622 225.383 156.807 223.877 158.915L221.209 162.746ZM271.089 179.143C272.323 179.858 270.185 180.907 269.669 181.079C266.627 181.338 263.047 180.766 260.114 179.057C258.581 177.969 246.504 171.26 238.493 166.809C234.831 164.775 232.019 163.213 231.452 162.875C229.644 161.799 227.923 160.637 227.621 160.293C226.718 159.131 227.579 158.615 230.117 158.829C231.644 158.959 268.423 177.598 271.089 179.143ZM96.144 291.813C99.464 291.087 104.617 288.912 107.899 287.527C108.701 287.189 109.391 286.897 109.916 286.686C112.585 285.609 120.718 274.125 123.645 261.171C125.753 251.617 126.829 238.017 125.625 235.736C124.898 234.415 129.214 238.847 132.429 242.147C133.403 243.147 134.277 244.044 134.877 244.645C153.641 263.28 181.572 278.257 210.579 285.271C225.039 288.801 235.325 290.049 249.14 290.049C272.337 290.049 290.627 285.487 307.239 275.459C308.029 274.983 308.768 274.545 309.473 274.128C315.263 270.699 318.713 268.657 328.155 258.029C338.746 246.108 348.167 218.435 351.309 208.881C352.686 204.577 356.043 187.46 356.043 183.189C356.043 178.131 354.279 175.743 351.869 173.29C347.608 169.115 341.841 167.609 337.064 169.417L334.826 170.277L334.137 167.997C333.147 164.553 331.082 161.799 327.897 159.733C323.163 156.591 322.475 156.377 318.214 156.377C314.9 156.377 313.996 156.549 311.887 157.539L309.434 158.657L308.918 157.108C307.928 153.923 304.608 149.484 302.032 148.199C299.747 147.061 295.793 146.956 293.037 147.468C287.012 148.587 282.709 151.384 280.944 155.301C280.427 156.505 279.782 157.453 279.524 157.453C279.309 157.453 270.831 155.085 260.717 150.609C259.011 149.851 257.408 149.141 255.903 148.474C237.742 140.424 233.805 138.679 234.163 136.493C234.464 134.643 234.378 133.61 233.862 132.017C232.958 129.349 231.925 128.618 228.999 128.618C226.675 128.618 226.675 128.618 226.933 127.456C228.31 120.871 228.267 117.084 226.804 114.674C225.814 113.081 224.652 112.436 221.983 112.049C220.434 111.833 219.703 111.963 217.981 112.909C216.819 113.512 215.829 113.942 215.743 113.856C215.657 113.77 215.959 111.403 216.432 108.605C219.961 87.9047 217.235 70.0694 208.24 51.1334C208.154 50.9521 208.054 50.7381 207.94 50.4927C205.205 44.6221 194.21 21.0161 162.765 9.10474C161.342 8.56541 159.995 8.04408 158.701 7.54341C147.989 3.39741 140.869 0.640744 123.688 0.669411C104.431 0.701411 97.9087 3.42408 85.2127 9.23408C83.4487 10.0514 81.8994 10.5248 81.77 10.3528C81.6407 10.1374 80.8234 9.62141 80.0054 9.19074C79.188 8.76074 77.4234 7.68474 76.132 6.82407C72.4307 4.32741 70.15 3.29474 68.988 3.55274C67.654 3.89741 67.654 5.01608 68.988 5.53274C69.5474 5.74808 70.1934 6.47941 70.4514 7.21141C71.0107 8.76075 71.656 8.93275 72.0434 7.64142C72.216 7.16808 72.474 6.82408 72.6034 6.91008C72.652 6.93408 72.816 7.01141 73.066 7.12808C73.6954 7.42275 74.8694 7.97275 76.132 8.58808C77.8967 9.44875 79.8334 10.3527 80.35 10.5681C81.2967 10.9121 80.9954 11.1707 76.9067 13.5807C60.94 22.9627 47.9434 37.5521 40.67 54.1641C39.5507 56.6601 38.5614 58.2094 37.528 59.0708C34.9027 61.2654 29.7387 67.5054 28.5334 69.9588C27.888 71.2928 26.5107 73.3587 25.4347 74.5634C24.402 75.7688 23.2827 77.3181 22.8954 77.9634C22.5514 78.6521 22.2074 79.1254 22.078 79.0394C21.992 78.9101 22.1207 76.8014 22.422 74.3487C23.068 68.6247 23.068 67.1181 22.5514 66.9894C21.7767 66.7741 20.658 69.7868 20.184 73.5308C19.84 75.8114 19.754 79.2547 19.9693 82.7834L20.2274 88.3787L17.172 83.4294C16.1214 81.7741 15.0867 80.1194 14.3513 78.9441V78.9434L14.3507 78.9427L14.3494 78.9401L14.348 78.9388V78.9381L14.3474 78.9374L14.346 78.9354C13.88 78.1894 13.5347 77.6381 13.3847 77.4041C12.2654 75.7688 11.62 73.3154 12.0934 72.4981C12.3514 72.0247 12.3087 71.8094 11.878 71.8094C10.9747 71.8094 9.21002 74.6927 8.04802 78.0067C7.48869 79.5561 6.92868 80.8467 6.75668 80.8467C6.11135 80.8467 6.41268 65.4401 7.10135 60.4907C8.52135 50.7214 12.2654 38.6707 13.944 38.6707C14.288 38.6707 14.5894 38.4987 14.5894 38.2407C14.5894 37.4661 13.4707 37.7674 12.5667 38.7574C10.544 40.9521 7.87602 47.7087 6.19736 54.8961C5.03536 59.8454 4.30401 66.2147 4.04535 73.1434C3.83068 79.1254 3.91669 80.1154 4.77735 83.3861C5.76735 87.0441 6.54202 88.1201 7.87602 87.6041C8.34935 87.4314 8.56469 86.7861 8.56469 85.5807C8.56469 84.6341 9.08068 81.7941 9.72668 79.2548L10.8454 74.6927L11.3187 76.5861C11.9214 78.7814 15.45 85.5814 18.6347 90.5301C20.83 93.8874 20.8727 94.1021 21.6047 99.3527C21.992 102.322 23.1967 109.545 25.994 120.656C28.466 130.473 42.3607 140.211 45.8307 142.643L45.8327 142.645C46.2887 142.964 46.564 143.157 46.6087 143.207C47.0394 143.681 47.642 143.939 47.986 143.81C48.3734 143.681 48.5887 143.853 48.5887 144.326C48.5887 144.757 48.89 145.316 49.234 145.574C49.6647 145.875 49.966 147.037 50.052 149.06C50.2674 153.105 53.2794 160.852 55.6034 163.391C57.11 165.027 60.2514 165.715 63.7374 165.113C66.0187 164.769 66.664 164.511 66.4487 163.994C66.32 163.65 67.1374 164.08 68.2567 164.941C81.3394 174.925 94.5947 180.907 109.485 183.489C115.253 184.479 124.807 185.039 130.014 184.651C134.619 184.351 134.619 184.351 134.404 185.254C134.103 186.459 134.49 187.191 140.816 197.907C145.851 206.385 146.282 206.945 151.877 212.669C163.755 224.934 176.709 234.445 191.385 241.805C205.199 248.69 227.255 254.414 247.419 256.222C267.581 258.029 282.063 239.523 282.02 234.789C281.934 228.291 281.03 224.03 278.835 219.899C276.683 215.896 275.263 214.519 268.807 210.215C261.621 205.439 257.188 201.522 254.261 197.347C252.411 194.722 251.722 191.753 251.722 190.16C251.722 189.127 253.056 186.803 255.036 186.33C256.843 185.857 257.188 185.899 259.211 186.889C260.415 187.449 263.557 188.912 266.139 190.16C268.765 191.365 271.304 192.571 271.82 192.829C273.343 193.251 273.987 196.232 274.335 197.847C274.413 198.208 274.477 198.501 274.531 198.681C275.134 200.919 277.985 203.809 279.825 204.793C283.055 206.521 291.015 206.751 293.21 204.385C293.77 203.782 295.625 203.041 296.007 203.265C296.389 203.49 297.771 205.352 297.771 206.859C297.815 209.441 299.149 211.808 301.989 214.175C307.369 218.651 311.543 219.727 315.761 217.747C317.955 216.714 319.755 216.311 319.755 216.311C319.755 216.311 321.549 218.6 321.657 219.382C322.502 225.497 331.555 228.06 333.965 228.319C334.517 228.374 335.593 228.137 336.684 227.897C338.144 227.577 339.634 227.249 339.947 227.602C340.562 228.296 329.661 246.323 328.155 248.604C313.824 270.123 285.936 283.292 251.808 284.669C229.644 285.573 202.402 279.375 178.775 268.1C163.669 260.827 150.285 251.918 135.953 239.437C133.457 237.285 130.573 234.833 129.541 233.972C128.508 233.154 126.055 230.357 124.161 227.775C120.977 223.471 119.169 221.921 119.169 223.385C119.169 224.03 121.235 227.989 123.601 231.906C124.549 233.455 125.151 234.531 124.936 234.359C124.721 234.187 124.032 237.285 123.387 241.245C121.277 253.941 117.791 266.465 114.263 274.254C112.326 278.472 108.613 281.621 107.493 282.482C103.362 285.624 97.1774 287.036 88.6127 287.897C77.7674 288.973 61.8007 286.563 49.6214 282.001C46.394 280.796 38.0874 277.31 37.528 276.923C37.4947 276.889 37.304 275.651 37.038 273.923C36.9627 273.435 36.882 272.909 36.7967 272.361C35.2474 261.731 33.0954 220.803 33.0954 201.866C33.0954 194.033 33.0094 192.312 32.4927 192.312C31.4167 192.312 30.9867 193.345 30.5134 197.046C29.4374 205.481 29.6527 249.508 30.8147 258.761L31.0727 260.87L29.6094 260.052C27.3714 258.761 18.85 250.111 15.8807 246.108C13.3667 242.686 11.8727 238.304 10.7547 235.025C10.4947 234.263 10.2554 233.56 10.0274 232.943C3.78735 215.642 5.98202 196.229 14.5894 178.755C21.906 163.865 30.9007 155.602 44.07 151.599C46.2214 150.954 48.1154 150.265 48.3307 150.093C49.148 149.319 43.8974 149.706 41.014 150.609C31.632 153.493 21.82 161.369 15.1494 171.439C5.76735 185.555 1.54935 206.385 4.51869 224.159C5.20735 228.377 8.00469 237.501 8.77936 238.146C8.84802 238.215 9.20202 238.957 9.73735 240.081C11.218 243.186 14.0847 249.2 16.1387 251.918C18.6347 255.318 26.1667 262.72 29.308 265.001L31.288 266.421L31.5894 269.907C32.1487 276.578 32.364 277.181 35.376 279.419C42.908 285.143 57.7554 290.479 71.1827 292.373C77.4234 293.233 90.98 292.932 96.144 291.813ZM241.609 251.401C216.604 249.207 186.392 237.285 164.529 218.865C155.32 211.075 143.355 195.927 138.621 187.535C137.631 185.813 136.9 184.996 136.039 184.781C135.135 184.523 135.91 184.264 139.611 183.662C155.233 180.993 170.425 174.495 182.691 165.242L184.499 163.908L185.015 165.156C186.177 167.953 190.653 170.794 193.967 170.794C195.301 170.794 199.777 168.771 202.488 166.921L204.339 165.673L205.845 167.179C207.222 168.556 207.48 168.642 210.063 168.642C213.032 168.642 216.604 167.308 218.584 165.414L219.659 164.424L222.715 166.447C224.351 167.609 228.913 170.148 232.829 172.171C238.682 175.183 244.879 178.669 250.775 182.285L251.722 182.887L250.818 184.092C249.871 185.383 248.108 187.836 248.108 191.581C248.108 195.798 252.493 203.376 260.889 208.58C267.485 212.669 278.835 220.711 278.405 232.465C278.353 233.885 276.769 237.415 274.661 240.599C273.283 242.622 269.453 245.635 265.967 247.399C260.028 250.369 249.57 252.09 241.609 251.401ZM12.1367 58.2094C13.2987 58.4681 14.0734 58.8554 13.9007 59.0274C13.3414 59.5868 10.372 59.3288 9.68335 58.6401C8.60735 57.6074 8.86535 56.8754 10.372 56.5741C11.1467 56.4454 12.3087 55.7994 12.954 55.1541C13.6 54.5088 14.1594 54.2074 14.1594 54.4228C14.1594 54.9821 12.0074 56.9614 10.9314 57.3921C10.2427 57.6934 10.458 57.8221 12.1367 58.2094ZM29.2654 58.8981C30.5134 58.2094 30.2547 57.7361 28.7914 57.9514C27.3287 58.1668 27.2427 57.9947 28.1894 56.5314C28.5767 55.9721 28.7914 55.1541 28.7054 54.7234C28.5767 54.1641 28.2754 54.4228 27.5867 55.7994C27.07 56.7894 26.3387 57.6074 25.994 57.6074C24.9187 57.6074 24.832 58.4681 25.8654 58.8554C27.1994 59.4148 28.232 59.4147 29.2654 58.8981ZM14.3747 35.4001C13.3414 35.5721 10.114 36.8634 7.27336 38.2834C4.39002 39.6607 1.93669 40.8227 1.76469 40.7801C-2.62531 40.3067 3.48602 32.9901 14.5894 25.5021C25.2194 18.3148 32.4067 14.5274 39.0774 12.5907C43.252 11.3854 47.9434 11.2134 49.2774 12.2034C50.0087 12.7627 49.7507 12.8061 46.566 12.8487C39.68 12.8487 31.718 16.3781 18.764 25.0281C12.0507 29.5041 4.26069 35.9167 4.26069 36.9494C4.26069 37.1647 5.50869 36.7341 7.05802 36.0461C10.372 34.5394 13.772 33.7647 15.278 34.1094C16.8707 34.5394 16.526 35.0988 14.3747 35.4001ZM31.0294 39.1014C35.0754 38.2834 35.2474 38.2407 35.2474 37.8101C35.2474 37.5954 33.698 37.3801 31.7614 37.2941L28.2754 37.1647L31.5027 33.5067C33.2674 31.4841 35.3334 29.4614 36.0647 28.9881C37.6574 27.9547 37.7434 27.2234 36.452 26.7927L35.4627 26.4914L36.538 26.1041C37.1407 25.8894 38.26 25.8027 39.0347 25.9321C40.1967 26.1041 40.4547 26.0181 40.3254 25.4154C40.1967 24.8134 39.7234 24.6841 37.614 24.7274C31.46 24.8134 28.8347 26.4488 33.6547 27.2234C34.9887 27.4388 36.108 27.7827 36.108 27.9981C36.108 28.1701 35.8927 28.3421 35.6347 28.3421C34.8167 28.3421 27.888 35.3574 27.0274 37.0787C25.6934 39.6181 26.4247 40.0054 31.0294 39.1014ZM59.434 22.4034C58.186 22.4894 57.8847 22.7041 57.9707 23.3068L57.984 23.3947C58.032 23.7127 58.06 23.8961 57.9887 23.9514C57.892 24.0261 57.6154 23.8694 56.9647 23.5001L56.8513 23.4361C56.034 23.0054 55.948 22.7908 56.4214 22.4461C56.7227 22.1881 57.54 21.8007 58.186 21.6714L59.3907 21.3701L58.4874 20.4234C58.0134 19.8641 57.7554 19.3474 57.8847 19.1754C58.2287 18.8314 62.4467 19.3048 63.0487 19.7781C63.3074 19.9928 63.6947 19.9501 63.9527 19.6921C64.5554 19.0894 65.3727 19.5628 65.3727 20.5094C65.3727 21.0261 65.244 21.0687 64.8567 20.6814C64.512 20.3374 64.2107 20.3374 63.8234 20.6387C63.4794 20.9401 63.2214 20.9401 63.006 20.5954C62.8767 20.3801 62.0594 20.1654 61.1987 20.1654C60.404 20.1654 60.0287 20.1654 59.952 20.3167C59.8834 20.4521 60.0554 20.7094 60.3807 21.1981C61.0674 22.2707 61.0267 22.2741 59.4487 22.4021L59.434 22.4034ZM52.892 10.9554C52.892 10.3961 52.376 9.40608 51.73 8.76075L50.5254 7.55541L56.9807 7.81341C60.5527 7.98608 64.598 8.37342 66.0187 8.76075C67.4387 9.10475 69.074 9.36275 69.6767 9.36275C70.5807 9.36275 70.408 9.19074 68.73 8.28674C65.8034 6.78074 62.0594 6.04941 54.872 5.53274C46.2647 4.93008 41.918 5.74808 42.7354 7.89941C42.8647 8.33008 43.5534 8.54541 44.586 8.54541C46.6947 8.54541 50.138 9.79341 51.3 10.9554C52.548 12.2034 52.892 12.2034 52.892 10.9554ZM31.89 124.917C35.376 129.393 39.9814 134.471 42.1334 136.192C43.424 137.225 44.5434 138.086 44.6294 138.086C44.672 138.086 43.7254 136.106 42.5207 133.696C37.6574 124.013 34.8167 114.373 33.4827 103.269C33.1814 100.816 32.708 98.7501 32.1914 97.8894C31.1587 96.1681 31.1587 93.9301 32.2347 91.8214C32.794 90.7027 33.0954 89.2821 33.0954 87.7327V85.3661L31.0294 87.5174C29.0067 89.6268 27.07 90.4874 27.07 89.1961C27.07 88.2494 30.2547 83.6874 31.9333 82.2674C33.2673 81.1481 33.4394 80.7607 33.87 77.4041C34.1713 75.3814 34.86 71.8094 35.4194 69.4421C36.022 67.0754 36.366 65.0527 36.28 64.9668C35.9787 64.6654 25.8654 76.2808 24.488 79.9861C24.1854 80.8001 23.3694 82.2241 22.7234 83.0848L21.6047 84.5214C21.6047 84.5214 21.952 86.5334 22.336 89.0614C22.724 91.6161 22.906 93.3721 23.0687 94.9361C23.2854 97.0281 23.4667 98.7767 24.0574 101.634C24.746 105.163 25.4347 108.218 25.6067 108.433C25.736 108.692 26.2954 110.671 26.8554 112.866C28.06 117.729 30.0827 122.549 31.89 124.917ZM206.533 165.629L205.63 164.725C205.63 164.725 220.63 145.667 223.318 138.645C225.369 133.287 226.576 131.767 228.205 131.767C229.116 131.767 229.859 131.975 230.203 132.491C230.806 133.395 231.387 134.514 230.612 138.344C229.321 144.541 227.341 148.63 221.402 157.453C220.025 159.475 218.261 161.713 217.486 162.488C215.679 164.166 211.612 165.887 209.245 166.275C207.739 166.49 207.308 166.404 206.533 165.629Z" fill="#00160A"/>
<path id="Shadow_2" fill-rule="evenodd" clip-rule="evenodd" d="M33.374 264.744L33.6753 268.229C34.2353 274.901 34.45 275.503 37.4627 277.741C41.906 281.117 48.8953 284.359 56.6367 286.839C62.018 288.563 67.7633 289.918 73.2693 290.695C79.51 291.555 93.066 291.254 98.2307 290.135C100.783 289.582 79.786 273.086 67.416 277.741C57.9167 281.315 35.5273 254.049 44.6307 246.926C54.8427 238.935 36.13 207.417 35.5273 200.575C34.9247 193.732 32.552 192.097 32.4827 192.337C32.4133 192.577 32.4133 193.396 32.5993 195.369C33.4027 203.871 33.374 264.744 33.374 264.744Z" fill="#E7EAEE"/>
<g id="Group_2">
<path id="Whites_5" d="M126.915 113.555C126.915 113.34 127.173 113.125 127.518 113.125C127.862 113.125 128.293 113.34 128.421 113.555C128.551 113.813 128.293 113.986 127.819 113.986C127.303 113.986 126.915 113.813 126.915 113.555Z" fill="white"/>
<path id="Whites_6" d="M129.498 113.167C129.498 112.693 130.573 112.263 131.779 112.263C132.725 112.306 132.725 112.306 131.908 112.909C130.961 113.64 129.498 113.769 129.498 113.167Z" fill="white"/>
<path id="Whites_7" d="M122.827 112.049C122.698 111.705 122.526 111.102 122.397 110.757C122.267 110.327 122.483 110.112 123.042 110.112C123.515 110.112 123.903 110.37 123.903 110.715C123.903 111.059 124.032 111.618 124.161 112.005C124.333 112.479 124.204 112.694 123.731 112.694C123.343 112.694 122.913 112.393 122.827 112.049Z" fill="white"/>
<path id="Whites_8" d="M125.108 110.971C124.893 109.681 125.366 109.25 126.915 109.25C127.389 109.25 127.776 109.681 127.949 110.412C128.293 111.66 127.733 112.263 126.227 112.263C125.538 112.263 125.237 111.961 125.108 110.971Z" fill="white"/>
<path id="Whites_9" d="M120.718 111.187C119.901 110.541 119.901 110.541 120.804 110.541C121.364 110.541 121.751 110.8 121.751 111.187C121.751 111.962 121.751 111.962 120.718 111.187Z" fill="white"/>
<path id="Whites_10" d="M129.369 111.143C128.809 110.584 129.067 108.906 129.756 108.647C131.004 108.174 131.563 108.389 131.822 109.508C131.994 110.154 132.08 110.713 131.994 110.756C131.649 111.143 129.627 111.402 129.369 111.143Z" fill="white"/>
<path id="Whites_11" d="M133.199 110.242C133.07 110.113 132.941 109.554 132.941 109.037C132.941 108.305 133.285 108.005 134.318 107.789C135.222 107.617 135.781 107.703 136.039 108.047C136.47 108.736 136.47 109.597 136.083 109.812C135.308 110.242 133.5 110.501 133.199 110.242Z" fill="white"/>
<path id="Whites_12" d="M118.739 108.907C118.739 108.391 119.126 107.961 119.685 107.831C120.805 107.53 120.761 107.487 120.977 108.606C121.063 109.251 120.847 109.51 119.943 109.596C118.997 109.725 118.739 109.553 118.739 108.907Z" fill="white"/>
<path id="Whites_13" d="M122.009 108.949C121.407 108.304 121.794 107.099 122.611 107.099C123.171 107.099 123.473 107.4 123.473 107.917C123.473 108.735 122.483 109.423 122.009 108.949Z" fill="white"/>
<path id="Whites_14" d="M124.591 107.66C124.247 106.842 124.979 106.239 126.399 106.239C127.045 106.239 127.346 106.498 127.346 107.057C127.346 107.531 126.959 107.961 126.399 108.133C124.979 108.477 124.893 108.477 124.591 107.66Z" fill="white"/>
<path id="Whites_15" d="M137.029 107.529C137.158 107.314 137.373 107.099 137.503 107.099C137.632 107.099 137.589 107.314 137.459 107.529C137.331 107.787 137.115 107.96 136.986 107.96C136.857 107.96 136.9 107.787 137.029 107.529Z" fill="white"/>
<path id="Whites_16" d="M128.465 106.798C128.121 105.937 128.551 105.507 129.928 105.291C130.703 105.205 131.047 105.378 131.133 105.98C131.435 107.401 128.981 108.175 128.465 106.798Z" fill="white"/>
<path id="Whites_17" d="M118.136 106.067C117.749 104.647 117.835 104.518 118.954 104.518C119.556 104.518 120.029 104.691 120.029 104.905C120.029 105.121 120.159 105.594 120.288 105.939C120.417 106.369 120.159 106.627 119.427 106.756C118.609 106.928 118.308 106.756 118.136 106.067Z" fill="white"/>
<path id="Whites_18" d="M132.51 105.593C132.51 104.818 132.811 104.473 133.629 104.258C134.834 103.957 135.523 104.559 135.523 105.937C135.523 106.496 135.179 106.668 134.017 106.668C132.682 106.668 132.51 106.539 132.51 105.593Z" fill="white"/>
<path id="Whites_19" d="M116.845 105.593C116.716 105.249 116.802 104.948 117.017 104.948C117.275 104.948 117.447 105.249 117.447 105.593C117.447 105.938 117.361 106.239 117.275 106.239C117.189 106.239 117.017 105.938 116.845 105.593Z" fill="white"/>
<path id="Whites_20" d="M121.191 105.938C120.589 105.379 120.933 104.173 121.708 103.958C122.181 103.829 122.655 103.872 122.784 104.001C123.301 104.475 122.999 105.723 122.353 105.981C121.536 106.282 121.536 106.282 121.191 105.938Z" fill="white"/>
<path id="Whites_21" d="M136.556 105.637C136.082 104.389 136.599 103.442 137.804 103.313C138.707 103.184 138.966 103.356 138.966 104.045C138.966 105.465 138.493 106.239 137.631 106.239C137.158 106.239 136.685 105.981 136.556 105.637Z" fill="white"/>
<path id="Whites_22" d="M124.204 105.077C123.688 104.603 123.86 103.743 124.591 103.485C125.409 103.183 127.131 104.044 126.657 104.517C126.055 105.034 124.505 105.421 124.204 105.077Z" fill="white"/>
<path id="Whites_23" d="M127.948 104C127.561 103.397 128.938 102.365 130.057 102.365C130.573 102.365 130.789 102.623 130.703 103.096C130.531 103.957 128.335 104.645 127.948 104Z" fill="white"/>
<path id="Whites_24" d="M116.156 103.699C116.156 103.484 116.027 103.011 115.898 102.623C115.769 102.236 115.812 101.935 116.07 101.935C116.629 101.935 117.06 103.57 116.543 103.915C116.329 104.044 116.156 103.957 116.156 103.699Z" fill="white"/>
<path id="Whites_25" d="M117.318 102.711C117.06 101.764 117.577 101.075 118.567 101.075C119.126 101.075 119.685 102.754 119.341 103.313C118.867 104.045 117.533 103.615 117.318 102.711Z" fill="white"/>
<path id="Whites_26" d="M120.331 102.924C119.685 102.279 120.073 100.729 120.933 100.514C121.579 100.342 121.923 100.557 122.267 101.331C122.525 101.891 122.655 102.451 122.569 102.537C122.138 102.924 120.589 103.225 120.331 102.924Z" fill="white"/>
<path id="Whites_27" d="M131.951 102.925C131.391 102.366 131.649 102.021 132.941 101.548C134.017 101.204 134.318 101.247 134.533 101.763C134.921 102.796 132.769 103.786 131.951 102.925Z" fill="white"/>
<path id="Whites_28" d="M135.738 101.934C135.307 101.246 135.91 100.643 137.029 100.643C138.363 100.643 138.751 101.762 137.545 102.107C136.254 102.451 136.039 102.408 135.738 101.934Z" fill="white"/>
<path id="Whites_29" d="M139.396 100.902C139.396 100.257 140.171 99.568 140.515 99.912C140.817 100.213 140.214 101.505 139.783 101.505C139.568 101.505 139.396 101.246 139.396 100.902Z" fill="white"/>
<path id="Whites_30" d="M115.597 100.343C115.425 100.214 115.295 99.6546 115.339 99.1812C115.339 98.3632 115.381 98.3632 115.769 99.3106C116.199 100.343 116.113 100.86 115.597 100.343Z" fill="white"/>
<path id="Whites_31" d="M116.415 99.6981C116.027 98.1914 116.07 98.0627 117.189 98.0627C118.437 98.0627 119.212 99.6547 118.265 100.257C117.275 100.86 116.716 100.688 116.415 99.6981Z" fill="white"/>
<path id="Whites_32" d="M131.219 100.558C131.219 100.429 131.434 99.7406 131.693 98.966C132.295 97.244 133.629 97.158 133.931 98.8366C134.059 99.482 134.103 100.042 134.059 100.085C133.844 100.343 131.219 100.73 131.219 100.558Z" fill="white"/>
<path id="Whites_33" d="M119.47 99.4834C119.298 99.3541 119.169 98.8374 119.169 98.3641C119.169 97.6754 119.298 97.6328 119.815 98.0628C120.159 98.3641 120.46 98.8808 120.46 99.1821C120.46 99.8274 119.943 99.9994 119.47 99.4834Z" fill="white"/>
<path id="Whites_34" d="M134.963 98.6213C134.705 97.2873 135.265 96.6846 136.599 96.8566C137.244 96.9426 137.459 97.3299 137.459 98.2772C137.459 99.3532 137.287 99.6112 136.341 99.6972C135.394 99.8266 135.179 99.6113 134.963 98.6213Z" fill="white"/>
<path id="Whites_35" d="M139.181 98.7933C138.621 97.0713 138.793 96.5553 139.955 96.426C140.988 96.2967 141.117 96.426 141.117 97.5453C141.117 98.492 140.859 98.8793 140.213 99.0513C139.74 99.1806 139.267 99.0513 139.181 98.7933Z" fill="white"/>
<path id="Whites_36" d="M114.951 96.3401C114.951 95.5221 115.037 95.1781 115.167 95.6081C115.253 95.9954 115.253 96.6841 115.167 97.1147C115.037 97.5021 114.951 97.1574 114.951 96.3401Z" fill="white"/>
<path id="Whites_37" d="M116.027 96.9007C115.468 96.3841 115.726 94.7061 116.415 94.4474C117.405 94.0601 117.878 94.5334 117.878 95.9541C117.878 96.8574 117.663 97.2021 117.103 97.2021C116.673 97.2021 116.156 97.0727 116.027 96.9007Z" fill="white"/>
<path id="Whites_38" d="M118.609 95.7373C118.437 95.092 118.351 94.4033 118.523 94.274C118.953 93.844 119.212 94.5327 119.083 95.7807L118.953 96.9853L118.609 95.7373Z" fill="white"/>
<path id="Whites_39" d="M132.51 95.4379C132.51 94.9639 132.725 94.7059 132.941 94.8352C133.199 94.9639 133.371 95.3946 133.371 95.7386C133.371 96.0832 133.199 96.3412 132.941 96.3412C132.725 96.3412 132.51 95.9539 132.51 95.4379Z" fill="white"/>
<path id="Whites_40" d="M134.447 95.9972C133.845 95.3512 134.318 94.1892 135.307 93.9312C136.556 93.6299 136.599 93.6299 136.986 94.8779C137.244 95.6526 137.072 95.8252 135.953 95.9972C135.265 96.1259 134.576 96.0832 134.447 95.9972Z" fill="white"/>
<path id="Whites_41" d="M138.406 95.1786C137.933 94.7479 138.062 93.3279 138.535 93.3279C138.793 93.3279 138.965 93.1559 138.965 92.8973C138.965 92.6826 138.707 92.4673 138.363 92.4673C137.631 92.4673 137.029 90.3586 137.631 89.7559C138.406 88.9813 139.267 89.7986 139.783 91.9079C140.085 93.0266 140.386 94.3179 140.515 94.7479C140.687 95.3073 140.515 95.4799 139.697 95.4799C139.138 95.4799 138.535 95.3506 138.406 95.1786Z" fill="white"/>
<path id="Whites_42" d="M140.73 92.8987C140.429 91.6073 139.655 89.0253 139.095 87.1313C138.234 84.3773 138.148 83.6887 138.621 83.3873C138.923 83.172 139.31 83 139.439 83C139.913 83 141.634 91.8227 141.462 93.544L141.333 95.2653L140.73 92.8987Z" fill="white"/>
<path id="Whites_43" d="M114.521 92.6827C114.521 91.994 114.607 91.736 114.736 92.166C114.822 92.5533 114.822 93.156 114.736 93.4574C114.607 93.7154 114.521 93.414 114.521 92.6827Z" fill="white"/>
<path id="Whites_44" d="M115.381 92.5946C115.554 91.0886 116.802 90.7439 117.146 92.1213C117.447 93.2399 117.533 93.1113 116.242 93.5413C115.339 93.7999 115.253 93.7139 115.381 92.5946Z" fill="white"/>
<path id="Whites_45" d="M133.543 92.2072C133.199 90.9592 133.931 90.2279 135.307 90.3999C136.341 90.5292 136.728 92.3792 135.867 92.9392C134.791 93.6279 133.801 93.3266 133.543 92.2072Z" fill="white"/>
<path id="Whites_46" d="M117.877 91.864C117.877 91.132 118.093 90.7446 118.566 90.7446C118.997 90.7446 119.169 91.046 119.083 91.6913C118.867 93.0686 117.877 93.198 117.877 91.864Z" fill="white"/>
<path id="Whites_47" d="M114.047 90.0567C114.047 89.5834 114.177 89.4547 114.306 89.7987C114.435 90.1 114.392 90.4874 114.263 90.6167C114.133 90.7887 114.005 90.53 114.047 90.0567Z" fill="white"/>
<path id="Whites_48" d="M114.865 89.9274C114.865 89.2814 115.123 89.0234 115.769 89.0234C116.371 89.0234 116.587 89.2388 116.501 89.7554C116.285 90.8741 114.865 91.0034 114.865 89.9274Z" fill="white"/>
<path id="Whites_49" d="M117.232 89.5407C116.931 88.766 116.931 88.766 118.222 88.4214C118.997 88.1634 119.169 88.2927 119.169 88.938C119.169 89.9707 117.619 90.4874 117.232 89.5407Z" fill="white"/>
<path id="Whites_50" d="M132.811 88.9373C132.51 87.8613 133.069 87.302 134.576 87.302C135.307 87.302 135.523 87.56 135.523 88.378C135.523 89.0233 135.265 89.454 134.92 89.454C134.576 89.454 134.017 89.5833 133.672 89.712C133.285 89.8413 132.983 89.5833 132.811 88.9373Z" fill="white"/>
<path id="Whites_51" d="M136.556 87.9486C136.211 87.088 136.728 86.4426 137.718 86.4426C138.321 86.4426 138.535 86.744 138.535 87.5186C138.535 88.2933 138.321 88.5946 137.675 88.5946C137.201 88.5946 136.685 88.2933 136.556 87.9486Z" fill="white"/>
<path id="Whites_52" d="M114.435 87.3454C114.435 86.4414 115.425 85.4088 115.855 85.8821C116.027 86.0114 116.157 86.6134 116.157 87.1734C116.157 87.8614 115.898 88.1627 115.295 88.1627C114.736 88.1627 114.435 87.8614 114.435 87.3454Z" fill="white"/>
<path id="Whites_53" d="M116.802 86.828C116.457 85.7526 116.845 85.2786 118.308 85.064C119.643 84.8913 120.073 86.312 118.911 87.1726C117.792 87.99 117.103 87.8613 116.802 86.828Z" fill="white"/>
<path id="Whites_54" d="M132.381 86.5714C132.08 86.3134 131.951 84.7208 132.209 84.7208C132.252 84.7208 132.898 84.5488 133.673 84.3334C134.963 83.9461 135.049 83.9894 135.007 85.1514C134.963 86.0121 134.705 86.4428 134.06 86.6148C132.898 86.9161 132.725 86.9161 132.381 86.5714Z" fill="white"/>
<path id="Whites_55" d="M130.789 85.5801C130.789 85.2794 130.918 85.1501 131.09 85.2795C131.219 85.4515 131.219 85.7094 131.09 85.8814C130.918 86.0108 130.789 85.8814 130.789 85.5801Z" fill="white"/>
<path id="Whites_56" d="M135.609 84.8912C135.738 84.1599 137.072 83.0839 137.373 83.4279C137.503 83.5572 137.717 84.0739 137.847 84.6332C138.148 85.4939 138.019 85.5799 136.814 85.5799C135.781 85.5799 135.48 85.4079 135.609 84.8912Z" fill="white"/>
<path id="Whites_57" d="M114.865 84.8493C114.865 84.634 115.081 84.204 115.295 83.8593C115.64 83.3433 115.726 83.386 115.726 84.204C115.726 84.7206 115.554 85.1506 115.295 85.1506C115.081 85.1506 114.865 85.0213 114.865 84.8493Z" fill="white"/>
<path id="Whites_58" d="M116.156 83.9019C116.156 82.6966 117.06 82.3092 117.749 83.2132C118.179 83.8586 118.179 84.0739 117.749 84.3752C116.845 84.9346 116.156 84.7626 116.156 83.9019Z" fill="white"/>
<path id="Whites_59" d="M129.239 83.344C128.465 82.4833 128.465 82.4407 129.197 82.6987C129.627 82.8707 130.186 83 130.401 83C130.617 83 130.789 83.3013 130.789 83.6453C130.789 84.5493 130.186 84.4633 129.239 83.344Z" fill="white"/>
<path id="Whites_60" d="M119.987 83.3C118.136 81.88 117.878 78.6953 119.599 78.6953C120.761 78.6953 121.837 80.5026 121.665 82.1813C121.536 83.7306 121.019 84.0747 119.987 83.3Z" fill="white"/>
<path id="Whites_61" d="M131.779 83.5579C131.951 83.4286 132.209 83.4286 132.381 83.5579C132.51 83.7299 132.381 83.8593 132.08 83.8593C131.779 83.8593 131.649 83.7299 131.779 83.5579Z" fill="white"/>
<path id="Whites_62" d="M138.277 81.8794C138.407 81.492 138.535 81.1047 138.535 81.0187C138.535 80.9327 138.751 80.8467 138.966 80.8467C139.224 80.8467 139.396 81.234 139.396 81.7074C139.396 82.2234 139.095 82.568 138.707 82.568C138.234 82.568 138.105 82.3527 138.277 81.8794Z" fill="white"/>
<path id="Whites_63" d="M115.726 81.7499C115.726 80.7606 116.63 79.1252 117.146 79.1252C118.05 79.1252 117.405 81.8792 116.457 82.0512C116.07 82.1372 115.726 82.0086 115.726 81.7499Z" fill="white"/>
<path id="Whites_64" d="M125.409 81.2767L124.118 80.9753L125.28 80.674C126.485 80.33 127.346 80.588 127.346 81.32C127.346 81.75 127.303 81.75 125.409 81.2767Z" fill="white"/>
<path id="Whites_65" d="M123.903 79.2106C123.903 77.4459 124.893 77.1879 125.797 78.7372C126.399 79.7699 126.442 79.9852 125.883 79.9852C125.539 79.9852 124.979 80.1146 124.591 80.2432C124.075 80.4586 123.903 80.2006 123.903 79.2106Z" fill="white"/>
<path id="Whites_66" d="M131.391 79.8132C129.455 78.9526 128.207 76.6719 128.207 73.9606C128.207 72.0239 128.379 71.5506 129.541 70.4746C130.273 69.7859 131.004 69.2266 131.219 69.2266C132.166 69.2266 135.652 72.5406 136.814 74.6059L138.148 76.9732L136.728 78.4792C135.093 80.2006 133.285 80.6746 131.391 79.8132Z" fill="white"/>
<path id="Whites_67" d="M122.397 78.6961C122.267 78.4807 122.353 78.2654 122.569 78.2654C122.827 78.2654 123.042 78.4807 123.042 78.6961C123.042 78.9541 122.956 79.1267 122.87 79.1267C122.741 79.1267 122.526 78.9541 122.397 78.6961Z" fill="white"/>
<path id="Whites_68" d="M116.759 78.0068C116.888 77.6195 117.017 77.2321 117.017 77.1461C117.017 77.0601 117.404 76.9741 117.877 76.9741C118.953 76.9741 118.997 77.6628 117.921 78.2655C116.759 78.8675 116.457 78.8248 116.759 78.0068Z" fill="white"/>
<path id="Whites_69" d="M120.159 77.4901C119.169 77.3614 118.867 76.8021 119.513 76.4147C119.685 76.2854 120.46 76.0701 121.235 75.8981C122.397 75.6401 122.611 75.7261 122.611 76.4574C122.611 77.3614 121.708 77.7487 120.159 77.4901Z" fill="white"/>
<path id="Whites_70" d="M123.473 76.0274C123.473 75.5114 123.516 75.2101 123.602 75.2961C123.645 75.3821 123.989 75.8121 124.291 76.2427C124.807 76.8454 124.764 76.9741 124.161 76.9741C123.731 76.9741 123.473 76.6301 123.473 76.0274Z" fill="white"/>
<path id="Whites_71" d="M117.447 75.726C117.447 75.468 117.663 75.1666 117.877 75.0373C118.136 74.9086 118.308 75.0806 118.308 75.4246C118.308 75.8119 118.136 76.1133 117.877 76.1133C117.663 76.1133 117.447 75.9413 117.447 75.726Z" fill="white"/>
<path id="Whites_72" d="M119.04 75.0785C118.695 74.2179 121.751 73.2712 122.267 74.0885C122.655 74.7772 122.267 75.0785 120.632 75.4232C119.642 75.6379 119.212 75.5519 119.04 75.0785Z" fill="white"/>
<path id="Whites_73" d="M123.085 73.7027C123.085 73.2294 123.215 73.1001 123.343 73.4447C123.473 73.7461 123.429 74.1334 123.301 74.2621C123.171 74.4347 123.042 74.1761 123.085 73.7027Z" fill="white"/>
<path id="Whites_74" d="M119.427 73.0147C119.943 72.0674 121.45 70.5181 121.837 70.5181C122.267 70.5181 122.311 72.5407 121.88 72.7994C121.665 72.8854 120.977 73.1007 120.331 73.2727C119.384 73.4881 119.169 73.4447 119.427 73.0147Z" fill="white"/>
<path id="Whites_75" d="M122.87 72.0239C122.397 70.7332 122.612 70.1732 123.645 70.0012C124.721 69.7859 124.721 69.7859 124.032 71.1206C123.171 72.8419 123.214 72.8419 122.87 72.0239Z" fill="white"/>
<path id="Whites_76" d="M122.611 69.4427C122.611 69.356 123.473 68.754 124.548 68.1513C125.839 67.3767 126.743 67.1187 127.389 67.2907C128.163 67.5487 127.948 67.7207 126.055 68.6247C123.946 69.5713 122.611 69.916 122.611 69.4427Z" fill="white"/>
<path id="Whites_78" d="M58.9174 161.669C57.1527 160.766 56.7654 160.249 54.5274 155.817C51.3 149.533 51.214 148.07 54.2694 151.642C55.474 153.062 58.272 155.989 60.4667 158.141C64.2107 161.755 64.3827 162.014 63.1347 161.842C62.2313 161.713 61.8867 161.799 62.102 162.143C62.6187 162.917 60.9834 162.703 58.9174 161.669Z" fill="white"/>
</g>
<path id="Stroke_2" fill-rule="evenodd" clip-rule="evenodd" d="M131.042 240.08C130.685 239.231 131.083 238.255 131.931 237.897L132.859 237.504C141.873 233.647 147.048 231.329 150.564 227.65C154.079 223.971 154.5 218.567 155.161 215.278C155.342 214.376 157.385 215.961 158.288 216.142C159.191 216.323 159.775 217.202 159.594 218.105C158.799 222.058 156.661 225.827 153.218 229.405C149.787 232.971 143.143 236.794 133.225 240.969C132.376 241.327 131.399 240.928 131.042 240.08Z" fill="#00160A"/>
<path id="Stroke_4" fill-rule="evenodd" clip-rule="evenodd" d="M6.74605 194.504C7.33471 193.797 8.38604 192.368 9.09338 192.957C11.9947 195.373 15.0907 198.173 18.4027 198.714C21.8494 199.277 25.938 199.277 30.6634 198.704C31.5774 198.594 32.4074 199.245 32.518 200.159C32.6287 201.073 31.9774 201.903 31.064 202.013C26.0454 202.621 21.648 202.621 17.866 202.004C13.9494 201.365 10.3067 199.639 6.96005 196.851C6.25271 196.262 6.15671 195.211 6.74605 194.504Z" fill="#00160A"/>
<path id="Whites_79" d="M42.1333 136.193C39.9813 134.471 35.376 129.393 31.89 124.917C30.0827 122.55 28.06 117.73 26.8547 112.867C26.2953 110.672 25.736 108.692 25.6067 108.434C25.4347 108.219 24.746 105.163 24.0573 101.634C23.0247 96.642 23.2433 95.0334 22.336 89.062C21.952 86.5334 21.6047 84.522 21.6047 84.522L22.7233 83.0854C23.3687 82.2247 24.1853 80.8 24.488 79.9867C25.8653 76.2807 35.9787 64.6654 36.28 64.9667C36.366 65.0527 36.022 67.0754 35.4193 69.4427C34.86 71.8094 34.1713 75.3814 33.87 77.404C33.4393 80.7614 33.2673 81.1487 31.9333 82.2674C30.2547 83.688 27.07 88.2494 27.07 89.1967C27.07 90.4874 29.0067 89.6267 31.0293 87.518L33.0953 85.366V87.7334C33.0953 89.2827 32.794 90.7027 32.2347 91.8214C31.1587 93.9307 31.1587 96.1687 32.1913 97.89C32.708 98.7507 33.1813 100.816 33.4827 103.269C34.8167 114.373 37.6573 124.013 42.5207 133.697C43.7253 136.107 44.672 138.086 44.6293 138.086C44.5433 138.086 43.424 137.225 42.1333 136.193Z" fill="white"/>
</g>
<g id="glass">
<path id="Whites_4" d="M325.702 207.731C331.057 193.143 330.246 190.035 329.317 189.731C329.317 189.731 327.273 190.893 326.369 193.346C324.691 197.951 318.945 210.001 316.794 212.153C314.255 214.693 314.255 214.693 311.672 214.693C309.09 214.693 301.643 210.804 300.629 206.971C299.007 200.837 305.991 179.531 306.163 178.327L305.001 177.509C304.227 178.241 294.151 208.797 280.901 200.835C279.384 199.923 276.167 195.627 275.909 193.346C274.475 186.719 281.055 163.543 282.173 158.783C283.175 154.522 288.389 150.568 294.802 150.568C304.657 150.568 303.333 159.183 307.748 162.218C309.704 163.563 312.919 161.125 313.91 160.939C319.462 159.907 321.589 161.109 325.659 164.339C328.801 166.833 331.125 171.767 333.684 173.506C335.105 174.472 336.613 173.152 337.107 172.904C339.132 171.887 343.477 172.645 344.681 173.506C346.448 174.277 350.777 178.438 351.461 180.858C354.561 191.827 344.773 216.146 341.078 220.708C334.962 228.259 320.348 222.319 325.702 207.731Z" fill="white"/>
<path id="Shape" fill-rule="evenodd" clip-rule="evenodd" d="M78.284 167.758C90.076 175.204 102.235 180.067 116.093 181.401C127.025 182.434 141.763 181.013 152.35 177.571C161.259 174.688 173.309 166.7 181.357 159.943C196.979 146.859 206.835 126.424 211.139 104.734C211.741 101.678 212.66 93.9968 212.617 86.3795C212.617 77.5135 208.715 53.2868 196.893 39.3175C172.511 10.5055 132.431 -2.47317 98.7474 8.61683C86.596 12.6168 73.6587 19.8648 63.8894 29.3328C51.5807 41.3402 42.5 57.6942 38.8854 74.3922C35.098 92.0375 40.0247 113.126 48.5887 130.426C55.4314 144.198 66.7074 160.399 78.284 167.758ZM193.192 115.751C185.101 140.066 164.013 158.228 137.503 163.737C133.457 164.554 130.66 164.855 124.979 164.941C120.977 165.071 116.974 165.027 116.157 164.941C97.6073 162.703 83.4914 155.861 70.4947 142.864C64.8134 137.14 62.4034 134.041 58.8747 127.93C53.3227 118.247 50.3534 108.348 49.4494 96.4268C46.3507 55.5855 75.5727 21.5428 116.716 18.0142C132.855 16.6368 150.758 21.5862 164.357 31.2262C169.393 34.7982 178.517 43.8362 181.357 48.0535C182.519 49.7322 193.795 66.2155 195.775 75.6835C198.313 87.9922 197.324 103.399 193.192 115.751Z" fill="white"/>
<path id="Whites_77" d="M146.497 31.3128C145.335 29.6341 142.882 26.9228 141.117 25.2874C139.353 23.6521 138.191 22.3181 138.535 22.3181C139.482 22.3181 146.713 24.2974 148.52 25.0721C150.026 25.7174 150.069 25.8041 149.682 27.1381C149.467 27.9128 149.295 29.8494 149.295 31.4414C149.295 33.0768 149.165 34.3681 148.993 34.3681C148.778 34.3681 147.702 32.9908 146.497 31.3128Z" fill="white"/>
<path id="Shadow_3" fill-rule="evenodd" clip-rule="evenodd" d="M212.632 86.3779C212.632 115.265 198.968 146.846 181.333 160.333C172.92 166.768 161.925 174.559 152.35 177.57C138.318 181.981 116.093 181.4 116.093 181.4C116.093 181.4 138.767 178.369 147.17 174.987C171.265 165.29 184.419 150.405 192.541 136.123C208.574 107.93 212.632 85.6766 212.632 86.3779Z" fill="#E7EAEE"/>
<path id="Shape_2" fill-rule="evenodd" clip-rule="evenodd" d="M116.587 159.777C105.096 158.313 93.6913 154.225 84.4813 148.157C79.016 144.585 70.7527 136.193 66.75 130.211C61.0267 121.603 57.2393 112.393 55.3887 102.495C54.0547 95.3074 54.0973 84.2474 55.4313 77.8347C56.8087 71.2934 58.5733 66.3007 61.7147 59.9747C65.3733 52.6581 69.2467 47.2787 75.056 41.4687C84.9547 31.5701 96.4453 25.2867 110.131 22.274C114.564 21.3274 130.617 20.5527 131.176 21.2847C131.305 21.4994 132.166 22.0594 133.07 22.5327C133.973 23.0487 136.384 24.8567 138.363 26.6207C141.333 29.2034 142.667 30.8387 145.249 34.8841C147.014 37.6387 148.434 40.1347 148.434 40.35C148.434 40.8234 149.811 41.684 150.586 41.684C151.662 41.684 152.393 38.456 152.609 32.7754C152.737 29.6334 152.996 27.0514 153.168 27.0514C153.771 27.0514 160.398 30.7094 163.497 32.7754C169.565 36.8207 175.633 42.5014 180.109 48.4407C182.132 51.1087 182.433 51.7974 182.433 53.4327C182.433 54.9394 182.863 56.1014 184.197 58.4254C187.555 64.278 190.179 71.6374 191.772 79.7714C192.805 85.2374 192.805 95.566 191.729 101.29C188.803 117.041 180.109 132.707 168.791 142.648C159.193 151.04 148.993 156.205 136.943 158.744C132.811 159.647 120.417 160.25 116.587 159.777ZM85.8153 130.339C86.2027 129.909 86.4613 129.263 86.332 128.963C86.2933 128.872 85.754 128.619 84.9653 128.248C83.1267 127.383 79.93 125.881 78.5447 124.315C73.036 118.031 71.0133 113.34 69.7653 103.657C68.56 94.232 69.5727 87.86 71.7447 77.6194C72.8047 72.6241 75.6213 68.4974 77.3733 65.9307C78.5653 64.1847 79.2647 63.16 78.5853 63.0734C76.9067 62.8147 76.6487 62.9441 74.884 64.6227C71.0967 68.2374 69.3753 71.1207 67.568 76.6727C64.7707 85.3661 64.23 108.86 69.7653 119.451C75.3007 130.043 84.8253 131.459 85.8153 130.339ZM147.014 94.1887C146.283 100.874 143.183 110.543 139.569 114.76C137.89 116.74 131.729 120.14 126.528 119.451C121.505 118.786 117.577 116.439 114.22 111.403C111.336 107.057 109.847 101.781 108.84 95.1354C107.101 83.6607 114.693 70.3034 117.964 66.9894C121.278 63.5894 123.645 62.3847 126.657 62.3414C129.584 62.3414 131.477 62.9874 134.447 65.096C139.87 68.8834 148.434 81.1974 147.014 94.1887ZM89 58.5974C89.8607 57.6074 89.99 57.1341 89.732 55.2834C89.56 53.562 89.2153 52.8734 88.3113 52.142C86.7193 50.8507 84.7393 50.8507 83.2767 52.228C82.2433 53.218 82.1147 53.5621 82.2433 55.9287C82.3727 58.4681 82.4587 58.64 83.8787 59.4147C85.7727 60.448 87.6233 60.1467 89 58.5974ZM115.855 32.0434C108.109 37.5954 104.752 39.8761 101.266 42.0281C98.5113 43.7494 97.6507 43.7927 97.6507 42.2434C97.6507 41.4254 98.2533 40.522 99.8027 39.1014L101.954 37.122L97.78 36.5627C93.0887 35.96 88.5267 34.6687 87.5367 33.6787C85.9013 32.0007 87.322 31.6134 91.97 32.474C94.0353 32.818 98.038 33.2487 100.879 33.3347L106.043 33.55L109.787 30.8387C118.007 24.8994 126.528 21.5427 130.617 22.5754C133.156 23.1781 132.855 23.8667 129.971 24.2107C126.657 24.598 124.635 25.7174 115.855 32.0434Z" fill="white"/>
<path id="Whites" d="M135.014 239.649C135.014 239.649 146.132 234.419 150.283 230.781C154.433 227.142 159.594 218.103 159.594 218.103C159.594 218.103 216.276 259.038 253.235 253.199C261.75 251.853 278.343 246.193 279.401 236.22C282.29 208.987 242.314 202.029 251.046 188.219C256.377 179.789 272.935 192.335 272.935 192.335L341.613 226.116C341.613 226.116 317.887 284.603 260.308 286.946C189.479 289.829 135.014 239.649 135.014 239.649Z" fill="white"/>
<path id="Shape_3" fill-rule="evenodd" clip-rule="evenodd" d="M221.209 162.747L224.307 164.124C224.95 164.42 232.039 167.826 240.553 171.917C254.28 178.513 271.714 186.89 271.82 186.89C271.993 186.89 272.8 185.023 272.982 182.845C273.413 178.154 275.005 171.784 276.855 167.351C277.716 165.372 278.405 162.897 278.405 162.683C278.405 162.584 277.705 162.302 276.56 161.84C275.196 161.29 273.201 160.485 271.003 159.433C260.157 154.225 238.94 143.595 236.315 142.003C233.733 140.497 233.216 140.367 233.216 141.357C233.216 142.649 230.591 148.631 228.568 151.858C227.493 153.623 225.383 156.807 223.877 158.916L221.209 162.747ZM271.089 179.143C272.323 179.859 270.185 180.908 269.669 181.08C266.627 181.339 263.047 180.767 260.114 179.057C258.581 177.97 246.504 171.261 238.493 166.81C234.831 164.776 232.019 163.213 231.452 162.875C229.644 161.8 227.923 160.638 227.621 160.293C226.718 159.131 227.579 158.615 230.117 158.83C231.644 158.959 268.423 177.599 271.089 179.143Z" fill="white"/>
<path id="Stroke_3" fill-rule="evenodd" clip-rule="evenodd" d="M171.809 68.3627C172.6 67.8914 173.623 68.1514 174.093 68.942C178.808 76.8614 181.333 85.9147 181.333 95.3334C181.333 123.868 158.201 147 129.667 147C122.084 147 114.73 145.365 107.996 142.249C107.161 141.862 104.005 138.785 107.183 140.036C110.361 141.288 122.659 144.097 129.755 144.097C156.449 144.097 175.333 122.027 175.333 95.3334C175.333 86.5187 171.809 78.6954 171.229 70.6474C171.162 69.714 171.018 68.8334 171.809 68.3627Z" fill="#00160A"/>
<path id="Whites_80" d="M190.309 166.62C189.19 166.233 187.985 165.371 187.21 164.382L185.919 162.789L190.481 158.271C197.496 151.385 202.66 143.859 207.308 135.467C208.857 132.67 213.463 121.388 214.022 120.14C214.883 118.333 215.528 117.644 217.379 116.611C219.574 115.32 222.07 114.889 223.146 115.621C225.211 116.998 225.211 121.345 223.146 128.833C220.865 137.053 217.809 142.949 211.483 151.428C210.493 152.719 208.643 155.258 207.308 157.023C203.736 161.757 201.412 164.037 198.271 165.802C195.172 167.523 193.364 167.739 190.309 166.62Z" fill="white"/>
<path id="Whites_81" d="M206.533 165.628L205.629 164.725C205.629 164.725 220.63 145.667 223.317 138.644C225.369 133.285 226.576 131.765 228.205 131.765C229.115 131.765 229.859 131.973 230.203 132.49C230.806 133.394 231.387 134.513 230.612 138.343C229.321 144.54 227.341 148.629 221.402 157.451C220.025 159.474 218.261 161.712 217.486 162.487C215.678 164.165 211.611 165.887 209.245 166.274C207.739 166.489 207.308 166.403 206.533 165.628Z" fill="white"/>
<path id="Shadow_4" fill-rule="evenodd" clip-rule="evenodd" d="M231.729 145.701C232.597 143.716 233.216 141.984 233.216 141.357C233.216 140.367 233.733 140.497 236.315 142.003C238.94 143.595 260.157 154.225 271.003 159.433C275.048 161.369 278.405 162.467 278.405 162.683C278.405 162.897 230.809 147.807 231.729 145.701Z" fill="#E7EAEE"/>
<path id="Shadow_5" fill-rule="evenodd" clip-rule="evenodd" d="M84.4814 148.155C79.0154 144.583 70.752 136.191 66.75 130.209C61.026 121.601 57.2387 112.392 55.388 102.493C54.054 95.3061 54.0974 84.2461 55.4314 77.8334C56.8087 71.2914 58.5727 66.2994 61.7147 59.9727C65.3727 52.6567 69.246 47.2774 75.056 41.4674C80.7534 35.7701 55.4314 59.3314 61.7147 101.487C66.75 136.814 88.39 150.731 84.4814 148.155Z" fill="#E7EAEE"/>
</g>
</g>
</svg>
