<svg width="369" height="604" viewBox="0 0 369 604" fill="none" xmlns="http://www.w3.org/2000/svg">
<g id="CompareFrame">
<g id="BagBlue">
<path id="Vector" d="M283.101 562.191L286.585 597.47H278.737L275.253 562.191H283.101Z" fill="#D9D9D9" stroke="black"/>
<path id="Vector_2" opacity="0.21" d="M283.101 562.191L286.585 597.47H278.737L275.253 562.191H283.101Z" fill="#0A0A0A" stroke="black"/>
<path id="Vector_3" d="M274.248 562.191L277.733 597.47H244.381L247.865 562.191H274.248Z" fill="#D9D9D9" stroke="black"/>
<path id="Vector_4" d="M253.716 565.558L253.795 565.557L253.716 565.558ZM253.716 565.558C253.716 565.557 253.716 565.556 253.716 565.555L253.716 565.555V565.558L253.716 565.558Z" fill="white" stroke="black"/>
<path id="Vector_5" opacity="0.08" d="M282.488 562.191L279.55 565.723L275.93 562.191H282.488Z" fill="#0A0A0A" stroke="black"/>
<path id="Vector_6" opacity="0.08" d="M285.906 597.47H279.349L282.277 593.939L285.906 597.47Z" fill="#0A0A0A" stroke="black"/>
</g>
<g id="BagGreen">
<g id="Vector_7">
<mask id="path-7-inside-1_61_745" fill="white">
<path d="M240.343 554.433C240.232 554.433 240.125 554.388 240.046 554.309C239.967 554.231 239.923 554.124 239.923 554.012V550.727C239.923 548.912 239.202 547.172 237.919 545.889C236.636 544.606 234.896 543.885 233.082 543.885C231.267 543.885 229.527 544.606 228.244 545.889C226.961 547.172 226.24 548.912 226.24 550.727V554.012C226.24 554.124 226.196 554.231 226.117 554.31C226.038 554.388 225.931 554.433 225.82 554.433C225.708 554.433 225.601 554.388 225.522 554.31C225.443 554.231 225.399 554.124 225.399 554.012V550.727C225.393 549.714 225.587 548.71 225.971 547.773C226.354 546.836 226.919 545.984 227.633 545.266C228.347 544.548 229.196 543.978 230.131 543.589C231.066 543.2 232.069 543 233.081 543C234.094 543 235.097 543.2 236.032 543.589C236.967 543.978 237.815 544.548 238.529 545.266C239.243 545.984 239.808 546.836 240.192 547.773C240.575 548.71 240.77 549.714 240.764 550.727V554.012C240.764 554.124 240.72 554.231 240.641 554.31C240.562 554.388 240.455 554.433 240.343 554.433Z"/>
</mask>
<path d="M240.343 554.433C240.232 554.433 240.125 554.388 240.046 554.309C239.967 554.231 239.923 554.124 239.923 554.012V550.727C239.923 548.912 239.202 547.172 237.919 545.889C236.636 544.606 234.896 543.885 233.082 543.885C231.267 543.885 229.527 544.606 228.244 545.889C226.961 547.172 226.24 548.912 226.24 550.727V554.012C226.24 554.124 226.196 554.231 226.117 554.31C226.038 554.388 225.931 554.433 225.82 554.433C225.708 554.433 225.601 554.388 225.522 554.31C225.443 554.231 225.399 554.124 225.399 554.012V550.727C225.393 549.714 225.587 548.71 225.971 547.773C226.354 546.836 226.919 545.984 227.633 545.266C228.347 544.548 229.196 543.978 230.131 543.589C231.066 543.2 232.069 543 233.081 543C234.094 543 235.097 543.2 236.032 543.589C236.967 543.978 237.815 544.548 238.529 545.266C239.243 545.984 239.808 546.836 240.192 547.773C240.575 548.71 240.77 549.714 240.764 550.727V554.012C240.764 554.124 240.72 554.231 240.641 554.31C240.562 554.388 240.455 554.433 240.343 554.433Z" fill="#494945"/>
<path d="M240.343 554.433L240.343 555.433H240.343V554.433ZM239.923 554.012H240.923H239.923ZM226.24 550.727H227.24H226.24ZM225.399 550.727H226.399L226.399 550.721L225.399 550.727ZM240.764 550.727L239.764 550.721V550.727H240.764ZM240.764 554.012H239.764H240.764ZM240.344 553.433C240.497 553.433 240.645 553.494 240.753 553.603L239.339 555.016C239.605 555.283 239.966 555.433 240.343 555.433L240.344 553.433ZM240.753 553.603C240.862 553.711 240.923 553.858 240.923 554.012H238.923C238.923 554.389 239.072 554.75 239.339 555.016L240.753 553.603ZM240.923 554.012V550.727H238.923V554.012H240.923ZM240.923 550.727C240.923 548.647 240.097 546.652 238.626 545.182L237.212 546.596C238.307 547.692 238.923 549.177 238.923 550.727H240.923ZM238.626 545.182C237.156 543.711 235.161 542.885 233.082 542.885V544.885C234.631 544.885 236.116 545.501 237.212 546.596L238.626 545.182ZM233.082 542.885C231.002 542.885 229.007 543.711 227.537 545.182L228.951 546.596C230.047 545.501 231.532 544.885 233.082 544.885V542.885ZM227.537 545.182C226.066 546.652 225.24 548.647 225.24 550.727H227.24C227.24 549.177 227.856 547.692 228.951 546.596L227.537 545.182ZM225.24 550.727V554.012H227.24V550.727H225.24ZM225.24 554.012C225.24 553.858 225.301 553.711 225.41 553.602L226.824 555.017C227.091 554.75 227.24 554.389 227.24 554.012H225.24ZM225.41 553.602C225.519 553.494 225.666 553.433 225.82 553.433V555.433C226.196 555.433 226.558 555.283 226.824 555.017L225.41 553.602ZM225.82 553.433C225.973 553.433 226.121 553.494 226.229 553.602L224.815 555.017C225.081 555.283 225.443 555.433 225.82 555.433V553.433ZM226.229 553.602C226.338 553.711 226.399 553.858 226.399 554.012H224.399C224.399 554.389 224.548 554.75 224.815 555.017L226.229 553.602ZM226.399 554.012V550.727H224.399V554.012H226.399ZM226.399 550.721C226.394 549.84 226.563 548.967 226.896 548.152L225.045 547.394C224.612 548.454 224.392 549.588 224.399 550.732L226.399 550.721ZM226.896 548.152C227.23 547.337 227.722 546.595 228.343 545.971L226.924 544.561C226.117 545.372 225.479 546.335 225.045 547.394L226.896 548.152ZM228.343 545.971C228.964 545.346 229.702 544.851 230.515 544.512L229.747 542.666C228.691 543.105 227.731 543.749 226.924 544.561L228.343 545.971ZM230.515 544.512C231.329 544.174 232.201 544 233.081 544V542C231.937 542 230.804 542.226 229.747 542.666L230.515 544.512ZM233.081 544C233.962 544 234.834 544.174 235.648 544.512L236.416 542.666C235.359 542.226 234.226 542 233.081 542V544ZM235.648 544.512C236.461 544.851 237.199 545.346 237.82 545.971L239.239 544.561C238.432 543.749 237.472 543.105 236.416 542.666L235.648 544.512ZM237.82 545.971C238.441 546.595 238.933 547.337 239.266 548.152L241.117 547.394C240.684 546.335 240.045 545.372 239.239 544.561L237.82 545.971ZM239.266 548.152C239.6 548.967 239.769 549.84 239.764 550.721L241.764 550.732C241.771 549.588 241.551 548.454 241.117 547.394L239.266 548.152ZM239.764 550.727V554.012H241.764V550.727H239.764ZM239.764 554.012C239.764 553.858 239.825 553.711 239.934 553.602L241.348 555.017C241.614 554.75 241.764 554.389 241.764 554.012H239.764ZM239.934 553.602C240.042 553.494 240.19 553.433 240.343 553.433V555.433C240.72 555.433 241.081 555.283 241.348 555.017L239.934 553.602Z" fill="black" mask="url(#path-7-inside-1_61_745)"/>
</g>
<path id="Vector_8" d="M241.956 598.451V551.673H249.808V598.451H241.956Z" fill="white" stroke="black"/>
<path id="Vector_9" opacity="0.21" d="M241.956 598.451V551.673H249.808V598.451H241.956Z" fill="#0A0A0A" stroke="black"/>
<path id="Vector_10" d="M207.5 598.451V551.673H240.956V598.451H207.5Z" fill="white" stroke="black"/>
<g id="Vector_11">
<mask id="path-12-inside-2_61_745" fill="white">
<path d="M231.49 554.433C231.378 554.433 231.272 554.388 231.193 554.309C231.114 554.231 231.07 554.124 231.07 554.012V550.727C231.075 549.825 230.902 548.931 230.561 548.096C230.219 547.261 229.716 546.502 229.08 545.862C228.445 545.223 227.689 544.715 226.856 544.368C226.023 544.022 225.13 543.844 224.228 543.844C223.326 543.844 222.433 544.022 221.6 544.368C220.768 544.715 220.012 545.223 219.376 545.862C218.74 546.502 218.237 547.261 217.896 548.096C217.554 548.931 217.381 549.825 217.387 550.727V554.012C217.388 554.068 217.378 554.124 217.358 554.176C217.337 554.228 217.306 554.276 217.267 554.316C217.228 554.356 217.181 554.388 217.13 554.41C217.078 554.432 217.022 554.443 216.966 554.443C216.91 554.443 216.854 554.432 216.803 554.41C216.751 554.388 216.704 554.356 216.665 554.316C216.626 554.276 216.595 554.228 216.575 554.176C216.554 554.124 216.544 554.068 216.546 554.012V550.727C216.54 549.714 216.734 548.71 217.118 547.773C217.501 546.836 218.066 545.984 218.78 545.266C219.494 544.548 220.343 543.978 221.278 543.589C222.213 543.2 223.216 543 224.228 543C225.241 543 226.243 543.2 227.178 543.589C228.113 543.978 228.962 544.548 229.676 545.266C230.39 545.984 230.955 546.836 231.339 547.773C231.722 548.71 231.917 549.714 231.911 550.727V554.012C231.911 554.124 231.866 554.231 231.788 554.31C231.709 554.388 231.602 554.433 231.49 554.433Z"/>
</mask>
<path d="M231.49 554.433C231.378 554.433 231.272 554.388 231.193 554.309C231.114 554.231 231.07 554.124 231.07 554.012V550.727C231.075 549.825 230.902 548.931 230.561 548.096C230.219 547.261 229.716 546.502 229.08 545.862C228.445 545.223 227.689 544.715 226.856 544.368C226.023 544.022 225.13 543.844 224.228 543.844C223.326 543.844 222.433 544.022 221.6 544.368C220.768 544.715 220.012 545.223 219.376 545.862C218.74 546.502 218.237 547.261 217.896 548.096C217.554 548.931 217.381 549.825 217.387 550.727V554.012C217.388 554.068 217.378 554.124 217.358 554.176C217.337 554.228 217.306 554.276 217.267 554.316C217.228 554.356 217.181 554.388 217.13 554.41C217.078 554.432 217.022 554.443 216.966 554.443C216.91 554.443 216.854 554.432 216.803 554.41C216.751 554.388 216.704 554.356 216.665 554.316C216.626 554.276 216.595 554.228 216.575 554.176C216.554 554.124 216.544 554.068 216.546 554.012V550.727C216.54 549.714 216.734 548.71 217.118 547.773C217.501 546.836 218.066 545.984 218.78 545.266C219.494 544.548 220.343 543.978 221.278 543.589C222.213 543.2 223.216 543 224.228 543C225.241 543 226.243 543.2 227.178 543.589C228.113 543.978 228.962 544.548 229.676 545.266C230.39 545.984 230.955 546.836 231.339 547.773C231.722 548.71 231.917 549.714 231.911 550.727V554.012C231.911 554.124 231.866 554.231 231.788 554.31C231.709 554.388 231.602 554.433 231.49 554.433Z" fill="#494945"/>
<path d="M231.49 554.433L231.489 555.433H231.49V554.433ZM231.07 554.012H232.07H231.07ZM231.07 550.727L230.07 550.721V550.727H231.07ZM217.387 550.727H218.387L218.387 550.721L217.387 550.727ZM217.387 554.012H216.387V554.024L216.387 554.036L217.387 554.012ZM216.546 554.012L217.545 554.036L217.546 554.024V554.012H216.546ZM216.546 550.727H217.546L217.546 550.721L216.546 550.727ZM231.911 550.727L230.911 550.721V550.727H231.911ZM231.911 554.012H232.911H231.911ZM231.491 553.433C231.644 553.433 231.791 553.494 231.9 553.603L230.485 555.016C230.752 555.283 231.113 555.433 231.489 555.433L231.491 553.433ZM231.9 553.603C232.009 553.711 232.07 553.858 232.07 554.012H230.07C230.07 554.389 230.219 554.75 230.485 555.016L231.9 553.603ZM232.07 554.012V550.727H230.07V554.012H232.07ZM232.07 550.733C232.076 549.699 231.878 548.674 231.486 547.717L229.635 548.474C229.927 549.187 230.074 549.95 230.07 550.721L232.07 550.733ZM231.486 547.717C231.095 546.76 230.518 545.89 229.79 545.157L228.371 546.567C228.914 547.113 229.344 547.761 229.635 548.474L231.486 547.717ZM229.79 545.157C229.061 544.424 228.194 543.842 227.24 543.445L226.472 545.292C227.183 545.588 227.828 546.021 228.371 546.567L229.79 545.157ZM227.24 543.445C226.285 543.048 225.262 542.844 224.228 542.844V544.844C224.998 544.844 225.761 544.996 226.472 545.292L227.24 543.445ZM224.228 542.844C223.194 542.844 222.171 543.048 221.216 543.445L221.985 545.292C222.696 544.996 223.458 544.844 224.228 544.844V542.844ZM221.216 543.445C220.262 543.842 219.395 544.424 218.667 545.157L220.085 546.567C220.628 546.021 221.274 545.588 221.985 545.292L221.216 543.445ZM218.667 545.157C217.938 545.89 217.361 546.76 216.97 547.717L218.821 548.474C219.113 547.761 219.542 547.113 220.085 546.567L218.667 545.157ZM216.97 547.717C216.579 548.674 216.381 549.699 216.387 550.733L218.387 550.721C218.382 549.95 218.53 549.187 218.821 548.474L216.97 547.717ZM216.387 550.727V554.012H218.387V550.727H216.387ZM216.387 554.036C216.385 553.959 216.399 553.882 216.427 553.81L218.288 554.542C218.358 554.366 218.391 554.177 218.386 553.988L216.387 554.036ZM216.427 553.81C216.455 553.739 216.498 553.673 216.552 553.618L217.983 555.015C218.115 554.879 218.219 554.718 218.288 554.542L216.427 553.81ZM216.552 553.618C216.606 553.563 216.67 553.519 216.741 553.489L217.518 555.332C217.693 555.258 217.851 555.15 217.983 555.015L216.552 553.618ZM216.741 553.489C216.813 553.458 216.889 553.443 216.966 553.443V555.443C217.156 555.443 217.343 555.405 217.518 555.332L216.741 553.489ZM216.966 553.443C217.043 553.443 217.12 553.458 217.191 553.489L216.414 555.332C216.589 555.405 216.777 555.443 216.966 555.443V553.443ZM217.191 553.489C217.262 553.519 217.327 553.563 217.381 553.618L215.949 555.015C216.082 555.15 216.24 555.258 216.414 555.332L217.191 553.489ZM217.381 553.618C217.435 553.673 217.477 553.739 217.505 553.81L215.644 554.542C215.713 554.718 215.817 554.879 215.949 555.015L217.381 553.618ZM217.505 553.81C217.534 553.882 217.547 553.959 217.545 554.036L215.546 553.988C215.541 554.177 215.575 554.366 215.644 554.542L217.505 553.81ZM217.546 554.012V550.727H215.546V554.012H217.546ZM217.546 550.721C217.54 549.84 217.71 548.967 218.043 548.152L216.192 547.394C215.759 548.454 215.539 549.588 215.546 550.732L217.546 550.721ZM218.043 548.152C218.377 547.337 218.868 546.595 219.489 545.971L218.071 544.561C217.264 545.372 216.626 546.335 216.192 547.394L218.043 548.152ZM219.489 545.971C220.11 545.346 220.849 544.851 221.662 544.512L220.894 542.666C219.837 543.105 218.878 543.749 218.071 544.561L219.489 545.971ZM221.662 544.512C222.475 544.174 223.347 544 224.228 544V542C223.084 542 221.951 542.226 220.894 542.666L221.662 544.512ZM224.228 544C225.109 544 225.981 544.174 226.794 544.512L227.562 542.666C226.506 542.226 225.373 542 224.228 542V544ZM226.794 544.512C227.608 544.851 228.346 545.346 228.967 545.971L230.385 544.561C229.578 543.749 228.619 543.105 227.562 542.666L226.794 544.512ZM228.967 545.971C229.588 546.595 230.08 547.337 230.413 548.152L232.264 547.394C231.831 546.335 231.192 545.372 230.385 544.561L228.967 545.971ZM230.413 548.152C230.747 548.967 230.916 549.84 230.911 550.721L232.911 550.732C232.917 549.588 232.698 548.454 232.264 547.394L230.413 548.152ZM230.911 550.727V554.012H232.911V550.727H230.911ZM230.911 554.012C230.911 553.858 230.972 553.711 231.08 553.602L232.495 555.017C232.761 554.75 232.911 554.389 232.911 554.012H230.911ZM231.08 553.602C231.189 553.494 231.336 553.433 231.49 553.433V555.433C231.867 555.433 232.228 555.283 232.495 555.017L231.08 553.602Z" fill="black" mask="url(#path-12-inside-2_61_745)"/>
</g>
<path id="Vector_12" opacity="0.11" d="M249.161 551.673L245.882 555.205L242.602 551.673H249.161Z" fill="#0A0A0A" stroke="black"/>
<path id="Vector_13" opacity="0.11" d="M249.161 598.451H242.602L245.882 594.919L249.161 598.451Z" fill="#0A0A0A" stroke="black"/>
</g>
<g id="compare">
<path id="Vector_14" d="M353.107 1.05469H15.7629C7.47867 1.05469 0.762939 13.2905 0.762939 28.3842V478.388C0.762939 493.482 7.47867 505.718 15.7629 505.718H353.107C361.391 505.718 368.107 493.482 368.107 478.388V28.3842C368.107 13.2905 361.391 1.05469 353.107 1.05469Z" fill="white"/>
<path id="Vector_15" d="M368.107 14.5096V28.0518H0.765015V14.5096C0.765015 10.9404 2.34537 7.5173 5.15842 4.99347C7.97146 2.46963 11.7868 1.05176 15.765 1.05176H353.107C357.085 1.05176 360.901 2.46963 363.714 4.99347C366.527 7.5173 368.107 10.9404 368.107 14.5096Z" fill="#292A2E"/>
<g id="Phone1">
<g id="Phone">
<path id="Vector_16" d="M137.299 47H63.982C57.9168 47 53 51.9168 53 57.982V230.334C53 236.399 57.9168 241.316 63.982 241.316H137.299C143.364 241.316 148.281 236.399 148.281 230.334V57.982C148.281 51.9168 143.364 47 137.299 47Z" fill="#292A2E"/>
<path id="Vector_17" d="M137.265 50.4292H64.0165C59.8517 50.4292 56.4755 53.8054 56.4755 57.9702V230.089C56.4755 234.254 59.8517 237.63 64.0165 237.63H137.265C141.43 237.63 144.806 234.254 144.806 230.089V57.9702C144.806 53.8054 141.43 50.4292 137.265 50.4292Z" fill="white"/>
<path id="Vector_18" d="M82.55 49.0115H118.73V52.7552C118.73 53.8288 118.304 54.8584 117.545 55.6176C116.786 56.3768 115.756 56.8035 114.683 56.8037H86.5985C85.5248 56.8037 84.4951 56.3772 83.7358 55.6179C82.9766 54.8587 82.55 53.829 82.55 52.7552V49.0115Z" fill="#292A2E"/>
<g id="Image">
<path id="Vector_19" d="M132.233 146.75V193.963H71.5711L69.2552 190.96V146.75H132.233Z" fill="#D9D9D9" stroke="black"/>
<g id="Group">
<path id="Vector_20" d="M87.8118 170.761L99.1037 179.433H77.8468L87.8118 170.761Z" fill="white" stroke="black"/>
<path id="Vector_21" d="M109.82 166.167L123.729 179.433H91.3476L109.82 166.167Z" fill="white" stroke="black"/>
<path id="Vector_22" d="M98.3285 163.274C98.3285 164.375 97.4355 165.268 96.334 165.268C95.2324 165.268 94.3395 164.375 94.3395 163.274C94.3395 162.172 95.2324 161.279 96.334 161.279C97.4355 161.279 98.3285 162.172 98.3285 163.274Z" fill="white" stroke="black"/>
</g>
</g>
</g>
<g id="green">
<path id="Vector_23" d="M173.946 263H49V270.043H173.946V263Z" fill="#DEE8F5"/>
<path id="Vector_24" d="M153.899 263H49V270.043H153.899V263Z" fill="#BABABA"/>
<path id="Vector_25" d="M173.946 281.626H49V288.669H173.946V281.626Z" fill="#DEE8F5"/>
<path id="Vector_26" d="M111.473 281.626H49V288.669H111.473V281.626Z" fill="#BABABA"/>
<path id="Vector_27" d="M173.946 301.378H49V308.421H173.946V301.378Z" fill="#DEE8F5"/>
<path id="Vector_28" d="M159.086 301.378H49V308.421H159.086V301.378Z" fill="#BABABA"/>
</g>
<g id="green_2">
<path id="Vector_29" d="M173.946 322H49V329.043H173.946V322Z" fill="#DEE8F5"/>
<path id="Vector_30" d="M153.899 322H49V329.043H153.899V322Z" fill="#BABABA"/>
<path id="Vector_31" d="M173.946 340.626H49V347.669H173.946V340.626Z" fill="#DEE8F5"/>
<path id="Vector_32" d="M111.473 340.626H49V347.669H111.473V340.626Z" fill="#BABABA"/>
<path id="Vector_33" d="M173.946 360.378H49V367.421H173.946V360.378Z" fill="#DEE8F5"/>
<path id="Vector_34" d="M159.086 360.378H49V367.421H159.086V360.378Z" fill="#BABABA"/>
</g>
<g id="BtnBuyBlue">
<path id="Vector_35" opacity="0.8" d="M82.5639 404.5H125.341C127.586 404.5 129.405 406.319 129.405 408.564V420.819C129.405 423.063 127.586 424.883 125.341 424.883H82.5639C80.3195 424.883 78.5 423.063 78.5 420.819V408.564C78.5 406.319 80.3195 404.5 82.5639 404.5Z" fill="#D9D9D9" stroke="black"/>
<path id="Vector_36" d="M129.904 420.819V422.919C129.904 423.518 129.786 424.112 129.556 424.665C129.327 425.219 128.991 425.722 128.567 426.146C128.143 426.57 127.64 426.906 127.087 427.135C126.533 427.365 125.939 427.483 125.34 427.482H82.5636C81.9643 427.483 81.3708 427.365 80.8171 427.135C80.2634 426.906 79.7603 426.57 79.3365 426.146C78.9127 425.722 78.5765 425.219 78.3472 424.665C78.1179 424.112 77.9999 423.518 78 422.919V420.819C78 422.029 78.4807 423.19 79.3365 424.045C80.1922 424.901 81.3528 425.382 82.563 425.382H125.34C125.939 425.382 126.533 425.264 127.086 425.035C127.64 424.805 128.143 424.469 128.567 424.046C128.991 423.622 129.327 423.119 129.556 422.565C129.786 422.012 129.904 421.418 129.904 420.819Z" fill="#D9D9D9"/>
<path id="Vector_37" d="M101.1 420.508H101.1C101.04 420.508 100.982 420.487 100.937 420.448L96.0413 416.253L96.0412 416.252C95.9907 416.209 95.9595 416.148 95.9544 416.081C95.9492 416.015 95.9706 415.95 96.0138 415.899C96.057 415.849 96.1185 415.818 96.1847 415.812C96.2509 415.807 96.3164 415.829 96.3669 415.872C96.3669 415.872 96.3669 415.872 96.3669 415.872L100.711 419.595L101.079 419.911L101.406 419.553L111.516 408.492L111.516 408.492C111.561 408.443 111.623 408.414 111.689 408.411C111.755 408.408 111.82 408.431 111.869 408.476C111.918 408.521 111.947 408.583 111.95 408.649C111.953 408.715 111.93 408.78 111.885 408.829L101.286 420.426L101.285 420.427C101.262 420.452 101.233 420.473 101.202 420.487C101.17 420.501 101.135 420.508 101.1 420.508Z" fill="white" stroke="black"/>
</g>
</g>
<path id="Vector_38" d="M353.107 506.629H15.7629C11.6535 506.62 7.71383 503.642 4.80804 498.347C1.90226 493.053 0.267703 485.875 0.262939 478.388V28.3843C0.267703 20.8971 1.90226 13.7191 4.80804 8.42485C7.71383 3.1306 11.6535 0.152479 15.7629 0.143799H353.107C357.217 0.152479 361.157 3.1306 364.062 8.42485C366.968 13.7191 368.603 20.8971 368.607 28.3843V478.388C368.603 485.875 366.968 493.053 364.062 498.347C361.157 503.642 357.217 506.62 353.107 506.629ZM15.7629 1.96577C11.9186 1.97348 8.23292 4.75934 5.51456 9.71211C2.7962 14.6649 1.26717 21.3801 1.26294 28.3843V478.388C1.26731 485.392 2.79639 492.107 5.51472 497.06C8.23305 502.013 11.9186 504.799 15.7629 504.807H353.107C356.952 504.798 360.637 502.012 363.356 497.06C366.074 492.107 367.603 485.392 367.607 478.388V28.3843C367.603 21.3801 366.074 14.6651 363.356 9.71238C360.637 4.75966 356.952 1.97373 353.107 1.96577H15.7629Z" fill="#292A2E"/>
<g id="Phone2">
<g id="Phone_2">
<path id="Vector_39" d="M307.299 43H233.982C227.917 43 223 47.9168 223 53.982V226.334C223 232.399 227.917 237.316 233.982 237.316H307.299C313.364 237.316 318.281 232.399 318.281 226.334V53.982C318.281 47.9168 313.364 43 307.299 43Z" fill="#292A2E"/>
<path id="Vector_40" d="M307.265 46.4292H234.016C229.852 46.4292 226.475 49.8054 226.475 53.9702V226.089C226.475 230.254 229.852 233.63 234.016 233.63H307.265C311.43 233.63 314.806 230.254 314.806 226.089V53.9702C314.806 49.8054 311.43 46.4292 307.265 46.4292Z" fill="white"/>
<path id="Vector_41" d="M252.55 45.0115H288.73V48.7552C288.73 49.8288 288.304 50.8584 287.545 51.6176C286.786 52.3768 285.756 52.8035 284.683 52.8037H256.599C255.525 52.8037 254.495 52.3772 253.736 51.6179C252.977 50.8587 252.55 49.829 252.55 48.7552V45.0115Z" fill="#292A2E"/>
<g id="Image_2">
<path id="Vector_42" d="M302.233 82.75V129.963H241.571L239.255 126.96V82.75H302.233Z" fill="#D9D9D9" stroke="black"/>
<g id="Group_2">
<path id="Vector_43" d="M257.812 106.761L269.104 115.433H247.847L257.812 106.761Z" fill="white" stroke="black"/>
<path id="Vector_44" d="M279.82 102.167L293.729 115.433H261.348L279.82 102.167Z" fill="white" stroke="black"/>
<path id="Vector_45" d="M268.328 99.2738C268.328 100.375 267.436 101.268 266.334 101.268C265.232 101.268 264.339 100.375 264.339 99.2738C264.339 98.1723 265.232 97.2793 266.334 97.2793C267.436 97.2793 268.328 98.1723 268.328 99.2738Z" fill="white" stroke="black"/>
</g>
</g>
</g>
<g id="black">
<path id="Vector_46" d="M341.946 258H217V265.043H341.946V258Z" fill="#DEE8F5"/>
<path id="Vector_47" d="M286.151 258H217V265.043H286.151V258Z" fill="#262626"/>
<path id="Vector_48" d="M341.946 276.626H217V283.669H341.946V276.626Z" fill="#DEE8F5"/>
<path id="Vector_49" d="M320.195 276.626H217V283.669H320.195V276.626Z" fill="#262626"/>
<path id="Vector_50" d="M341.946 296.378H217V303.421H341.946V296.378Z" fill="#DEE8F5"/>
<path id="Vector_51" d="M296.195 296.378H217V303.421H296.195V296.378Z" fill="#262626"/>
</g>
<g id="black_2">
<path id="Vector_52" d="M341.946 317H217V324.043H341.946V317Z" fill="#DEE8F5"/>
<path id="Vector_53" d="M286.151 317H217V324.043H286.151V317Z" fill="#262626"/>
<path id="Vector_54" d="M341.946 335.626H217V342.669H341.946V335.626Z" fill="#DEE8F5"/>
<path id="Vector_55" d="M320.195 335.626H217V342.669H320.195V335.626Z" fill="#262626"/>
<path id="Vector_56" d="M341.946 355.378H217V362.421H341.946V355.378Z" fill="#DEE8F5"/>
<path id="Vector_57" d="M296.195 355.378H217V362.421H296.195V355.378Z" fill="#262626"/>
</g>
<g id="BtnBuyBlue_2">
<path id="Vector_58" opacity="0.8" d="M236.564 404.5H279.341C281.586 404.5 283.405 406.319 283.405 408.564V420.819C283.405 423.063 281.586 424.883 279.341 424.883H236.564C234.319 424.883 232.5 423.063 232.5 420.819V408.564C232.5 406.319 234.319 404.5 236.564 404.5Z" fill="#D9D9D9" stroke="black"/>
<path id="Vector_59" d="M283.904 420.819V422.919C283.904 423.518 283.786 424.112 283.556 424.665C283.327 425.219 282.991 425.722 282.567 426.146C282.143 426.57 281.64 426.906 281.087 427.135C280.533 427.365 279.939 427.483 279.34 427.482H236.564C235.964 427.483 235.371 427.365 234.817 427.135C234.263 426.906 233.76 426.57 233.336 426.146C232.913 425.722 232.577 425.219 232.347 424.665C232.118 424.112 232 423.518 232 422.919V420.819C232 422.029 232.481 423.19 233.336 424.045C234.192 424.901 235.353 425.382 236.563 425.382H279.34C279.939 425.382 280.533 425.264 281.086 425.035C281.64 424.805 282.143 424.469 282.567 424.046C282.991 423.622 283.327 423.119 283.556 422.565C283.786 422.012 283.904 421.418 283.904 420.819Z" fill="#D9D9D9"/>
<path id="Vector_60" d="M255.1 420.508H255.1C255.04 420.508 254.982 420.487 254.937 420.448L250.041 416.253L250.041 416.252C249.991 416.209 249.959 416.148 249.954 416.081C249.949 416.015 249.971 415.95 250.014 415.899C250.057 415.849 250.118 415.818 250.185 415.812C250.251 415.807 250.316 415.829 250.367 415.872C250.367 415.872 250.367 415.872 250.367 415.872L254.711 419.595L255.079 419.911L255.406 419.553L265.516 408.492L265.516 408.492C265.561 408.443 265.623 408.414 265.689 408.411C265.755 408.408 265.82 408.431 265.869 408.476C265.918 408.521 265.947 408.583 265.95 408.649C265.953 408.715 265.93 408.78 265.885 408.829L255.286 420.426L255.285 420.427C255.262 420.452 255.233 420.473 255.202 420.487C255.17 420.501 255.135 420.508 255.1 420.508Z" fill="white" stroke="black"/>
</g>
<g id="Selected">
<g id="Group_3">
<g id="Group_4">
<path id="Vector_61" d="M203.889 408.751C203.799 408.751 203.71 408.733 203.626 408.699C203.543 408.664 203.467 408.614 203.404 408.55L200.201 405.347C200.076 405.217 200.007 405.044 200.008 404.864C200.01 404.684 200.082 404.512 200.209 404.385C200.337 404.258 200.509 404.185 200.689 404.184C200.869 404.182 201.042 404.251 201.171 404.376L204.374 407.579C204.47 407.675 204.535 407.798 204.562 407.931C204.588 408.064 204.575 408.202 204.523 408.327C204.471 408.452 204.383 408.56 204.27 408.635C204.157 408.71 204.025 408.751 203.889 408.751Z" fill="#050505" fill-opacity="0.66"/>
<path id="Vector_62" d="M200.686 408.751C200.55 408.751 200.418 408.71 200.305 408.635C200.192 408.56 200.104 408.452 200.052 408.327C200 408.202 199.987 408.064 200.013 407.931C200.04 407.798 200.105 407.675 200.201 407.579L203.404 404.376C203.533 404.251 203.707 404.182 203.886 404.184C204.066 404.185 204.239 404.258 204.366 404.385C204.493 404.512 204.565 404.684 204.567 404.864C204.568 405.044 204.499 405.217 204.374 405.347L201.171 408.55C201.108 408.614 201.032 408.664 200.949 408.699C200.866 408.733 200.776 408.751 200.686 408.751Z" fill="#050505" fill-opacity="0.66"/>
</g>
<path id="Vector_63" d="M295.591 439.362L294.676 441.459L300.303 443.912L301.217 441.815L295.591 439.362Z" fill="#050505" fill-opacity="0.66"/>
<path id="Vector_64" d="M297.367 383.14L292.075 386.25L293.234 388.222L298.526 385.113L297.367 383.14Z" fill="#050505" fill-opacity="0.66"/>
<path id="Vector_65" d="M209.188 388.465L208.479 390.64L214.315 392.542L215.024 390.367L209.188 388.465Z" fill="#050505" fill-opacity="0.66"/>
<path id="Vector_66" d="M216.02 424.947L210.993 428.464L212.304 430.338L217.331 426.821L216.02 424.947Z" fill="#050505" fill-opacity="0.66"/>
<path id="Vector_67" d="M308.217 416.886L308.007 419.164L313.985 419.715L314.195 417.437L308.217 416.886Z" fill="#050505" fill-opacity="0.66"/>
<g id="Group_5">
<path id="Vector_68" d="M314.305 400.499C314.215 400.499 314.126 400.482 314.043 400.447C313.959 400.413 313.884 400.362 313.82 400.298L310.617 397.095C310.552 397.032 310.5 396.956 310.464 396.873C310.428 396.789 310.409 396.699 310.408 396.608C310.407 396.517 310.425 396.426 310.459 396.342C310.494 396.258 310.545 396.181 310.609 396.117C310.673 396.052 310.75 396.001 310.834 395.967C310.919 395.932 311.009 395.915 311.1 395.916C311.191 395.916 311.281 395.935 311.365 395.971C311.449 396.007 311.525 396.06 311.588 396.125L314.791 399.328C314.887 399.424 314.952 399.546 314.978 399.679C315.005 399.812 314.991 399.95 314.939 400.076C314.887 400.201 314.8 400.308 314.687 400.384C314.574 400.459 314.441 400.499 314.305 400.499Z" fill="#050505" fill-opacity="0.66"/>
<path id="Vector_69" d="M311.102 400.499C310.967 400.499 310.834 400.459 310.721 400.384C310.608 400.308 310.52 400.201 310.468 400.076C310.417 399.95 310.403 399.812 310.429 399.679C310.456 399.546 310.521 399.424 310.617 399.328L313.82 396.125C313.883 396.06 313.959 396.007 314.043 395.971C314.126 395.935 314.217 395.916 314.308 395.916C314.399 395.915 314.489 395.932 314.574 395.967C314.658 396.001 314.734 396.052 314.799 396.117C314.863 396.181 314.914 396.258 314.949 396.342C314.983 396.426 315.001 396.517 315 396.608C314.999 396.699 314.98 396.789 314.944 396.873C314.908 396.956 314.856 397.032 314.79 397.095L311.588 400.298C311.524 400.362 311.448 400.413 311.365 400.447C311.282 400.482 311.193 400.499 311.102 400.499Z" fill="#050505" fill-opacity="0.66"/>
</g>
</g>
<path id="Vector_70" opacity="0.4" d="M257.925 449.991C278.081 449.991 294.42 433.651 294.42 413.495C294.42 393.34 278.081 377 257.925 377C237.769 377 221.43 393.34 221.43 413.495C221.43 433.651 237.769 449.991 257.925 449.991Z" fill="#050505" fill-opacity="0.66"/>
<path id="Vector_71" d="M257.925 439.018C272.021 439.018 283.448 427.591 283.448 413.495C283.448 399.399 272.021 387.972 257.925 387.972C243.829 387.972 232.402 399.399 232.402 413.495C232.402 427.591 243.829 439.018 257.925 439.018Z" fill="#050505" fill-opacity="0.66"/>
<path id="Vector_72" d="M252.706 424.445C252.505 424.445 252.307 424.405 252.123 424.326C251.938 424.247 251.772 424.132 251.633 423.987L243.51 415.533C243.372 415.393 243.263 415.226 243.19 415.044C243.117 414.861 243.081 414.666 243.083 414.469C243.086 414.273 243.128 414.079 243.206 413.898C243.285 413.718 243.398 413.555 243.54 413.418C243.682 413.282 243.849 413.175 244.033 413.104C244.216 413.033 244.412 412.999 244.608 413.004C244.805 413.009 244.998 413.053 245.178 413.133C245.357 413.214 245.519 413.329 245.654 413.472L252.782 420.891L271.419 404.173C271.564 404.04 271.734 403.937 271.918 403.871C272.103 403.804 272.299 403.775 272.496 403.785C272.692 403.794 272.884 403.843 273.062 403.927C273.239 404.012 273.398 404.131 273.529 404.277C273.66 404.423 273.761 404.594 273.826 404.779C273.891 404.965 273.918 405.161 273.907 405.357C273.895 405.554 273.845 405.746 273.759 405.922C273.672 406.099 273.552 406.256 273.405 406.386L253.699 424.064C253.426 424.309 253.073 424.445 252.706 424.445Z" fill="white"/>
</g>
</g>
</g>
<g id="girl">
<g id="righthand">
<path id="Vector_73" d="M227.078 411.667C227.049 411.577 227.053 411.479 227.088 411.392C227.127 411.312 227.194 411.249 227.276 411.215C227.36 411.179 227.455 411.176 227.541 411.207L228.402 411.508L228.213 410.705L228.237 410.451L227.977 410.287L227.72 410.125L227.72 410.125L227.713 410.12C227.636 410.073 227.577 410.001 227.547 409.916C227.518 409.833 227.517 409.742 227.546 409.659C227.566 409.609 227.596 409.565 227.634 409.528C227.674 409.49 227.721 409.461 227.773 409.444C227.825 409.427 227.881 409.421 227.935 409.428C227.99 409.435 228.042 409.453 228.088 409.482L228.682 409.857L229.177 410.171L229.384 409.687L229.631 409.379L229.315 409.062C229.256 409.003 229.219 408.925 229.209 408.842C229.2 408.759 229.219 408.675 229.264 408.604L229.272 408.59L229.28 408.576C229.298 408.543 229.331 408.507 229.442 408.501C229.559 408.494 229.702 408.532 229.813 408.598L230.945 409.441C231.056 409.524 231.145 409.634 231.204 409.759C231.262 409.885 231.289 410.023 231.282 410.162L231.282 410.162C231.231 411.115 231.11 412.812 230.854 414.166C230.724 414.855 230.568 415.399 230.398 415.715C230.356 415.792 230.322 415.84 230.298 415.868L227.326 413.992C227.246 413.937 227.186 413.858 227.155 413.766C227.125 413.676 227.125 413.579 227.154 413.49C227.187 413.416 227.241 413.354 227.311 413.313C227.383 413.27 227.468 413.252 227.552 413.261L228.108 413.324V413.216L229.374 413.228L227.888 412.289L227.263 411.894L227.263 411.894L227.254 411.888C227.17 411.838 227.108 411.759 227.078 411.667ZM228.1 412.676C228.1 412.673 228.1 412.675 228.101 412.679L228.101 412.678L228.1 412.676Z" fill="#E98862" stroke="black"/>
<path id="Vector_74" d="M223.89 422.294C223.724 422.261 223.576 422.23 223.452 422.203L225.022 411.289C225.022 411.289 225.022 411.289 225.022 411.289C225.033 411.211 225.06 411.136 225.102 411.068C225.143 411.001 225.198 410.942 225.262 410.896C225.327 410.851 225.4 410.819 225.478 410.802C225.552 410.786 225.629 410.785 225.704 410.799C225.855 410.837 225.986 410.929 226.072 411.058C226.16 411.19 226.194 411.35 226.169 411.506L226.163 411.542L226.162 411.578L226.132 413.113C226.132 413.113 226.132 413.113 226.132 413.113C226.124 413.56 226.279 413.994 226.568 414.335C226.858 414.675 227.262 414.897 227.705 414.96C228.139 415.022 228.58 414.925 228.949 414.689C229.317 414.453 229.589 414.092 229.715 413.673L229.715 413.672L230.498 411.052L230.565 410.826L230.434 410.63L229.746 409.603C229.783 409.52 229.818 409.437 229.849 409.362C229.858 409.34 229.867 409.318 229.876 409.297C229.942 409.135 230.001 408.992 230.063 408.868C230.078 408.84 230.091 408.816 230.103 408.795C230.307 408.927 230.575 409.109 230.826 409.316C231.122 409.558 231.341 409.79 231.443 409.975C231.447 410.011 231.451 410.057 231.457 410.113C231.47 410.259 231.489 410.468 231.511 410.721C231.555 411.226 231.61 411.904 231.657 412.595C231.703 413.287 231.74 413.986 231.749 414.536C231.753 414.812 231.75 415.042 231.739 415.21C231.733 415.295 231.726 415.355 231.719 415.393C231.719 415.394 231.719 415.395 231.718 415.396L231.717 415.398L231.7 415.444L229.275 421.931C229.084 422.205 228.692 422.415 228.071 422.53C227.438 422.647 226.671 422.645 225.909 422.582C225.153 422.519 224.428 422.399 223.89 422.294ZM231.713 415.42C231.713 415.42 231.713 415.419 231.714 415.416C231.713 415.419 231.713 415.42 231.713 415.42Z" fill="#E98862" stroke="black"/>
<path id="Vector_75" d="M218.196 453.239L218.168 453.238L218.141 453.241L183.376 456.166L182.5 442.954L213.023 440.818L213.359 440.795L213.464 440.475L221.455 416.168L232.616 420.555L223.522 449.057C222.609 451.364 220.498 453.3 218.196 453.239Z" fill="#D9D9D9" stroke="black"/>
</g>
<g id="body">
<path id="Vector_76" d="M172.929 603.229C172.924 603.308 172.917 603.381 172.909 603.447H152.893V593.968L162.043 593.596C162.086 593.751 162.144 593.943 162.22 594.163C162.421 594.743 162.749 595.523 163.259 596.316C164.284 597.909 166.063 599.58 169.008 599.756C170.312 599.834 171.17 600.149 171.735 600.539C172.295 600.926 172.6 601.409 172.764 601.887C172.93 602.372 172.952 602.857 172.929 603.229Z" fill="#D9D9D9" stroke="black"/>
<path id="Vector_77" d="M177.993 486.258L156.525 486.833C156.528 487.232 156.528 487.796 156.525 488.58M177.993 486.258L156.525 488.58M177.993 486.258L164.782 596.202L151.996 596.309L151.998 596.27L152.082 594.642C152.156 593.233 152.261 591.201 152.391 588.713C152.651 583.736 153.007 576.935 153.396 569.634C154.173 555.03 155.076 538.431 155.583 530.439C156.215 520.474 156.474 503.462 156.525 488.58M177.993 486.258L156.525 488.58" fill="#262626" stroke="black"/>
<path id="Vector_78" d="M172.967 528.086C172.919 524.302 172.829 520.72 172.683 517.211C172.636 516.075 172.496 513.288 172.356 510.555C172.664 511.954 172.952 513.191 173.204 514.238C173.502 515.477 173.751 516.451 173.926 517.116C174.013 517.449 174.081 517.704 174.128 517.877C174.147 517.946 174.162 518.001 174.174 518.044L172.967 528.086Z" fill="#0A0A0A" stroke="black"/>
<path id="Vector_79" d="M197.419 603.229C197.414 603.308 197.407 603.381 197.4 603.447H177.383V593.968L186.533 593.596C186.576 593.751 186.634 593.943 186.71 594.163C186.911 594.743 187.239 595.523 187.75 596.316C188.774 597.909 190.553 599.58 193.498 599.756C194.802 599.834 195.66 600.149 196.225 600.539C196.786 600.926 197.091 601.409 197.254 601.887C197.42 602.372 197.442 602.857 197.419 603.229Z" fill="#D9D9D9" stroke="black"/>
<path id="Vector_80" d="M176.488 596.168L177.795 538.854L177.795 538.833L177.794 538.813L177.295 538.842C177.794 538.813 177.794 538.813 177.794 538.813L177.794 538.812L177.794 538.81L177.794 538.801L177.791 538.765L177.783 538.627C177.775 538.506 177.763 538.326 177.746 538.092C177.713 537.625 177.662 536.941 177.588 536.075C177.44 534.343 177.203 531.88 176.845 528.953C176.129 523.101 174.929 515.385 172.994 507.948C171.08 500.567 169.908 493.013 169.498 485.4L193.092 487.953L193.095 488.087L193.134 489.705C193.167 491.101 193.214 493.097 193.269 495.501C193.381 500.308 193.528 506.743 193.669 513.256C193.81 519.77 193.945 526.36 194.035 531.477C194.124 536.602 194.165 540.206 194.123 540.812C194.123 540.814 194.123 540.816 194.123 540.817L189.049 595.936L176.488 596.168Z" fill="#262626" stroke="black"/>
<g id="Vector_81">
<mask id="path-83-inside-3_61_745" fill="white">
<path d="M155.824 486.346L155.779 486.348C155.779 486.348 155.811 485.48 155.824 486.346Z"/>
</mask>
<path d="M155.824 486.346L155.779 486.348C155.779 486.348 155.811 485.48 155.824 486.346Z" fill="#333333"/>
<path d="M155.824 486.346L155.879 487.344L156.837 487.291L156.823 486.332L155.824 486.346ZM155.779 486.348L154.779 486.31L154.738 487.408L155.834 487.347L155.779 486.348ZM155.768 485.347L155.723 485.35L155.834 487.347L155.879 487.344L155.768 485.347ZM155.779 486.348C156.778 486.386 156.778 486.386 156.778 486.386C156.778 486.386 156.778 486.386 156.778 486.386C156.778 486.386 156.778 486.386 156.778 486.386C156.778 486.386 156.778 486.386 156.778 486.386C156.778 486.385 156.778 486.385 156.778 486.384C156.778 486.383 156.778 486.381 156.778 486.378C156.778 486.373 156.779 486.364 156.779 486.354C156.78 486.334 156.781 486.305 156.783 486.274C156.786 486.206 156.79 486.143 156.793 486.111C156.793 486.104 156.793 486.107 156.792 486.117C156.791 486.121 156.79 486.133 156.787 486.149C156.785 486.161 156.778 486.198 156.764 486.247C156.757 486.271 156.742 486.318 156.716 486.375C156.699 486.413 156.635 486.555 156.491 486.69C156.412 486.765 156.275 486.869 156.076 486.925C155.859 486.985 155.634 486.97 155.436 486.89C155.254 486.818 155.135 486.709 155.068 486.635C154.999 486.56 154.956 486.489 154.931 486.445C154.884 486.358 154.86 486.284 154.851 486.253C154.84 486.216 154.833 486.186 154.83 486.168C154.823 486.134 154.819 486.107 154.818 486.099C154.815 486.073 154.817 486.072 154.819 486.132C154.82 486.182 154.822 486.255 154.824 486.36L156.823 486.332C156.821 486.135 156.817 485.967 156.804 485.863C156.802 485.844 156.798 485.81 156.789 485.77C156.788 485.761 156.764 485.627 156.684 485.481C156.657 485.432 156.514 485.167 156.178 485.033C155.699 484.842 155.299 485.066 155.12 485.234C154.976 485.369 154.911 485.513 154.894 485.551C154.867 485.61 154.852 485.659 154.844 485.685C154.819 485.772 154.81 485.848 154.809 485.858C154.805 485.886 154.802 485.913 154.8 485.933C154.794 486.011 154.788 486.111 154.785 486.178C154.783 486.215 154.782 486.247 154.781 486.271C154.78 486.283 154.78 486.292 154.78 486.299C154.78 486.303 154.779 486.305 154.779 486.307C154.779 486.308 154.779 486.309 154.779 486.309C154.779 486.31 154.779 486.31 154.779 486.31C154.779 486.31 154.779 486.31 154.779 486.31C154.779 486.31 154.779 486.31 154.779 486.31C154.779 486.31 154.779 486.31 155.779 486.348Z" fill="black" mask="url(#path-83-inside-3_61_745)"/>
</g>
<path id="Vector_82" d="M195.02 460.728L195.02 460.728C194.746 463.953 193.447 482.079 193.114 487.003H156.461C156.204 482.565 155.291 467.296 154.514 460.313L154.514 460.313C154.228 457.741 153.838 455.632 153.521 453.916C153.41 453.315 153.308 452.762 153.222 452.254C153.055 451.267 152.952 450.462 152.954 449.787C152.956 449.117 153.062 448.608 153.286 448.195L153.286 448.195C154.121 446.651 155.707 445.393 157.542 444.46C159.371 443.53 161.392 442.95 163.022 442.729C163.503 442.664 164.951 442.599 166.897 442.541C168.826 442.483 171.209 442.432 173.53 442.39C175.85 442.347 178.108 442.314 179.788 442.291C180.628 442.279 181.324 442.27 181.811 442.264L182.377 442.257C182.468 442.256 182.527 442.256 182.556 442.255C182.57 442.255 182.576 442.255 182.576 442.255C183.232 442.255 185.555 442.414 187.941 442.744C189.131 442.909 190.323 443.115 191.321 443.362C192.345 443.615 193.083 443.893 193.434 444.163C194.115 444.687 194.616 445.577 194.958 446.784C195.298 447.985 195.464 449.443 195.517 451.031C195.611 453.903 195.333 457.117 195.094 459.863C195.069 460.157 195.044 460.446 195.02 460.728Z" fill="#D9D9D9" stroke="black"/>
<g id="Vector_83">
<mask id="path-86-inside-4_61_745" fill="white">
<path d="M196.037 455.701C196.069 455.701 196.1 455.689 196.123 455.667C196.147 455.645 196.161 455.615 196.162 455.583L196.466 450.79C196.468 450.757 196.456 450.725 196.434 450.7C196.412 450.675 196.381 450.66 196.348 450.658C196.315 450.657 196.283 450.668 196.258 450.69C196.234 450.712 196.218 450.743 196.216 450.776L195.913 455.569C195.911 455.602 195.922 455.634 195.944 455.659C195.966 455.684 195.997 455.699 196.03 455.701L196.037 455.701Z"/>
</mask>
<path d="M196.037 455.701C196.069 455.701 196.1 455.689 196.123 455.667C196.147 455.645 196.161 455.615 196.162 455.583L196.466 450.79C196.468 450.757 196.456 450.725 196.434 450.7C196.412 450.675 196.381 450.66 196.348 450.658C196.315 450.657 196.283 450.668 196.258 450.69C196.234 450.712 196.218 450.743 196.216 450.776L195.913 455.569C195.911 455.602 195.922 455.634 195.944 455.659C195.966 455.684 195.997 455.699 196.03 455.701L196.037 455.701Z" fill="#0C0C0C"/>
<path d="M196.037 455.701L196.003 456.7L196.019 456.701L196.036 456.701L196.037 455.701ZM196.162 455.583L195.164 455.52L195.164 455.525L196.162 455.583ZM196.466 450.79L197.464 450.853L197.464 450.848L196.466 450.79ZM196.348 450.658L196.407 449.66L196.394 449.659L196.348 450.658ZM196.216 450.776L195.219 450.706L195.218 450.713L196.216 450.776ZM195.913 455.569L194.915 455.505L194.915 455.511L195.913 455.569ZM196.03 455.701L195.972 456.699L195.984 456.7L195.996 456.7L196.03 455.701ZM196.036 456.701C196.323 456.701 196.6 456.592 196.809 456.395L195.438 454.939C195.6 454.786 195.816 454.7 196.039 454.701L196.036 456.701ZM196.809 456.395C197.018 456.198 197.144 455.928 197.161 455.641L195.164 455.525C195.177 455.302 195.275 455.092 195.438 454.939L196.809 456.395ZM197.16 455.646L197.464 450.853L195.468 450.727L195.164 455.52L197.16 455.646ZM197.464 450.848C197.481 450.55 197.38 450.258 197.181 450.035L195.687 451.365C195.533 451.192 195.454 450.964 195.467 450.733L197.464 450.848ZM197.181 450.035C196.983 449.812 196.704 449.677 196.407 449.66L196.29 451.657C196.058 451.643 195.842 451.538 195.687 451.365L197.181 450.035ZM196.394 449.659C196.1 449.646 195.813 449.748 195.593 449.943L196.923 451.437C196.753 451.589 196.53 451.668 196.302 451.657L196.394 449.659ZM195.593 449.943C195.374 450.139 195.239 450.412 195.219 450.706L197.214 450.846C197.198 451.073 197.093 451.286 196.923 451.437L195.593 449.943ZM195.218 450.713L194.915 455.505L196.911 455.632L197.214 450.839L195.218 450.713ZM194.915 455.511C194.897 455.809 194.999 456.101 195.197 456.324L196.691 454.994C196.846 455.167 196.925 455.395 196.911 455.626L194.915 455.511ZM195.197 456.324C195.396 456.547 195.674 456.681 195.972 456.699L196.089 454.702C196.32 454.716 196.537 454.821 196.691 454.994L195.197 456.324ZM195.996 456.7L196.003 456.7L196.072 454.701L196.065 454.701L195.996 456.7Z" fill="black" mask="url(#path-86-inside-4_61_745)"/>
</g>
</g>
<g id="Group_6">
<path id="Vector_84" d="M141.893 478.22L141.893 478.22C142.267 477.203 150.824 454.542 152.932 449.07L164.84 453.895C163.667 456.96 160.357 465.886 157.672 473.145L157.391 473.903L158.195 473.816L162.411 473.358L163.783 485.98L148.578 486.745L148.564 486.746L148.549 486.747C148.321 486.772 148.091 486.785 147.861 486.785C146.836 486.785 145.826 486.537 144.918 486.062C144.009 485.588 143.229 484.901 142.643 484.06C142.057 483.219 141.682 482.249 141.552 481.232C141.421 480.215 141.538 479.182 141.893 478.22Z" fill="#D9D9D9" stroke="black"/>
<path id="h_3_sk" d="M186.322 441.641C186.311 441.658 186.3 441.675 186.289 441.693C186.066 442.04 185.68 442.512 185.028 442.971C183.73 443.886 181.316 444.791 176.898 444.459L176.897 444.459C173.903 444.235 172.073 443.11 170.976 442.067C170.423 441.542 170.05 441.031 169.806 440.65C169.796 440.635 169.787 440.621 169.778 440.606C169.926 440.579 170.079 440.552 170.232 440.523C170.432 440.485 170.628 440.445 170.796 440.403C170.952 440.364 171.13 440.313 171.264 440.242L171.266 440.241C171.785 439.962 172.266 439.635 172.667 439.174C173.071 438.71 173.372 438.133 173.568 437.381C173.65 437.067 173.714 436.569 173.767 435.998C173.821 435.415 173.866 434.724 173.902 434.004C173.96 432.829 173.995 431.569 174.006 430.576L182.567 432.5C182.555 432.662 182.54 432.836 182.524 433.02C182.427 434.152 182.299 435.658 182.423 437.044C182.585 438.85 183.203 440.758 185.164 441.334L185.165 441.335C185.535 441.442 185.922 441.544 186.322 441.641Z" fill="#E98862" stroke="black"/>
<path id="Vector_85" d="M182.725 436.22L182.764 436.719L182.725 436.22C180.912 436.363 178.855 436.049 177.156 435.113C175.471 434.186 174.131 432.647 173.699 430.289C173.699 430.289 173.699 430.289 173.699 430.289L172.867 425.739L172.867 425.739C172.421 423.298 172.666 421.01 173.559 419.248C174.444 417.501 175.977 416.243 178.192 415.838L178.192 415.838C182.618 415.029 186.694 418.226 187.576 423.049L187.576 423.049L187.944 425.063C187.944 425.063 187.944 425.063 187.944 425.063C188.113 425.989 188.373 428.718 187.775 431.257C187.476 432.523 186.973 433.706 186.173 434.597C185.383 435.476 184.283 436.097 182.725 436.22Z" fill="#E98862" stroke="black"/>
<path id="Vector_86" d="M185.778 432.187L185.778 432.187C186.413 435.374 187.227 437.005 187.901 438.356C187.963 438.479 188.023 438.6 188.082 438.72C188.429 439.423 188.718 440.061 188.92 440.859C189.123 441.657 189.244 442.635 189.229 444.009C189.203 446.348 188.199 448.086 186.284 449.326C184.336 450.587 181.425 451.343 177.595 451.602C173.757 451.861 168.679 451.757 164.57 450.737C162.514 450.226 160.74 449.495 159.486 448.499C158.246 447.515 157.522 446.282 157.504 444.718C157.473 442.107 158.063 440.468 158.885 438.897C159.129 438.43 159.402 437.956 159.689 437.459C160.36 436.294 161.107 434.996 161.749 433.329L161.749 433.328C162.442 431.525 162.953 428.781 163.293 426.492C163.464 425.34 163.594 424.29 163.683 423.512C163.728 423.123 163.763 422.802 163.787 422.57C163.797 422.472 163.806 422.39 163.812 422.325L163.816 422.291L163.824 422.209L163.827 422.184L163.828 422.176C163.828 422.174 163.828 422.174 163.828 422.174L163.832 422.143V422.139C164.32 418.364 166.231 415.983 168.363 414.487C170.515 412.977 172.9 412.367 174.271 412.179L174.271 412.179C177.551 411.729 179.984 412.212 180.879 412.56L180.894 412.566L180.909 412.571C183.432 413.372 185.087 415.27 186.12 417.013C186.635 417.882 186.988 418.7 187.213 419.3C187.255 419.415 187.293 419.521 187.327 419.618C186.882 419.555 186.454 419.398 186.07 419.154L184.997 418.473L185.318 419.703C185.522 420.48 185.742 422.25 184.881 423.76L184.817 423.871L184.815 424C184.778 426.452 185.097 428.767 185.778 432.187Z" fill="#0A0A0A" stroke="black"/>
</g>
</g>
</g>
</svg>
