<svg width="380" height="314" viewBox="0 0 380 314" fill="none" xmlns="http://www.w3.org/2000/svg">
<g id="Featues" filter="url(#filter0_d_47_712)">
<rect id="Rectangle 31" x="4" width="372" height="306" fill="#D9D9D9"/>
<path id="Alert On Price Drop" d="M48.4511 109L46.3871 103.696H39.5951L37.5551 109H35.3711L42.0671 91.792H44.0111L50.6831 109H48.4511ZM43.8191 96.592C43.7711 96.464 43.6911 96.232 43.5791 95.896C43.4671 95.56 43.3551 95.216 43.2431 94.864C43.1471 94.496 43.0671 94.216 43.0031 94.024C42.9231 94.344 42.8351 94.672 42.7391 95.008C42.6591 95.328 42.5711 95.624 42.4751 95.896C42.3951 96.168 42.3231 96.4 42.2591 96.592L40.3151 101.776H45.7391L43.8191 96.592ZM54.8512 109H52.7392V90.76H54.8512V109ZM63.8947 95.896C64.9987 95.896 65.9427 96.136 66.7267 96.616C67.5267 97.096 68.1347 97.776 68.5507 98.656C68.9827 99.52 69.1987 100.536 69.1987 101.704V102.976H60.3907C60.4227 104.432 60.7907 105.544 61.4947 106.312C62.2147 107.064 63.2147 107.44 64.4947 107.44C65.3107 107.44 66.0307 107.368 66.6547 107.224C67.2947 107.064 67.9507 106.84 68.6227 106.552V108.4C67.9667 108.688 67.3187 108.896 66.6787 109.024C66.0387 109.168 65.2787 109.24 64.3987 109.24C63.1827 109.24 62.1027 108.992 61.1587 108.496C60.2307 108 59.5027 107.264 58.9747 106.288C58.4627 105.296 58.2067 104.088 58.2067 102.664C58.2067 101.256 58.4387 100.048 58.9027 99.04C59.3827 98.032 60.0467 97.256 60.8947 96.712C61.7587 96.168 62.7587 95.896 63.8947 95.896ZM63.8707 97.624C62.8627 97.624 62.0627 97.952 61.4707 98.608C60.8947 99.248 60.5507 100.144 60.4387 101.296H66.9907C66.9907 100.56 66.8787 99.92 66.6547 99.376C66.4307 98.832 66.0867 98.408 65.6227 98.104C65.1747 97.784 64.5907 97.624 63.8707 97.624ZM78.4736 95.896C78.7136 95.896 78.9696 95.912 79.2416 95.944C79.5296 95.96 79.7776 95.992 79.9856 96.04L79.7216 97.984C79.5136 97.936 79.2816 97.896 79.0256 97.864C78.7856 97.832 78.5536 97.816 78.3296 97.816C77.8336 97.816 77.3616 97.92 76.9136 98.128C76.4656 98.336 76.0656 98.632 75.7136 99.016C75.3616 99.384 75.0816 99.832 74.8736 100.36C74.6816 100.888 74.5856 101.48 74.5856 102.136V109H72.4736V96.136H74.2016L74.4416 98.488H74.5376C74.8096 98.008 75.1376 97.576 75.5216 97.192C75.9056 96.792 76.3456 96.48 76.8416 96.256C77.3376 96.016 77.8816 95.896 78.4736 95.896ZM86.6837 107.512C87.0037 107.512 87.3317 107.488 87.6677 107.44C88.0037 107.376 88.2757 107.312 88.4837 107.248V108.856C88.2597 108.968 87.9397 109.056 87.5237 109.12C87.1077 109.2 86.7077 109.24 86.3237 109.24C85.6517 109.24 85.0277 109.128 84.4517 108.904C83.8917 108.664 83.4357 108.256 83.0837 107.68C82.7317 107.104 82.5557 106.296 82.5557 105.256V97.768H80.7317V96.76L82.5797 95.92L83.4197 93.184H84.6677V96.136H88.3877V97.768H84.6677V105.208C84.6677 105.992 84.8517 106.576 85.2197 106.96C85.6037 107.328 86.0917 107.512 86.6837 107.512ZM112.979 100.408C112.979 101.736 112.811 102.944 112.475 104.032C112.139 105.104 111.635 106.032 110.963 106.816C110.307 107.6 109.483 108.2 108.491 108.616C107.515 109.032 106.379 109.24 105.083 109.24C103.739 109.24 102.571 109.032 101.579 108.616C100.587 108.184 99.7632 107.584 99.1072 106.816C98.4512 106.032 97.9632 105.096 97.6432 104.008C97.3232 102.92 97.1632 101.712 97.1632 100.384C97.1632 98.624 97.4512 97.088 98.0272 95.776C98.6032 94.464 99.4752 93.44 100.643 92.704C101.827 91.968 103.315 91.6 105.107 91.6C106.819 91.6 108.259 91.968 109.427 92.704C110.595 93.424 111.475 94.448 112.067 95.776C112.675 97.088 112.979 98.632 112.979 100.408ZM99.4432 100.408C99.4432 101.848 99.6432 103.088 100.043 104.128C100.443 105.168 101.059 105.968 101.891 106.528C102.739 107.088 103.803 107.368 105.083 107.368C106.379 107.368 107.435 107.088 108.251 106.528C109.083 105.968 109.699 105.168 110.099 104.128C110.499 103.088 110.699 101.848 110.699 100.408C110.699 98.248 110.251 96.56 109.355 95.344C108.459 94.112 107.043 93.496 105.107 93.496C103.811 93.496 102.739 93.776 101.891 94.336C101.059 94.88 100.443 95.672 100.043 96.712C99.6432 97.736 99.4432 98.968 99.4432 100.408ZM122.681 95.896C124.217 95.896 125.377 96.272 126.161 97.024C126.945 97.76 127.337 98.96 127.337 100.624V109H125.249V100.768C125.249 99.728 125.017 98.952 124.553 98.44C124.089 97.928 123.361 97.672 122.369 97.672C120.945 97.672 119.961 98.072 119.417 98.872C118.873 99.672 118.601 100.824 118.601 102.328V109H116.489V96.136H118.193L118.505 97.888H118.625C118.913 97.44 119.265 97.072 119.681 96.784C120.113 96.48 120.585 96.256 121.097 96.112C121.609 95.968 122.137 95.896 122.681 95.896ZM142.829 91.864C145.069 91.864 146.701 92.304 147.725 93.184C148.749 94.064 149.261 95.304 149.261 96.904C149.261 97.608 149.141 98.288 148.901 98.944C148.677 99.584 148.301 100.16 147.773 100.672C147.245 101.184 146.541 101.592 145.661 101.896C144.781 102.184 143.701 102.328 142.421 102.328H140.453V109H138.293V91.864H142.829ZM142.637 93.712H140.453V100.48H142.181C143.269 100.48 144.173 100.368 144.893 100.144C145.613 99.904 146.149 99.528 146.501 99.016C146.853 98.504 147.029 97.832 147.029 97C147.029 95.896 146.677 95.072 145.973 94.528C145.269 93.984 144.157 93.712 142.637 93.712ZM158.536 95.896C158.776 95.896 159.032 95.912 159.304 95.944C159.592 95.96 159.84 95.992 160.048 96.04L159.784 97.984C159.576 97.936 159.344 97.896 159.088 97.864C158.848 97.832 158.616 97.816 158.392 97.816C157.896 97.816 157.424 97.92 156.976 98.128C156.528 98.336 156.128 98.632 155.776 99.016C155.424 99.384 155.144 99.832 154.936 100.36C154.744 100.888 154.648 101.48 154.648 102.136V109H152.536V96.136H154.264L154.504 98.488H154.6C154.872 98.008 155.2 97.576 155.584 97.192C155.968 96.792 156.408 96.48 156.904 96.256C157.4 96.016 157.944 95.896 158.536 95.896ZM164.562 96.136V109H162.45V96.136H164.562ZM163.53 91.312C163.85 91.312 164.13 91.424 164.37 91.648C164.626 91.856 164.754 92.192 164.754 92.656C164.754 93.104 164.626 93.44 164.37 93.664C164.13 93.888 163.85 94 163.53 94C163.178 94 162.882 93.888 162.642 93.664C162.402 93.44 162.282 93.104 162.282 92.656C162.282 92.192 162.402 91.856 162.642 91.648C162.882 91.424 163.178 91.312 163.53 91.312ZM173.798 109.24C172.662 109.24 171.646 109.008 170.75 108.544C169.87 108.08 169.174 107.36 168.662 106.384C168.166 105.408 167.918 104.16 167.918 102.64C167.918 101.056 168.182 99.768 168.71 98.776C169.238 97.784 169.95 97.056 170.846 96.592C171.758 96.128 172.79 95.896 173.942 95.896C174.598 95.896 175.23 95.968 175.838 96.112C176.446 96.24 176.942 96.4 177.326 96.592L176.678 98.344C176.294 98.2 175.846 98.064 175.334 97.936C174.822 97.808 174.342 97.744 173.894 97.744C173.03 97.744 172.318 97.928 171.758 98.296C171.198 98.664 170.782 99.208 170.51 99.928C170.238 100.648 170.102 101.544 170.102 102.616C170.102 103.64 170.238 104.512 170.51 105.232C170.782 105.952 171.19 106.496 171.734 106.864C172.278 107.232 172.958 107.416 173.774 107.416C174.478 107.416 175.094 107.344 175.622 107.2C176.166 107.056 176.662 106.88 177.11 106.672V108.544C176.678 108.768 176.198 108.936 175.67 109.048C175.158 109.176 174.534 109.24 173.798 109.24ZM185.137 95.896C186.241 95.896 187.185 96.136 187.969 96.616C188.769 97.096 189.377 97.776 189.793 98.656C190.225 99.52 190.441 100.536 190.441 101.704V102.976H181.633C181.665 104.432 182.033 105.544 182.737 106.312C183.457 107.064 184.457 107.44 185.737 107.44C186.553 107.44 187.273 107.368 187.897 107.224C188.537 107.064 189.193 106.84 189.865 106.552V108.4C189.209 108.688 188.561 108.896 187.921 109.024C187.281 109.168 186.521 109.24 185.641 109.24C184.425 109.24 183.345 108.992 182.401 108.496C181.473 108 180.745 107.264 180.217 106.288C179.705 105.296 179.449 104.088 179.449 102.664C179.449 101.256 179.681 100.048 180.145 99.04C180.625 98.032 181.289 97.256 182.137 96.712C183.001 96.168 184.001 95.896 185.137 95.896ZM185.113 97.624C184.105 97.624 183.305 97.952 182.713 98.608C182.137 99.248 181.793 100.144 181.681 101.296H188.233C188.233 100.56 188.121 99.92 187.897 99.376C187.673 98.832 187.329 98.408 186.865 98.104C186.417 97.784 185.833 97.624 185.113 97.624ZM214.411 100.264C214.411 102.184 214.051 103.792 213.331 105.088C212.627 106.384 211.611 107.36 210.283 108.016C208.955 108.672 207.347 109 205.459 109H200.683V91.864H205.963C207.691 91.864 209.187 92.184 210.451 92.824C211.715 93.464 212.691 94.408 213.379 95.656C214.067 96.888 214.411 98.424 214.411 100.264ZM212.131 100.336C212.131 98.816 211.875 97.568 211.363 96.592C210.867 95.616 210.131 94.896 209.155 94.432C208.195 93.952 207.027 93.712 205.651 93.712H202.843V107.152H205.171C207.491 107.152 209.227 106.584 210.379 105.448C211.547 104.296 212.131 102.592 212.131 100.336ZM223.927 95.896C224.167 95.896 224.423 95.912 224.695 95.944C224.983 95.96 225.231 95.992 225.439 96.04L225.175 97.984C224.967 97.936 224.735 97.896 224.479 97.864C224.239 97.832 224.007 97.816 223.783 97.816C223.287 97.816 222.815 97.92 222.367 98.128C221.919 98.336 221.519 98.632 221.167 99.016C220.815 99.384 220.535 99.832 220.327 100.36C220.135 100.888 220.039 101.48 220.039 102.136V109H217.927V96.136H219.655L219.895 98.488H219.991C220.263 98.008 220.591 97.576 220.975 97.192C221.359 96.792 221.799 96.48 222.295 96.256C222.791 96.016 223.335 95.896 223.927 95.896ZM238.556 102.544C238.556 103.616 238.412 104.568 238.124 105.4C237.852 106.216 237.452 106.912 236.924 107.488C236.412 108.064 235.78 108.504 235.028 108.808C234.292 109.096 233.468 109.24 232.556 109.24C231.708 109.24 230.924 109.096 230.204 108.808C229.484 108.504 228.86 108.064 228.332 107.488C227.804 106.912 227.388 106.216 227.084 105.4C226.796 104.568 226.652 103.616 226.652 102.544C226.652 101.12 226.892 99.92 227.372 98.944C227.852 97.952 228.54 97.2 229.436 96.688C230.332 96.16 231.396 95.896 232.628 95.896C233.796 95.896 234.82 96.16 235.7 96.688C236.596 97.2 237.292 97.952 237.788 98.944C238.3 99.92 238.556 101.12 238.556 102.544ZM228.836 102.544C228.836 103.552 228.964 104.432 229.22 105.184C229.492 105.92 229.908 106.488 230.468 106.888C231.028 107.288 231.74 107.488 232.604 107.488C233.468 107.488 234.18 107.288 234.74 106.888C235.3 106.488 235.708 105.92 235.964 105.184C236.236 104.432 236.372 103.552 236.372 102.544C236.372 101.52 236.236 100.648 235.964 99.928C235.692 99.208 235.276 98.656 234.716 98.272C234.172 97.872 233.46 97.672 232.58 97.672C231.268 97.672 230.316 98.104 229.724 98.968C229.132 99.832 228.836 101.024 228.836 102.544ZM248.023 95.896C249.607 95.896 250.879 96.448 251.839 97.552C252.815 98.656 253.303 100.32 253.303 102.544C253.303 104 253.079 105.232 252.631 106.24C252.199 107.232 251.583 107.984 250.783 108.496C249.999 108.992 249.071 109.24 247.999 109.24C247.343 109.24 246.759 109.152 246.247 108.976C245.735 108.8 245.295 108.576 244.927 108.304C244.575 108.016 244.271 107.704 244.015 107.368H243.871C243.903 107.64 243.935 107.984 243.967 108.4C243.999 108.816 244.015 109.176 244.015 109.48V114.76H241.903V96.136H243.631L243.919 97.888H244.015C244.271 97.52 244.575 97.184 244.927 96.88C245.295 96.576 245.727 96.336 246.223 96.16C246.735 95.984 247.335 95.896 248.023 95.896ZM247.639 97.672C246.775 97.672 246.079 97.84 245.551 98.176C245.023 98.496 244.639 98.984 244.399 99.64C244.159 100.296 244.031 101.128 244.015 102.136V102.544C244.015 103.6 244.127 104.496 244.351 105.232C244.575 105.968 244.951 106.528 245.479 106.912C246.023 107.296 246.759 107.488 247.687 107.488C248.471 107.488 249.111 107.272 249.607 106.84C250.119 106.408 250.495 105.824 250.735 105.088C250.991 104.336 251.119 103.48 251.119 102.52C251.119 101.048 250.831 99.872 250.255 98.992C249.695 98.112 248.823 97.672 247.639 97.672Z" fill="black"/>
<path id="Alert On Latest Release" d="M48.3886 172L46.3246 166.696H39.5326L37.4926 172H35.3086L42.0046 154.792H43.9486L50.6206 172H48.3886ZM43.7566 159.592C43.7086 159.464 43.6286 159.232 43.5166 158.896C43.4046 158.56 43.2926 158.216 43.1806 157.864C43.0846 157.496 43.0046 157.216 42.9406 157.024C42.8606 157.344 42.7726 157.672 42.6766 158.008C42.5966 158.328 42.5086 158.624 42.4126 158.896C42.3326 159.168 42.2606 159.4 42.1966 159.592L40.2526 164.776H45.6766L43.7566 159.592ZM54.7887 172H52.6767V153.76H54.7887V172ZM63.8322 158.896C64.9362 158.896 65.8802 159.136 66.6642 159.616C67.4642 160.096 68.0722 160.776 68.4882 161.656C68.9202 162.52 69.1362 163.536 69.1362 164.704V165.976H60.3282C60.3602 167.432 60.7282 168.544 61.4322 169.312C62.1522 170.064 63.1522 170.44 64.4322 170.44C65.2482 170.44 65.9682 170.368 66.5922 170.224C67.2322 170.064 67.8882 169.84 68.5602 169.552V171.4C67.9042 171.688 67.2562 171.896 66.6162 172.024C65.9762 172.168 65.2162 172.24 64.3362 172.24C63.1202 172.24 62.0402 171.992 61.0962 171.496C60.1682 171 59.4402 170.264 58.9122 169.288C58.4002 168.296 58.1442 167.088 58.1442 165.664C58.1442 164.256 58.3762 163.048 58.8402 162.04C59.3202 161.032 59.9842 160.256 60.8322 159.712C61.6962 159.168 62.6962 158.896 63.8322 158.896ZM63.8082 160.624C62.8002 160.624 62.0002 160.952 61.4082 161.608C60.8322 162.248 60.4882 163.144 60.3762 164.296H66.9282C66.9282 163.56 66.8162 162.92 66.5922 162.376C66.3682 161.832 66.0242 161.408 65.5602 161.104C65.1122 160.784 64.5282 160.624 63.8082 160.624ZM78.4111 158.896C78.6511 158.896 78.9071 158.912 79.1791 158.944C79.4671 158.96 79.7151 158.992 79.9231 159.04L79.6591 160.984C79.4511 160.936 79.2191 160.896 78.9631 160.864C78.7231 160.832 78.4911 160.816 78.2671 160.816C77.7711 160.816 77.2991 160.92 76.8511 161.128C76.4031 161.336 76.0031 161.632 75.6511 162.016C75.2991 162.384 75.0191 162.832 74.8111 163.36C74.6191 163.888 74.5231 164.48 74.5231 165.136V172H72.4111V159.136H74.1391L74.3791 161.488H74.4751C74.7471 161.008 75.0751 160.576 75.4591 160.192C75.8431 159.792 76.2831 159.48 76.7791 159.256C77.2751 159.016 77.8191 158.896 78.4111 158.896ZM86.6212 170.512C86.9412 170.512 87.2692 170.488 87.6052 170.44C87.9412 170.376 88.2132 170.312 88.4212 170.248V171.856C88.1972 171.968 87.8772 172.056 87.4612 172.12C87.0452 172.2 86.6452 172.24 86.2612 172.24C85.5892 172.24 84.9652 172.128 84.3892 171.904C83.8292 171.664 83.3732 171.256 83.0212 170.68C82.6692 170.104 82.4932 169.296 82.4932 168.256V160.768H80.6692V159.76L82.5172 158.92L83.3572 156.184H84.6052V159.136H88.3252V160.768H84.6052V168.208C84.6052 168.992 84.7892 169.576 85.1572 169.96C85.5412 170.328 86.0292 170.512 86.6212 170.512ZM112.917 163.408C112.917 164.736 112.749 165.944 112.413 167.032C112.077 168.104 111.573 169.032 110.901 169.816C110.245 170.6 109.421 171.2 108.429 171.616C107.453 172.032 106.317 172.24 105.021 172.24C103.677 172.24 102.509 172.032 101.517 171.616C100.525 171.184 99.7007 170.584 99.0447 169.816C98.3887 169.032 97.9007 168.096 97.5807 167.008C97.2607 165.92 97.1007 164.712 97.1007 163.384C97.1007 161.624 97.3887 160.088 97.9647 158.776C98.5407 157.464 99.4127 156.44 100.581 155.704C101.765 154.968 103.253 154.6 105.045 154.6C106.757 154.6 108.197 154.968 109.365 155.704C110.533 156.424 111.413 157.448 112.005 158.776C112.613 160.088 112.917 161.632 112.917 163.408ZM99.3807 163.408C99.3807 164.848 99.5807 166.088 99.9807 167.128C100.381 168.168 100.997 168.968 101.829 169.528C102.677 170.088 103.741 170.368 105.021 170.368C106.317 170.368 107.373 170.088 108.189 169.528C109.021 168.968 109.637 168.168 110.037 167.128C110.437 166.088 110.637 164.848 110.637 163.408C110.637 161.248 110.189 159.56 109.293 158.344C108.397 157.112 106.981 156.496 105.045 156.496C103.749 156.496 102.677 156.776 101.829 157.336C100.997 157.88 100.381 158.672 99.9807 159.712C99.5807 160.736 99.3807 161.968 99.3807 163.408ZM122.619 158.896C124.155 158.896 125.315 159.272 126.099 160.024C126.883 160.76 127.275 161.96 127.275 163.624V172H125.187V163.768C125.187 162.728 124.955 161.952 124.491 161.44C124.027 160.928 123.299 160.672 122.307 160.672C120.883 160.672 119.899 161.072 119.355 161.872C118.811 162.672 118.539 163.824 118.539 165.328V172H116.427V159.136H118.131L118.443 160.888H118.563C118.851 160.44 119.203 160.072 119.619 159.784C120.051 159.48 120.523 159.256 121.035 159.112C121.547 158.968 122.075 158.896 122.619 158.896ZM138.23 172V154.864H140.39V170.08H147.878V172H138.23ZM155.4 158.92C156.968 158.92 158.128 159.264 158.88 159.952C159.632 160.64 160.008 161.736 160.008 163.24V172H158.472L158.064 170.176H157.968C157.6 170.64 157.216 171.032 156.816 171.352C156.432 171.656 155.984 171.88 155.472 172.024C154.976 172.168 154.368 172.24 153.648 172.24C152.88 172.24 152.184 172.104 151.56 171.832C150.952 171.56 150.472 171.144 150.12 170.584C149.768 170.008 149.592 169.288 149.592 168.424C149.592 167.144 150.096 166.16 151.104 165.472C152.112 164.768 153.664 164.384 155.76 164.32L157.944 164.248V163.48C157.944 162.408 157.712 161.664 157.248 161.248C156.784 160.832 156.128 160.624 155.28 160.624C154.608 160.624 153.968 160.728 153.36 160.936C152.752 161.128 152.184 161.352 151.656 161.608L151.008 160.024C151.568 159.72 152.232 159.464 153 159.256C153.768 159.032 154.568 158.92 155.4 158.92ZM156.024 165.784C154.424 165.848 153.312 166.104 152.688 166.552C152.08 167 151.776 167.632 151.776 168.448C151.776 169.168 151.992 169.696 152.424 170.032C152.872 170.368 153.44 170.536 154.128 170.536C155.216 170.536 156.12 170.24 156.84 169.648C157.56 169.04 157.92 168.112 157.92 166.864V165.712L156.024 165.784ZM168.277 170.512C168.597 170.512 168.925 170.488 169.261 170.44C169.597 170.376 169.869 170.312 170.077 170.248V171.856C169.853 171.968 169.533 172.056 169.117 172.12C168.701 172.2 168.301 172.24 167.917 172.24C167.245 172.24 166.621 172.128 166.045 171.904C165.485 171.664 165.029 171.256 164.677 170.68C164.325 170.104 164.149 169.296 164.149 168.256V160.768H162.325V159.76L164.173 158.92L165.013 156.184H166.261V159.136H169.981V160.768H166.261V168.208C166.261 168.992 166.445 169.576 166.813 169.96C167.197 170.328 167.685 170.512 168.277 170.512ZM177.621 158.896C178.725 158.896 179.669 159.136 180.453 159.616C181.253 160.096 181.861 160.776 182.277 161.656C182.709 162.52 182.925 163.536 182.925 164.704V165.976H174.117C174.149 167.432 174.517 168.544 175.221 169.312C175.941 170.064 176.941 170.44 178.221 170.44C179.037 170.44 179.757 170.368 180.381 170.224C181.021 170.064 181.677 169.84 182.349 169.552V171.4C181.693 171.688 181.045 171.896 180.405 172.024C179.765 172.168 179.005 172.24 178.125 172.24C176.909 172.24 175.829 171.992 174.885 171.496C173.957 171 173.229 170.264 172.701 169.288C172.189 168.296 171.933 167.088 171.933 165.664C171.933 164.256 172.165 163.048 172.629 162.04C173.109 161.032 173.773 160.256 174.621 159.712C175.485 159.168 176.485 158.896 177.621 158.896ZM177.597 160.624C176.589 160.624 175.789 160.952 175.197 161.608C174.621 162.248 174.277 163.144 174.165 164.296H180.717C180.717 163.56 180.605 162.92 180.381 162.376C180.157 161.832 179.813 161.408 179.349 161.104C178.901 160.784 178.317 160.624 177.597 160.624ZM194.576 168.448C194.576 169.28 194.368 169.976 193.952 170.536C193.536 171.096 192.944 171.52 192.176 171.808C191.408 172.096 190.496 172.24 189.44 172.24C188.544 172.24 187.768 172.168 187.112 172.024C186.472 171.88 185.904 171.68 185.408 171.424V169.504C185.92 169.76 186.536 170 187.256 170.224C187.992 170.432 188.736 170.536 189.488 170.536C190.56 170.536 191.336 170.368 191.816 170.032C192.296 169.68 192.536 169.216 192.536 168.64C192.536 168.32 192.448 168.032 192.272 167.776C192.096 167.52 191.776 167.264 191.312 167.008C190.864 166.752 190.216 166.464 189.368 166.144C188.536 165.824 187.824 165.504 187.232 165.184C186.64 164.864 186.184 164.48 185.864 164.032C185.544 163.584 185.384 163.008 185.384 162.304C185.384 161.216 185.824 160.376 186.704 159.784C187.6 159.192 188.768 158.896 190.208 158.896C190.992 158.896 191.72 158.976 192.392 159.136C193.08 159.28 193.72 159.488 194.312 159.76L193.592 161.44C193.24 161.28 192.864 161.144 192.464 161.032C192.08 160.904 191.688 160.808 191.288 160.744C190.888 160.664 190.48 160.624 190.064 160.624C189.2 160.624 188.536 160.768 188.072 161.056C187.624 161.328 187.4 161.704 187.4 162.184C187.4 162.536 187.504 162.84 187.712 163.096C187.92 163.336 188.264 163.576 188.744 163.816C189.24 164.04 189.896 164.312 190.712 164.632C191.528 164.936 192.224 165.248 192.8 165.568C193.376 165.888 193.816 166.28 194.12 166.744C194.424 167.192 194.576 167.76 194.576 168.448ZM201.981 170.512C202.301 170.512 202.629 170.488 202.965 170.44C203.301 170.376 203.573 170.312 203.781 170.248V171.856C203.557 171.968 203.237 172.056 202.821 172.12C202.405 172.2 202.005 172.24 201.621 172.24C200.949 172.24 200.325 172.128 199.749 171.904C199.189 171.664 198.733 171.256 198.381 170.68C198.029 170.104 197.853 169.296 197.853 168.256V160.768H196.029V159.76L197.877 158.92L198.717 156.184H199.965V159.136H203.685V160.768H199.965V168.208C199.965 168.992 200.149 169.576 200.517 169.96C200.901 170.328 201.389 170.512 201.981 170.512ZM218.052 154.864C219.476 154.864 220.644 155.048 221.556 155.416C222.484 155.768 223.172 156.304 223.62 157.024C224.068 157.744 224.292 158.648 224.292 159.736C224.292 160.648 224.124 161.408 223.788 162.016C223.452 162.624 223.02 163.112 222.492 163.48C221.98 163.832 221.436 164.112 220.86 164.32L225.564 172H223.044L218.892 164.92H215.484V172H213.324V154.864H218.052ZM217.932 156.736H215.484V163.096H218.052C218.98 163.096 219.74 162.976 220.332 162.736C220.924 162.48 221.356 162.112 221.628 161.632C221.916 161.152 222.06 160.552 222.06 159.832C222.06 159.08 221.908 158.48 221.604 158.032C221.316 157.584 220.868 157.256 220.26 157.048C219.652 156.84 218.876 156.736 217.932 156.736ZM232.934 158.896C234.038 158.896 234.982 159.136 235.766 159.616C236.566 160.096 237.174 160.776 237.59 161.656C238.022 162.52 238.238 163.536 238.238 164.704V165.976H229.43C229.462 167.432 229.83 168.544 230.534 169.312C231.254 170.064 232.254 170.44 233.534 170.44C234.35 170.44 235.07 170.368 235.694 170.224C236.334 170.064 236.99 169.84 237.662 169.552V171.4C237.006 171.688 236.358 171.896 235.718 172.024C235.078 172.168 234.318 172.24 233.438 172.24C232.222 172.24 231.142 171.992 230.198 171.496C229.27 171 228.542 170.264 228.014 169.288C227.502 168.296 227.246 167.088 227.246 165.664C227.246 164.256 227.478 163.048 227.942 162.04C228.422 161.032 229.086 160.256 229.934 159.712C230.798 159.168 231.798 158.896 232.934 158.896ZM232.91 160.624C231.902 160.624 231.102 160.952 230.51 161.608C229.934 162.248 229.59 163.144 229.478 164.296H236.03C236.03 163.56 235.918 162.92 235.694 162.376C235.47 161.832 235.126 161.408 234.662 161.104C234.214 160.784 233.63 160.624 232.91 160.624ZM243.625 172H241.513V153.76H243.625V172ZM252.668 158.896C253.772 158.896 254.716 159.136 255.5 159.616C256.3 160.096 256.908 160.776 257.324 161.656C257.756 162.52 257.972 163.536 257.972 164.704V165.976H249.164C249.196 167.432 249.564 168.544 250.268 169.312C250.988 170.064 251.988 170.44 253.268 170.44C254.084 170.44 254.804 170.368 255.428 170.224C256.068 170.064 256.724 169.84 257.396 169.552V171.4C256.74 171.688 256.092 171.896 255.452 172.024C254.812 172.168 254.052 172.24 253.172 172.24C251.956 172.24 250.876 171.992 249.932 171.496C249.004 171 248.276 170.264 247.748 169.288C247.236 168.296 246.98 167.088 246.98 165.664C246.98 164.256 247.212 163.048 247.676 162.04C248.156 161.032 248.82 160.256 249.668 159.712C250.532 159.168 251.532 158.896 252.668 158.896ZM252.644 160.624C251.636 160.624 250.836 160.952 250.244 161.608C249.668 162.248 249.324 163.144 249.212 164.296H255.764C255.764 163.56 255.652 162.92 255.428 162.376C255.204 161.832 254.86 161.408 254.396 161.104C253.948 160.784 253.364 160.624 252.644 160.624ZM266.119 158.92C267.687 158.92 268.847 159.264 269.599 159.952C270.351 160.64 270.727 161.736 270.727 163.24V172H269.191L268.783 170.176H268.687C268.319 170.64 267.935 171.032 267.535 171.352C267.151 171.656 266.703 171.88 266.191 172.024C265.695 172.168 265.087 172.24 264.367 172.24C263.599 172.24 262.903 172.104 262.279 171.832C261.671 171.56 261.191 171.144 260.839 170.584C260.487 170.008 260.311 169.288 260.311 168.424C260.311 167.144 260.815 166.16 261.823 165.472C262.831 164.768 264.383 164.384 266.479 164.32L268.663 164.248V163.48C268.663 162.408 268.431 161.664 267.967 161.248C267.503 160.832 266.847 160.624 265.999 160.624C265.327 160.624 264.687 160.728 264.079 160.936C263.471 161.128 262.903 161.352 262.375 161.608L261.727 160.024C262.287 159.72 262.951 159.464 263.719 159.256C264.487 159.032 265.287 158.92 266.119 158.92ZM266.743 165.784C265.143 165.848 264.031 166.104 263.407 166.552C262.799 167 262.495 167.632 262.495 168.448C262.495 169.168 262.711 169.696 263.143 170.032C263.591 170.368 264.159 170.536 264.847 170.536C265.935 170.536 266.839 170.24 267.559 169.648C268.279 169.04 268.639 168.112 268.639 166.864V165.712L266.743 165.784ZM283.076 168.448C283.076 169.28 282.868 169.976 282.452 170.536C282.036 171.096 281.444 171.52 280.676 171.808C279.908 172.096 278.996 172.24 277.94 172.24C277.044 172.24 276.268 172.168 275.612 172.024C274.972 171.88 274.404 171.68 273.908 171.424V169.504C274.42 169.76 275.036 170 275.756 170.224C276.492 170.432 277.236 170.536 277.988 170.536C279.06 170.536 279.836 170.368 280.316 170.032C280.796 169.68 281.036 169.216 281.036 168.64C281.036 168.32 280.948 168.032 280.772 167.776C280.596 167.52 280.276 167.264 279.812 167.008C279.364 166.752 278.716 166.464 277.868 166.144C277.036 165.824 276.324 165.504 275.732 165.184C275.14 164.864 274.684 164.48 274.364 164.032C274.044 163.584 273.884 163.008 273.884 162.304C273.884 161.216 274.324 160.376 275.204 159.784C276.1 159.192 277.268 158.896 278.708 158.896C279.492 158.896 280.22 158.976 280.892 159.136C281.58 159.28 282.22 159.488 282.812 159.76L282.092 161.44C281.74 161.28 281.364 161.144 280.964 161.032C280.58 160.904 280.188 160.808 279.788 160.744C279.388 160.664 278.98 160.624 278.564 160.624C277.7 160.624 277.036 160.768 276.572 161.056C276.124 161.328 275.9 161.704 275.9 162.184C275.9 162.536 276.004 162.84 276.212 163.096C276.42 163.336 276.764 163.576 277.244 163.816C277.74 164.04 278.396 164.312 279.212 164.632C280.028 164.936 280.724 165.248 281.3 165.568C281.876 165.888 282.316 166.28 282.62 166.744C282.924 167.192 283.076 167.76 283.076 168.448ZM291.153 158.896C292.257 158.896 293.201 159.136 293.985 159.616C294.785 160.096 295.393 160.776 295.809 161.656C296.241 162.52 296.457 163.536 296.457 164.704V165.976H287.649C287.681 167.432 288.049 168.544 288.753 169.312C289.473 170.064 290.473 170.44 291.753 170.44C292.569 170.44 293.289 170.368 293.913 170.224C294.553 170.064 295.209 169.84 295.881 169.552V171.4C295.225 171.688 294.577 171.896 293.937 172.024C293.297 172.168 292.537 172.24 291.657 172.24C290.441 172.24 289.361 171.992 288.417 171.496C287.489 171 286.761 170.264 286.233 169.288C285.721 168.296 285.465 167.088 285.465 165.664C285.465 164.256 285.697 163.048 286.161 162.04C286.641 161.032 287.305 160.256 288.153 159.712C289.017 159.168 290.017 158.896 291.153 158.896ZM291.129 160.624C290.121 160.624 289.321 160.952 288.729 161.608C288.153 162.248 287.809 163.144 287.697 164.296H294.249C294.249 163.56 294.137 162.92 293.913 162.376C293.689 161.832 293.345 161.408 292.881 161.104C292.433 160.784 291.849 160.624 291.129 160.624Z" fill="black"/>
<path id="Discounts With Credit Cards" d="M51.4388 222.264C51.4388 224.184 51.0788 225.792 50.3588 227.088C49.6548 228.384 48.6388 229.36 47.3108 230.016C45.9828 230.672 44.3748 231 42.4868 231H37.7108V213.864H42.9908C44.7188 213.864 46.2148 214.184 47.4788 214.824C48.7428 215.464 49.7188 216.408 50.4068 217.656C51.0948 218.888 51.4388 220.424 51.4388 222.264ZM49.1588 222.336C49.1588 220.816 48.9028 219.568 48.3908 218.592C47.8948 217.616 47.1588 216.896 46.1828 216.432C45.2228 215.952 44.0548 215.712 42.6788 215.712H39.8708V229.152H42.1988C44.5188 229.152 46.2548 228.584 47.4068 227.448C48.5748 226.296 49.1588 224.592 49.1588 222.336ZM57.0661 218.136V231H54.9541V218.136H57.0661ZM56.0341 213.312C56.3541 213.312 56.6341 213.424 56.8741 213.648C57.1301 213.856 57.2581 214.192 57.2581 214.656C57.2581 215.104 57.1301 215.44 56.8741 215.664C56.6341 215.888 56.3541 216 56.0341 216C55.6821 216 55.3861 215.888 55.1461 215.664C54.9061 215.44 54.7861 215.104 54.7861 214.656C54.7861 214.192 54.9061 213.856 55.1461 213.648C55.3861 213.424 55.6821 213.312 56.0341 213.312ZM69.5176 227.448C69.5176 228.28 69.3096 228.976 68.8936 229.536C68.4776 230.096 67.8856 230.52 67.1176 230.808C66.3496 231.096 65.4376 231.24 64.3816 231.24C63.4856 231.24 62.7096 231.168 62.0536 231.024C61.4136 230.88 60.8456 230.68 60.3496 230.424V228.504C60.8616 228.76 61.4776 229 62.1976 229.224C62.9336 229.432 63.6776 229.536 64.4296 229.536C65.5016 229.536 66.2776 229.368 66.7576 229.032C67.2376 228.68 67.4776 228.216 67.4776 227.64C67.4776 227.32 67.3896 227.032 67.2136 226.776C67.0376 226.52 66.7176 226.264 66.2536 226.008C65.8056 225.752 65.1576 225.464 64.3096 225.144C63.4776 224.824 62.7656 224.504 62.1736 224.184C61.5816 223.864 61.1256 223.48 60.8056 223.032C60.4856 222.584 60.3256 222.008 60.3256 221.304C60.3256 220.216 60.7656 219.376 61.6456 218.784C62.5416 218.192 63.7096 217.896 65.1496 217.896C65.9336 217.896 66.6616 217.976 67.3336 218.136C68.0216 218.28 68.6616 218.488 69.2536 218.76L68.5336 220.44C68.1816 220.28 67.8056 220.144 67.4056 220.032C67.0216 219.904 66.6296 219.808 66.2296 219.744C65.8296 219.664 65.4216 219.624 65.0056 219.624C64.1416 219.624 63.4776 219.768 63.0136 220.056C62.5656 220.328 62.3416 220.704 62.3416 221.184C62.3416 221.536 62.4456 221.84 62.6536 222.096C62.8616 222.336 63.2056 222.576 63.6856 222.816C64.1816 223.04 64.8376 223.312 65.6536 223.632C66.4696 223.936 67.1656 224.248 67.7416 224.568C68.3176 224.888 68.7576 225.28 69.0616 225.744C69.3656 226.192 69.5176 226.76 69.5176 227.448ZM77.7859 231.24C76.6499 231.24 75.6339 231.008 74.7379 230.544C73.8579 230.08 73.1619 229.36 72.6499 228.384C72.1539 227.408 71.9059 226.16 71.9059 224.64C71.9059 223.056 72.1699 221.768 72.6979 220.776C73.2259 219.784 73.9379 219.056 74.8339 218.592C75.7459 218.128 76.7779 217.896 77.9299 217.896C78.5859 217.896 79.2179 217.968 79.8259 218.112C80.4339 218.24 80.9299 218.4 81.3139 218.592L80.6659 220.344C80.2819 220.2 79.8339 220.064 79.3219 219.936C78.8099 219.808 78.3299 219.744 77.8819 219.744C77.0179 219.744 76.3059 219.928 75.7459 220.296C75.1859 220.664 74.7699 221.208 74.4979 221.928C74.2259 222.648 74.0899 223.544 74.0899 224.616C74.0899 225.64 74.2259 226.512 74.4979 227.232C74.7699 227.952 75.1779 228.496 75.7219 228.864C76.2659 229.232 76.9459 229.416 77.7619 229.416C78.4659 229.416 79.0819 229.344 79.6099 229.2C80.1539 229.056 80.6499 228.88 81.0979 228.672V230.544C80.6659 230.768 80.1859 230.936 79.6579 231.048C79.1459 231.176 78.5219 231.24 77.7859 231.24ZM95.3412 224.544C95.3412 225.616 95.1972 226.568 94.9092 227.4C94.6372 228.216 94.2372 228.912 93.7092 229.488C93.1972 230.064 92.5652 230.504 91.8132 230.808C91.0772 231.096 90.2532 231.24 89.3412 231.24C88.4932 231.24 87.7092 231.096 86.9892 230.808C86.2692 230.504 85.6452 230.064 85.1172 229.488C84.5892 228.912 84.1732 228.216 83.8692 227.4C83.5812 226.568 83.4372 225.616 83.4372 224.544C83.4372 223.12 83.6772 221.92 84.1572 220.944C84.6372 219.952 85.3252 219.2 86.2212 218.688C87.1172 218.16 88.1812 217.896 89.4132 217.896C90.5812 217.896 91.6052 218.16 92.4852 218.688C93.3812 219.2 94.0772 219.952 94.5732 220.944C95.0852 221.92 95.3412 223.12 95.3412 224.544ZM85.6212 224.544C85.6212 225.552 85.7492 226.432 86.0052 227.184C86.2772 227.92 86.6932 228.488 87.2532 228.888C87.8132 229.288 88.5252 229.488 89.3892 229.488C90.2532 229.488 90.9652 229.288 91.5252 228.888C92.0852 228.488 92.4932 227.92 92.7492 227.184C93.0212 226.432 93.1572 225.552 93.1572 224.544C93.1572 223.52 93.0212 222.648 92.7492 221.928C92.4772 221.208 92.0612 220.656 91.5012 220.272C90.9572 219.872 90.2452 219.672 89.3652 219.672C88.0532 219.672 87.1012 220.104 86.5092 220.968C85.9172 221.832 85.6212 223.024 85.6212 224.544ZM109.44 218.136V231H107.712L107.4 229.296H107.304C107.032 229.744 106.68 230.112 106.248 230.4C105.816 230.688 105.344 230.896 104.832 231.024C104.32 231.168 103.784 231.24 103.224 231.24C102.2 231.24 101.336 231.08 100.632 230.76C99.9444 230.424 99.4244 229.912 99.0724 229.224C98.7204 228.536 98.5444 227.648 98.5444 226.56V218.136H100.68V226.416C100.68 227.44 100.912 228.208 101.376 228.72C101.84 229.232 102.56 229.488 103.536 229.488C104.496 229.488 105.248 229.312 105.792 228.96C106.352 228.592 106.744 228.064 106.968 227.376C107.208 226.672 107.328 225.824 107.328 224.832V218.136H109.44ZM119.716 217.896C121.252 217.896 122.412 218.272 123.196 219.024C123.98 219.76 124.372 220.96 124.372 222.624V231H122.284V222.768C122.284 221.728 122.052 220.952 121.588 220.44C121.124 219.928 120.396 219.672 119.404 219.672C117.98 219.672 116.996 220.072 116.452 220.872C115.908 221.672 115.636 222.824 115.636 224.328V231H113.524V218.136H115.228L115.54 219.888H115.66C115.948 219.44 116.3 219.072 116.716 218.784C117.148 218.48 117.62 218.256 118.132 218.112C118.644 217.968 119.172 217.896 119.716 217.896ZM132.656 229.512C132.976 229.512 133.304 229.488 133.64 229.44C133.976 229.376 134.248 229.312 134.456 229.248V230.856C134.232 230.968 133.912 231.056 133.496 231.12C133.08 231.2 132.68 231.24 132.296 231.24C131.624 231.24 131 231.128 130.424 230.904C129.864 230.664 129.408 230.256 129.056 229.68C128.704 229.104 128.528 228.296 128.528 227.256V219.768H126.704V218.76L128.552 217.92L129.392 215.184H130.64V218.136H134.36V219.768H130.64V227.208C130.64 227.992 130.824 228.576 131.192 228.96C131.576 229.328 132.064 229.512 132.656 229.512ZM145.408 227.448C145.408 228.28 145.2 228.976 144.784 229.536C144.368 230.096 143.776 230.52 143.008 230.808C142.24 231.096 141.328 231.24 140.272 231.24C139.376 231.24 138.6 231.168 137.944 231.024C137.304 230.88 136.736 230.68 136.24 230.424V228.504C136.752 228.76 137.368 229 138.088 229.224C138.824 229.432 139.568 229.536 140.32 229.536C141.392 229.536 142.168 229.368 142.648 229.032C143.128 228.68 143.368 228.216 143.368 227.64C143.368 227.32 143.28 227.032 143.104 226.776C142.928 226.52 142.608 226.264 142.144 226.008C141.696 225.752 141.048 225.464 140.2 225.144C139.368 224.824 138.656 224.504 138.064 224.184C137.472 223.864 137.016 223.48 136.696 223.032C136.376 222.584 136.216 222.008 136.216 221.304C136.216 220.216 136.656 219.376 137.536 218.784C138.432 218.192 139.6 217.896 141.04 217.896C141.824 217.896 142.552 217.976 143.224 218.136C143.912 218.28 144.552 218.488 145.144 218.76L144.424 220.44C144.072 220.28 143.696 220.144 143.296 220.032C142.912 219.904 142.52 219.808 142.12 219.744C141.72 219.664 141.312 219.624 140.896 219.624C140.032 219.624 139.368 219.768 138.904 220.056C138.456 220.328 138.232 220.704 138.232 221.184C138.232 221.536 138.336 221.84 138.544 222.096C138.752 222.336 139.096 222.576 139.576 222.816C140.072 223.04 140.728 223.312 141.544 223.632C142.36 223.936 143.056 224.248 143.632 224.568C144.208 224.888 144.648 225.28 144.952 225.744C145.256 226.192 145.408 226.76 145.408 227.448ZM175.164 213.864L170.604 231H168.42L165.084 219.768C164.988 219.432 164.892 219.088 164.796 218.736C164.7 218.384 164.612 218.048 164.532 217.728C164.452 217.408 164.38 217.136 164.316 216.912C164.268 216.672 164.236 216.496 164.22 216.384C164.204 216.496 164.172 216.672 164.124 216.912C164.092 217.136 164.036 217.408 163.956 217.728C163.876 218.048 163.788 218.392 163.692 218.76C163.612 219.112 163.516 219.472 163.404 219.84L160.164 231H157.98L153.444 213.864H155.7L158.364 224.328C158.46 224.696 158.548 225.064 158.628 225.432C158.708 225.784 158.78 226.136 158.844 226.488C158.924 226.824 158.988 227.152 159.036 227.472C159.084 227.792 159.132 228.104 159.18 228.408C159.228 228.088 159.276 227.76 159.324 227.424C159.388 227.088 159.46 226.744 159.54 226.392C159.62 226.024 159.708 225.656 159.804 225.288C159.9 224.92 159.996 224.56 160.092 224.208L163.116 213.864H165.348L168.492 224.28C168.604 224.648 168.708 225.024 168.804 225.408C168.9 225.776 168.988 226.136 169.068 226.488C169.148 226.84 169.212 227.184 169.26 227.52C169.324 227.84 169.38 228.136 169.428 228.408C169.476 228.008 169.54 227.592 169.62 227.16C169.7 226.712 169.796 226.248 169.908 225.768C170.02 225.288 170.14 224.8 170.268 224.304L172.908 213.864H175.164ZM179.621 218.136V231H177.509V218.136H179.621ZM178.589 213.312C178.909 213.312 179.189 213.424 179.429 213.648C179.685 213.856 179.813 214.192 179.813 214.656C179.813 215.104 179.685 215.44 179.429 215.664C179.189 215.888 178.909 216 178.589 216C178.237 216 177.941 215.888 177.701 215.664C177.461 215.44 177.341 215.104 177.341 214.656C177.341 214.192 177.461 213.856 177.701 213.648C177.941 213.424 178.237 213.312 178.589 213.312ZM187.992 229.512C188.312 229.512 188.64 229.488 188.976 229.44C189.312 229.376 189.584 229.312 189.792 229.248V230.856C189.568 230.968 189.248 231.056 188.832 231.12C188.416 231.2 188.016 231.24 187.632 231.24C186.96 231.24 186.336 231.128 185.76 230.904C185.2 230.664 184.744 230.256 184.392 229.68C184.04 229.104 183.864 228.296 183.864 227.256V219.768H182.04V218.76L183.888 217.92L184.728 215.184H185.976V218.136H189.696V219.768H185.976V227.208C185.976 227.992 186.16 228.576 186.528 228.96C186.912 229.328 187.4 229.512 187.992 229.512ZM194.48 218.112C194.48 218.416 194.464 218.728 194.432 219.048C194.416 219.368 194.392 219.656 194.36 219.912H194.504C194.776 219.464 195.12 219.096 195.536 218.808C195.952 218.52 196.416 218.304 196.928 218.16C197.44 218 197.968 217.92 198.512 217.92C199.552 217.92 200.416 218.088 201.104 218.424C201.808 218.744 202.336 219.248 202.688 219.936C203.04 220.624 203.216 221.52 203.216 222.624V231H201.128V222.768C201.128 221.728 200.896 220.952 200.432 220.44C199.968 219.928 199.24 219.672 198.248 219.672C197.288 219.672 196.536 219.856 195.992 220.224C195.448 220.576 195.056 221.104 194.816 221.808C194.592 222.496 194.48 223.344 194.48 224.352V231H192.368V212.76H194.48V218.112ZM221.516 215.52C220.604 215.52 219.78 215.68 219.044 216C218.308 216.304 217.684 216.76 217.172 217.368C216.66 217.96 216.268 218.688 215.996 219.552C215.724 220.4 215.588 221.36 215.588 222.432C215.588 223.84 215.804 225.064 216.236 226.104C216.684 227.144 217.34 227.944 218.204 228.504C219.084 229.064 220.18 229.344 221.492 229.344C222.244 229.344 222.956 229.28 223.628 229.152C224.3 229.024 224.956 228.864 225.596 228.672V230.544C224.956 230.784 224.292 230.96 223.604 231.072C222.932 231.184 222.124 231.24 221.18 231.24C219.436 231.24 217.98 230.88 216.812 230.16C215.644 229.44 214.764 228.416 214.172 227.088C213.596 225.76 213.308 224.2 213.308 222.408C213.308 221.112 213.484 219.928 213.836 218.856C214.204 217.784 214.732 216.856 215.42 216.072C216.124 215.288 216.988 214.688 218.012 214.272C219.036 213.84 220.212 213.624 221.54 213.624C222.42 213.624 223.268 213.712 224.084 213.888C224.9 214.064 225.628 214.312 226.268 214.632L225.404 216.456C224.876 216.216 224.284 216 223.628 215.808C222.988 215.616 222.284 215.52 221.516 215.52ZM235.048 217.896C235.288 217.896 235.544 217.912 235.816 217.944C236.104 217.96 236.352 217.992 236.56 218.04L236.296 219.984C236.088 219.936 235.856 219.896 235.6 219.864C235.36 219.832 235.128 219.816 234.904 219.816C234.408 219.816 233.936 219.92 233.488 220.128C233.04 220.336 232.64 220.632 232.288 221.016C231.936 221.384 231.656 221.832 231.448 222.36C231.256 222.888 231.16 223.48 231.16 224.136V231H229.048V218.136H230.776L231.016 220.488H231.112C231.384 220.008 231.712 219.576 232.096 219.192C232.48 218.792 232.92 218.48 233.416 218.256C233.912 218.016 234.456 217.896 235.048 217.896ZM243.461 217.896C244.565 217.896 245.509 218.136 246.293 218.616C247.093 219.096 247.701 219.776 248.117 220.656C248.549 221.52 248.765 222.536 248.765 223.704V224.976H239.957C239.989 226.432 240.357 227.544 241.061 228.312C241.781 229.064 242.781 229.44 244.061 229.44C244.877 229.44 245.597 229.368 246.221 229.224C246.861 229.064 247.517 228.84 248.189 228.552V230.4C247.533 230.688 246.885 230.896 246.245 231.024C245.605 231.168 244.845 231.24 243.965 231.24C242.749 231.24 241.669 230.992 240.725 230.496C239.797 230 239.069 229.264 238.541 228.288C238.029 227.296 237.773 226.088 237.773 224.664C237.773 223.256 238.005 222.048 238.469 221.04C238.949 220.032 239.613 219.256 240.461 218.712C241.325 218.168 242.325 217.896 243.461 217.896ZM243.437 219.624C242.429 219.624 241.629 219.952 241.037 220.608C240.461 221.248 240.117 222.144 240.005 223.296H246.557C246.557 222.56 246.445 221.92 246.221 221.376C245.997 220.832 245.653 220.408 245.189 220.104C244.741 219.784 244.157 219.624 243.437 219.624ZM256.6 231.24C255 231.24 253.72 230.688 252.76 229.584C251.8 228.464 251.32 226.8 251.32 224.592C251.32 222.384 251.8 220.72 252.76 219.6C253.736 218.464 255.024 217.896 256.624 217.896C257.296 217.896 257.88 217.984 258.376 218.16C258.872 218.32 259.304 218.544 259.672 218.832C260.04 219.12 260.352 219.44 260.608 219.792H260.752C260.736 219.584 260.704 219.28 260.656 218.88C260.624 218.464 260.608 218.136 260.608 217.896V212.76H262.72V231H261.016L260.704 229.272H260.608C260.352 229.64 260.04 229.976 259.672 230.28C259.304 230.568 258.864 230.8 258.352 230.976C257.856 231.152 257.272 231.24 256.6 231.24ZM256.936 229.488C258.296 229.488 259.248 229.12 259.792 228.384C260.352 227.632 260.632 226.504 260.632 225V224.616C260.632 223.016 260.368 221.792 259.84 220.944C259.312 220.08 258.336 219.648 256.912 219.648C255.776 219.648 254.92 220.104 254.344 221.016C253.784 221.912 253.504 223.12 253.504 224.64C253.504 226.176 253.784 227.368 254.344 228.216C254.92 229.064 255.784 229.488 256.936 229.488ZM268.918 218.136V231H266.806V218.136H268.918ZM267.886 213.312C268.206 213.312 268.486 213.424 268.726 213.648C268.982 213.856 269.11 214.192 269.11 214.656C269.11 215.104 268.982 215.44 268.726 215.664C268.486 215.888 268.206 216 267.886 216C267.534 216 267.238 215.888 266.998 215.664C266.758 215.44 266.638 215.104 266.638 214.656C266.638 214.192 266.758 213.856 266.998 213.648C267.238 213.424 267.534 213.312 267.886 213.312ZM277.289 229.512C277.609 229.512 277.937 229.488 278.273 229.44C278.609 229.376 278.881 229.312 279.089 229.248V230.856C278.865 230.968 278.545 231.056 278.129 231.12C277.713 231.2 277.313 231.24 276.929 231.24C276.257 231.24 275.633 231.128 275.057 230.904C274.497 230.664 274.041 230.256 273.689 229.68C273.337 229.104 273.161 228.296 273.161 227.256V219.768H271.337V218.76L273.185 217.92L274.025 215.184H275.273V218.136H278.993V219.768H275.273V227.208C275.273 227.992 275.457 228.576 275.825 228.96C276.209 229.328 276.697 229.512 277.289 229.512ZM295.977 215.52C295.065 215.52 294.241 215.68 293.505 216C292.769 216.304 292.145 216.76 291.633 217.368C291.121 217.96 290.729 218.688 290.457 219.552C290.185 220.4 290.049 221.36 290.049 222.432C290.049 223.84 290.265 225.064 290.697 226.104C291.145 227.144 291.801 227.944 292.665 228.504C293.545 229.064 294.641 229.344 295.953 229.344C296.705 229.344 297.417 229.28 298.089 229.152C298.761 229.024 299.417 228.864 300.057 228.672V230.544C299.417 230.784 298.753 230.96 298.065 231.072C297.393 231.184 296.585 231.24 295.641 231.24C293.897 231.24 292.441 230.88 291.273 230.16C290.105 229.44 289.225 228.416 288.633 227.088C288.057 225.76 287.769 224.2 287.769 222.408C287.769 221.112 287.945 219.928 288.297 218.856C288.665 217.784 289.193 216.856 289.881 216.072C290.585 215.288 291.449 214.688 292.473 214.272C293.497 213.84 294.673 213.624 296.001 213.624C296.881 213.624 297.729 213.712 298.545 213.888C299.361 214.064 300.089 214.312 300.729 214.632L299.865 216.456C299.337 216.216 298.745 216 298.089 215.808C297.449 215.616 296.745 215.52 295.977 215.52ZM308.381 217.92C309.949 217.92 311.109 218.264 311.861 218.952C312.613 219.64 312.989 220.736 312.989 222.24V231H311.453L311.045 229.176H310.949C310.581 229.64 310.197 230.032 309.797 230.352C309.413 230.656 308.965 230.88 308.453 231.024C307.957 231.168 307.349 231.24 306.629 231.24C305.861 231.24 305.165 231.104 304.541 230.832C303.933 230.56 303.453 230.144 303.101 229.584C302.749 229.008 302.573 228.288 302.573 227.424C302.573 226.144 303.077 225.16 304.085 224.472C305.093 223.768 306.645 223.384 308.741 223.32L310.925 223.248V222.48C310.925 221.408 310.693 220.664 310.229 220.248C309.765 219.832 309.109 219.624 308.261 219.624C307.589 219.624 306.949 219.728 306.341 219.936C305.733 220.128 305.165 220.352 304.637 220.608L303.989 219.024C304.549 218.72 305.213 218.464 305.981 218.256C306.749 218.032 307.549 217.92 308.381 217.92ZM309.005 224.784C307.405 224.848 306.293 225.104 305.669 225.552C305.061 226 304.757 226.632 304.757 227.448C304.757 228.168 304.973 228.696 305.405 229.032C305.853 229.368 306.421 229.536 307.109 229.536C308.197 229.536 309.101 229.24 309.821 228.648C310.541 228.04 310.901 227.112 310.901 225.864V224.712L309.005 224.784ZM322.962 217.896C323.202 217.896 323.458 217.912 323.73 217.944C324.018 217.96 324.266 217.992 324.474 218.04L324.21 219.984C324.002 219.936 323.77 219.896 323.514 219.864C323.274 219.832 323.042 219.816 322.818 219.816C322.322 219.816 321.85 219.92 321.402 220.128C320.954 220.336 320.554 220.632 320.202 221.016C319.85 221.384 319.57 221.832 319.362 222.36C319.17 222.888 319.074 223.48 319.074 224.136V231H316.962V218.136H318.69L318.93 220.488H319.026C319.298 220.008 319.626 219.576 320.01 219.192C320.394 218.792 320.834 218.48 321.33 218.256C321.826 218.016 322.37 217.896 322.962 217.896ZM330.967 231.24C329.367 231.24 328.087 230.688 327.127 229.584C326.167 228.464 325.687 226.8 325.687 224.592C325.687 222.384 326.167 220.72 327.127 219.6C328.103 218.464 329.391 217.896 330.991 217.896C331.663 217.896 332.247 217.984 332.743 218.16C333.239 218.32 333.671 218.544 334.039 218.832C334.407 219.12 334.719 219.44 334.975 219.792H335.119C335.103 219.584 335.071 219.28 335.023 218.88C334.991 218.464 334.975 218.136 334.975 217.896V212.76H337.087V231H335.383L335.071 229.272H334.975C334.719 229.64 334.407 229.976 334.039 230.28C333.671 230.568 333.231 230.8 332.719 230.976C332.223 231.152 331.639 231.24 330.967 231.24ZM331.303 229.488C332.663 229.488 333.615 229.12 334.159 228.384C334.719 227.632 334.999 226.504 334.999 225V224.616C334.999 223.016 334.735 221.792 334.207 220.944C333.679 220.08 332.703 219.648 331.279 219.648C330.143 219.648 329.287 220.104 328.711 221.016C328.151 221.912 327.871 223.12 327.871 224.64C327.871 226.176 328.151 227.368 328.711 228.216C329.287 229.064 330.151 229.488 331.303 229.488ZM349.549 227.448C349.549 228.28 349.341 228.976 348.925 229.536C348.509 230.096 347.917 230.52 347.149 230.808C346.381 231.096 345.469 231.24 344.413 231.24C343.517 231.24 342.741 231.168 342.085 231.024C341.445 230.88 340.877 230.68 340.381 230.424V228.504C340.893 228.76 341.509 229 342.229 229.224C342.965 229.432 343.709 229.536 344.461 229.536C345.533 229.536 346.309 229.368 346.789 229.032C347.269 228.68 347.509 228.216 347.509 227.64C347.509 227.32 347.421 227.032 347.245 226.776C347.069 226.52 346.749 226.264 346.285 226.008C345.837 225.752 345.189 225.464 344.341 225.144C343.509 224.824 342.797 224.504 342.205 224.184C341.613 223.864 341.157 223.48 340.837 223.032C340.517 222.584 340.357 222.008 340.357 221.304C340.357 220.216 340.797 219.376 341.677 218.784C342.573 218.192 343.741 217.896 345.181 217.896C345.965 217.896 346.693 217.976 347.365 218.136C348.053 218.28 348.693 218.488 349.285 218.76L348.565 220.44C348.213 220.28 347.837 220.144 347.437 220.032C347.053 219.904 346.661 219.808 346.261 219.744C345.861 219.664 345.453 219.624 345.037 219.624C344.173 219.624 343.509 219.768 343.045 220.056C342.597 220.328 342.373 220.704 342.373 221.184C342.373 221.536 342.477 221.84 342.685 222.096C342.893 222.336 343.237 222.576 343.717 222.816C344.213 223.04 344.869 223.312 345.685 223.632C346.501 223.936 347.197 224.248 347.773 224.568C348.349 224.888 348.789 225.28 349.093 225.744C349.397 226.192 349.549 226.76 349.549 227.448Z" fill="black"/>
</g>
<defs>
<filter id="filter0_d_47_712" x="0" y="0" width="380" height="314" filterUnits="userSpaceOnUse" color-interpolation-filters="sRGB">
<feFlood flood-opacity="0" result="BackgroundImageFix"/>
<feColorMatrix in="SourceAlpha" type="matrix" values="0 0 0 0 0 0 0 0 0 0 0 0 0 0 0 0 0 0 127 0" result="hardAlpha"/>
<feOffset dy="4"/>
<feGaussianBlur stdDeviation="2"/>
<feComposite in2="hardAlpha" operator="out"/>
<feColorMatrix type="matrix" values="0 0 0 0 0 0 0 0 0 0 0 0 0 0 0 0 0 0 0.25 0"/>
<feBlend mode="normal" in2="BackgroundImageFix" result="effect1_dropShadow_47_712"/>
<feBlend mode="normal" in="SourceGraphic" in2="effect1_dropShadow_47_712" result="shape"/>
</filter>
</defs>
</svg>
