<svg width="427" height="159" viewBox="0 0 427 159" fill="none" xmlns="http://www.w3.org/2000/svg">
<g id="Online Gaming">
<path id="Vector" d="M270.65 65.529C269.294 65.5192 267.942 65.3753 266.614 65.0995C257.385 63.2495 251.138 54.7995 248.546 40.6705C247.362 33.7574 246.978 26.731 247.401 19.73L247.901 19.77C247.869 20.1745 244.883 60.232 266.714 64.609C277.234 66.718 280.808 60.6275 284.264 54.737C288.021 48.3305 291.57 42.28 303.623 48.232L303.402 48.682C291.767 42.9355 288.489 48.522 284.696 54.9915C281.77 59.972 278.512 65.529 270.65 65.529Z" fill="white"/>
<path id="Vector_2" d="M152.506 68.166C150.392 68.166 148.044 67.2725 145.488 65.4895C132.484 56.4195 123.201 64.9486 123.109 65.0361L122.765 64.6725C122.86 64.5825 132.427 55.7725 145.774 65.0795C149.647 67.7795 152.989 68.3666 155.709 66.8226C163.839 62.2056 165.266 39.9486 163.891 20.6581L164.391 20.6226C165.776 40.0646 164.288 62.5256 155.956 67.257C154.906 67.8586 153.716 68.1721 152.506 68.166Z" fill="white"/>
<g id="Group">
<g id="Group_2">
<g id="Group_3">
<g id="Group_4">
<path id="Vector_3" d="M369.35 31.2881C369.312 30.6826 369.295 30.0276 369.303 29.3226C369.31 28.4176 369.361 27.4281 369.464 26.3491L361.493 24.7676C361.623 26.7511 361.546 28.7427 361.261 30.7101C361.255 30.7601 361.245 30.8101 361.239 30.8601V30.8651C360.855 33.2611 360.035 35.7411 358.329 37.0651L370.833 37.2151C370.181 36.0586 369.533 34.1956 369.35 31.2881Z" fill="black"/>
<path id="Vector_4" d="M374.044 22.3202C373.452 25.5072 371.672 28.5107 368.844 29.5082C365.485 30.6927 363.006 30.7457 359.15 30.6987C353.888 30.6352 354.128 25.1487 354.048 19.6172C353.966 14.0627 354.48 8.11221 356.583 6.20271C360.783 2.39071 372.936 4.98421 374.34 11.4617C375.064 14.8117 374.607 19.2862 374.044 22.3202Z" fill="black"/>
</g>
<path id="Vector_5" d="M350.959 6.07249C351.878 2.85499 354.641 1.31149 359.163 2.55199C362.38 3.43449 362.797 2.68149 365.546 1.39899C367.12 0.664991 372.249 1.071 373.478 4.5615C374.796 8.3005 379.045 5.33649 379.363 11.406C379.629 16.486 377.825 23.7215 374.328 27.763C373.117 29.163 371.149 30.8325 369.637 31.2335C368.15 31.6275 361.75 31.1905 361.132 30.8135C358.096 28.96 358.511 20.6355 359.061 15.299C359.151 14.421 359.007 12.958 356.751 12.931C355.201 12.912 354.343 12.865 353.551 12.278C353.55 12.278 350.039 9.28999 350.959 6.07249Z" fill="#0F1011"/>
<path id="Vector_6" d="M355.965 20.6888C355.922 21.0929 355.96 21.5016 356.076 21.891C356.192 22.2805 356.384 22.6431 356.642 22.9577C356.899 23.2723 357.216 23.5327 357.575 23.7238C357.934 23.9149 358.327 24.033 358.731 24.0711C359.136 24.1092 359.544 24.0666 359.932 23.9458C360.32 23.825 360.68 23.6284 360.992 23.3674C361.303 23.1064 361.56 22.7861 361.747 22.4252C361.934 22.0642 362.047 21.6698 362.08 21.2648C362.125 20.862 362.089 20.4543 361.973 20.066C361.857 19.6777 361.664 19.3167 361.405 19.0046C361.147 18.6924 360.828 18.4354 360.468 18.249C360.109 18.0625 359.715 17.9504 359.311 17.9193C357.123 17.8213 356.124 19.0003 355.965 20.6888Z" fill="black"/>
</g>
<g id="Group_5">
<path id="Vector_7" d="M359.364 20.3436C359.186 20.3088 359.02 20.2259 358.885 20.1037C358.75 19.9816 358.65 19.8249 358.598 19.6506C358.473 19.2356 357.152 9.46956 360.975 3.58556C361.586 2.57345 362.428 1.72101 363.433 1.09856C364.438 0.476103 365.577 0.101474 366.755 0.00556165C366.886 -0.00828931 367.018 0.00379198 367.144 0.0411223C367.27 0.0784525 367.388 0.140295 367.49 0.223106C367.592 0.305917 367.677 0.408072 367.739 0.52372C367.802 0.639367 367.841 0.766232 367.855 0.897056C367.912 1.44706 367.513 1.43805 366.963 1.49705C364.297 1.77255 363.893 2.82006 362.642 4.69706C359.268 9.76206 360.487 18.9836 360.515 19.0761C360.565 19.2411 360.571 19.4163 360.533 19.5844C360.496 19.7526 360.415 19.9082 360.299 20.036C360.183 20.1638 360.037 20.2595 359.873 20.3138C359.709 20.3682 359.535 20.3793 359.365 20.3461L359.364 20.3436Z" fill="white"/>
<path id="Vector_8" d="M360.78 24.542C363.427 24.542 365.572 22.3965 365.572 19.75C365.572 17.1035 363.427 14.958 360.78 14.958C358.134 14.958 355.988 17.1035 355.988 19.75C355.988 22.3965 358.134 24.542 360.78 24.542Z" fill="white"/>
<path id="Vector_9" d="M359.053 24.4326C361.699 24.4326 363.845 22.2872 363.845 19.6406C363.845 16.9941 361.699 14.8486 359.053 14.8486C356.406 14.8486 354.261 16.9941 354.261 19.6406C354.261 22.2872 356.406 24.4326 359.053 24.4326Z" fill="#DEE8F5"/>
<path id="Vector_10" d="M353.756 26.6556C352.881 26.6556 351.881 26.6164 350.756 26.5381C350.558 26.5242 350.373 26.4322 350.243 26.2822C350.112 26.1322 350.047 25.9365 350.06 25.7381C350.065 25.6391 350.09 25.542 350.133 25.4528C350.176 25.3635 350.237 25.284 350.312 25.2189C350.386 25.1539 350.473 25.1047 350.568 25.0743C350.662 25.0439 350.762 25.0329 350.86 25.0421C353.349 25.2151 356.339 25.1651 356.96 24.8221C357.269 23.8952 357.529 22.953 357.74 21.9991C357.76 21.9006 357.799 21.8071 357.856 21.7242C357.913 21.6413 357.986 21.5706 358.07 21.5164C358.155 21.4621 358.249 21.4255 358.348 21.4085C358.447 21.3915 358.549 21.3946 358.647 21.4176C358.744 21.4406 358.837 21.483 358.918 21.5423C358.999 21.6016 359.067 21.6766 359.119 21.7628C359.17 21.849 359.204 21.9447 359.218 22.0443C359.232 22.1438 359.225 22.2451 359.199 22.3421C358.967 23.4715 358.639 24.579 358.218 25.6526C357.819 26.3196 356.321 26.6556 353.756 26.6556Z" fill="#DEE8F5"/>
<path id="Vector_11" d="M350.986 24.6331H349.971C349.323 24.6331 348.798 25.158 348.798 25.8056C348.798 26.4531 349.323 26.9781 349.971 26.9781H350.986C351.634 26.9781 352.159 26.4531 352.159 25.8056C352.159 25.158 351.634 24.6331 350.986 24.6331Z" fill="white"/>
</g>
</g>
<g id="Group_6">
<path id="Vector_12" d="M256.957 153.567L248.542 149.177C248.542 149.177 256.672 138.557 257.256 137.792L264.1 144.168C263.516 144.931 256.957 153.567 256.957 153.567Z" fill="black"/>
<path id="Vector_13" d="M255.201 151.2L255.191 151.2C253.045 151.265 250.936 150.641 249.171 149.421C249.022 149.334 248.857 149.279 248.685 149.26C248.509 149.241 248.331 149.26 248.163 149.315C248.162 149.315 248.162 149.315 248.162 149.315L235.953 153.408C235.678 153.512 235.439 153.692 235.262 153.927C235.084 154.163 234.977 154.446 234.954 154.741L255.201 151.2ZM255.201 151.2L255.211 151.199M255.201 151.2L255.211 151.199M255.211 151.199C256.896 151.079 258.514 150.488 259.88 149.492L259.891 149.484M255.211 151.199L259.891 149.484M259.891 149.484L259.902 149.475M259.891 149.484L259.902 149.475M259.902 149.475C259.943 149.442 259.991 149.421 260.043 149.415C260.094 149.408 260.146 149.417 260.193 149.439C260.24 149.461 260.28 149.496 260.307 149.54C260.335 149.584 260.349 149.635 260.349 149.687V149.688M259.902 149.475L260.349 149.688M260.349 149.688V155.664C260.349 155.775 260.328 155.884 260.285 155.986C260.243 156.088 260.181 156.181 260.103 156.258C260.024 156.336 259.931 156.398 259.829 156.44C259.727 156.482 259.618 156.504 259.507 156.503L236.497 156.415C236.497 156.415 236.497 156.415 236.497 156.415M260.349 149.688L236.497 156.415M236.497 156.415C236.283 156.414 236.072 156.369 235.877 156.283C235.681 156.197 235.506 156.071 235.361 155.914C235.216 155.757 235.105 155.572 235.035 155.37C234.965 155.168 234.938 154.954 234.954 154.741L236.497 156.415Z" fill="white" stroke="black"/>
<path id="Vector_14" d="M293.583 140.497L290.153 150.459L300.081 153.877L303.51 143.915L293.583 140.497Z" fill="black"/>
<path id="Vector_15" d="M296.818 151.214L296.807 151.214C294.662 151.279 292.553 150.655 290.788 149.435C290.639 149.348 290.474 149.294 290.303 149.274C290.127 149.255 289.948 149.273 289.78 149.329C289.78 149.329 289.78 149.329 289.78 149.329L277.568 153.419C277.294 153.523 277.055 153.703 276.878 153.937C276.7 154.174 276.593 154.456 276.57 154.751L296.818 151.214ZM296.818 151.214L296.828 151.213M296.818 151.214L296.828 151.213M296.828 151.213C298.513 151.093 300.131 150.502 301.497 149.508L301.508 149.499M296.828 151.213L301.508 149.499M301.508 149.499L301.519 149.49M301.508 149.499L301.519 149.49M301.519 149.49C301.56 149.457 301.608 149.436 301.66 149.43C301.711 149.424 301.763 149.432 301.81 149.455C301.857 149.477 301.897 149.512 301.924 149.556C301.952 149.6 301.967 149.65 301.966 149.702V149.704M301.519 149.49L301.966 149.704M301.966 149.704V155.681C301.966 155.791 301.945 155.9 301.902 156.002C301.86 156.104 301.798 156.197 301.719 156.275C301.641 156.353 301.548 156.415 301.446 156.457C301.344 156.499 301.234 156.52 301.124 156.52L278.112 156.426C278.112 156.426 278.112 156.426 278.112 156.426M301.966 149.704L278.112 156.426M278.112 156.426C278.112 156.426 278.112 156.426 278.112 156.426M278.112 156.426L278.112 156.426M278.112 156.426C277.898 156.425 277.687 156.38 277.492 156.294M278.112 156.426L277.492 156.294M277.492 156.294C277.296 156.208 277.121 156.082 276.976 155.925M277.492 156.294L276.976 155.925M276.976 155.925C276.831 155.768 276.721 155.582 276.651 155.38M276.976 155.925L276.651 155.38M276.651 155.38C276.581 155.179 276.553 154.965 276.57 154.752L276.651 155.38Z" fill="white" stroke="black"/>
<path id="Vector_16" d="M313.026 77.9255L312.876 77.9001C310.553 77.5155 308.17 78.0317 306.214 79.3434C304.258 80.6551 302.876 82.6635 302.35 84.959L288.35 146.07L306.383 150.201L318.279 98.2705C318.404 98.303 318.529 98.3345 318.655 98.3665C321.645 99.1332 324.626 99.9179 327.6 100.721C333.538 102.326 339.444 107.502 345.173 109.304L350.75 87.3975C344.382 86.14 316.216 78.3405 313.026 77.9255Z" fill="#262626"/>
<path id="Vector_17" opacity="0.07" d="M313.026 77.9255L312.876 77.9001C310.553 77.5155 308.17 78.0317 306.214 79.3434C304.258 80.6551 302.876 82.6635 302.35 84.959L288.35 146.07L306.383 150.201L318.279 98.2705C318.404 98.303 318.529 98.3345 318.655 98.3665C321.645 99.1332 324.626 99.9179 327.6 100.721C333.538 102.326 339.444 107.502 345.173 109.304L350.75 87.3975C344.382 86.14 316.216 78.3405 313.026 77.9255Z" fill="black"/>
<path id="Vector_18" d="M375.465 104.129L376.922 90.516L337.9 87.2095L336.863 89.931C326.799 87.5525 316.673 82.228 306.488 80.662C304.77 80.3967 303.012 80.5859 301.389 81.2108C299.766 81.8358 298.335 82.8746 297.238 84.224L247.65 145.52L263.887 153.567L308.931 101.906C316.6 103.471 355.789 119.177 366.141 114.087C371.713 111.347 375.219 106.425 375.465 104.129Z" fill="#262626"/>
</g>
<g id="Group_7">
<path id="Vector_19" d="M324.9 51.8366C323.603 51.1036 319.163 47.7722 318.466 48.8867C318.275 49.1912 318.64 49.8127 319.234 50.5257C315.861 48.8452 314.044 48.4347 313.128 50.0572C312.066 51.9357 311.232 53.7501 316.595 56.7801C320.65 59.0716 324.17 56.4801 323.293 53.8301L324.9 51.8366Z" fill="black"/>
<g id="Group_8">
<path id="Vector_20" d="M299.884 63.597C298.941 62.8865 294.997 58.2545 293.834 55.665C292.671 53.0755 293.817 48.112 300.45 48.6835C307.083 49.255 304.65 44.666 308.3 43.4895C312.741 42.057 318.69 47.719 319.874 50.317C320.424 51.529 320.024 53.117 318.066 53.007C315.823 52.88 311.505 51.019 310.682 50.9485C309.14 50.8155 305.153 53.322 305.054 54.4705C304.864 56.7546 304.835 59.0493 304.969 61.3375C305.169 63.767 302.394 65.4885 299.884 63.597Z" fill="#0CBC8B"/>
<path id="Vector_21" d="M302.52 52.0913C302.625 50.8711 301.385 49.7678 299.751 49.627C298.116 49.4862 296.706 50.3613 296.601 51.5815C296.496 52.8016 297.736 53.9049 299.37 54.0457C301.005 54.1865 302.415 53.3115 302.52 52.0913Z" fill="white"/>
<path id="Vector_22" d="M313.232 46.4778C313.325 45.3985 312.228 44.4226 310.783 44.2981C309.337 44.1736 308.09 44.9476 307.997 46.0269C307.904 47.1062 309 48.0821 310.446 48.2066C311.891 48.3311 313.139 47.5571 313.232 46.4778Z" fill="white"/>
</g>
<path id="Vector_23" d="M340.071 65.7269C341.607 51.9449 336.685 32.3119 353.234 33.6359C355.237 33.7959 364.961 34.9789 372.079 35.8564C376.861 36.4459 380.605 38.3974 382.593 40.9439C389.446 49.7239 378.21 61.8604 376.925 72.2839C375.64 82.7074 379.775 87.9594 378.772 93.2654C377.19 101.607 336.58 94.5834 335.087 89.5504C333.55 84.3604 338.275 81.8619 340.071 65.7269Z" fill="#D9D9D9"/>
<path id="Vector_24" d="M353.614 73.3624C352.708 73.3624 351.816 73.1361 351.019 72.7039L316.758 59.1414L321.95 49.5554L352.966 61.3599L375.866 42.3179L382.836 50.7009L357.101 72.1009C356.122 72.9159 354.888 73.3623 353.614 73.3624Z" fill="#D9D9D9"/>
<path id="Vector_25" d="M308.413 60.4557L309.606 58.8057C308.309 58.0727 303.788 55.1202 303.091 56.2342C302.9 56.5387 303.266 57.1602 303.86 57.8732C300.487 56.1927 298.67 55.7827 297.753 57.4047C296.692 59.2832 295.858 61.0982 301.22 64.1277C306.582 67.1572 311.87 62.7932 308.413 60.4557Z" fill="black"/>
<path id="Vector_26" d="M331.2 81.5971C330.026 81.597 328.886 81.2034 327.961 80.4791L302.429 65.4686L308.907 57.2036L329.242 68.1421L343.206 38.2996L352.717 42.7496L335.955 78.5721C335.532 79.4758 334.86 80.2402 334.017 80.7759C333.175 81.3116 332.198 81.5964 331.2 81.5971Z" fill="#D9D9D9"/>
</g>
</g>
<path id="Vector_27" d="M388.885 66.1325C401.036 66.176 420.625 78.9271 425.224 106.759C428.148 124.46 425.784 136.673 418.813 144.559C411.834 152.454 400.124 156.147 384.032 156.52C378.956 156.637 373.749 156.803 368.574 156.968C361.916 157.18 355.309 157.391 349.095 157.495C338.056 157.68 328.342 157.526 321.923 156.456C306.486 153.565 299.863 141.753 299.687 130.326C299.511 118.838 305.821 107.996 316.024 106.806C333.148 106.803 343.66 104.248 350.446 100.363C357.261 96.4618 360.261 91.2515 362.432 86.106C362.93 84.9245 363.386 83.7437 363.832 82.5871C363.87 82.4887 363.908 82.3905 363.946 82.2924C364.43 81.039 364.907 79.8161 365.424 78.6352C366.46 76.2739 367.648 74.1068 369.347 72.2618C372.721 68.5979 378.214 66.0945 388.885 66.1325Z" fill="white" stroke="black"/>
<g id="Group_9">
<g id="Group_10">
<g id="Group_11">
<path id="Vector_28" d="M45.8668 43.1235C45.8668 43.1235 49.6363 40.901 48.2978 30.4235L56.2108 28.5825C56.2108 28.5825 55.7413 38.0525 59.9138 40.8635L45.8668 43.1235Z" fill="black"/>
<path id="Vector_29" d="M43.5854 26.5493C44.2824 29.7153 46.1604 32.6583 49.0219 33.5618C52.1452 34.6404 55.485 34.9386 58.7499 34.4303C67.4534 33.3183 64.8259 13.5303 60.5039 9.86227C56.1819 6.19427 44.1199 9.18627 42.9314 15.7058C42.3169 19.0793 42.9219 23.5363 43.5854 26.5493Z" fill="black"/>
<path id="Vector_30" d="M60.4943 16.5588C59.0408 32.2588 56.4283 36.7408 48.1473 34.6923C46.2473 34.2228 41.3648 30.4783 39.7618 21.3878C39.1942 18.3562 39.7554 15.2217 41.3396 12.5754C42.9239 9.92909 45.4216 7.95389 48.3618 7.02227C63.7118 2.85277 66.0618 16.8933 66.0618 16.8933C58.3908 19.2398 47.4248 18.3828 47.4248 18.3828" fill="#0F1011"/>
<path id="Vector_31" d="M61.9628 25.1315C62.0139 25.5316 61.9857 25.9379 61.8798 26.3271C61.7739 26.7163 61.5924 27.0809 61.3456 27.3999C61.0988 27.719 60.7916 27.9863 60.4416 28.1867C60.0915 28.387 59.7054 28.5164 59.3053 28.5675C58.9051 28.6187 58.4989 28.5905 58.1097 28.4846C57.7205 28.3787 57.3559 28.1972 57.0369 27.9504C56.3925 27.452 55.9725 26.7181 55.8692 25.91C55.8111 25.509 55.8343 25.1003 55.9374 24.7084C56.0405 24.3164 56.2214 23.9492 56.4694 23.6287C56.7173 23.3081 57.0273 23.0407 57.3807 22.8425C57.7342 22.6442 58.1239 22.5191 58.5268 22.4745C60.7103 22.3055 61.7498 23.449 61.9628 25.1315Z" fill="black"/>
</g>
<g id="Group_12">
<path id="Vector_32" d="M57.8799 25.5257C58.0586 25.491 58.2245 25.408 58.3596 25.2859C58.4946 25.1638 58.5938 25.0071 58.6464 24.8327C58.7709 24.4177 60.0924 14.6517 56.2689 8.76772C55.6584 7.75532 54.816 6.90256 53.8111 6.27976C52.8062 5.65697 51.6677 5.28198 50.4894 5.18573C50.3585 5.17188 50.2263 5.18398 50.1001 5.22135C49.974 5.25871 49.8564 5.32059 49.7543 5.40345C49.6521 5.48631 49.5672 5.58853 49.5046 5.70423C49.442 5.81994 49.4028 5.94686 49.3894 6.07773C49.3329 6.62773 49.7319 6.61873 50.2814 6.67773C52.9474 6.95323 53.3509 8.00073 54.6024 9.87773C57.9764 14.9427 56.7569 24.1642 56.7294 24.2567C56.6796 24.4218 56.6733 24.5969 56.7112 24.7651C56.7491 24.9333 56.8298 25.0889 56.9455 25.2167C57.0612 25.3445 57.208 25.4402 57.3717 25.4945C57.5353 25.5488 57.7102 25.5599 57.8794 25.5267L57.8799 25.5257Z" fill="white"/>
<path id="Vector_33" d="M56.4641 29.7241C59.1107 29.7241 61.2561 27.5787 61.2561 24.9321C61.2561 22.2856 59.1107 20.1401 56.4641 20.1401C53.8176 20.1401 51.6721 22.2856 51.6721 24.9321C51.6721 27.5787 53.8176 29.7241 56.4641 29.7241Z" fill="white"/>
<path id="Vector_34" d="M58.1917 29.6143C60.8382 29.6143 62.9837 27.4688 62.9837 24.8223C62.9837 22.1757 60.8382 20.0303 58.1917 20.0303C55.5451 20.0303 53.3997 22.1757 53.3997 24.8223C53.3997 27.4688 55.5451 29.6143 58.1917 29.6143Z" fill="#DEE8F5"/>
<path id="Vector_35" d="M63.4889 31.8366C60.9234 31.8366 59.4249 31.5011 59.0214 30.8336C58.6009 29.7599 58.2725 28.6524 58.0399 27.5231C57.9994 27.3313 58.0355 27.1312 58.1406 26.9657C58.2458 26.8002 58.4115 26.6825 58.6024 26.6377C58.7933 26.593 58.9941 26.6247 59.1618 26.7262C59.3296 26.8276 59.4509 26.9907 59.4999 27.1806C59.7105 28.1344 59.971 29.0765 60.2804 30.0031C60.9069 30.3476 63.8944 30.3961 66.3804 30.2236C66.4799 30.2145 66.5801 30.2253 66.6753 30.2554C66.7705 30.2856 66.8588 30.3344 66.9348 30.3991C67.0109 30.4638 67.0733 30.5431 67.1183 30.6322C67.1634 30.7213 67.1901 30.8185 67.1971 30.9182C67.2041 31.0178 67.1911 31.1178 67.1588 31.2123C67.1266 31.3069 67.0759 31.394 67.0095 31.4686C66.9432 31.5433 66.8626 31.6039 66.7725 31.647C66.6824 31.6901 66.5847 31.7148 66.4849 31.7196C65.3636 31.7976 64.3649 31.8366 63.4889 31.8366Z" fill="#DEE8F5"/>
<path id="Vector_36" d="M66.258 32.1602H67.2735C67.9211 32.1602 68.446 31.6352 68.446 30.9877C68.446 30.3401 67.9211 29.8152 67.2735 29.8152H66.258C65.6105 29.8152 65.0855 30.3401 65.0855 30.9877C65.0855 31.6352 65.6105 32.1602 66.258 32.1602Z" fill="white"/>
</g>
</g>
<g id="Group_13">
<g id="Group_14">
<path id="Vector_37" d="M181.839 146.662C182.15 146.95 182.418 147.198 182.626 147.391L174.572 152.357L174.504 152.293C174.282 152.09 173.966 151.797 173.584 151.444C172.821 150.737 171.798 149.787 170.759 148.811C169.72 147.835 168.667 146.835 167.843 146.03C167.431 145.627 167.079 145.275 166.815 145C166.774 144.956 166.735 144.915 166.698 144.876L174.753 139.874C174.832 139.962 174.921 140.056 175.015 140.153C175.29 140.441 175.651 140.802 176.067 141.21C176.9 142.025 177.961 143.034 179.003 144.015C180.046 144.997 181.073 145.952 181.839 146.662Z" fill="black" stroke="black"/>
<path id="Vector_38" d="M177.14 149.899L177.147 149.892L177.155 149.885C178.724 148.422 179.784 146.495 180.18 144.386C180.225 144.219 180.304 144.064 180.412 143.93C180.523 143.792 180.663 143.68 180.821 143.601C180.822 143.601 180.822 143.601 180.822 143.6L192.374 137.915C192.642 137.796 192.939 137.755 193.229 137.797C193.522 137.84 193.797 137.966 194.021 138.159C194.182 138.299 194.314 138.47 194.406 138.663C194.498 138.855 194.55 139.065 194.558 139.279C194.566 139.492 194.529 139.705 194.451 139.904C194.373 140.102 194.254 140.283 194.103 140.434L177.82 156.692C177.82 156.692 177.82 156.692 177.82 156.692C177.742 156.77 177.649 156.832 177.547 156.874C177.445 156.916 177.335 156.937 177.225 156.937C177.114 156.937 177.005 156.915 176.903 156.872C176.801 156.829 176.709 156.767 176.631 156.688L176.631 156.688L172.427 152.442L172.425 152.441C172.388 152.404 172.363 152.358 172.352 152.307C172.34 152.257 172.344 152.204 172.361 152.155C172.379 152.106 172.41 152.064 172.451 152.032C172.492 152 172.541 151.981 172.593 151.976L172.607 151.975L172.621 151.973C174.292 151.718 175.858 151 177.14 149.899Z" fill="white" stroke="black"/>
</g>
<path id="Vector_39" d="M145.075 153.584C143.844 150.565 142.437 147.169 141.828 145.777L150.167 141.171C150.522 141.927 151.417 143.97 153.875 150.006L145.075 153.584Z" fill="black" stroke="black"/>
<path id="Vector_40" d="M147.65 150.657L147.66 150.658L147.67 150.659C149.814 150.751 151.931 150.155 153.712 148.958C153.862 148.873 154.028 148.82 154.2 148.803C154.376 148.786 154.554 148.807 154.721 148.865C154.721 148.865 154.722 148.865 154.722 148.865L166.879 153.111C167.152 153.219 167.389 153.401 167.562 153.638C167.737 153.877 167.841 154.161 167.86 154.456C167.874 154.669 167.843 154.883 167.771 155.084C167.698 155.285 167.585 155.469 167.438 155.624C167.292 155.779 167.114 155.903 166.918 155.986C166.721 156.07 166.51 156.112 166.296 156.111C166.296 156.111 166.296 156.111 166.296 156.111L143.285 155.907C143.285 155.907 143.285 155.907 143.285 155.907C143.175 155.906 143.066 155.883 142.964 155.84L142.786 156.257L142.964 155.84C142.862 155.797 142.77 155.734 142.693 155.655C142.616 155.576 142.555 155.482 142.514 155.38C142.473 155.277 142.452 155.168 142.454 155.057C142.454 155.057 142.454 155.057 142.454 155.057L142.531 149.082L142.531 149.082L142.531 149.08C142.532 149.028 142.547 148.978 142.575 148.934C142.603 148.891 142.643 148.856 142.691 148.834C142.738 148.813 142.79 148.805 142.841 148.812C142.893 148.819 142.941 148.84 142.981 148.874L142.992 148.883L143.003 148.892C144.356 149.904 145.966 150.516 147.65 150.657Z" fill="white" stroke="black"/>
<path id="Vector_41" d="M180.858 137.96C178.271 136.83 124.428 85.3857 122.203 88.7257C105.374 88.3757 88.5169 87.9477 71.8374 91.1172L77.4154 113.024C90.8789 109.309 105.246 108.415 119.199 107.396L169.33 152.429L180.858 137.96Z" fill="#262626"/>
<path id="Vector_42" opacity="0.07" d="M180.858 137.96C178.271 136.83 124.428 85.3857 122.203 88.7257C105.374 88.3757 88.5169 87.9477 71.8374 91.1172L77.4154 113.024C90.8789 109.309 105.246 108.415 119.199 107.396L169.33 152.429L180.858 137.96Z" fill="black"/>
<path id="Vector_43" d="M157.028 144.735L129.457 92.5706C128.489 90.7463 126.979 89.267 125.135 88.3365C123.291 87.4061 121.204 87.0702 119.161 87.3751C107.876 89.1126 96.8943 91.0201 85.7233 93.6486L84.6878 90.9291L45.6648 94.2361L47.1223 107.849C47.7223 113.464 56.8013 121.699 65.0068 120.365C67.6178 119.745 70.6753 119.812 73.1318 119.162C87.3523 115.827 100.894 111.429 115.287 108.868L140.812 153.64L157.028 144.735Z" fill="#262626"/>
</g>
<g id="Group_15">
<path id="Vector_44" d="M113.707 63.8736C113.157 62.0936 111.294 62.1076 107.641 63.0326C108.373 62.4621 108.862 61.9326 108.741 61.5946C108.296 60.3576 103.249 62.6681 101.826 63.1086L102.972 65.3986C101.552 67.8016 104.439 71.0821 108.889 69.7056C114.773 67.8856 114.345 65.9346 113.707 63.8736Z" fill="black"/>
<g id="Group_16">
<path id="Vector_45" d="M123.769 79.9206C124.841 79.4271 129.681 75.7401 131.369 73.4576C133.058 71.1751 132.993 66.0811 126.39 65.2286C119.787 64.3761 123.14 60.4096 119.825 58.4836C115.79 56.1396 108.775 60.4066 107.064 62.6936C106.266 63.7601 106.319 65.3986 108.258 65.7066C110.477 66.0566 115.092 65.1596 115.912 65.2656C117.447 65.4656 120.809 68.7611 120.662 69.9041C120.362 72.1764 119.901 74.4246 119.285 76.6321C118.57 78.9631 120.915 81.2351 123.769 79.9206Z" fill="#0CBC8B"/>
<path id="Vector_46" opacity="0.33" d="M129.532 68.8769C129.689 67.6623 128.497 66.5074 126.87 66.2973C125.243 66.0872 123.797 66.9016 123.64 68.1162C123.483 69.3308 124.675 70.4857 126.302 70.6958C127.929 70.9059 129.375 70.0915 129.532 68.8769Z" fill="white"/>
<path id="Vector_47" opacity="0.33" d="M119.579 61.0255C119.717 59.9511 118.663 58.9296 117.224 58.7438C115.786 58.558 114.507 59.2784 114.368 60.3527C114.229 61.4271 115.283 62.4487 116.722 62.6345C118.161 62.8203 119.44 62.0999 119.579 61.0255Z" fill="white"/>
</g>
<path id="Vector_48" d="M80.1997 69.8481C77.4867 56.2481 80.7057 36.2661 64.3312 39.0051C62.3492 39.3366 52.7627 41.3501 45.7467 42.8351C41.0327 43.8351 37.4692 46.0981 35.7072 48.8061C29.6332 58.1416 41.8692 69.2691 44.0437 79.5436C46.2182 89.8181 42.5497 95.4056 44.0032 100.606C46.2962 108.781 86.1532 98.2981 87.2087 93.1556C88.2942 87.8556 83.3727 85.7701 80.1997 69.8481Z" fill="#D9D9D9"/>
<path id="Vector_49" d="M65.5717 76.6372C64.5115 76.6372 63.4744 76.3281 62.5872 75.7477L36.4302 58.6347L42.3997 49.5117L66.9247 65.5557L105.994 60.4942L107.165 71.3332L66.1572 76.6057C65.9627 76.6267 65.7673 76.6372 65.5717 76.6372Z" fill="#D9D9D9"/>
<path id="Vector_50" d="M127.35 74.9455C126.8 73.1655 124.757 72.556 121.104 73.4805C121.837 72.9105 122.326 72.3805 122.204 72.0425C121.76 70.8055 116.715 72.729 115.291 73.1695L116.106 75.035C112.231 76.585 115.137 81.742 122.353 80.1535C126.587 79.221 127.985 77.0055 127.35 74.9455Z" fill="black"/>
<path id="Vector_51" d="M89.9499 84.918C89.0285 84.9178 88.1234 84.6751 87.3255 84.2143C86.5276 83.7536 85.8651 83.0909 85.4044 82.293L65.6304 48.043L74.7244 42.793L92.7819 74.0735L118.02 71.266L119.181 81.7015L90.5314 84.8885C90.3382 84.9087 90.1441 84.9185 89.9499 84.918Z" fill="#D9D9D9"/>
</g>
<path id="Vector_52" d="M29.8198 24.4435C29.5953 17.027 31.3323 12.551 33.7758 10.189C36.1863 7.85847 43.8793 6.18897 47.0298 15.4135C49.0853 21.432 48.3798 23.4915 49.1458 32.969C49.9118 42.4465 52.1458 42.457 52.4728 51.1745C52.8228 60.4435 48.9768 67.643 39.0453 67.48C30.9363 67.3465 25.8218 63.397 25.1623 55.2445C24.2158 43.5445 30.2588 38.978 29.8198 24.4435Z" fill="#0F1011"/>
</g>
<path id="Vector_53" d="M1.45465 109.256C6.03804 81.5163 27.3326 72.3685 39.5716 72.3247C50.2578 72.2867 55.6381 74.5666 58.84 77.8856C60.4504 79.5548 61.5392 81.5159 62.4687 83.6574C62.9338 84.7289 63.3563 85.839 63.7857 86.9789C63.8193 87.068 63.8529 87.1574 63.8866 87.2469C64.2825 88.2985 64.6873 89.3736 65.1347 90.4496C67.0868 95.1432 69.8701 99.8938 76.5227 103.446C83.1373 106.978 93.5292 109.3 110.636 109.304C114.412 110.044 117.879 112.908 120.479 116.974C123.084 121.048 124.778 126.271 125.014 131.583C125.251 136.892 124.031 142.261 120.847 146.655C117.669 151.042 112.502 154.503 104.756 155.953C98.3421 157.023 88.6335 156.933 77.581 156.688C76.1942 156.658 74.7868 156.625 73.3628 156.591C63.4594 156.358 52.7547 156.106 42.615 156.518C29.8664 157.036 18.1357 153.971 10.3234 146.45C2.52968 138.946 -1.46172 126.909 1.45465 109.256Z" fill="white" stroke="black"/>
</g>
</svg>
