<svg width="656" height="917" viewBox="0 0 656 917" fill="none" xmlns="http://www.w3.org/2000/svg">
<g id="GridView">
<rect id="Rectangle 54" x="1.34159" y="123.343" width="444" height="824" rx="31.5" transform="rotate(-16 1.34159 123.343)" fill="#D9D9D9" stroke="black"/>
<path id="Grid View" d="M29.0292 192.495C28.5529 190.834 28.5601 189.234 29.051 187.695C29.5418 186.156 30.4709 184.791 31.8382 183.6C33.2261 182.403 34.9966 181.496 37.1498 180.879C39.4466 180.22 41.5783 180.031 43.5448 180.31C45.5319 180.584 47.2263 181.307 48.6281 182.481C50.0563 183.669 51.0674 185.299 51.6613 187.37C52.0435 188.703 52.2205 189.94 52.1923 191.08C52.1641 192.22 52.026 193.324 51.7779 194.394L49.0391 194.014C49.2638 193.018 49.4006 192.024 49.4495 191.034C49.5042 190.064 49.3758 189.035 49.0641 187.949C48.6936 186.657 48.0157 185.608 47.0304 184.803C46.0655 183.993 44.8313 183.481 43.3279 183.268C41.8303 183.076 40.1176 183.257 38.19 183.81C36.4674 184.304 35.0673 184.994 33.9898 185.88C32.9328 186.76 32.2114 187.765 31.8257 188.897C31.44 190.028 31.4235 191.209 31.7763 192.44C32.1056 193.588 32.6325 194.536 33.357 195.282C34.1079 196.043 34.8132 196.607 35.4729 196.972L40.1792 195.623L38.9003 191.163L41.2073 190.501L43.2801 197.73L31.868 201.002L31.1271 198.418L33.2803 197.801C32.4388 197.265 31.6044 196.561 30.7772 195.689C29.9706 194.811 29.3879 193.746 29.0292 192.495ZM33.1454 205.457L49.1408 200.871L49.9082 203.547L46.4323 204.543C47.1855 204.616 47.9138 204.795 48.6174 205.082C49.3415 205.363 49.9748 205.791 50.5175 206.368C51.0807 206.939 51.4916 207.676 51.7503 208.578C51.8385 208.885 51.9062 209.199 51.9534 209.518C52.0211 209.832 52.0536 210.1 52.0509 210.323L48.952 210.312C49.0044 209.876 48.9541 209.391 48.8012 208.858C48.5836 208.099 48.1596 207.433 47.529 206.859C46.9043 206.306 46.0761 205.933 45.0444 205.74C44.0186 205.568 42.8085 205.682 41.414 206.082L33.9393 208.226L33.1454 205.457ZM36.6684 217.743L52.6638 213.157L53.4577 215.925L37.4623 220.512L36.6684 217.743ZM55.7984 213.756C55.6455 213.223 55.708 212.705 55.9859 212.204C56.2697 211.723 56.668 211.409 57.1806 211.262C57.7753 211.092 58.297 211.131 58.7456 211.379C59.1941 211.628 59.5037 212.05 59.6742 212.645C59.8271 213.178 59.7617 213.685 59.4779 214.166C59.2205 214.661 58.8252 214.985 58.292 215.138C57.7178 215.303 57.1962 215.264 56.7271 215.021C56.2785 214.772 55.9689 214.351 55.7984 213.756ZM40.242 231.599C39.8657 230.287 39.8601 228.99 40.2251 227.709C40.5902 226.428 41.2968 225.293 42.3449 224.305C43.4136 223.31 44.7887 222.572 46.4702 222.09C48.0903 221.625 49.6272 221.529 51.0809 221.8C52.5405 222.091 53.7923 222.665 54.8363 223.519C55.8862 224.394 56.5964 225.478 56.9668 226.77C57.2726 227.836 57.319 228.811 57.1059 229.693C56.8987 230.596 56.6313 231.327 56.3036 231.887L64.6704 229.488L65.4643 232.256L46.5774 237.672C45.7981 237.895 45.3384 238.227 45.1981 238.667C45.0843 239.121 45.092 239.574 45.2214 240.025L42.9006 240.058C42.342 238.11 42.7802 236.697 44.2152 235.819C43.4501 235.55 42.6834 235.082 41.915 234.415C41.1525 233.768 40.5948 232.829 40.242 231.599ZM42.8793 231.509C43.0968 232.267 43.4769 232.935 44.0196 233.512C44.5887 234.103 45.2279 234.552 45.9374 234.859L53.8735 232.584C54.254 232.053 54.5493 231.38 54.7595 230.565C54.9902 229.745 54.985 228.914 54.7439 228.073C54.4617 227.089 53.9481 226.304 53.2033 225.719C52.4584 225.133 51.576 224.765 50.5561 224.613C49.5626 224.477 48.5019 224.57 47.374 224.893C46.2461 225.217 45.2928 225.723 44.5139 226.413C43.7556 227.096 43.226 227.88 42.925 228.766C42.6299 229.671 42.6146 230.586 42.8793 231.509ZM48.5767 259.272L67.0731 245.413L69.0008 247.956L52.2697 260.078L72.7983 261.548L72.5418 264.485L49.5205 262.564L48.5767 259.272ZM52.5693 273.196L68.5647 268.609L69.3585 271.378L53.3631 275.964L52.5693 273.196ZM71.6992 269.209C71.5464 268.675 71.6089 268.158 71.8868 267.657C72.1706 267.176 72.5688 266.862 73.0815 266.715C73.6762 266.545 74.1978 266.584 74.6464 266.832C75.095 267.081 75.4045 267.503 75.5751 268.097C75.7279 268.63 75.6625 269.137 75.3787 269.618C75.1213 270.114 74.726 270.438 74.1928 270.591C73.6186 270.756 73.097 270.716 72.6279 270.474C72.1793 270.225 71.8698 269.803 71.6992 269.209ZM56.2399 287.39C55.5813 285.093 55.7859 283.06 56.8538 281.289C57.9481 279.532 59.818 278.275 62.4633 277.516C64.0629 277.058 65.5734 276.946 66.9948 277.182C68.4427 277.433 69.6813 277.999 70.7107 278.88C71.7606 279.755 72.4913 280.91 72.903 282.346C73.344 283.884 73.3702 285.252 72.9816 286.451C72.6194 287.665 71.9478 288.689 70.967 289.526C69.9861 290.362 68.8189 290.974 67.4655 291.362C66.7477 291.568 66.0417 291.737 65.3473 291.869L62.1367 280.673C60.6926 281.286 59.6737 282.144 59.0798 283.247C58.486 284.349 58.392 285.608 58.7977 287.023C59.0623 287.946 59.3928 288.75 59.789 289.435C60.2058 290.115 60.665 290.749 61.1666 291.337L58.9833 292.662C58.4435 292.018 57.9388 291.264 57.4691 290.4C56.9789 289.542 56.5692 288.539 56.2399 287.39ZM64.3734 279.998L66.8872 288.765C68.4457 288.318 69.5336 287.584 70.151 286.564C70.7683 285.543 70.88 284.346 70.486 282.972C70.145 281.783 69.4423 280.919 68.3781 280.381C67.3343 279.837 65.9994 279.709 64.3734 279.998ZM60.5336 300.971L74.3442 291.551L75.9683 293.849L64.1386 301.702L76.9344 302.094L77.79 305.078L67.1199 312.099L81.3047 312.459L81.1183 315.175L64.4057 314.475L63.5325 311.43L74.3783 304.325L61.4068 304.016L60.5336 300.971Z" fill="black"/>
<g id="Phone">
<path id="Vector" d="M164.698 122.754L80.1257 147.005C73.1294 149.011 68.9021 155.674 70.6838 161.888L121.314 338.456C123.096 344.669 130.212 348.08 137.208 346.074L221.78 321.823C228.777 319.817 233.004 313.154 231.222 306.94L180.592 130.372C178.81 124.159 171.694 120.748 164.698 122.754Z" fill="#292A2E"/>
<path id="Vector_2" d="M165.666 126.278L81.1728 150.506C76.3686 151.884 73.4659 156.46 74.6894 160.726L125.251 337.056C126.475 341.323 131.361 343.665 136.165 342.287L220.658 318.059C225.462 316.682 228.365 312.106 227.141 307.839L176.58 131.51C175.356 127.243 170.47 124.901 165.666 126.278Z" fill="white"/>
<path id="Vector_3" d="M102.135 142.924L143.869 130.957L144.969 134.792C145.285 135.892 145.095 137.088 144.443 138.117C143.79 139.146 142.728 139.923 141.49 140.279L109.094 149.568C107.855 149.923 106.542 149.827 105.444 149.3C104.345 148.773 103.55 147.859 103.235 146.759L102.135 142.924Z" fill="#292A2E"/>
<g id="Image">
<path id="Vector_4" d="M169.879 164.775L183.766 213.206L113.632 233.316L110.036 230.979L97.0415 185.661L169.879 164.775Z" fill="#D9D9D9" stroke="black"/>
<g id="Group">
<path id="Vector_5" d="M125.581 204.06L141.328 209.266L116.534 216.375L125.581 204.06Z" fill="white" stroke="black"/>
<path id="Vector_6" d="M149.635 192.069L169.722 201.124L132.096 211.913L149.635 192.069Z" fill="white" stroke="black"/>
<path id="Vector_7" d="M135.633 192.949C135.947 194.043 135.21 195.316 133.831 195.711C132.452 196.106 131.153 195.417 130.84 194.323C130.526 193.23 131.262 191.957 132.641 191.561C134.02 191.166 135.319 191.855 135.633 192.949Z" fill="white" stroke="black"/>
</g>
</g>
<rect id="Rectangle 59" x="146.211" y="475.72" width="141" height="34.5249" rx="17.2624" transform="rotate(-16 146.211 475.72)" fill="#D9D9D9" stroke="black"/>
<path id="Line 23" d="M111.779 379.224L264.62 335.398" stroke="black" stroke-width="11" stroke-linecap="round"/>
<line id="Line 24" x1="116.2" y1="405.524" x2="266.157" y2="362.525" stroke="#919191" stroke-width="7"/>
<line id="Line 27" x1="121.713" y1="424.75" x2="247.638" y2="388.641" stroke="#919191" stroke-width="7"/>
<path id="Line 26" d="M157.445 444.152L248.765 417.967" stroke="#5A5A5A" stroke-width="13" stroke-linecap="round"/>
<path id="Vector_8" d="M215.256 480.721L215.256 480.721C215.174 480.745 215.087 480.751 215.001 480.738C214.914 480.726 214.829 480.696 214.75 480.647L214.749 480.647L206.77 475.764L206.77 475.764L206.765 475.761C206.687 475.715 206.617 475.652 206.559 475.576C206.502 475.499 206.459 475.412 206.433 475.318C206.408 475.224 206.4 475.126 206.411 475.032C206.422 474.937 206.451 474.848 206.494 474.768C206.538 474.689 206.595 474.622 206.663 474.569C206.73 474.516 206.806 474.478 206.888 474.458C206.969 474.437 207.054 474.433 207.139 474.446C207.224 474.46 207.308 474.491 207.385 474.539L207.385 474.54L207.389 474.542L214.391 478.826L214.823 479.09L215.082 478.656L225.273 461.555L225.273 461.555L225.275 461.551C225.32 461.473 225.379 461.407 225.448 461.356C225.516 461.305 225.593 461.27 225.675 461.251C225.756 461.232 225.842 461.23 225.926 461.246C226.011 461.261 226.094 461.295 226.171 461.345C226.247 461.395 226.315 461.462 226.369 461.541C226.423 461.62 226.462 461.709 226.484 461.804C226.505 461.899 226.508 461.996 226.494 462.09C226.479 462.183 226.446 462.271 226.4 462.347L226.4 462.347L226.397 462.351L215.622 480.434L215.621 480.435C215.536 480.578 215.405 480.678 215.256 480.721Z" fill="white" stroke="black"/>
</g>
<g id="Phone_2">
<path id="Vector_9" d="M280.466 526.484L195.893 550.735C188.897 552.741 184.67 559.404 186.452 565.618L237.082 742.186C238.863 748.399 245.979 751.81 252.976 749.804L337.548 725.553C344.544 723.547 348.772 716.884 346.99 710.67L296.36 534.102C294.578 527.889 287.462 524.478 280.466 526.484Z" fill="#292A2E"/>
<path id="Vector_10" d="M281.433 530.008L196.94 554.236C192.136 555.614 189.234 560.19 190.457 564.456L241.019 740.786C242.242 745.052 247.129 747.395 251.933 746.017L336.426 721.789C341.23 720.411 344.132 715.836 342.909 711.569L292.347 535.24C291.124 530.973 286.238 528.631 281.433 530.008Z" fill="white"/>
<path id="Vector_11" d="M217.903 546.654L259.637 534.687L260.737 538.522C261.052 539.622 260.863 540.818 260.21 541.847C259.558 542.876 258.496 543.653 257.257 544.009L224.862 553.298C223.623 553.653 222.31 553.557 221.211 553.03C220.112 552.503 219.318 551.589 219.002 550.489L217.903 546.654Z" fill="#292A2E"/>
<g id="Image_2">
<path id="Vector_12" d="M285.647 568.505L299.534 616.936L229.4 637.046L225.804 634.709L212.809 589.391L285.647 568.505Z" fill="#D9D9D9" stroke="black"/>
<g id="Group_2">
<path id="Vector_13" d="M241.349 607.79L257.095 612.996L232.301 620.105L241.349 607.79Z" fill="white" stroke="black"/>
<path id="Vector_14" d="M265.403 595.799L285.49 604.854L247.864 615.643L265.403 595.799Z" fill="white" stroke="black"/>
<path id="Vector_15" d="M251.401 596.679C251.715 597.773 250.978 599.046 249.599 599.441C248.22 599.836 246.921 599.147 246.607 598.053C246.294 596.96 247.03 595.687 248.409 595.291C249.788 594.896 251.087 595.585 251.401 596.679Z" fill="white" stroke="black"/>
</g>
</g>
<rect id="Rectangle 59_2" x="261.979" y="879.45" width="141" height="34.5249" rx="17.2624" transform="rotate(-16 261.979 879.45)" fill="#D9D9D9" stroke="black"/>
<path id="Line 23_2" d="M227.547 782.954L380.388 739.128" stroke="black" stroke-width="11" stroke-linecap="round"/>
<line id="Line 24_2" x1="231.968" y1="809.254" x2="381.925" y2="766.255" stroke="#919191" stroke-width="7"/>
<line id="Line 27_2" x1="237.48" y1="828.48" x2="363.406" y2="792.371" stroke="#919191" stroke-width="7"/>
<path id="Line 26_2" d="M273.213 847.882L364.533 821.697" stroke="#5A5A5A" stroke-width="13" stroke-linecap="round"/>
<path id="Vector_16" d="M331.024 884.451L331.023 884.451C330.942 884.474 330.855 884.481 330.769 884.468C330.682 884.456 330.597 884.426 330.518 884.377L330.517 884.377L322.537 879.494L322.537 879.494L322.533 879.491C322.454 879.445 322.384 879.382 322.327 879.306C322.269 879.229 322.226 879.142 322.201 879.048C322.175 878.954 322.168 878.856 322.179 878.762C322.19 878.667 322.218 878.578 322.262 878.498C322.306 878.419 322.363 878.352 322.431 878.299C322.498 878.246 322.574 878.208 322.655 878.188C322.736 878.167 322.822 878.163 322.906 878.176C322.992 878.19 323.075 878.221 323.152 878.269L323.152 878.269L323.157 878.272L330.159 882.556L330.591 882.82L330.85 882.386L341.04 865.285L341.04 865.285L341.043 865.281C341.088 865.203 341.147 865.137 341.216 865.086C341.284 865.035 341.361 865 341.442 864.981C341.524 864.962 341.609 864.96 341.694 864.976C341.779 864.991 341.862 865.025 341.938 865.075C342.015 865.125 342.082 865.192 342.137 865.271C342.191 865.35 342.23 865.439 342.251 865.534C342.273 865.629 342.276 865.726 342.261 865.819C342.246 865.913 342.214 866.001 342.167 866.077L342.167 866.077L342.165 866.081L331.39 884.164L331.389 884.165C331.304 884.308 331.173 884.408 331.024 884.451Z" fill="white" stroke="black"/>
</g>
<g id="Phone_3">
<path id="Vector_17" d="M380.021 61.0113L295.448 85.2621C288.452 87.2682 284.225 93.9316 286.007 100.145L336.637 276.713C338.418 282.927 345.534 286.338 352.531 284.331L437.103 260.081C444.099 258.074 448.327 251.411 446.545 245.198L395.915 68.6295C394.133 62.4159 387.017 59.0051 380.021 61.0113Z" fill="#292A2E"/>
<path id="Vector_18" d="M380.988 64.5358L296.496 88.7638C291.691 90.1413 288.789 94.7169 290.012 98.9835L340.574 275.313C341.797 279.58 346.684 281.922 351.488 280.544L435.981 256.316C440.785 254.939 443.687 250.363 442.464 246.097L391.902 69.767C390.679 65.5003 385.793 63.1582 380.988 64.5358Z" fill="white"/>
<path id="Vector_19" d="M317.458 81.1814L359.192 69.2142L360.292 73.0496C360.607 74.1494 360.418 75.3452 359.765 76.3741C359.113 77.4029 358.051 78.1805 356.812 78.5359L324.417 87.8252C323.178 88.1803 321.865 88.0839 320.766 87.5573C319.667 87.0306 318.873 86.1167 318.558 85.0167L317.458 81.1814Z" fill="#292A2E"/>
<g id="Image_3">
<path id="Vector_20" d="M385.202 103.032L399.089 151.463L328.955 171.574L325.359 169.236L312.364 123.918L385.202 103.032Z" fill="#D9D9D9" stroke="black"/>
<g id="Group_3">
<path id="Vector_21" d="M340.904 142.317L356.65 147.523L331.856 154.633L340.904 142.317Z" fill="white" stroke="black"/>
<path id="Vector_22" d="M364.958 130.326L385.045 139.382L347.419 150.171L364.958 130.326Z" fill="white" stroke="black"/>
<path id="Vector_23" d="M350.956 131.206C351.27 132.3 350.533 133.573 349.154 133.968C347.775 134.364 346.476 133.675 346.162 132.581C345.849 131.487 346.585 130.214 347.964 129.819C349.343 129.423 350.642 130.112 350.956 131.206Z" fill="white" stroke="black"/>
</g>
</g>
<rect id="Rectangle 59_3" x="361.534" y="413.978" width="141" height="34.5249" rx="17.2624" transform="rotate(-16 361.534 413.978)" fill="#D9D9D9" stroke="black"/>
<path id="Line 23_3" d="M327.102 317.481L479.943 273.655" stroke="black" stroke-width="11" stroke-linecap="round"/>
<line id="Line 24_3" x1="331.523" y1="343.782" x2="481.48" y2="300.782" stroke="#919191" stroke-width="7"/>
<line id="Line 27_3" x1="337.036" y1="363.007" x2="462.961" y2="326.898" stroke="#919191" stroke-width="7"/>
<path id="Line 26_3" d="M372.768 382.409L464.088 356.224" stroke="#5A5A5A" stroke-width="13" stroke-linecap="round"/>
<path id="Vector_24" d="M430.579 418.978L430.578 418.978C430.497 419.002 430.41 419.008 430.324 418.996C430.237 418.983 430.152 418.953 430.073 418.904L430.072 418.904L422.092 414.022L422.092 414.022L422.088 414.019C422.01 413.972 421.939 413.909 421.882 413.833C421.824 413.757 421.781 413.669 421.756 413.575C421.73 413.481 421.723 413.384 421.734 413.289C421.745 413.194 421.773 413.105 421.817 413.026C421.861 412.946 421.918 412.879 421.986 412.826C422.053 412.773 422.129 412.736 422.21 412.715C422.291 412.694 422.377 412.69 422.462 412.703C422.547 412.717 422.63 412.748 422.707 412.797L422.707 412.797L422.712 412.8L429.714 417.084L430.146 417.348L430.405 416.913L440.595 399.812L440.595 399.812L440.598 399.808C440.643 399.73 440.702 399.664 440.771 399.614C440.839 399.563 440.916 399.527 440.998 399.508C441.079 399.489 441.164 399.487 441.249 399.503C441.334 399.519 441.417 399.552 441.493 399.602C441.57 399.653 441.637 399.719 441.692 399.798C441.746 399.877 441.785 399.966 441.807 400.061C441.828 400.156 441.831 400.253 441.816 400.347C441.802 400.44 441.769 400.528 441.723 400.605L441.723 400.605L441.72 400.609L430.945 418.691L430.944 418.692C430.859 418.836 430.728 418.936 430.579 418.978Z" fill="white" stroke="black"/>
</g>
<g id="Phone_4">
<path id="Vector_25" d="M495.789 464.741L411.216 488.992C404.22 490.998 399.993 497.662 401.774 503.875L452.404 680.443C454.186 686.657 461.302 690.068 468.298 688.061L552.871 663.811C559.867 661.804 564.094 655.141 562.313 648.928L511.683 472.359C509.901 466.146 502.785 462.735 495.789 464.741Z" fill="#292A2E"/>
<path id="Vector_26" d="M496.756 468.266L412.263 492.494C407.459 493.871 404.556 498.447 405.78 502.714L456.342 679.043C457.565 683.31 462.451 685.652 467.255 684.274L551.748 660.046C556.552 658.669 559.455 654.093 558.232 649.827L507.67 473.497C506.447 469.23 501.56 466.888 496.756 468.266Z" fill="white"/>
<path id="Vector_27" d="M433.225 484.911L474.96 472.944L476.06 476.78C476.375 477.879 476.186 479.075 475.533 480.104C474.881 481.133 473.818 481.91 472.58 482.266L440.185 491.555C438.946 491.91 437.633 491.814 436.534 491.287C435.435 490.761 434.641 489.847 434.325 488.747L433.225 484.911Z" fill="#292A2E"/>
<g id="Image_4">
<path id="Vector_28" d="M500.97 506.762L514.857 555.193L444.722 575.304L441.127 572.966L428.132 527.648L500.97 506.762Z" fill="#D9D9D9" stroke="black"/>
<g id="Group_4">
<path id="Vector_29" d="M456.671 546.047L472.418 551.253L447.624 558.363L456.671 546.047Z" fill="white" stroke="black"/>
<path id="Vector_30" d="M480.725 534.056L500.813 543.111L463.186 553.901L480.725 534.056Z" fill="white" stroke="black"/>
<path id="Vector_31" d="M466.724 534.936C467.037 536.03 466.301 537.303 464.922 537.698C463.543 538.094 462.244 537.405 461.93 536.311C461.616 535.217 462.353 533.944 463.732 533.549C465.111 533.153 466.41 533.842 466.724 534.936Z" fill="white" stroke="black"/>
</g>
</g>
<rect id="Rectangle 59_4" x="477.302" y="817.708" width="141" height="34.5249" rx="17.2624" transform="rotate(-16 477.302 817.708)" fill="#D9D9D9" stroke="black"/>
<path id="Line 23_4" d="M442.87 721.211L595.71 677.385" stroke="black" stroke-width="11" stroke-linecap="round"/>
<line id="Line 24_4" x1="447.291" y1="747.512" x2="597.247" y2="704.512" stroke="#919191" stroke-width="7"/>
<line id="Line 27_4" x1="452.803" y1="766.737" x2="578.729" y2="730.628" stroke="#919191" stroke-width="7"/>
<path id="Line 26_4" d="M488.536 786.139L579.855 759.954" stroke="#5A5A5A" stroke-width="13" stroke-linecap="round"/>
<path id="Vector_32" d="M546.347 822.708L546.346 822.708C546.264 822.732 546.178 822.738 546.091 822.726C546.005 822.713 545.919 822.683 545.841 822.634L545.84 822.634L537.86 817.752L537.86 817.752L537.855 817.749C537.777 817.702 537.707 817.639 537.65 817.563C537.592 817.487 537.549 817.399 537.524 817.305C537.498 817.211 537.491 817.114 537.502 817.019C537.512 816.924 537.541 816.835 537.585 816.756C537.628 816.676 537.686 816.609 537.753 816.556C537.821 816.503 537.897 816.466 537.978 816.445C538.059 816.424 538.144 816.42 538.229 816.433C538.314 816.447 538.398 816.478 538.475 816.527L538.475 816.527L538.48 816.53L545.482 820.814L545.913 821.078L546.172 820.643L556.363 803.542L556.363 803.542L556.366 803.538C556.411 803.46 556.47 803.394 556.538 803.343C556.607 803.293 556.684 803.257 556.765 803.238C556.847 803.219 556.932 803.217 557.017 803.233C557.102 803.249 557.185 803.282 557.261 803.332C557.337 803.383 557.405 803.449 557.459 803.528C557.513 803.607 557.553 803.696 557.574 803.791C557.596 803.886 557.599 803.983 557.584 804.077C557.569 804.17 557.537 804.258 557.49 804.335L557.49 804.335L557.488 804.339L546.712 822.421L546.712 822.422C546.627 822.566 546.496 822.666 546.347 822.708Z" fill="white" stroke="black"/>
</g>
</g>
</svg>
