<svg width="658" height="917" viewBox="0 0 658 917" fill="none" xmlns="http://www.w3.org/2000/svg">
<g id="ItemView">
<rect id="Rectangle 54" x="2.61845" y="123.343" width="444" height="824" rx="31.5" transform="rotate(-16 2.61845 123.343)" fill="#D9D9D9" stroke="black"/>
<path id="Item View" d="M62.0573 307.915L83.5896 301.741L84.4275 304.663L62.8952 310.838L62.0573 307.915ZM65.6343 321.783C65.1933 320.245 65.3459 318.881 66.092 317.691C66.8645 316.515 68.194 315.656 70.0807 315.115L77.5862 312.963L76.7924 310.195L79.1917 309.507L80.0032 312.337L85.2154 311.475L85.824 313.597L80.7793 315.044L82.0495 319.473L79.6502 320.161L78.38 315.732L70.6592 317.946C69.4698 318.287 68.7098 318.771 68.3793 319.398C68.0546 320.046 67.9923 320.719 68.1922 321.416C68.3392 321.929 68.5594 322.387 68.8528 322.791C69.1521 323.216 69.4704 323.591 69.8077 323.915L67.8135 325.32C67.4498 324.98 67.0552 324.494 66.6297 323.861C66.1837 323.235 65.8519 322.542 65.6343 321.783ZM69.1972 334.208C68.5386 331.911 68.7432 329.878 69.8111 328.107C70.9054 326.35 72.7752 325.093 75.4206 324.334C77.0202 323.876 78.5307 323.764 79.9521 324C81.3999 324.251 82.6386 324.817 83.668 325.698C84.7179 326.573 85.4486 327.728 85.8602 329.164C86.3013 330.702 86.3275 332.07 85.9389 333.269C85.5767 334.483 84.9051 335.508 83.9243 336.344C82.9434 337.18 81.7762 337.792 80.4228 338.18C79.705 338.386 78.999 338.555 78.3046 338.687L75.094 327.491C73.6499 328.104 72.6309 328.963 72.0371 330.065C71.4433 331.167 71.3493 332.426 71.755 333.841C72.0196 334.764 72.3501 335.568 72.7463 336.253C73.1631 336.933 73.6223 337.567 74.1239 338.155L71.9406 339.48C71.4008 338.836 70.8961 338.082 70.4264 337.218C69.9362 336.36 69.5265 335.357 69.1972 334.208ZM77.3307 326.816L79.8445 335.583C81.403 335.136 82.4909 334.402 83.1083 333.382C83.7256 332.361 83.8373 331.164 83.4433 329.79C83.1022 328.601 82.3996 327.737 81.3354 327.199C80.2916 326.655 78.9567 326.527 77.3307 326.816ZM72.5295 344.436L88.5249 339.85L89.2922 342.526L86.6161 343.293C87.642 343.62 88.5685 344.143 89.3955 344.86C90.2431 345.571 90.8286 346.491 91.152 347.618C91.5166 348.89 91.5059 350.014 91.12 350.99C90.74 351.987 90.0844 352.796 89.1532 353.418C90.2788 353.783 91.2932 354.302 92.1964 354.976C93.1054 355.669 93.7452 356.662 94.1156 357.954C94.6155 359.697 94.4322 361.148 93.566 362.306C92.7261 363.479 91.4243 364.318 89.6607 364.824L79.233 367.814L78.4391 365.046L88.6516 362.117C89.7589 361.8 90.5775 361.288 91.1072 360.581C91.6574 359.868 91.8032 359.061 91.5445 358.159C91.2798 357.236 90.6843 356.474 89.7577 355.875C88.8575 355.289 87.8608 354.832 86.7674 354.502L76.2781 357.509L75.4843 354.741L85.6967 351.813C86.8041 351.495 87.6227 350.983 88.1524 350.276C88.7026 349.564 88.8484 348.756 88.5896 347.854C88.3309 346.952 87.7485 346.198 86.8424 345.592C85.9569 344.98 84.9777 344.506 83.9049 344.17L73.3233 347.205L72.5295 344.436ZM84.8943 387.557L103.391 373.698L105.318 376.241L88.5873 388.363L109.116 389.833L108.859 392.77L85.8381 390.849L84.8943 387.557ZM88.8868 401.481L104.882 396.894L105.676 399.663L89.6806 404.25L88.8868 401.481ZM108.017 397.494C107.864 396.961 107.926 396.443 108.204 395.942C108.488 395.461 108.886 395.147 109.399 395C109.994 394.83 110.515 394.869 110.964 395.117C111.413 395.366 111.722 395.788 111.893 396.382C112.045 396.915 111.98 397.423 111.696 397.903C111.439 398.399 111.044 398.723 110.51 398.876C109.936 399.041 109.415 399.001 108.945 398.759C108.497 398.51 108.187 398.088 108.017 397.494ZM92.5574 415.675C91.8988 413.378 92.1035 411.345 93.1714 409.574C94.2657 407.817 96.1355 406.56 98.7809 405.801C100.38 405.343 101.891 405.231 103.312 405.467C104.76 405.718 105.999 406.284 107.028 407.165C108.078 408.04 108.809 409.195 109.221 410.631C109.662 412.169 109.688 413.537 109.299 414.736C108.937 415.95 108.265 416.974 107.285 417.811C106.304 418.647 105.136 419.259 103.783 419.647C103.065 419.853 102.359 420.022 101.665 420.154L98.4542 408.958C97.0102 409.571 95.9912 410.43 95.3974 411.532C94.8036 412.634 94.7095 413.893 95.1153 415.308C95.3799 416.231 95.7103 417.035 96.1066 417.72C96.5233 418.4 96.9825 419.034 97.4842 419.622L95.3009 420.947C94.7611 420.303 94.2563 419.549 93.7867 418.685C93.2965 417.827 92.8867 416.824 92.5574 415.675ZM100.691 408.283L103.205 417.05C104.763 416.603 105.851 415.869 106.469 414.849C107.086 413.828 107.198 412.631 106.804 411.257C106.463 410.068 105.76 409.204 104.696 408.666C103.652 408.122 102.317 407.994 100.691 408.283ZM96.8511 429.256L110.662 419.836L112.286 422.134L100.456 429.987L113.252 430.379L114.108 433.363L103.437 440.384L117.622 440.744L117.436 443.46L100.723 442.76L99.8501 439.715L110.696 432.61L97.7244 432.301L96.8511 429.256Z" fill="black"/>
<g id="Item">
<g id="Phone">
<path id="Vector" d="M321.008 77.2994L135.202 130.578C119.831 134.986 110.544 149.625 114.458 163.276L225.692 551.196C229.607 564.848 245.241 572.341 260.611 567.934L446.417 514.655C461.788 510.247 471.075 495.608 467.161 481.957L355.927 94.0365C352.012 80.3853 336.378 72.8919 321.008 77.2994Z" fill="#292A2E"/>
<path id="Vector_2" d="M323.133 85.0427L137.502 138.271C126.948 141.298 120.57 151.35 123.258 160.724L234.342 548.121C237.03 557.494 247.765 562.64 258.32 559.613L443.951 506.385C454.506 503.358 460.883 493.306 458.195 483.932L347.111 96.5356C344.423 87.1617 333.688 82.0162 323.133 85.0427Z" fill="white"/>
<path id="Vector_3" d="M183.556 121.613L275.247 95.321L277.663 103.747C278.356 106.163 277.94 108.791 276.506 111.051C275.072 113.311 272.739 115.02 270.018 115.801L198.845 136.209C196.124 136.989 193.239 136.778 190.825 135.621C188.411 134.463 186.665 132.456 185.972 130.039L183.556 121.613Z" fill="#292A2E"/>
<g id="Image">
<path id="Vector_4" d="M332.801 168.879L363.641 276.431L208.718 320.855L200.402 315.448L171.626 215.095L332.801 168.879Z" fill="#D9D9D9" stroke="black"/>
<g id="Group">
<path id="Vector_5" d="M234.842 255.223L271.692 267.406L213.67 284.044L234.842 255.223Z" fill="white" stroke="black"/>
<path id="Vector_6" d="M287.757 228.856L333.78 249.603L247.574 274.322L287.757 228.856Z" fill="white" stroke="black"/>
<path id="Vector_7" d="M257.727 231.352C258.525 234.136 256.64 237.22 253.358 238.161C250.077 239.102 246.843 237.486 246.045 234.702C245.247 231.919 247.133 228.834 250.414 227.893C253.695 226.953 256.929 228.569 257.727 231.352Z" fill="white" stroke="black"/>
</g>
</g>
</g>
<rect id="Rectangle 59" x="330.341" y="751.077" width="160" height="44" rx="22" transform="rotate(-16 330.341 751.077)" fill="#D9D9D9" stroke="black"/>
<path id="Line 23" d="M240.652 614.249L486.735 543.686" stroke="black" stroke-width="19" stroke-linecap="round"/>
<line id="Line 24" x1="274.213" y1="638.435" x2="535.677" y2="563.462" stroke="#919191" stroke-width="7"/>
<line id="Line 27" x1="280.553" y1="660.544" x2="516.062" y2="593.013" stroke="#919191" stroke-width="7"/>
<line id="Line 29" x1="286.207" y1="683.89" x2="523.639" y2="615.808" stroke="#919191" stroke-width="7"/>
<path id="Line 26" d="M242.31 744.851L379.77 705.435" stroke="#5A5A5A" stroke-width="20" stroke-linecap="round"/>
<path id="Line 28" d="M463.4 681.455L572.984 650.032" stroke="#A6A6A6" stroke-width="20" stroke-linecap="round"/>
<path id="Vector_8" d="M410.463 761.384L410.462 761.385C410.344 761.419 410.217 761.425 410.088 761.402L409.999 761.894L410.088 761.402C409.957 761.378 409.825 761.324 409.699 761.239L409.699 761.238L399.139 754.05L399.139 754.05L399.134 754.047C399.01 753.965 398.896 753.854 398.801 753.718C398.705 753.583 398.632 753.428 398.587 753.262C398.542 753.097 398.526 752.926 398.539 752.762C398.552 752.598 398.594 752.446 398.659 752.313C398.724 752.181 398.809 752.072 398.908 751.989C399.006 751.906 399.116 751.85 399.233 751.82C399.35 751.79 399.476 751.786 399.603 751.812C399.732 751.838 399.862 751.893 399.985 751.979L399.985 751.979L399.989 751.982L409.255 758.289L409.716 758.603L409.978 758.11L422.641 734.277L422.641 734.277L422.643 734.273C422.711 734.144 422.798 734.038 422.898 733.958L422.588 733.57L422.898 733.958C422.997 733.879 423.109 733.826 423.227 733.799C423.344 733.772 423.47 733.772 423.598 733.801C423.727 733.83 423.856 733.889 423.978 733.978L424.272 733.575L423.978 733.978C424.1 734.067 424.21 734.184 424.301 734.324L424.721 734.053L424.301 734.324C424.391 734.464 424.458 734.622 424.497 734.789C424.536 734.956 424.545 735.126 424.525 735.287C424.506 735.449 424.458 735.598 424.389 735.725L424.387 735.729L410.997 760.93L410.996 760.931C410.87 761.17 410.677 761.323 410.463 761.384Z" fill="white" stroke="black"/>
</g>
</g>
</svg>
