<svg width="658" height="917" viewBox="0 0 658 917" fill="none" xmlns="http://www.w3.org/2000/svg">
<g id="ListView">
<rect id="Rectangle 54" x="2.61857" y="123.652" width="444" height="824" rx="31.5" transform="rotate(-16 2.61857 123.652)" fill="#D9D9D9" stroke="black"/>
<path id="List View" d="M89.9561 406.034L111.488 399.86L112.326 402.782L93.4087 408.206L96.24 418.08L93.6254 418.83L89.9561 406.034ZM94.3729 421.437L110.368 416.85L111.162 419.619L95.1667 424.205L94.3729 421.437ZM113.503 417.45C113.35 416.916 113.412 416.399 113.69 415.898C113.974 415.417 114.372 415.103 114.885 414.956C115.48 414.785 116.001 414.824 116.45 415.073C116.899 415.322 117.208 415.743 117.379 416.338C117.532 416.871 117.466 417.378 117.182 417.859C116.925 418.355 116.53 418.679 115.996 418.832C115.422 418.996 114.901 418.957 114.432 418.715C113.983 418.466 113.673 418.044 113.503 417.45ZM97.4437 433.539C97.0967 432.329 96.936 431.188 96.9613 430.116C96.9925 429.064 97.1631 428.149 97.473 427.372L100.115 427.88C99.8169 428.542 99.6286 429.317 99.5504 430.205C99.4985 431.108 99.6048 432.021 99.8695 432.944C100.199 434.092 100.63 434.9 101.164 435.369C101.724 435.852 102.302 436.008 102.896 435.837C103.327 435.714 103.674 435.492 103.937 435.173C104.207 434.873 104.413 434.393 104.556 433.73C104.719 433.062 104.83 432.132 104.887 430.939C104.971 429.295 105.252 427.993 105.732 427.035C106.238 426.091 107.116 425.439 108.367 425.081C109.598 424.728 110.786 424.964 111.933 425.789C113.106 426.629 113.966 428.003 114.512 429.91C114.807 430.935 114.955 431.88 114.959 432.745C114.983 433.603 114.923 434.397 114.777 435.127L112.28 435.011C112.449 434.363 112.534 433.651 112.533 432.874C112.538 432.118 112.417 431.31 112.17 430.448C111.864 429.382 111.417 428.634 110.827 428.204C110.238 427.773 109.687 427.632 109.174 427.779C108.682 427.92 108.323 428.256 108.098 428.786C107.873 429.317 107.735 430.267 107.683 431.635C107.589 433.859 107.246 435.489 106.655 436.524C106.064 437.559 105.154 438.253 103.923 438.606C102.488 439.017 101.182 438.759 100.006 437.831C98.8564 436.918 98.0023 435.487 97.4437 433.539ZM101.94 449.22C101.499 447.682 101.652 446.318 102.398 445.127C103.17 443.952 104.5 443.093 106.386 442.552L113.892 440.4L113.098 437.632L115.497 436.944L116.309 439.774L121.521 438.912L122.13 441.034L117.085 442.481L118.355 446.91L115.956 447.598L114.686 443.169L106.965 445.382C105.776 445.723 105.016 446.208 104.685 446.835C104.36 447.483 104.298 448.156 104.498 448.853C104.645 449.366 104.865 449.824 105.159 450.228C105.458 450.653 105.776 451.027 106.113 451.352L104.119 452.756C103.756 452.417 103.361 451.931 102.935 451.298C102.489 450.672 102.158 449.979 101.94 449.22ZM108.503 470.716L127 456.857L128.928 459.4L112.196 471.521L132.725 472.992L132.469 475.928L109.447 474.008L108.503 470.716ZM112.496 484.64L128.491 480.053L129.285 482.822L113.29 487.408L112.496 484.64ZM131.626 480.652C131.473 480.119 131.536 479.602 131.814 479.101C132.097 478.62 132.496 478.306 133.008 478.159C133.603 477.988 134.125 478.027 134.573 478.276C135.022 478.525 135.331 478.946 135.502 479.541C135.655 480.074 135.589 480.581 135.305 481.062C135.048 481.558 134.653 481.882 134.12 482.035C133.545 482.199 133.024 482.16 132.555 481.917C132.106 481.669 131.797 481.247 131.626 480.652ZM116.167 498.834C115.508 496.537 115.713 494.503 116.781 492.732C117.875 490.976 119.745 489.719 122.39 488.96C123.99 488.501 125.5 488.39 126.922 488.626C128.369 488.877 129.608 489.443 130.637 490.324C131.687 491.199 132.418 492.354 132.83 493.79C133.271 495.328 133.297 496.696 132.908 497.895C132.546 499.108 131.875 500.133 130.894 500.969C129.913 501.805 128.746 502.418 127.392 502.806C126.674 503.011 125.968 503.181 125.274 503.313L122.063 492.116C120.619 492.73 119.6 493.588 119.007 494.691C118.413 495.793 118.319 497.052 118.724 498.467C118.989 499.39 119.32 500.194 119.716 500.879C120.133 501.558 120.592 502.192 121.093 502.781L118.91 504.106C118.37 503.462 117.866 502.708 117.396 501.844C116.906 500.986 116.496 499.982 116.167 498.834ZM124.3 491.442L126.814 500.208C128.372 499.762 129.46 499.028 130.078 498.008C130.695 496.987 130.807 495.79 130.413 494.416C130.072 493.227 129.369 492.363 128.305 491.825C127.261 491.281 125.926 491.153 124.3 491.442ZM120.46 512.415L134.271 502.995L135.895 505.293L124.065 513.145L136.861 513.538L137.717 516.521L127.047 523.542L141.231 523.903L141.045 526.619L124.332 525.919L123.459 522.873L134.305 515.769L121.334 515.46L120.46 512.415Z" fill="black"/>
<g id="Phone">
<path id="Vector" d="M155.281 118.888L70.7083 143.139C63.712 145.145 59.4848 151.808 61.2665 158.022L111.897 334.59C113.678 340.803 120.794 344.214 127.791 342.208L212.363 317.957C219.359 315.951 223.587 309.288 221.805 303.074L171.175 126.506C169.393 120.292 162.277 116.882 155.281 118.888Z" fill="#292A2E"/>
<path id="Vector_2" d="M156.248 122.412L71.7554 146.64C66.9513 148.018 64.0486 152.593 65.272 156.86L115.834 333.19C117.057 337.456 121.943 339.798 126.748 338.421L211.241 314.193C216.045 312.815 218.947 308.24 217.724 303.973L167.162 127.643C165.939 123.377 161.052 121.035 156.248 122.412Z" fill="white"/>
<path id="Vector_3" d="M92.7177 139.058L134.452 127.09L135.552 130.926C135.867 132.026 135.678 133.221 135.025 134.25C134.373 135.279 133.311 136.057 132.072 136.412L99.6767 145.701C98.4381 146.057 97.125 145.96 96.0262 145.433C94.9274 144.907 94.1328 143.993 93.8174 142.893L92.7177 139.058Z" fill="#292A2E"/>
<g id="Image">
<path id="Vector_4" d="M160.462 160.909L174.349 209.339L104.214 229.45L100.619 227.112L87.6241 181.794L160.462 160.909Z" fill="#D9D9D9" stroke="black"/>
<g id="Group">
<path id="Vector_5" d="M116.163 200.193L131.91 205.399L107.116 212.509L116.163 200.193Z" fill="white" stroke="black"/>
<path id="Vector_6" d="M140.217 188.202L160.305 197.258L122.678 208.047L140.217 188.202Z" fill="white" stroke="black"/>
<path id="Vector_7" d="M126.216 189.082C126.529 190.176 125.793 191.449 124.414 191.845C123.035 192.24 121.736 191.551 121.422 190.457C121.108 189.363 121.845 188.09 123.224 187.695C124.603 187.299 125.902 187.989 126.216 189.082Z" fill="white" stroke="black"/>
</g>
</g>
<rect id="Rectangle 59" x="350.854" y="238.824" width="121" height="34.5249" rx="17.2624" transform="rotate(-16 350.854 238.824)" fill="#D9D9D9" stroke="black"/>
<path id="Line 23" d="M237.414 129.473L402.751 82.0638" stroke="black" stroke-width="11" stroke-linecap="round"/>
<line id="Line 24" x1="216.64" y1="178.909" x2="408.893" y2="123.781" stroke="#919191" stroke-width="7"/>
<line id="Line 27" x1="237.11" y1="237.251" x2="435.13" y2="180.47" stroke="#919191" stroke-width="7"/>
<line id="Line 25" x1="225.377" y1="199.963" x2="403.211" y2="148.97" stroke="#919191" stroke-width="7"/>
<line id="Line 28" x1="231.008" y1="219.599" x2="423.26" y2="164.471" stroke="#919191" stroke-width="7"/>
<path id="Line 26" d="M239.391 288.743L330.711 262.558" stroke="#5A5A5A" stroke-width="13" stroke-linecap="round"/>
<path id="Vector_8" d="M410.615 246.486L410.614 246.487C410.495 246.521 410.371 246.533 410.253 246.523C410.134 246.513 410.024 246.482 409.929 246.434L409.928 246.433L400.86 241.863L400.86 241.863L400.855 241.861C400.761 241.815 400.683 241.754 400.624 241.684C400.566 241.615 400.525 241.536 400.503 241.454C400.481 241.372 400.476 241.283 400.492 241.193C400.509 241.102 400.545 241.009 400.603 240.921C400.662 240.833 400.741 240.751 400.838 240.684C400.934 240.616 401.045 240.565 401.163 240.534C401.281 240.503 401.402 240.493 401.518 240.505C401.635 240.516 401.742 240.548 401.834 240.596L401.834 240.596L401.839 240.599L409.796 244.609L410.179 244.802L410.428 244.452L423.116 226.635L423.116 226.635L423.119 226.632C423.18 226.544 423.261 226.464 423.36 226.398C423.458 226.333 423.57 226.284 423.689 226.255C423.807 226.227 423.928 226.22 424.043 226.234C424.159 226.248 424.264 226.282 424.354 226.332C424.445 226.381 424.518 226.445 424.573 226.516C424.627 226.587 424.664 226.667 424.682 226.75C424.7 226.834 424.7 226.923 424.679 227.014C424.659 227.105 424.617 227.197 424.554 227.284L424.554 227.284L424.552 227.288L411.136 246.127L411.135 246.128C411.019 246.292 410.835 246.423 410.615 246.486Z" fill="white" stroke="black"/>
</g>
<g id="Phone_2">
<path id="Vector_9" d="M228.6 374.583L144.028 398.834C137.032 400.84 132.804 407.504 134.586 413.717L185.216 590.285C186.998 596.499 194.114 599.91 201.11 597.903L285.683 573.653C292.679 571.646 296.906 564.983 295.124 558.77L244.494 382.202C242.713 375.988 235.597 372.577 228.6 374.583Z" fill="#292A2E"/>
<path id="Vector_10" d="M229.568 378.108L145.075 402.336C140.271 403.713 137.368 408.289 138.592 412.556L189.153 588.885C190.377 593.152 195.263 595.494 200.067 594.116L284.56 569.888C289.364 568.511 292.267 563.935 291.043 559.669L240.482 383.339C239.258 379.072 234.372 376.73 229.568 378.108Z" fill="white"/>
<path id="Vector_11" d="M166.037 394.753L207.772 382.786L208.871 386.621C209.187 387.721 208.997 388.917 208.345 389.946C207.692 390.975 206.63 391.752 205.392 392.108L172.996 401.397C171.758 401.752 170.445 401.656 169.346 401.129C168.247 400.602 167.452 399.688 167.137 398.589L166.037 394.753Z" fill="#292A2E"/>
<g id="Image_2">
<path id="Vector_12" d="M233.781 416.604L247.669 465.035L177.534 485.146L173.938 482.808L160.944 437.49L233.781 416.604Z" fill="#D9D9D9" stroke="black"/>
<g id="Group_2">
<path id="Vector_13" d="M189.483 455.889L205.23 461.095L180.436 468.205L189.483 455.889Z" fill="white" stroke="black"/>
<path id="Vector_14" d="M213.537 443.898L233.625 452.953L195.998 463.743L213.537 443.898Z" fill="white" stroke="black"/>
<path id="Vector_15" d="M199.535 444.778C199.849 445.872 199.112 447.145 197.733 447.54C196.354 447.936 195.055 447.246 194.742 446.153C194.428 445.059 195.165 443.786 196.543 443.39C197.922 442.995 199.222 443.684 199.535 444.778Z" fill="white" stroke="black"/>
</g>
</g>
<rect id="Rectangle 59_2" x="424.174" y="494.519" width="121" height="34.5249" rx="17.2624" transform="rotate(-16 424.174 494.519)" fill="#D9D9D9" stroke="black"/>
<path id="Line 23_2" d="M310.734 385.169L476.071 337.759" stroke="black" stroke-width="11" stroke-linecap="round"/>
<line id="Line 24_2" x1="289.96" y1="434.604" x2="482.212" y2="379.477" stroke="#919191" stroke-width="7"/>
<line id="Line 27_2" x1="310.429" y1="492.947" x2="508.449" y2="436.165" stroke="#919191" stroke-width="7"/>
<line id="Line 25_2" x1="298.697" y1="455.659" x2="476.53" y2="404.666" stroke="#919191" stroke-width="7"/>
<line id="Line 28_2" x1="304.327" y1="475.294" x2="496.58" y2="420.167" stroke="#919191" stroke-width="7"/>
<path id="Line 26_2" d="M312.711 544.439L404.031 518.253" stroke="#5A5A5A" stroke-width="13" stroke-linecap="round"/>
<path id="Vector_16" d="M483.934 502.182L483.934 502.182C483.814 502.216 483.691 502.229 483.572 502.219C483.453 502.209 483.344 502.177 483.249 502.129L483.248 502.129L474.18 497.559L474.18 497.559L474.175 497.556C474.081 497.51 474.003 497.449 473.944 497.38C473.885 497.31 473.844 497.232 473.822 497.15C473.8 497.067 473.796 496.979 473.812 496.888C473.828 496.798 473.865 496.705 473.923 496.617C473.982 496.528 474.061 496.447 474.157 496.379C474.254 496.312 474.364 496.26 474.483 496.229C474.601 496.198 474.722 496.189 474.838 496.2C474.954 496.212 475.061 496.244 475.154 496.292L475.154 496.292L475.159 496.294L483.116 500.304L483.499 500.498L483.748 500.148L496.436 482.331L496.436 482.331L496.439 482.327C496.5 482.24 496.581 482.16 496.679 482.094C496.778 482.028 496.89 481.979 497.008 481.951C497.127 481.922 497.248 481.915 497.363 481.929C497.478 481.943 497.584 481.978 497.674 482.027C497.764 482.077 497.838 482.14 497.892 482.212C497.947 482.283 497.983 482.362 498.002 482.446C498.02 482.529 498.019 482.618 497.999 482.709C497.978 482.8 497.937 482.892 497.874 482.979L497.874 482.979L497.871 482.983L484.455 501.823L484.455 501.824C484.339 501.987 484.155 502.119 483.934 502.182Z" fill="white" stroke="black"/>
</g>
<g id="Phone_3">
<path id="Vector_17" d="M303.298 635.085L218.726 659.336C211.729 661.342 207.502 668.006 209.284 674.219L259.914 850.787C261.696 857.001 268.812 860.412 275.808 858.405L360.38 834.155C367.377 832.148 371.604 825.485 369.822 819.271L319.192 642.703C317.41 636.49 310.294 633.079 303.298 635.085Z" fill="#292A2E"/>
<path id="Vector_18" d="M304.266 638.61L219.773 662.838C214.969 664.215 212.066 668.791 213.289 673.058L263.851 849.387C265.074 853.654 269.961 855.996 274.765 854.618L359.258 830.39C364.062 829.013 366.965 824.437 365.741 820.171L315.18 643.841C313.956 639.574 309.07 637.232 304.266 638.61Z" fill="white"/>
<path id="Vector_19" d="M240.735 655.255L282.469 643.288L283.569 647.123C283.885 648.223 283.695 649.419 283.043 650.448C282.39 651.477 281.328 652.254 280.09 652.61L247.694 661.899C246.455 662.254 245.142 662.158 244.044 661.631C242.945 661.104 242.15 660.19 241.835 659.09L240.735 655.255Z" fill="#292A2E"/>
<g id="Image_3">
<path id="Vector_20" d="M308.479 677.106L322.366 725.537L252.232 745.647L248.636 743.31L235.641 697.992L308.479 677.106Z" fill="#D9D9D9" stroke="black"/>
<g id="Group_3">
<path id="Vector_21" d="M264.181 716.391L279.927 721.597L255.133 728.706L264.181 716.391Z" fill="white" stroke="black"/>
<path id="Vector_22" d="M288.235 704.4L308.322 713.455L270.696 724.244L288.235 704.4Z" fill="white" stroke="black"/>
<path id="Vector_23" d="M274.233 705.28C274.547 706.374 273.81 707.647 272.431 708.042C271.052 708.438 269.753 707.748 269.439 706.655C269.126 705.561 269.862 704.288 271.241 703.892C272.62 703.497 273.919 704.186 274.233 705.28Z" fill="white" stroke="black"/>
</g>
</g>
<rect id="Rectangle 59_3" x="498.872" y="755.021" width="121" height="34.5249" rx="17.2624" transform="rotate(-16 498.872 755.021)" fill="#D9D9D9" stroke="black"/>
<path id="Line 23_3" d="M385.431 645.671L550.768 598.261" stroke="black" stroke-width="11" stroke-linecap="round"/>
<line id="Line 24_3" x1="364.658" y1="695.106" x2="556.91" y2="639.979" stroke="#919191" stroke-width="7"/>
<line id="Line 27_3" x1="385.127" y1="753.449" x2="583.147" y2="696.667" stroke="#919191" stroke-width="7"/>
<line id="Line 25_3" x1="373.395" y1="716.161" x2="551.228" y2="665.168" stroke="#919191" stroke-width="7"/>
<line id="Line 28_3" x1="379.025" y1="735.796" x2="571.277" y2="680.669" stroke="#919191" stroke-width="7"/>
<path id="Line 26_3" d="M387.409 804.941L478.728 778.755" stroke="#5A5A5A" stroke-width="13" stroke-linecap="round"/>
<path id="Vector_24" d="M558.632 762.684L558.632 762.684C558.512 762.718 558.389 762.73 558.27 762.721C558.151 762.711 558.041 762.679 557.946 762.631L557.946 762.631L548.877 758.061L548.877 758.061L548.872 758.058C548.778 758.012 548.701 757.951 548.642 757.882C548.583 757.812 548.542 757.734 548.52 757.652C548.498 757.569 548.494 757.481 548.51 757.39C548.526 757.3 548.562 757.207 548.621 757.119C548.679 757.03 548.758 756.949 548.855 756.881C548.951 756.814 549.062 756.762 549.18 756.731C549.298 756.7 549.42 756.691 549.536 756.702C549.652 756.714 549.759 756.746 549.851 756.794L549.851 756.794L549.856 756.796L557.813 760.806L558.197 761L558.446 760.65L571.134 742.833L571.134 742.833L571.136 742.829C571.197 742.741 571.279 742.662 571.377 742.596C571.476 742.53 571.588 742.481 571.706 742.453C571.825 742.424 571.945 742.417 572.061 742.431C572.176 742.445 572.281 742.48 572.372 742.529C572.462 742.579 572.535 742.642 572.59 742.714C572.645 742.785 572.681 742.864 572.699 742.948C572.717 743.031 572.717 743.12 572.697 743.211C572.676 743.302 572.635 743.394 572.572 743.481L572.572 743.481L572.569 743.485L559.153 762.325L559.152 762.326C559.036 762.489 558.853 762.621 558.632 762.684Z" fill="white" stroke="black"/>
</g>
</g>
</svg>
