<svg width="102" height="102" viewBox="0 0 102 102" fill="none" xmlns="http://www.w3.org/2000/svg">
<g id="remote">
<path id="Vector" d="M44.9017 78.7783H57.0978" stroke="black" stroke-linecap="round" stroke-linejoin="round"/>
<path id="Vector_2" d="M74.6574 78.7784H77.8184C80.8731 78.7793 83.8831 78.0821 86.5939 76.7457C89.3047 75.4093 91.6366 73.4731 93.3925 71.1008C95.1483 68.7284 96.2764 65.9897 96.6814 63.1161C97.0864 60.2426 96.7563 57.3188 95.7192 54.5918C94.6821 51.8649 92.9684 49.4151 90.7229 47.4495C88.4775 45.484 85.7664 44.0605 82.8188 43.2994C79.8713 42.5382 76.7739 42.4619 73.7887 43.0769C70.8036 43.6918 68.0183 44.9799 65.6684 46.8323H36.3372C33.9874 44.9821 31.2028 43.696 28.2189 43.0826C25.235 42.4692 22.1393 42.5466 19.1934 43.3081C16.2476 44.0696 13.5382 45.4929 11.2943 47.4578C9.05026 49.4227 7.3376 51.8713 6.30101 54.5969C5.26441 57.3224 4.93435 60.2447 5.3387 63.1168C5.74305 65.9889 6.86994 68.7265 8.62414 71.0981C10.3783 73.4697 12.7083 75.4057 15.4171 76.7425C18.1259 78.0793 21.134 78.7776 24.1872 78.7784H27.3415" stroke="black" stroke-linecap="round" stroke-linejoin="round"/>
<path id="Vector_3" d="M5.22772 61.8938L1.07103 92.0475C0.91638 93.1653 1.01493 94.3016 1.3601 95.3803C1.70527 96.4591 2.2891 97.4555 3.07256 98.303C3.85603 99.1505 4.82108 99.8294 5.90321 100.295C6.98534 100.76 8.15961 101 9.34753 101H10.5527C11.6942 101.001 12.8238 100.779 13.8716 100.349C14.9193 99.9195 15.863 99.29 16.6441 98.5L30.1231 84.8512" stroke="black" stroke-linecap="round" stroke-linejoin="round"/>
<path id="Vector_4" d="M44.9019 78.7785C44.9161 79.8814 44.6995 80.9761 44.2647 81.9989C43.8298 83.0218 43.1853 83.9526 42.3686 84.7372C41.5519 85.5219 40.5791 86.1449 39.5068 86.5702C38.4344 86.9954 37.2838 87.2143 36.1216 87.2143C34.9595 87.2143 33.8088 86.9954 32.7365 86.5702C31.6641 86.1449 30.6914 85.5219 29.8747 84.7372C29.0579 83.9526 28.4135 83.0218 27.9786 81.9989C27.5437 80.9761 27.3271 79.8814 27.3414 78.7785C27.3696 76.5861 28.3072 74.4926 29.9507 72.9518C31.5943 71.4109 33.8114 70.5469 36.1216 70.5469C38.4319 70.5469 40.649 71.4109 42.2926 72.9518C43.9361 74.4926 44.8736 76.5861 44.9019 78.7785Z" stroke="black" stroke-linecap="round" stroke-linejoin="round"/>
<path id="Vector_5" d="M39.6429 78.7786C39.6429 79.665 39.2719 80.515 38.6115 81.1417C37.9512 81.7684 37.0555 82.1205 36.1217 82.1205C35.1878 82.1205 34.2922 81.7684 33.6318 81.1417C32.9714 80.515 32.6005 79.665 32.6005 78.7786C32.6005 77.8923 32.9714 77.0423 33.6318 76.4156C34.2922 75.7889 35.1878 75.4368 36.1217 75.4368C37.0555 75.4368 37.9512 75.7889 38.6115 76.4156C39.2719 77.0423 39.6429 77.8923 39.6429 78.7786Z" stroke="black" stroke-miterlimit="10"/>
<path id="Vector_6" d="M24.187 42.6673C27.9528 42.665 31.6335 43.7296 34.7578 45.7248L32.8072 40.1711C32.4935 39.2796 31.8923 38.5044 31.0886 37.9552C30.2849 37.406 29.3195 37.1107 28.3292 37.1111H17.7281C16.7025 37.1111 15.7049 37.4284 14.8863 38.0148C14.0678 38.6013 13.473 39.425 13.1921 40.3611L10.9609 47.7586C14.5018 44.4901 19.2476 42.6632 24.187 42.6673Z" stroke="black" stroke-linecap="round" stroke-linejoin="round"/>
<path id="Vector_7" d="M96.7723 61.8938L100.929 92.0475C101.084 93.1653 100.985 94.3016 100.64 95.3803C100.295 96.4591 99.7109 97.4555 98.9274 98.303C98.144 99.1505 97.1789 99.8294 96.0968 100.295C95.0147 100.76 93.8404 101 92.6525 101H91.4474C90.3058 101.001 89.1762 100.78 88.1284 100.35C87.0806 99.9196 86.137 99.29 85.3559 98.5L71.877 84.8512" stroke="black" stroke-linecap="round" stroke-linejoin="round"/>
<path id="Vector_8" d="M77.8131 42.6673C74.0474 42.665 70.3666 43.7296 67.2423 45.7248L69.1929 40.1711C69.5066 39.2796 70.1079 38.5044 70.9116 37.9552C71.7152 37.406 72.6806 37.1107 73.6709 37.1111H84.2747C85.3003 37.1111 86.2979 37.4284 87.1164 38.0148C87.935 38.6013 88.5298 39.425 88.8107 40.3611L91.0392 47.7586C87.4984 44.4901 82.7526 42.6632 77.8131 42.6673Z" stroke="black" stroke-linecap="round" stroke-linejoin="round"/>
<path id="Vector_9" d="M42.4628 66.4373H47.3412" stroke="black" stroke-linecap="round" stroke-linejoin="round"/>
<path id="Vector_10" d="M59.5373 66.4373H54.6588" stroke="black" stroke-linecap="round" stroke-linejoin="round"/>
<path id="Vector_11" d="M54.6573 52.5486H47.341C45.9936 52.5486 44.9017 53.5861 44.9017 54.8636V56.0211C44.9017 57.2998 45.9949 58.3361 47.341 58.3361H54.6573C56.0047 58.3361 57.0965 57.2986 57.0965 56.0211V54.8636C57.0965 53.5848 56.0034 52.5486 54.6573 52.5486Z" stroke="black" stroke-linecap="round" stroke-linejoin="round"/>
<path id="Vector_12" d="M30.2679 56.0211H26.6091V52.5486C26.6091 51.9347 26.3521 51.3458 25.8947 50.9117C25.4372 50.4775 24.8168 50.2336 24.1699 50.2336H21.732C21.085 50.2336 20.4646 50.4775 20.0072 50.9117C19.5497 51.3458 19.2927 51.9347 19.2927 52.5486V56.0211H15.6339C14.9878 56.0221 14.3685 56.2665 13.9121 56.7006C13.4558 57.1346 13.1996 57.7229 13.2 58.3361V60.6511C13.1998 60.9551 13.2628 61.2562 13.3853 61.537C13.5078 61.8179 13.6875 62.0731 13.9141 62.288C14.1406 62.5029 14.4096 62.6733 14.7056 62.7894C15.0016 62.9056 15.3189 62.9652 15.6392 62.9649H19.298V66.4373C19.2984 67.0501 19.5548 67.6377 20.0111 68.0713C20.4674 68.5048 21.0863 68.7488 21.732 68.7498H24.1699C24.8168 68.7498 25.4372 68.5059 25.8947 68.0718C26.3521 67.6377 26.6091 67.0488 26.6091 66.4348V62.9649H30.2679C30.9146 62.9649 31.5348 62.7211 31.9922 62.2873C32.4496 61.8534 32.7068 61.2649 32.7071 60.6511V58.3361C32.7071 57.7221 32.4501 57.1333 31.9927 56.6992C31.5353 56.265 30.9148 56.0211 30.2679 56.0211Z" stroke="black" stroke-linecap="round" stroke-linejoin="round"/>
<path id="Vector_13" d="M79.0484 54.8637C80.0187 54.8637 80.9494 54.4978 81.6356 53.8466C82.3217 53.1954 82.7072 52.3122 82.7072 51.3912C82.7072 50.4702 82.3217 49.587 81.6356 48.9358C80.9494 48.2845 80.0187 47.9187 79.0484 47.9187C78.078 47.9187 77.1473 48.2845 76.4612 48.9358C75.775 49.587 75.3895 50.4702 75.3895 51.3912C75.3895 52.3122 75.775 53.1954 76.4612 53.8466C77.1473 54.4978 78.078 54.8637 79.0484 54.8637Z" stroke="black" stroke-miterlimit="10"/>
<path id="Vector_14" d="M79.0484 71.0673C79.5288 71.0673 80.0046 70.9775 80.4485 70.803C80.8924 70.6285 81.2958 70.3727 81.6356 70.0502C81.9753 69.7278 82.2448 69.345 82.4287 68.9237C82.6126 68.5024 82.7072 68.0508 82.7072 67.5948C82.7072 67.1388 82.6126 66.6872 82.4287 66.2659C82.2448 65.8446 81.9753 65.4618 81.6356 65.1394C81.2958 64.8169 80.8924 64.5611 80.4485 64.3866C80.0046 64.2121 79.5288 64.1223 79.0484 64.1223C78.078 64.1223 77.1473 64.4882 76.4612 65.1394C75.775 65.7906 75.3895 66.6738 75.3895 67.5948C75.3895 68.5158 75.775 69.399 76.4612 70.0502C77.1473 70.7014 78.078 71.0673 79.0484 71.0673Z" stroke="black" stroke-miterlimit="10"/>
<path id="Vector_15" d="M87.5856 62.9662C88.556 62.9662 89.4866 62.6004 90.1728 61.9492C90.8589 61.2979 91.2444 60.4147 91.2444 59.4937C91.2444 58.5728 90.8589 57.6895 90.1728 57.0383C89.4866 56.3871 88.556 56.0212 87.5856 56.0212C86.6152 56.0212 85.6846 56.3871 84.9984 57.0383C84.3122 57.6895 83.9268 58.5728 83.9268 59.4937C83.9268 60.4147 84.3122 61.2979 84.9984 61.9492C85.6846 62.6004 86.6152 62.9662 87.5856 62.9662Z" stroke="black" stroke-miterlimit="10"/>
<path id="Vector_16" d="M70.5125 62.9662C71.4829 62.9662 72.4135 62.6004 73.0997 61.9492C73.7858 61.2979 74.1713 60.4147 74.1713 59.4937C74.1713 58.5728 73.7858 57.6895 73.0997 57.0383C72.4135 56.3871 71.4829 56.0212 70.5125 56.0212C69.5421 56.0212 68.6115 56.3871 67.9253 57.0383C67.2391 57.6895 66.8536 58.5728 66.8536 59.4937C66.8536 60.4147 67.2391 61.2979 67.9253 61.9492C68.6115 62.6004 69.5421 62.9662 70.5125 62.9662Z" stroke="black" stroke-miterlimit="10"/>
<path id="Vector_17" d="M51.0002 46.8324V42.6674C51.0002 41.5623 50.5377 40.5025 49.7145 39.721C48.8913 38.9395 47.7748 38.5002 46.6104 38.4999C45.4461 38.4999 44.3296 38.061 43.5063 37.2796C42.6831 36.4983 42.2206 35.4386 42.2206 34.3337C42.2206 33.2287 42.6831 32.169 43.5063 31.3877C44.3296 30.6064 45.4461 30.1674 46.6104 30.1674H55.39C56.5413 30.1485 57.6386 29.7012 58.4457 28.9218C59.2528 28.1424 59.7051 27.0933 59.7051 26.0006C59.7051 24.9078 59.2528 23.8587 58.4457 23.0793C57.6386 22.2999 56.5413 21.8526 55.39 21.8337C54.2256 21.8334 53.1091 21.3941 52.2859 20.6126C51.4626 19.8311 51.0002 18.7713 51.0002 17.6662V1" stroke="black" stroke-linecap="round" stroke-linejoin="round"/>
<path id="Vector_18" d="M74.6572 78.7788C74.6572 80.989 73.7321 83.1088 72.0853 84.6716C70.4386 86.2345 68.2051 87.1125 65.8763 87.1125C63.5474 87.1125 61.314 86.2345 59.6672 84.6716C58.0205 83.1088 57.0953 80.989 57.0953 78.7788C57.0953 76.5686 58.0205 74.4488 59.6672 72.886C61.314 71.3231 63.5474 70.4451 65.8763 70.4451C68.2051 70.4451 70.4386 71.3231 72.0853 72.886C73.7321 74.4488 74.6572 76.5686 74.6572 78.7788Z" stroke="black" stroke-linecap="round" stroke-linejoin="round"/>
<path id="Vector_19" d="M69.3981 78.7785C69.3981 79.2173 69.3071 79.6517 69.1301 80.0571C68.9532 80.4625 68.6939 80.8308 68.367 81.1411C68.0401 81.4514 67.652 81.6975 67.2248 81.8654C66.7977 82.0333 66.3399 82.1197 65.8776 82.1197C65.4153 82.1197 64.9575 82.0333 64.5303 81.8654C64.1032 81.6975 63.7151 81.4514 63.3882 81.1411C63.0613 80.8308 62.802 80.4625 62.625 80.0571C62.4481 79.6517 62.3571 79.2173 62.3571 78.7785C62.3571 77.8923 62.728 77.0425 63.3882 76.4159C64.0484 75.7893 64.9439 75.4373 65.8776 75.4373C66.8113 75.4373 67.7068 75.7893 68.367 76.4159C69.0272 77.0425 69.3981 77.8923 69.3981 78.7785Z" stroke="black" stroke-miterlimit="10"/>
</g>
</svg>
